<svg data-name="Layer 1" xmlns="http://www.w3.org/2000/svg" width="253.99" height="254"><path d="M247.12 0h-27.81a73.18 73.18 0 0 1 9.36 7.1c14.6 13.36 22.71 32 25.31 53.72v-54A6.87 6.87 0 0 0 247.12 0m0 254a6.85 6.85 0 0 0 6.86-6.84V94.27c-4.86 46.92-28.22 103.35-66.77 159.73zM6.86 0A6.84 6.84 0 0 0-.01 6.85V60C35.21 32.73 70.67 12.3 103.72 0zm82 203.38l-25.87 25.85a9.65 9.65 0 0 1-13.54 0l-25.83-25.85a9.55 9.55 0 0 1 0-13.54L49.46 164a9.61 9.61 0 0 1 13.53 0l25.82 25.86a9.57 9.57 0 0 1 0 13.54m131.42-102c-.06-26.14-7.56-46.81-22.45-60.43-12.79-11.73-30.07-17.46-51.46-17.52C106.76 23.48 54.83 44.59 4.08 83l-4.09 3.13v161A6.83 6.83 0 0 0 6.86 254h155.76c37.36-54.6 57.69-109.94 57.62-152.27z" fill="#df1b26"/></svg>