<svg data-name="Layer 1" xmlns="http://www.w3.org/2000/svg" width="254.44" height="254.44"><path d="M222.57 42.65l-11.93-11.79a15.22 15.22 0 0 0-21.52.13l-38.65 39.12-.33-55A15.21 15.21 0 0 0 134.84 0l-16.77.1a15.21 15.21 0 0 0-15.12 15.3l.33 55-39.12-38.65a15.21 15.21 0 0 0-21.51.12L30.86 43.8a15.22 15.22 0 0 0 .13 21.52l39.12 38.65-55 .33A15.21 15.21 0 0 0 0 119.6l.1 16.77a15.21 15.21 0 0 0 15.3 15.12l55-.33-38.65 39.12a15.21 15.21 0 0 0 .12 21.51l11.93 11.79a15.22 15.22 0 0 0 21.52-.13l38.65-39.12.33 55a15.21 15.21 0 0 0 15.3 15.12l16.77-.1a15.21 15.21 0 0 0 15.12-15.31l-.33-55 39.12 38.64a15.21 15.21 0 0 0 21.51-.12l11.79-11.93a15.22 15.22 0 0 0-.13-21.52l-39.12-38.65 55-.33a15.21 15.21 0 0 0 15.12-15.3l-.1-16.77a15.21 15.21 0 0 0-15.31-15.12l-55 .33 38.65-39.12a15.22 15.22 0 0 0-.12-21.5z" fill="#d4145a"/></svg>