<svg data-name="Layer 1" xmlns="http://www.w3.org/2000/svg" width="200.63" height="256"><path d="M197.42 164.07l-7 .12-2.37-31a3.17 3.17 0 0 0-4.14-2.77l-22.79 7.46c-.65-23.1-5.07-44.33-12.1-61.68l1.36-1 18.85-13.4 11.15 27.87a3.13 3.13 0 0 0 3.94 1.82l9.48-3.16a3.162 3.162 0 1 0-2-6l-6.66 2.21-11.53-28.83a3.18 3.18 0 0 0-2-1.85 3.11 3.11 0 0 0-2.72.46l-19.42 13.83-3 2.16c-6.33-13.59-14.36-24.31-23.48-31l21.9-34.45a3.161 3.161 0 1 0-5.33-3.4l-21.94 34.48a34.72 34.72 0 0 0-16.48-4.33 35.17 35.17 0 0 0-17.78 5 3.33 3.33 0 0 0-.16-.4L61.08 1.46a3.161 3.161 0 1 0-5.33 3.4l22.12 34.76a2.57 2.57 0 0 0 .39.47C69.38 47 61.59 57.72 55.44 71.2l-5.64-4.07-18-12.84a3.1 3.1 0 0 0-2.72-.46 3.18 3.18 0 0 0-2 1.85L15.5 84.55l-6.66-2.21a3.162 3.162 0 1 0-2 6l9.48 3.15a3.13 3.13 0 0 0 3.93-1.82L31.41 61.8l15.23 10.88 2.49 1.75 1.14.81 2.68 1.9c-6.88 17.32-11.22 38.36-11.8 61.28l-24.42-8a3.17 3.17 0 0 0-4.14 2.77l-2.37 31-7-.12h-.06a3.16 3.16 0 0 0-.05 6.32l10 .18h.06a3.16 3.16 0 0 0 3.15-2.92l2.29-29.93 22 7.2a2.84 2.84 0 0 0 .5.06c.12 22.27 3.77 43 9.9 60.35l-6.35 1L21.54 210a3.16 3.16 0 0 0-2.42 4.34l12 28.64-6.3 3.09a3.16 3.16 0 0 0 1.39 6 3.11 3.11 0 0 0 1.39-.32l9-4.41a3.16 3.16 0 0 0 1.52-4.06l-11.61-27.65 17.69-2.82 3.83-.61 1.35-.22 3.93-.63c11 27 28.29 44.64 47.82 44.64s36.81-17.46 47.78-44.41l2.26.37h.08l2.14.34 1.85.31 18.88 3-11.61 27.7a3.16 3.16 0 0 0 1.52 4.06l9 4.41a3.11 3.11 0 0 0 1.39.32 3.16 3.16 0 0 0 1.39-6l-6.3-3.09 12-28.64a3.16 3.16 0 0 0-2.42-4.34l-22.57-3.59-3.94-.61-.35-.05-1-.16c6.22-17.54 9.88-38.51 10-61.05l20.86-6.82 2.23 29.91a3.16 3.16 0 0 0 3.15 2.92h.06l10-.18a3.16 3.16 0 0 0-.11-6.32z" fill="#c7b299"/></svg>