<svg data-name="Layer 1" xmlns="http://www.w3.org/2000/svg" width="255.93" height="237.93"><path d="M228.96 203.21a3.37 3.37 0 0 0-1.2-.85l-30.14-12.88a88.8 88.8 0 0 0 20.6-56.92v-.95h34.37a3.41 3.41 0 0 0 0-6.81h-34.75a88.6 88.6 0 0 0-17.47-45.62l27.36-11.69a3.53 3.53 0 0 0 1.2-.86l26.12-29a3.424 3.424 0 0 0-5.09-4.58l-25.6 28.46-28.49 12.18a89.31 89.31 0 0 0-35.64-24.55 35.35 35.35 0 1 0-64.58 1 89.49 89.49 0 0 0-33.85 24.3L31.56 61.51 5.96 33.05a3.417 3.417 0 0 0-5.09 4.56l26.09 29.02a3.44 3.44 0 0 0 1.2.86l29.23 12.47a88.44 88.44 0 0 0-16.9 44.83H3.4a3.41 3.41 0 0 0 0 6.81h36.76v.95a88.82 88.82 0 0 0 20 56.25 3.48 3.48 0 0 0-.56.12l-31.41 13.44a3.29 3.29 0 0 0-1.2.85l-26.12 29a3.427 3.427 0 0 0 5.09 4.59l25.6-28.47 30.73-13.14a3.35 3.35 0 0 0 1.83-1.9 88.59 88.59 0 0 0 49.1 26.85 3.41 3.41 0 0 0 3.94-2.61l10.25-46.12 8.66 46.76a3.4 3.4 0 0 0 3.34 2.79 2.73 2.73 0 0 0 .41 0 88.59 88.59 0 0 0 53.14-26.26 3 3 0 0 0 .72.49l30.73 13.14 25.55 28.47a3.41 3.41 0 0 0 2.54 1.12 3.35 3.35 0 0 0 2.27-.87 3.4 3.4 0 0 0 .26-4.81z" fill="#c9c655"/></svg>