<svg data-name="Layer 1" xmlns="http://www.w3.org/2000/svg" width="202.61" height="254.02"><g fill="#c1272d"><path d="M124.16 18.61c-16.44 16.45-18.61 40.95-18.61 40.95s24.5-2.17 40.95-18.61S165.11.01 165.11.01s-24.5 2.16-40.95 18.6zM131.89 70.52a70.29 70.29 0 0 0-30.58 7 70.29 70.29 0 0 0-30.58-7c-1.08 0-2.14.09-3.21.15A51.82 51.82 0 0 1 .19 137.01c-.1 1.4-.19 2.81-.19 4.23 0 1.82.14 3.6.27 5.39v.14c1.11 14.24 32.23 107.24 80.79 107.24a46.48 46.48 0 0 0 20.25-4.65 46.48 46.48 0 0 0 20.25 4.65c52.39 0 81.06-95.07 81.06-112.78a70.73 70.73 0 0 0-70.73-70.71z"/></g></svg>