<svg data-name="Layer 1" xmlns="http://www.w3.org/2000/svg" width="246" height="254.73"><path d="M216.48 166.61a36.1 36.1 0 0 0 4.92-18.17 36.5 36.5 0 0 0-19.91-32.41 29.37 29.37 0 0 0 2-10.66 29.91 29.91 0 0 0-29.82-29.82h-9.9c.12-1 .21-30.37-21-51.63S108.57 0 108.57 0s12.91 27-2.27 33c-36.45 9.14-27.25 41.55-27.12 42.55h-6.87a29.91 29.91 0 0 0-29.82 29.82 29.37 29.37 0 0 0 2 10.66 36.5 36.5 0 0 0-19.89 32.41 36.1 36.1 0 0 0 4.92 18.17 45.52 45.52 0 0 0 16 88.13h154.92a45.52 45.52 0 0 0 16-88.13z" fill="#8c6239"/></svg>