<svg data-name="Layer 1" xmlns="http://www.w3.org/2000/svg" width="253" height="253"><circle cx="126.5" cy="126.5" r="126.5" fill="#fcee21"/><path d="M60.44 170.78a80 80 0 0 0 132.12 0" fill="#fcee21"/><path d="M126.5 211.18a85.46 85.46 0 0 1-70.59-37.3l9.07-6.21a74.46 74.46 0 0 0 123 0l9.08 6.21a85.5 85.5 0 0 1-70.56 37.3z"/><path d="M126.5 209.5a83.83 83.83 0 0 1-69.22-36.56 3.835 3.835 0 1 1 6.33-4.33 76.13 76.13 0 0 0 125.78 0 3.835 3.835 0 0 1 6.33 4.33 83.83 83.83 0 0 1-69.22 36.56z"/><path d="M126.5 215.01a89.35 89.35 0 0 1-73.76-39 9.33 9.33 0 0 1 15.41-10.51 70.63 70.63 0 0 0 116.7 0 9.34 9.34 0 0 1 15.42 10.53 89.38 89.38 0 0 1-73.77 38.98z"/><circle cx="84.94" cy="99.83" r="22.83"/><circle cx="169.36" cy="99.83" r="22.83"/></svg>