<svg version="1.1" id="Layer_1" xmlns="http://www.w3.org/2000/svg" x="0" y="0" viewBox="0 0 300 300" xml:space="preserve"><style>.st3{fill:#fff}</style><path d="M189.9 151.1h-2.7l-2.9-9.1c0-.4-.2-.7-.5-.9s-.7-.3-1.1-.1l-8.9 6.9c-.3-9-2-17.3-4.7-24.1l7.9-5.6 4.4 10.9c.2.5.7.8 1.1.8.1 0 .3 0 .4-.1l3.7-1.2c.6-.2 1-.9.8-1.6-.2-.6-.9-1-1.6-.8l-2.6.9-4.5-11.3c-.1-.4-.4-.6-.8-.7-.4-.1-.8 0-1.1.2l-8.7 6.2c-2.5-5.3-5.6-9.5-9.2-12.1l3.6-13.5c.4-.6.2-1.3-.4-1.7-.6-.4-1.3-.2-1.7.4l-3.6 13.5c-2-1.1-4.2-1.7-6.4-1.7-2.4 0-4.7.7-6.9 2 0-.1 0-.1-.1-.2l-11.6-11.6c-.4-.6-1.1-.7-1.7-.4-.6.4-.7 1.1-.4 1.7l11.6 11.6c0 .1.1.1.2.2-3.5 2.7-6.5 6.9-8.9 12.1l-9.2-10.6c-.3-.2-.7-.3-1.1-.2-.4.1-.7.4-.8.7L115 120l-2.6-.9c-.6-.2-1.3.1-1.6.8-.2.6.1 1.3.8 1.6l3.7 1.2c.1 0 .3.1.4.1.5 0 1-.3 1.1-.8l6.4-7.9 8.4 10c-2.7 6.8-4.4 15-4.6 23.9l-9.5.9c-.4-.1-.8-.1-1.1.1-.3.2-.5.6-.5.9L113 159h-2.7c-.7 0-1.2.5-1.2 1.2s.5 1.2 1.2 1.3l3.9.1c.6 0 1.2-.5 1.2-1.1l2.9-8.7 8.6-1.2h.2c0 8.7 1.5 16.8 3.9 23.6l-11.5 6.8c-.4.1-.7.3-.9.6-.2.3-.2.7-.1 1.1l2.7 8.2-2.5 1.2c-.6.3-.9 1-.6 1.7.2.4.7.7 1.1.7.2 0 .4 0 .5-.1l3.5-1.7c.6-.3.8-1 .6-1.6l-2.5-7.8 10.5-6.7c4.3 10.6 11 17.4 18.7 17.4 7.6 0 14.4-6.8 18.7-17.3l10.8-1.4-1.5 7.8c-.3.6 0 1.3.6 1.6l3.5 1.7c.2.1.4.1.5.1.5 0 .9-.3 1.1-.7.3-.6 0-1.4-.6-1.7l-2.5-1.2 1.7-8.2c.1-.3.1-.7-.1-1.1-.2-.3-.5-.6-.9-.6l-11.9 1.3c2.4-6.8 3.9-15 3.9-23.8l8.1-6.7 2.9 8.7c0 .6.6 1.1 1.2 1.1l3.9-.1c.7 0 1.2-.6 1.2-1.3.1-.6-.5-1.1-1.2-1.1z" fill="#c7b299"/><path d="M150.3 106.4c-2.4 0-4.7.7-6.9 2 0-.1 0-.1-.1-.2l-11.6-11.6c-.4-.6-1.1-.7-1.7-.4-.6.4-.7 1.1-.4 1.7l11.6 11.6c0 .1.1.1.2.2-3.5 2.7-6.5 6.9-8.9 12.1l-9.2-10.6c-.3-.2-.7-.3-1.1-.2-.4.1-.7.4-.8.7l-6.5 8.3-2.6-.9c-.6-.2-1.3.1-1.6.8-.2.6.1 1.3.8 1.6l3.7 1.2c.1 0 .3.1.4.1.5 0 1-.3 1.1-.8l6.4-7.9 8.4 10c-2.7 6.8-4.4 15-4.6 23.9l-9.5.9c-.4-.1-.8-.1-1.1.1-.3.2-.5.6-.5.9l-2.9 9.1h-2.7c-.7 0-1.2.5-1.2 1.2s.5 1.2 1.2 1.3l3.9.1c.6 0 1.2-.5 1.2-1.1l2.9-8.7 8.6-1.2h.2c0 8.7 1.5 16.8 3.9 23.6l-11.5 6.8c-.4.1-.7.3-.9.6-.2.3-.2.7-.1 1.1l2.7 8.2-2.5 1.2c-.6.3-.9 1-.6 1.7.2.4.7.7 1.1.7.2 0 .4 0 .5-.1l3.5-1.7c.6-.3.8-1 .6-1.6l-2.5-7.8 10.5-6.7c4.3 10.6 11 17.4 18.7 17.4-18.1-27.3-20.1-56.3-.1-87.6z" fill="#938574"/><ellipse transform="rotate(-37.599 158.615 118.685)" cx="158.6" cy="118.7" rx="4" ry="8.7" fill="#e2d6c7"/><g><ellipse transform="rotate(-57.023 157.583 110.205)" cx="157.6" cy="110.2" rx=".9" ry="2.6"/><ellipse transform="rotate(-56.982 158.75 111.065)" class="st3" cx="158.7" cy="111.1" rx=".5" ry=".8"/></g><g><ellipse transform="rotate(-32.976 143.59 110.208)" cx="143.6" cy="110.2" rx="2.6" ry=".9"/><ellipse transform="rotate(-33.018 142.417 111.062)" class="st3" cx="142.4" cy="111.1" rx=".8" ry=".5"/></g></svg>