<svg version="1.1" id="Layer_1" xmlns="http://www.w3.org/2000/svg" x="0" y="0" viewBox="0 0 300 300" xml:space="preserve"><style>.st3{fill:#fff}</style><path d="M190.9 161.1h-2.7l-3.9-10.1c0-.4-.2-.7-.5-.9s-.7-.3-1.1-.1l-8.9-2.1c-.3-9-2-17.3-4.7-24.1l7.9-10.6 5.4 5.9c.2.5.7.8 1.1.8.1 0 .3 0 .4-.1l3.7-1.2c.6-.2 1-.9.8-1.6-.2-.6-.9-1-1.6-.8l-2.6.9-5.5-6.3c-.1-.4-.4-.6-.8-.7-.4-.1-.8 0-1.1.2l-8.7 11.2c-2.5-5.3-5.6-9.5-9.2-12.1l10.6-11.5c.4-.6.2-1.3-.4-1.7-.6-.4-1.3-.2-1.7.4L156.8 108c-2-1.1-4.2-1.7-6.4-1.7-2.4 0-4.7.7-6.9 2 0-.1 0-.1-.1-.2l-5.6-12.6c-.4-.6-1.1-.7-1.7-.4-.6.4-.7 1.1-.4 1.7l5.6 12.6c0 .1.1.1.2.2-3.5 2.7-6.5 6.9-8.9 12.1l-9.2-6.6c-.3-.2-.7-.3-1.1-.2-.4.1-.7.4-.8.7l-4.5 11.3-2.6-.9c-.6-.2-1.3.1-1.6.8-.2.6.1 1.3.8 1.6l3.7 1.2c.1 0 .3.1.4.1.5 0 1-.3 1.1-.8l4.4-10.9 8.4 6c-2.7 6.8-4.4 15-4.6 23.9l-9.5-7.1c-.4-.1-.8-.1-1.1.1-.3.2-.5.6-.5.9l-1.9 8.1h-2.7c-.7 0-1.2.5-1.2 1.2s.5 1.2 1.2 1.3l3.9.1c.6 0 1.2-.5 1.2-1.1l1.9-7.7 8.6 6.8h.2c0 8.7 1.5 16.8 3.9 23.6l-11.5-3.2c-.4.1-.7.3-.9.6-.2.3-.2.7-.1 1.1l-.3 10.2-2.5 1.2c-.6.3-.9 1-.6 1.7.2.4.7.7 1.1.7.2 0 .4 0 .5-.1l3.5-1.7c.6-.3.8-1 .6-1.6l.5-9.8 10.5 3.3c4.3 10.6 11 17.4 18.7 17.4 7.6 0 14.4-6.8 18.7-17.3l9.8 1.6-4.5 10.8c-.3.6 0 1.3.6 1.6l3.5 1.7c.2.1.4.1.5.1.5 0 .9-.3 1.1-.7.3-.6 0-1.4-.6-1.7l-2.5-1.2 4.7-11.2c.1-.3.1-.7-.1-1.1-.2-.3-.5-.6-.9-.6l-10.9-1.7c2.4-6.8 3.9-15 3.9-23.8l8.1 2.3 3.9 9.7c0 .6.6 1.1 1.2 1.1l3.9-.1c.7 0 1.2-.6 1.2-1.3.1-.5-.5-1-1.2-1z" fill="#c7b299"/><path d="M150.3 106.4c-2.4 0-4.7.7-6.9 2 0-.1 0-.1-.1-.2l-5.6-12.6c-.4-.6-1.1-.7-1.7-.4-.6.4-.7 1.1-.4 1.7l5.6 12.6c0 .1.1.1.2.2-3.5 2.7-6.5 6.9-8.9 12.1l-9.2-6.6c-.3-.2-.7-.3-1.1-.2-.4.1-.7.4-.8.7l-4.5 11.3-2.6-.9c-.6-.2-1.3.1-1.6.8-.2.6.1 1.3.8 1.6l3.7 1.2c.1 0 .3.1.4.1.5 0 1-.3 1.1-.8l4.4-10.9 8.4 6c-2.7 6.8-4.4 15-4.6 23.9l-9.5-7.1c-.4-.1-.8-.1-1.1.1-.3.2-.5.6-.5.9l-1.9 8.1h-2.7c-.7 0-1.2.5-1.2 1.2s.5 1.2 1.2 1.3l3.9.1c.6 0 1.2-.5 1.2-1.1l1.9-7.7 8.6 6.8h.2c0 8.7 1.5 16.8 3.9 23.6l-11.5-3.2c-.4.1-.7.3-.9.6-.2.3-.2.7-.1 1.1l-.3 10.2-2.5 1.2c-.6.3-.9 1-.6 1.7.2.4.7.7 1.1.7.2 0 .4 0 .5-.1l3.5-1.7c.6-.3.8-1 .6-1.6l.5-9.8 10.5 3.3c4.3 10.6 11 17.4 18.7 17.4-18.1-27.3-20.1-56.3-.1-87.6z" fill="#938574"/><ellipse transform="rotate(-37.599 158.615 118.685)" cx="158.6" cy="118.7" rx="4" ry="8.7" fill="#e2d6c7"/><g><ellipse transform="rotate(-57.023 157.497 110.165)" cx="157.5" cy="110.2" rx=".9" ry="2.6"/><ellipse transform="rotate(-56.982 158.663 111.025)" class="st3" cx="158.7" cy="111" rx=".5" ry=".8"/></g><g><ellipse transform="rotate(-32.976 143.503 110.169)" cx="143.5" cy="110.2" rx="2.6" ry=".9"/><ellipse transform="rotate(-33.018 142.33 111.022)" class="st3" cx="142.3" cy="111" rx=".8" ry=".5"/></g></svg>