<svg version="1.1" id="Layer_1" xmlns="http://www.w3.org/2000/svg" x="0" y="0" viewBox="0 0 300 300" xml:space="preserve"><style>.st3{fill:#fff}</style><path d="M176.2 160.8l19-8c.7 0 1.2-.6 1.2-1.2 0-.7-.6-1.2-1.2-1.2l-19 8v-17.8c2.8-.4 10.1-2.1 14.7-8.5 5.5-7.7-3.5-19.4-3.5-19.9 0-.7-.6-1.2-1.2-1.2-.7 0-1.2.6-1.2 1.2 0 .1 8.9 11.4 3.9 18.4-3.8 5.3-10 6.9-12.7 7.4v-1.4c0-6.5-5.3-11.9-11.9-11.9h-.9v-.7c0-2.8-1-5.4-2.6-7.4l1.4-7.6c.5-.5.5-1.3 0-1.7-.5-.5-1.3-.5-1.7 0l-1.4 7.5c-2.1-1.7-4.7-2.7-7.5-2.7h-3.2c-3.1 0-5.9 1.2-8 3.1l-7.7-3.8c-.4-.5-1.2-.6-1.7-.2s-.6 1.2-.2 1.7l8 4.2c-1.4 1.9-2.2 4.3-2.2 6.9v.9c-6.5.1-11.7 5.4-11.7 11.9v1.5c-1.8-.2-9.3-1.5-13.6-7.6-5-7-5.1-18.3-5.1-18.4 0-.7-.6-1.2-1.2-1.2-.7 0-1.2.6-1.2 1.2 0 .5.1 12.2 5.5 19.9 5.2 7.3 14.1 8.5 15.6 8.6v17.6l-19.9 9c-.7 0-1.2.6-1.2 1.2 0 .7.6 1.2 1.2 1.2l19.9-9v4.6c0 4.1 1.1 8 3.1 11.3-1.9.9-8.1 4-13.2 9.1-5.9 5.9-1.7 15.9-1.9 16.3-.3.6 0 1.4.6 1.6.2.1.4.1.5.1.5 0 .9-.3 1.1-.7 0-.1-4.2-10 1.4-15.6 5.2-5.2 11.8-8.2 12.9-8.7 4.1 5.5 10.7 9.1 18 9.1h6.4c7.2 0 13.7-3.5 17.8-8.8 2.1 1 7.7 3.9 12.2 8.4 5.6 5.6 10.3 15.5 10.4 15.6.2.4.7.7 1.1.7.2 0 .4 0 .5-.1.6-.3.9-1 .6-1.6-.2-.4-4.9-10.4-10.9-16.3-4.6-4.6-10.1-7.5-12.5-8.7 2.1-3.4 3.3-7.4 3.3-11.7v-4.6h-.1z" fill="#a67c52"/><ellipse transform="rotate(-37.599 168.074 133.888)" cx="168.1" cy="133.9" rx="4" ry="8.7" fill="#ddc6b1"/><path d="M148.3 112.1c-3.1 0-5.9 1.2-8 3.1l-7.7-3.8c-.4-.5-1.2-.6-1.7-.2s-.6 1.2-.2 1.7l8 4.2c-1.4 1.9-2.2 4.3-2.2 6.9v.9c-6.5.1-11.7 5.4-11.7 11.9v1.5c-1.8-.2-9.3-1.5-13.6-7.6-5-7-5.1-18.3-5.1-18.4 0-.7-.6-1.2-1.2-1.2-.7 0-1.2.6-1.2 1.2 0 .5.1 12.2 5.5 19.9 5.2 7.3 14.1 8.5 15.6 8.6v17.6l-19.9 9c-.7 0-1.2.6-1.2 1.2 0 .7.6 1.2 1.2 1.2l19.9-9v4.6c0 4.1 1.1 8 3.1 11.3-1.9.9-8.1 4-13.2 9.1-5.9 5.9-1.7 15.9-1.9 16.3-.3.6 0 1.4.6 1.6.2.1.4.1.5.1.5 0 .9-.3 1.1-.7 0-.1-4.2-10 1.4-15.6 5.2-5.2 11.8-8.2 12.9-8.7 4.1 5.5 10.7 9.1 18 9.1 0 0-7.5-12-7.5-36s8.5-39.8 8.5-39.8z" fill="#7a5432"/><g><ellipse transform="rotate(-57.023 158.345 116.666)" cx="158.3" cy="116.7" rx=".9" ry="2.6"/><ellipse transform="rotate(-56.982 159.512 117.526)" class="st3" cx="159.5" cy="117.5" rx=".5" ry=".8"/></g><g><ellipse transform="rotate(-32.976 141.539 116.647)" cx="141.5" cy="116.6" rx="2.6" ry=".9"/><ellipse transform="rotate(-33.018 140.366 117.5)" class="st3" cx="140.4" cy="117.5" rx=".8" ry=".5"/></g></svg>