<svg version="1.1" id="Layer_1" xmlns="http://www.w3.org/2000/svg" x="0" y="0" viewBox="0 0 300 300" xml:space="preserve"><style>.st3{fill:#fff}</style><path d="M186.7 177.6c-.1-.1-.3-.2-.4-.3l-10.9-4.7c4.7-5.6 7.5-12.8 7.5-20.6v-.3h12.4c.7 0 1.2-.6 1.2-1.2 0-.7-.6-1.2-1.2-1.2h-12.6c-.5-6.2-2.8-11.8-6.3-16.5l9.9-4.2c.2-.1.3-.2.4-.3l9.5-10.5c.5-.5.4-1.3-.1-1.7-.5-.5-1.3-.4-1.7.1l-9.3 10.3-10.3 4.4c-3.5-3.9-7.9-7-12.9-8.9.7-1.5 1-3.2 1-5 0-7.1-5.7-12.8-12.8-12.8s-12.8 5.7-12.8 12.8c0 1.9.4 3.7 1.2 5.3-4.8 1.9-8.9 5-12.3 8.8l-11-4.7L106 116c-.5-.5-1.2-.5-1.7-.1-.5.5-.5 1.2-.1 1.7l9.5 10.5c.1.1.3.2.4.3l10.6 4.5c-3.4 4.6-5.6 10.2-6.1 16.2h-13.4c-.7 0-1.2.6-1.2 1.2 0 .7.6 1.2 1.2 1.2h13.3v.3c0 7.7 2.7 14.8 7.3 20.4h-.2l-11.4 4.9c-.2.1-.3.2-.4.3l-9.5 10.5c-.5.5-.4 1.3.1 1.7.2.2.5.3.8.3s.7-.1.9-.4l9.3-10.3 11.1-4.8c.3-.1.5-.4.7-.7 4.6 4.9 10.7 8.4 17.8 9.7.7.1 1.3-.3 1.4-.9l3.7-16.7 3.1 16.9c.1.6.6 1 1.2 1h.1c7.6-.9 14.2-4.4 19.2-9.5.1.1.2.1.3.2l11.1 4.8 9.3 10.3c.2.3.6.4.9.4.3 0 .6-.1.8-.3.5-.5.5-1.2.1-1.7l-9.5-10.3z" fill="#c9c655"/><ellipse transform="rotate(-37.599 167.514 132.939)" cx="167.5" cy="132.9" rx="4" ry="8.7" fill="#eae7b7"/><path d="M150.1 104c-7.1 0-12.8 5.7-12.8 12.8 0 1.9.4 3.7 1.2 5.3-4.8 1.9-8.9 5-12.3 8.8l-11-4.7L106 116c-.5-.5-1.2-.5-1.7-.1-.5.5-.5 1.2-.1 1.7l9.5 10.5c.1.1.3.2.4.3l10.6 4.5c-3.4 4.6-5.6 10.2-6.1 16.2h-13.4c-.7 0-1.2.6-1.2 1.2 0 .7.6 1.2 1.2 1.2h13.3v.3c0 7.7 2.7 14.8 7.3 20.4h-.2l-11.4 4.9c-.2.1-.3.2-.4.3l-9.5 10.5c-.5.5-.4 1.3.1 1.7.2.2.5.3.8.3s.7-.1.9-.4l9.3-10.3 11.1-4.8c.3-.1.5-.4.7-.7 4.6 4.9 10.7 8.4 17.8 9.7.7.1 1.3-.3 1.4-.9-.1.3-9.2-71.5 3.7-78.5z" fill="#a8a11d"/><g><ellipse transform="rotate(-57.023 155.904 107.329)" cx="155.9" cy="107.3" rx=".9" ry="2.6"/><ellipse transform="rotate(-56.982 157.071 108.188)" class="st3" cx="157.1" cy="108.2" rx=".5" ry=".8"/></g><g><ellipse transform="rotate(-32.976 143.995 107.33)" cx="144" cy="107.3" rx="2.6" ry=".9"/><ellipse transform="rotate(-33.018 142.823 108.183)" class="st3" cx="142.8" cy="108.2" rx=".8" ry=".5"/></g></svg>