<svg version="1.1" id="Layer_1" xmlns="http://www.w3.org/2000/svg" x="0" y="0" viewBox="0 0 94.8 256" xml:space="preserve"><style>.st1{fill:#b3b3b3}.st2{fill:#f2f2f2}</style><path fill="#4d4d4d" d="M11.4 0h70.4l5.7 5.6-4.7 38.6-2.5 30-2.2 8.5-3.8 43.2-2.8 37.6-9.4 8.4v7.5H33V171l-11.3-29.1-.9-12.3-2.9-38.5-2.8-17.8z"/><path class="st1" d="M32.6 255.9l.1-77.6h29.4v77.2zM94.8 7.2L89.7 67c-.5 4.6-3.2 7.2-7.2 7.2H12.3c-4 0-6.7-3.2-7.2-7.2L0 7.2C0 3.3 3.2 0 7.2 0h4.4v1.2c0 19.4 15.7 35.2 35.2 35.2C66.2 36.4 82 20.6 82 1.2V0h5.7c3.8 0 7.1 3.3 7.1 7.2z"/><path class="st1" d="M46.7 27.9C31.3 27.9 18.8 15.4 18.8 0h55.9c0 15.4-12.6 27.9-28 27.9zM42.4 111.6c-2.8 0-5.1 2.3-5.1 5.1s2.3 5.1 5.1 5.1h33.3l-2.2 29H42.2c-2.8 0-5.1 2.3-5.1 5.1s2.3 5.1 5.1 5.1h30.4l-.3 3.6c-.6 4-3.2 7.2-7.2 7.2H29.9c-4 0-6.4-3.3-7.2-7.2l-1.8-23h32c2.8 0 5.1-2.3 5.1-5.1s-2.3-5.1-5.1-5.1H20.1l-2.2-28.7h35.6c2.8 0 5.1-2.3 5.1-5.1s-2.3-5.1-5.1-5.1H17.1l-.8-10.3h62.5l-2.3 29.4H42.4z"/><ellipse transform="rotate(-57.153 89.203 4.387)" class="st2" cx="89.2" cy="4.4" rx="2" ry="4.4"/><path class="st2" d="M60.5 180.2l-27.8-1.9h29.4v77.2zM94.8 7.2L89.7 67c-.5 4.6-3.2 7.2-7.2 7.2-.1 0 10.4-47 12.3-67zM46.7 27.9C68.2 19.2 74.7 0 74.7 0c0 15.4-12.6 27.9-28 27.9z"/><g><path class="st2" d="M66.3 171.8c3.3-.6 5.5-3.5 6-7.1l.3-3.6-6.3 10.7zM70.9 150.8h2.5l2.3-29zM74 111.6h2.5l2.2-29.4z"/></g></svg>