<svg version="1.1" id="Layer_1" xmlns="http://www.w3.org/2000/svg" x="0" y="0" viewBox="0 0 300 300" xml:space="preserve"><style>.st1{fill:#cc8bcc}.st2{fill:#4f0751}</style><path d="M181.5 138.3c-2.8-7.6-8.1-13.6-14.6-17.4v-16.7c5.5-2.8 9.2-8.5 9.2-15.1 0-9.3-7.6-16.9-16.9-16.9h-18.5c-9.3 0-16.9 7.6-16.9 16.9 0 6.6 3.8 12.3 9.2 15.1V121c-13.8 8.1-20.3 25.1-14.6 40.7 6.4 17.4 25.8 26.3 43.2 19.8 17.5-6.5 26.3-25.8 19.9-43.2z" fill="#93278f"/><ellipse transform="rotate(-50.245 168.52 129.574)" class="st1" cx="168.5" cy="129.6" rx="3.1" ry="6.8"/><ellipse transform="rotate(-50.245 166.52 79.575)" class="st1" cx="166.5" cy="79.6" rx="3.1" ry="6.8"/><path class="st2" d="M181.5 138.3c-10.3 37.4-36.3 44.4-63 23.3 6.4 17.4 25.8 26.3 43.2 19.8 17.4-6.4 26.2-25.7 19.8-43.1zM166.9 121l-32.7-1.3-1.1-11V121z"/><path class="st1" d="M133.1 103.7l32.7 1.3 1.1 11v-12.3z"/></svg>