<svg version="1.1" id="Layer_1" xmlns="http://www.w3.org/2000/svg" x="0" y="0" viewBox="0 0 300 300" xml:space="preserve"><style>.st1{fill:#4f0751}.st2{fill:#cc8bcc}</style><path d="M157.4 136.7c.2-.4.3-.8.3-1.3 0-1.7-1.4-3.1-3.1-3.1h-3.5c.4-.7.8-1.3 1.5-2l6.2-6.2c.6-.6.6-1.6 0-2.2-.6-.6-1.6-.6-2.2 0l-6.2 6.2c-1.4 1.4-2.2 2.8-2.7 4.2h-2.4c-1.7 0-3.1 1.4-3.1 3.1 0 .5.1.9.3 1.3-8.3 3-14.2 10.9-14.2 20.2 0 11.9 9.6 21.5 21.5 21.5s21.5-9.6 21.5-21.5c.2-9.3-5.7-17.2-13.9-20.2z" fill="#93278f"/><path class="st1" d="M128.5 156.9c0 11.9 9.6 21.5 21.5 21.5s21.5-9.6 21.5-21.5c-10.7 18.5-32.3 18.5-43 0zM157.4 136.7c.2-.4.3-.8.3-1.3 0-1.7-15.4-1.7-15.4 0 0 .5.1.9.3 1.3-.3-1.3 15.1-1.3 14.8 0zM151.1 132.3c.4-.7.8-1.3 1.5-2l-2.2-2.2c-1.4 1.4-2.2 2.8-2.7 4.2h3.4z"/><ellipse transform="rotate(-41.062 162.235 145.845)" class="st2" cx="162.2" cy="145.9" rx="3.1" ry="6.8"/><ellipse transform="rotate(-45.001 155.913 133.476)" class="st2" cx="155.9" cy="133.5" rx=".5" ry="1"/></svg>