<svg xmlns="http://www.w3.org/2000/svg" viewBox="0 0 300 300"><circle cx="150" cy="150" r="70.4" fill="#fbb03b"/><path d="M177.1 150.9c-3-1.8-6.5-3.1-10.5-3.9v-1c3.8-.7 7.4-2.4 10.6-5 3.3-2.6 4.9-6.2 4.9-10.7 0-7.4-4-12.5-12.1-15.3-3.1-1.1-6.9-1.8-11.2-2.1v-8.6h-6.4v8.5h-11.2v-8.5h-6.4v8.5h-14.5v2.8c3.1.2 5.3.6 6.5 1.3 2 1.1 3 3.2 3 6.4v52.6c0 3.2-1.1 5.3-3.2 6.5-1.3.7-3.4 1.1-6.3 1.2v2.8h14.5v7.8h6.4v-7.8h11.2v7.8h6.4v-7.9c7.6-.4 13.8-2.3 18.6-5.5 5.5-3.7 8.3-8.6 8.3-14.6 0-6.7-2.9-11.7-8.6-15.3zm-29.9-29.5c0-2 .4-3.3 1.3-4.1.9-.8 2.5-1.1 4.7-1.1 4.3 0 7.2 1.4 8.7 4.2s2.3 6.3 2.3 10.4c0 5.6-1.1 9.5-3.4 11.7-2.3 2.2-6.8 3.3-13.5 3.3v-24.4zm16.7 57.1c-2.1 2.8-5.7 4.2-10.8 4.2-2.5 0-4.2-.8-5.1-2.3-.5-.9-.8-2.3-.8-4.2V149c5.9-.1 10.2.6 13 2.2 4.6 2.5 6.8 7.7 6.8 15.4 0 5.1-1 9.1-3.1 11.9z" fill="#f15b27"/><ellipse transform="rotate(-57.153 185.758 103.39)" cx="185.8" cy="103.4" rx="6.5" ry="14.4" fill="#f8c785"/><ellipse transform="rotate(-57.153 174.392 122.634)" cx="174.4" cy="122.6" rx="2.5" ry="5.6" fill="#f4a189"/><path d="M150 220.4c-38.9 0-70.4-31.5-70.4-70.4s31.5-70.4 70.4-70.4c-110.1 51.3-36.1 127.3 0 140.8z" fill="#f8961d"/><path d="M141.2 112.8v-8.5h-6.4v8.5h-14.5v2.8c3.1.2 5.3.6 6.5 1.3 2 1.1 3 3.2 3 6.4v52.6c0 3.2-1.1 5.3-3.2 6.5-1.3.7-3.4 1.1-6.3 1.2v2.8h14.5v7.8h6.4V112.8z" fill="#d74426"/></svg>