<svg version="1.1" id="Layer_1" xmlns="http://www.w3.org/2000/svg" x="0" y="0" viewBox="0 0 300 300" xml:space="preserve"><style>.st1{fill:#fff}.st2{fill:#e5e5e5}</style><g opacity=".4"><path class="st1" d="M170 150c0-5.5-2.2-10.8-6.1-14.7l-63.1-63.1c-3.9-3.9-9.1-6.1-14.7-6.1-5.5 0-10.8 2.2-14.7 6.1-3.9 3.9-6.1 9.1-6.1 14.7 0 5.5 2.2 10.8 6.1 14.7l48.4 48.4-48.4 48.4c-3.9 3.9-6.1 9.1-6.1 14.7 0 5.5 2.2 10.8 6.1 14.7 3.9 3.9 9.1 6.1 14.7 6.1 5.5 0 10.8-2.2 14.7-6.1l63.1-63.1c3.9-3.9 6.1-9.2 6.1-14.7z"/><path class="st1" d="M228.5 135.3l-63.1-63.1c-3.9-3.9-9.1-6.1-14.7-6.1-5.5 0-10.8 2.2-14.7 6.1-3.9 3.9-6.1 9.1-6.1 14.7 0 5.5 2.2 10.8 6.1 14.7l48.4 48.4-48.4 48.4c-3.9 3.9-6.1 9.1-6.1 14.7 0 5.5 2.2 10.8 6.1 14.7 3.9 3.9 9.1 6.1 14.7 6.1 5.5 0 10.8-2.2 14.7-6.1l63.1-63.1c3.9-3.9 6.1-9.1 6.1-14.7 0-5.5-2.2-10.8-6.1-14.7z"/></g><path class="st2" d="M156.8 142.4l-63-63.1c-4.2-4.2-11-4.2-15.2 0-4.2 4.2-4.2 11 0 15.2L134 150l-55.4 55.4c-4.2 4.2-4.2 11 0 15.2 2.1 2.1 4.9 3.2 7.6 3.2s5.5-1.1 7.6-3.2l63.1-63.1c4.1-4.1 4.1-10.9-.1-15.1z"/><path class="st2" d="M221.4 142.4l-63.1-63.1c-4.2-4.2-11-4.2-15.2 0-4.2 4.2-4.2 11 0 15.2l55.4 55.4-55.4 55.4c-4.2 4.2-4.2 11 0 15.2 2.1 2.1 4.9 3.2 7.6 3.2s5.5-1.1 7.6-3.2l63.1-63.1c4.2-4 4.2-10.8 0-15z"/></svg>