<svg version="1.1" id="Layer_1" xmlns="http://www.w3.org/2000/svg" x="0" y="0" viewBox="0 0 300 300" xml:space="preserve"><style>.st1{fill:#fff}</style><path d="M176.2 148.1c-.8-13.4-11.9-24-25.6-24-13.4 0-24.4 10.3-25.5 23.3-4.1 1.7-16.1-2.9-16.1 2.5 0 4.1 10.1 13.1 17.8 11.8 3.7 14.5-.1 32.7 10.8 39.3-4.3-12.8 25.1-27.2 33.7-39.5 7.8 1.4 19.3-7.1 19.3-11.5 0-4.9-9.4.3-14.4-1.9z" fill="#e5e5e5"/><ellipse transform="rotate(-57.153 160.226 132.234)" class="st1" cx="160.2" cy="132.2" rx="3.9" ry="8.6"/><ellipse transform="rotate(-14.872 185.482 150.906)" class="st1" cx="185.5" cy="150.9" rx="3.6" ry="1.6"/><path d="M150.6 124.1c-13.4 0-24.4 10.3-25.5 23.3-4.1 1.7-16.1-2.9-16.1 2.5 0 4.1 10.1 13.1 17.8 11.8 3.7 14.5-.1 32.7 10.8 39.3 0-.1-5.2-52.9 13-76.9z" fill="#d3d3d3"/><g><ellipse transform="rotate(-57.023 164.138 130.344)" cx="164.1" cy="130.3" rx=".9" ry="2.6"/><ellipse transform="rotate(-56.982 165.273 131.145)" class="st1" cx="165.3" cy="131.1" rx=".5" ry=".8"/></g><g><ellipse transform="rotate(-32.976 137.36 130.295)" cx="137.4" cy="130.3" rx="2.6" ry=".9"/><ellipse transform="rotate(-33.018 136.225 131.097)" class="st1" cx="136.2" cy="131.1" rx=".8" ry=".5"/></g></svg>