<svg version="1.1" id="Layer_1" xmlns="http://www.w3.org/2000/svg" x="0" y="0" viewBox="0 0 300 300" xml:space="preserve"><style>.st1{fill:#ea8f98}.st2{fill:#6d050f}</style><path d="M184.6 103.6h-19.1V66.3c4.1-1.9 7-6.1 7-10.9v-6c0-6.6-5.4-12-12-12h-21c-6.6 0-12 5.4-12 12v6c0 4.8 2.9 9 7 10.9v37.3h-19.1c-6.5 0-11.8 5.3-11.8 11.8v69.3c0 6.5 5.3 11.8 11.8 11.8h69.3c6.5 0 11.8-5.3 11.8-11.8v-69.3c-.1-6.5-5.4-11.8-11.9-11.8z" fill="#df1b26"/><ellipse transform="rotate(-45.001 188 111.255)" class="st1" cx="188" cy="111.3" rx="3.1" ry="6.8"/><path class="st2" d="M103.6 164.4v20.3c0 6.5 5.3 11.8 11.8 11.8h69.3c6.5 0 11.8-5.3 11.8-11.8v-20.3c-32.4 32.3-60.8 32.1-92.9 0z"/><path d="M173.1 123.8h-5.4c.6.4 1.2.9 1.8 1.4 2.8 2.6 4.4 6.2 4.9 10.3v-10.4c0-.7-.6-1.3-1.3-1.3m0 48.8c.7 0 1.3-.6 1.3-1.3v-29.4c-.9 9-5.4 19.9-12.9 30.7h11.6zm-46.2-48.8c-.7 0-1.3.6-1.3 1.3v10.2c6.8-5.2 13.6-9.2 20-11.5h-18.7zm15.8 39.1l-5 5c-.7.7-1.9.7-2.6 0l-5-5c-.7-.7-.7-1.9 0-2.6l5-5c.7-.7 1.9-.7 2.6 0l5 5c.7.7.7 1.9 0 2.6m25.2-19.6c0-5-1.5-9-4.3-11.6-2.5-2.2-5.8-3.4-9.9-3.4-7.6 0-17.6 4.1-27.4 11.5l-.8.6v31c0 .7.6 1.3 1.3 1.3h30c7.2-10.6 11.2-21.2 11.1-29.4z" fill="#fff"/><ellipse transform="rotate(-45.001 165 44.524)" class="st1" cx="165" cy="44.5" rx="2.2" ry="4.8"/><path class="st2" d="M165.5 103.6l-28.9-.9-2.1-13.3v14.2z"/><path class="st1" d="M134.5 66.4l28.9.8 2.1 13.4V66.4z"/></svg>