<svg version="1.1" id="Layer_1" xmlns="http://www.w3.org/2000/svg" x="0" y="0" viewBox="0 0 300 300" xml:space="preserve"><style>.st0{opacity:.4}.st1{fill:#ea8f98}.st2{fill:#df1b26}.st3{fill:#ff859c}</style><g class="st0"><path class="st1" d="M183.5 181.8c-1.5 0-3.1-.6-4.2-1.8-16.2-16.2-42.5-16.2-58.6 0-2.3 2.3-6.1 2.3-8.5 0-2.3-2.3-2.3-6.1 0-8.5 20.8-20.8 54.7-20.8 75.6 0 2.3 2.3 2.3 6.1 0 8.5-1.2 1.3-2.7 1.8-4.3 1.8z"/></g><path class="st2" d="M183.5 179.1c-.8 0-1.7-.3-2.3-1-17.2-17.2-45.3-17.2-62.5 0-1.3 1.3-3.3 1.3-4.6 0-1.3-1.3-1.3-3.3 0-4.6 19.8-19.8 51.9-19.8 71.7 0 1.3 1.3 1.3 3.3 0 4.6-.6.7-1.4 1-2.3 1z"/><g class="st0"><path class="st3" d="M183.5 176.6c-.2 0-.4-.1-.5-.2-18.2-18.2-47.8-18.2-66 0-.3.3-.8.3-1.1 0-.3-.3-.3-.8 0-1.1 9.1-9.1 21.2-14.1 34.1-14.1 12.9 0 25 5 34.1 14.1.3.3.3.8 0 1.1-.2.1-.4.2-.6.2z"/></g><g class="st0"><path class="st1" d="M203.5 159.4c-2.4 0-4.9-.9-6.8-2.8-25.8-25.8-67.6-25.7-93.4 0-3.7 3.7-9.8 3.7-13.5 0-3.7-3.7-3.7-9.8 0-13.5 33.2-33.2 87.2-33.2 120.4 0 3.7 3.7 3.7 9.8 0 13.5-1.9 1.8-4.3 2.8-6.7 2.8z"/></g><path class="st2" d="M203.5 155c-1.3 0-2.6-.5-3.7-1.5-27.5-27.5-72.1-27.5-99.6 0-2 2-5.3 2-7.3 0s-2-5.3 0-7.3c31.5-31.5 82.7-31.5 114.2 0 2 2 2 5.3 0 7.3-1 1-2.3 1.5-3.6 1.5z"/><g class="st0"><path class="st3" d="M203.5 151c-.3 0-.6-.1-.8-.3-29-29-76.2-29-105.2 0-.5.5-1.2.5-1.7 0s-.5-1.2 0-1.7c14.5-14.5 33.8-22.5 54.3-22.5s39.8 8 54.3 22.5c.5.5.5 1.2 0 1.7-.3.2-.6.3-.9.3z"/></g></svg>