<svg version="1.1" id="Layer_1" xmlns="http://www.w3.org/2000/svg" x="0" y="0" viewBox="0 0 300 300" xml:space="preserve"><style>.st1{fill:#fff}.st2{fill:#e5e5e5}</style><g opacity=".4"><path class="st1" d="M126.9 65.7c-11.4 0-20.8 9.3-20.8 20.8v126.1c0 11.4 9.3 20.8 20.8 20.8s20.8-9.3 20.8-20.8V86.4c0-11.4-9.3-20.7-20.8-20.7zM173.1 65.7c-11.4 0-20.8 9.3-20.8 20.8v126.1c0 11.4 9.3 20.8 20.8 20.8s20.8-9.3 20.8-20.8V86.4c-.1-11.4-9.4-20.7-20.8-20.7z"/></g><path class="st2" d="M126.9 75.7c-5.9 0-10.8 4.8-10.8 10.8v126.1c0 5.9 4.8 10.8 10.8 10.8 5.9 0 10.8-4.8 10.8-10.8V86.4c0-5.9-4.8-10.7-10.8-10.7zM173.1 75.7c-5.9 0-10.8 4.8-10.8 10.8v126.1c0 5.9 4.8 10.8 10.8 10.8 5.9 0 10.8-4.8 10.8-10.8V86.4c-.1-5.9-4.9-10.7-10.8-10.7z"/></svg>