<svg version="1.1" id="Layer_1" xmlns="http://www.w3.org/2000/svg" x="0" y="0" viewBox="0 0 200 200" xml:space="preserve"><style>.st2{fill:#c9c9c9}.st3{fill:#a5a5a5}.st4{fill:#e8e8e8}</style><g opacity=".4"><path fill="#fff" d="M0 0h199.9v199.9H0z"/><path class="st2" d="M84.3 22.5L40.2 54.4l9.3 86.5 56.4-45 5.3-49.8zM156.9 36.2l-26.6 8.1-4.8 46.3 34.1-8.6-10.2-30.1zM122.5 103.4l-39.6 33.8 25.5 40.1 30.1-45.8 1.8-32.7z"/><path class="st3" d="M40.2 54.4l44.1-31.9 26.9 23.6-5.3 49.8 1.8-49.7-23.6-21.6zM130.3 44.3l26.6-8.1-7.5 15.7L159.6 82l-11.2-30.4 6.8-14.1zM122.5 103.4l17.8-4.6-1.8 32.7-30.1 45.8 28.6-46.6 2.3-30.6z"/><path class="st4" d="M46.5 90.6l4.5 45.5 50.1-38.8-46.7 34.2 5.9-13-7.9 12.6zM129.9 73l-2.2 14.8 29.3-6.9-26.9 4.8zM85 137.1l22.8 35.2 6.1-8.5-5.3 5.5z"/><path class="st4" d="M.8.9L3.4 195l194.9 3.8-133.6-5.2 8.3-4.3-11.7 3.5-49.6-.4 15.2-14-20.5 13.2z"/></g></svg>