<svg xmlns="http://www.w3.org/2000/svg" viewBox="0 0 300 300"><path d="M196.2 134.8l-63.1-63.1c-3.9-3.9-9.1-6.1-14.7-6.1-5.5 0-10.8 2.2-14.7 6.1-3.9 3.9-6.1 9.1-6.1 14.7 0 5.5 2.2 10.8 6.1 14.7l48.4 48.4-48.4 48.4c-3.9 3.9-6.1 9.1-6.1 14.7 0 5.5 2.2 10.8 6.1 14.7 3.9 3.9 9.1 6.1 14.7 6.1 5.5 0 10.8-2.2 14.7-6.1l63.1-63.1c3.9-3.9 6.1-9.1 6.1-14.7 0-5.5-2.2-10.8-6.1-14.7z" opacity=".4" fill="#fff"/><path d="M189.1 141.9L126 78.8c-4.2-4.2-11-4.2-15.2 0-4.2 4.2-4.2 11 0 15.2l55.4 55.4-55.4 55.4c-4.2 4.2-4.2 11 0 15.2 2.1 2.1 4.9 3.2 7.6 3.2s5.5-1.1 7.6-3.2l63.1-63.1c4.2-4 4.2-10.8 0-15z" fill="#e5e5e5"/></svg>