<svg version="1.1" id="Layer_1" xmlns="http://www.w3.org/2000/svg" x="0" y="0" viewBox="0 0 300 300" xml:space="preserve"><style>.st0{opacity:.4;fill:#aae8f9}</style><path class="st0" d="M150 169.3s-4.1-3.8-15.8-4.9c0-27.7 15.8-33.7 15.8-33.7s16.4 6.8 15.7 33.5c-14 2.3-15.7 5.1-15.7 5.1z"/><path d="M150 163.3s-2.8-2.6-10.9-3.4c0-19 10.9-23.2 10.9-23.2s11.3 4.7 10.8 23.1c-9.6 1.6-10.8 3.5-10.8 3.5z" fill="#52d2ff"/><path class="st0" d="M150 158.1s-1.7-1.6-6.6-2c0-11.6 6.6-14.1 6.6-14.1s6.9 2.9 6.6 14.1c-5.9.8-6.6 2-6.6 2z"/></svg>