<svg version="1.1" id="Layer_1" xmlns="http://www.w3.org/2000/svg" x="0" y="0" viewBox="0 0 300 300" xml:space="preserve"><style>.st1{fill:#aae8f9}.st2{fill:#259bba}</style><path d="M184.6 103.6h-6.1C169.8 75 150 66.7 150 66.7s-19.3 7.3-28.2 36.8h-6.5c-6.5 0-11.8 5.3-11.8 11.8v69.3c0 6.5 5.3 11.8 11.8 11.8h69.3c6.5 0 11.8-5.3 11.8-11.8v-69.3c0-6.4-5.3-11.7-11.8-11.7z" fill="#52d2ff"/><ellipse transform="rotate(-45.001 188.031 111.29)" class="st1" cx="188" cy="111.3" rx="3.1" ry="6.8"/><ellipse transform="rotate(-45.001 160.032 81.289)" class="st1" cx="160" cy="81.3" rx="3.1" ry="6.8"/><path class="st2" d="M103.6 164.4v20.3c0 6.5 5.3 11.8 11.8 11.8h69.3c6.5 0 11.8-5.3 11.8-11.8v-20.3c-32.4 32.3-60.8 32.1-92.9 0z"/><path d="M149.3 120.4s5.2 4.8 20.1 6.2c0 35.2-20.1 42.8-20.1 42.8s-20.8-8.7-20-42.6c17.8-2.9 20-6.4 20-6.4z" fill="#fff"/><path class="st2" d="M178.5 103.6c-22.2-3.2-40.8.8-45.2-4.2-7-8-2-16-4-12.9-2.9 4.6-5.4 10.3-7.5 17.1h56.7z"/></svg>