<svg xmlns="http://www.w3.org/2000/svg" viewBox="0 0 300 300"><path d="M181.5 164.8c1.1-.9 1.7-1.9 1.7-3 0-2.4-2.7-4.4-6.7-5.4.4-.6.7-1.2.7-1.8 0-2.7-4.5-5-10.1-5h-3.3c0-.2.1-5.1-7.1-8.6-7.2-3.6-11.5-4-11.5-4s4.4 4.5-.8 5.5c-12.3 1.5-9.2 7-9.2 7.1h-2.3c-5.5 0-10.1 2.2-10.1 5 0 .6.2 1.2.7 1.8-4 1-6.7 3.1-6.7 5.4 0 1.1.6 2.1 1.7 3-5.8 1.1-10 3.9-10 7.1 0 4.2 6.9 7.6 15.4 7.6h52.3c8.5 0 15.4-3.4 15.4-7.6-.1-3.2-4.2-6-10.1-7.1z" fill="#8c6239"/><ellipse transform="rotate(-75.712 169.509 152.333)" cx="169.5" cy="152.3" rx="1.5" ry="5.6" opacity=".4" fill="#ddb492"/><path d="M144.5 164.9h24.3l-24.2-.7c.4-2.5 1.7-5.2 3.3-7.7h18l-17.7-.4c1.5-2.3 3.2-4.5 4.7-6.5h5l-4.9-.1c3.3-4.2 5.8-7.4 3.8-8.5-7.2-3.6-11.5-4-11.5-4s4.4 4.5-.8 5.5c-12.3 1.5-9.2 7-9.2 7.1H133c-5.5 0-10.1 2.2-10.1 5 0 .6.2 1.2.7 1.8-4 1-6.7 3.1-6.7 5.4 0 1.1.6 2.1 1.7 3-5.8 1.1-10 3.9-10 7.1 0 4.2 6.9 7.6 15.4 7.6h52.3c-26-1.3-32.5-7.5-31.8-14.6z" fill="#633f22"/></svg>