<svg xmlns="http://www.w3.org/2000/svg" viewBox="0 0 300 300"><path d="M181.5 149.8c1.1-1.8 1.7-3.9 1.7-6.1 0-4.8-2.7-8.9-6.7-10.9.4-1.1.7-2.3.7-3.6 0-5.5-4.5-10.1-10.1-10.1h-3.3c0-.3.1-10.3-7.1-17.4-7.2-7.2-11.5-8.1-11.5-8.1s4.4 9.1-.8 11.1c-12.3 3.1-9.2 14-9.2 14.4h-2.3c-5.5 0-10.1 4.5-10.1 10.1 0 1.3.2 2.5.7 3.6-4 2-6.7 6.2-6.7 10.9 0 2.2.6 4.3 1.7 6.1-5.8 2.2-10 7.8-10 14.4 0 8.5 6.9 15.4 15.4 15.4h52.3c8.5 0 15.4-6.9 15.4-15.4-.1-6.6-4.2-12.2-10.1-14.4z" fill="#8c6239"/><ellipse transform="rotate(-57.153 169.522 124.685)" cx="169.5" cy="124.7" rx="2.8" ry="6.2" opacity=".4" fill="#ddb492"/><path d="M144.5 149.9h24.3l-24.2-1.5c.4-5.1 1.7-10.4 3.3-15.5h18l-17.7-.9c1.5-4.6 3.2-9.1 4.7-13.1h5l-4.9-.2c3.3-8.5 5.8-15 3.8-17-7.2-7.2-11.5-8.1-11.5-8.1s4.4 9.1-.8 11.1c-12.3 3.1-9.2 14-9.2 14.4H133c-5.5 0-10.1 4.5-10.1 10.1 0 1.3.2 2.5.7 3.6-4 2-6.7 6.2-6.7 10.9 0 2.2.6 4.3 1.7 6.1-5.8 2.2-10 7.8-10 14.4 0 8.5 6.9 15.4 15.4 15.4h52.3c-26-2.8-32.5-15.4-31.8-29.7z" fill="#633f22"/></svg>