<svg xmlns="http://www.w3.org/2000/svg" viewBox="0 0 300 300"><path d="M181.5 157.5c1.1-1.3 1.7-2.9 1.7-4.5 0-3.5-2.7-6.6-6.7-8.1.4-.8.7-1.7.7-2.7 0-4.1-4.5-7.4-10.1-7.4h-3.3c0-.2.1-7.6-7.1-12.9-7.2-5.3-11.5-6-11.5-6s4.4 6.7-.8 8.3c-12.3 2.3-9.2 10.4-9.2 10.6h-2.3c-5.5 0-10.1 3.4-10.1 7.4 0 .9.2 1.8.7 2.7-4 1.5-6.7 4.6-6.7 8.1 0 1.7.6 3.2 1.7 4.5-5.8 1.6-10 5.8-10 10.6 0 6.3 6.9 11.4 15.4 11.4h52.3c8.5 0 15.4-5.1 15.4-11.4-.1-4.8-4.2-8.9-10.1-10.6z" fill="#8c6239"/><ellipse transform="rotate(-67.238 169.514 138.938)" cx="169.5" cy="138.9" rx="2.2" ry="5.8" opacity=".4" fill="#ddb492"/><path d="M144.5 157.6h24.3l-24.2-1.1c.4-3.8 1.7-7.7 3.3-11.5h18l-17.7-.7c1.5-3.4 3.2-6.7 4.7-9.7h5l-4.9-.2c3.3-6.3 5.8-11.1 3.8-12.6-7.2-5.3-11.5-6-11.5-6s4.4 6.7-.8 8.3c-12.3 2.3-9.2 10.4-9.2 10.6H133c-5.5 0-10.1 3.4-10.1 7.4 0 .9.2 1.8.7 2.7-4 1.5-6.7 4.6-6.7 8.1 0 1.7.6 3.2 1.7 4.5-5.8 1.6-10 5.8-10 10.6 0 6.3 6.9 11.4 15.4 11.4h52.3c-26-1.9-32.5-11.2-31.8-21.8z" fill="#633f22"/></svg>