<svg version="1.1" id="Layer_1" xmlns="http://www.w3.org/2000/svg" x="0" y="0" viewBox="0 0 300 300" xml:space="preserve"><style>.st0{opacity:.4}.st1{fill:#caea98}</style><g class="st0"><path class="st1" d="M162.8 133.3v33.4c0 6.8-5.5 12.3-12.3 12.3s-12.3-5.5-12.3-12.3v-33.4c0-6.8 5.5-12.3 12.3-12.3s12.3 5.5 12.3 12.3z"/></g><path d="M156.4 137.6v24.7c0 5-2.7 9.1-5.9 9.1s-5.9-4.1-5.9-9.1v-24.7c0-5 2.7-9.1 5.9-9.1s5.9 4.1 5.9 9.1z" fill="#8cc63f"/><g class="st0"><path class="st1" d="M152.8 142.2v15.6c0 3.2-1 5.8-2.3 5.8s-2.3-2.6-2.3-5.8v-15.6c0-3.2 1-5.8 2.3-5.8s2.3 2.6 2.3 5.8z"/></g></svg>