<svg version="1.1" id="Layer_1" xmlns="http://www.w3.org/2000/svg" x="0" y="0" viewBox="0 0 300 300" xml:space="preserve"><style>.st1{fill:#caea98}.st2{fill:#4c720f}</style><path d="M139 41v10.1c0 1.7 1.4 3.2 3.2 3.2h2.3l-8.6 49.3h-20.5c-6.5 0-11.8 5.3-11.8 11.8v69.3c0 6.5 5.3 11.8 11.8 11.8h69.3c6.5 0 11.8-5.3 11.8-11.8v-69.3c0-6.5-5.3-11.8-11.8-11.8h-20.5l-8.6-49.3h2.3c1.7 0 3.2-1.4 3.2-3.2V41c0-1.7-1.4-3.2-3.2-3.2h-15.6c-1.9 0-3.3 1.5-3.3 3.2z" fill="#8cc63f"/><ellipse transform="rotate(-45.001 188.125 111.331)" class="st1" cx="188.1" cy="111.3" rx="3.1" ry="6.8"/><ellipse transform="rotate(-45.001 158.178 40.383)" class="st1" cx="158.2" cy="40.4" rx="1.2" ry="2.6"/><path class="st2" d="M103.6 164.4v20.3c0 6.5 5.3 11.8 11.8 11.8h69.3c6.5 0 11.8-5.3 11.8-11.8v-20.3c-32.4 32.3-60.8 32.1-92.9 0zM137.8 92.5l-2 11.1h28.4l-25.4-2.1z"/><path class="st1" d="M144.5 54.3l10.3 1.2 9.4 48.1-8.7-49.3z"/></svg>