<svg version="1.1" id="Layer_1" xmlns="http://www.w3.org/2000/svg" x="0" y="0" viewBox="0 0 300 300" xml:space="preserve"><style>.st2{fill:#89033a}</style><path d="M196.2 137.2c-.6-3.6-3.5-6.3-7.1-6.6-5.6-25.1-21-58-39.2-58s-33.5 32.9-39.2 58c-3.6.3-6.5 3-7.1 6.6-.8 4.8-1.2 9.1-1.2 12.8 0 26.2 21.3 47.5 47.5 47.5s47.5-21.3 47.5-47.5c.1-3.7-.4-8.1-1.2-12.8z" fill="#d4145a"/><ellipse transform="rotate(-45.001 158.785 85.749)" cx="158.8" cy="85.7" rx="5" ry="11" fill="#e591b3"/><path class="st2" d="M102.5 150c0 26.2 21.3 47.5 47.5 47.5s47.5-21.3 47.5-47.5c-36 37.5-54 41.5-95 0zM189.1 130.5c-94.7-3-61.7-45-39.2-58-18.1 0-33.5 32.9-39.2 58-3.5.3 82 .3 78.4 0z"/></svg>