<svg version="1.1" id="Layer_1" xmlns="http://www.w3.org/2000/svg" x="0" y="0" viewBox="0 0 300 300" xml:space="preserve"><style>.st0{opacity:.4}.st1{fill:#e591b3}</style><g class="st0"><path class="st1" d="M159.6 92.4v115.3c0 5.3-4.3 9.6-9.6 9.6s-9.6-4.3-9.6-9.6V92.4c0-5.3 4.3-9.6 9.6-9.6s9.6 4.2 9.6 9.6z"/></g><path d="M156.2 93.6v113.8c0 3.4-2.8 6.2-6.2 6.2s-6.2-2.8-6.2-6.2V93.6c0-3.4 2.8-6.2 6.2-6.2s6.2 2.8 6.2 6.2z" fill="#d4145a"/><g class="st0"><path class="st1" d="M152.6 94v113c0 1.5-1.2 2.6-2.6 2.6s-2.6-1.2-2.6-2.6V94c0-1.5 1.2-2.6 2.6-2.6s2.6 1.1 2.6 2.6z"/></g></svg>