<svg version="1.1" id="Layer_1" xmlns="http://www.w3.org/2000/svg" x="0" y="0" viewBox="0 0 300 300" xml:space="preserve"><style>.st5{fill-rule:evenodd;clip-rule:evenodd;fill:#fff}.st6{fill:#939393}</style><path d="M166.6 128.2h-2.3v-25.9h-28.7v25.9h-2.3c-5.1 0-9.3 4.2-9.3 9.3v50.8c0 5.1 4.2 9.3 9.3 9.3h33.2c5.1 0 9.3-4.2 9.3-9.3v-50.8c.1-5.1-4.1-9.3-9.2-9.3z" fill="#2dd3ce"/><path d="M164.3 128.2v-25.9h-28.7v25.9h28.7z" fill="#c6c6c6"/><ellipse transform="rotate(-57.153 169.057 133.592)" cx="169.1" cy="133.6" rx="2.6" ry="5.6" fill="#aaf9f3"/><path d="M149.8 102.3h-14.2v25.9h-2.3c-5.1 0-9.3 4.2-9.3 9.3v50.8c0 5.1 4.2 9.3 9.3 9.3 0 0 16.4.2 16.4 0-13.9-23.8.1-95.3.1-95.3z" fill="#02afaf"/><path d="M153.9 106h5.6v5.6h-5.6z"/><path fill="#efefef" d="M164.3 121.8v-19.5h-9.5l8 1.5z"/><path class="st5" d="M153.3 162.2c-.1-1.9-1.7-3.3-3.6-3.2-1.8.1-3.1 1.7-3.1 3.5.1 1.9 1.6 3.4 3.4 3.3 1.8 0 3.3-1.6 3.2-3.5.1 0 .1-.1.1-.1zM143 161.9s-.1-1.7 1-3.5c1-1.7 2.2-2.4 2.2-2.4l-6.4-12.7s-4.1 1.3-8 7.5c-4.1 6.4-3.3 10.9-3.3 10.9l14.5.2zM153.2 156s1.6.7 2.7 2.4c1.1 1.6 1.2 3 1.2 3l14.2-.3s.3-5.3-3.3-10.5c-3.7-5.3-8.9-7.9-8.9-7.9l-5.9 13.3zM153.7 168.8s-1.4 1-3.5 1c-2 0-3.2-.6-3.2-.6l-7.6 12s4.3 3.2 10.6 3c6.4-.2 11.3-3.4 11.3-3.4l-7.6-12z"/><path class="st6" d="M163.5 128.2h-27.1V125z"/><path class="st6" d="M149.8 102.3h-14.2v25.9h10.3s.9-9 1.7-13.3c.8-4.2 2.2-12.6 2.2-12.6z"/><path d="M140 106h5.6v5.6H140z"/></svg>