<svg version="1.1" id="Layer_1" xmlns="http://www.w3.org/2000/svg" x="0" y="0" viewBox="0 0 300 300" xml:space="preserve"><style>.st0{fill:#fcee21}</style><circle class="st0" cx="150" cy="150" r="35.4"/><ellipse transform="rotate(-57.153 165.71 125.993)" cx="165.7" cy="126" rx="3.9" ry="8.6" fill="#fff9d9"/><path d="M150 185.4c-19.5 0-35.4-15.8-35.4-35.4s15.8-35.4 35.4-35.4c-32.1 35.3-32.1 36.3 0 70.8z" fill="#f9c623"/><path class="st0" d="M131.5 162.4c4 5.9 10.8 9.8 18.5 9.8s14.4-3.9 18.5-9.8"/><path d="M150 173.7c-7.9 0-15.3-3.9-19.7-10.4l2.5-1.7c3.9 5.7 10.3 9.1 17.2 9.1s13.3-3.4 17.2-9.1l2.5 1.7c-4.4 6.5-11.8 10.4-19.7 10.4z"/><path d="M150 173.2c-7.7 0-15-3.8-19.4-10.2-.3-.5-.2-1.2.3-1.5.5-.3 1.2-.2 1.5.3 4 5.8 10.6 9.3 17.6 9.3s13.6-3.5 17.6-9.3c.3-.5 1-.6 1.5-.3s.6 1 .3 1.5a23.59 23.59 0 0 1-19.4 10.2z"/><path d="M150 174.7c-8.2 0-16-4.1-20.6-10.9-.8-1.2-.5-2.8.7-3.6 1.2-.8 2.8-.5 3.6.7 3.7 5.4 9.8 8.6 16.3 8.6s12.6-3.2 16.3-8.6c.8-1.2 2.4-1.5 3.6-.7 1.2.8 1.5 2.4.7 3.6-4.6 6.9-12.4 10.9-20.6 10.9z"/><g><circle cx="138.4" cy="142.5" r="6.4"/></g><g><circle cx="162" cy="142.5" r="6.4"/></g></svg>