<svg xmlns="http://www.w3.org/2000/svg" viewBox="0 0 300 300"><path d="M191.7 150.2c0-19-19.1-37.6-41.5-37.6s-42 18.6-42 37.6c0 13.6 9.9 23.1 23.8 27.4v2.6c0 1.4.7 5.2 5.7 6.2 5 1.1 6.4-.9 6.4-.9s2.3 1.9 5.8 1.9 4.8-1.8 4.8-1.8 1 1.2 5.4 1c4.4-.2 6.6-4.1 6.6-6V178c14.5-4.1 25-13.8 25-27.8z" fill="#fcf2e6"/><ellipse transform="rotate(-51.235 172.406 125.94)" cx="172.4" cy="125.9" rx="3.9" ry="8.6" fill="#fff"/><path d="M150.2 112.6c-22.4 0-42 18.6-42 37.6 0 13.6 9.9 23.1 23.8 27.4v2.6c0 1.4.7 5.2 5.7 6.2 5 1.1 6.4-.9 6.4-.9s2.3 1.9 5.8 1.9c-8.3-6.6-29.3-52.6.3-74.8z" fill="#ead9c7"/><path d="M145.2 168.5c0-1.9 2.1-6.8 4.7-6.8s4.7 4.9 4.7 6.8c0 1.9-2.1 3.4-4.7 3.4-2.6-.1-4.7-1.6-4.7-3.4z"/><ellipse cx="132.4" cy="147.6" rx="11.4" ry="13.1"/><ellipse cx="166.9" cy="147.6" rx="11.4" ry="13.1"/></svg>