<svg xmlns="http://www.w3.org/2000/svg" viewBox="0 0 300 300"><path d="M149.4 120.8l9.3 9.3 6.1 15.4v15.3l-3.1 12.3-9.2 3.1h-6.1l-9.3-18.4-3-12.3 3-15.4z"/><path d="M115.7 212.5c0-.1 4.7-15 11.1-22.2 3.8-4.3 4.9-15.4 5.1-24.4 1.7 5.8 4.3 10.7 7.6 14.1 0 0 0 .1.1.1 0 0 3.4 4.3 2.5 10.4-.4 3-2.6 3.9-5.4 5-2.4 1-5.2 2.1-6.7 5-1 2-1.4 3.6-1.4 4.9 0 2.7 1.6 3.8 1.7 3.8.4.3 1 .2 1.3-.2.3-.4.2-1-.2-1.3-.1-.1-2.1-1.6.3-6.3 1.1-2.3 3.3-3.2 5.7-4.1 2.8-1.1 6-2.4 6.6-6.5.4-3.1-.1-5.8-.8-7.8 2.1 1.3 4.4 2.1 6.9 2.1.9 1.4 3.9 6.8 2.4 11.9-1.8 6.3-10 14.6-10.1 14.7-.2.2-.3.4-.3.7 0 .2.1.5.3.7.4.4 1 .4 1.3 0 .4-.4 8.6-8.7 10.6-15.5 1.5-5.2-.8-10.3-2.1-12.6 3-.5 5.8-2.2 8.3-4.7 1.8 2.1 3.8 5.1 3.3 6.5-.3.8-.8 1.7-1.4 2.6-1.4 2.1-3.1 4.7-2.4 8.2.1.5.6.8 1.1.7.5-.1.8-.6.7-1.1-.6-2.8.8-4.9 2.1-6.8.7-1 1.3-2 1.6-3 .9-2.7-2.4-6.9-3.8-8.5 3.4-4.1 6.1-10 7.5-16.9 1.4 3.4 3.3 10.2 2 19.3-1.8 13.8-7.6 30.7-7.7 30.8 0 .1-.1.2-.1.3 0 .4.2.8.6.9.5.2 1-.1 1.2-.6.1-.2 5.9-17.2 7.8-31.2 1.7-13-2.4-21.3-3.3-22.8.3-2.5.5-5.1.5-7.8 0-18.9-9-34.2-20.2-34.2s-20.2 15.4-20.2 34.2v1.7c0 .3 1.8 29.5-4.5 36.6-6.6 7.6-11.3 22.3-11.4 22.9v.3c0 .4.3.8.7.9.4-.1.9-.3 1.1-.8zm23.5-76.4c0-4.7 3.8-8.4 8.4-8.4 4.7 0 8.4 3.8 8.4 8.4 0 4.7-3.8 8.4-8.4 8.4-4.7.1-8.4-3.7-8.4-8.4zm2.8 20.7c0-2.3 1.9-4.2 4.2-4.2 2.3 0 4.2 1.9 4.2 4.2 0 2.3-1.9 4.2-4.2 4.2-2.3 0-4.2-1.9-4.2-4.2zm13.1 6.5c2.6 0 4.7 2.1 4.7 4.7s-2.1 4.7-4.7 4.7-4.7-2.1-4.7-4.7 2.1-4.7 4.7-4.7z" fill="#39b54a"/><path d="M115.7 212.5c0-.1 4.7-15 11.1-22.2 3.8-4.3 4.9-15.4 5.1-24.4 1.7 5.8 4.3 10.7 7.6 14.1 0 0 0 .1.1.1 0 0 3.4 4.3 2.5 10.4-.4 3-2.6 3.9-5.4 5-2.4 1-5.2 2.1-6.7 5-1 2-1.4 3.6-1.4 4.9 0 2.7 1.6 3.8 1.7 3.8.4.3 1 .2 1.3-.2.3-.4.2-1-.2-1.3-.1-.1-2.1-1.6.3-6.3 1.1-2.3 3.3-3.2 5.7-4.1 2.8-1.1 6-2.4 6.6-6.5.4-3.1-.1-5.8-.8-7.8 2.1 1.3 4.4 2.1 6.9 2.1-8.1-13.7-13.1-40.7 0-68.5-11.1 0-20.2 15.4-20.2 34.2v1.7c0 .3 1.8 29.5-4.5 36.6-6.6 7.6-11.3 22.3-11.4 22.9v.3c0 .4.3.8.7.9.3 0 .8-.2 1-.7zm23.5-76.4c0-4.7 3.8-8.4 8.4-8.4 4.7 0 8.4 3.8 8.4 8.4 0 4.7-3.8 8.4-8.4 8.4-4.7.1-8.4-3.7-8.4-8.4zm2.8 20.7c0-2.3 1.9-4.2 4.2-4.2 2.3 0 4.2 1.9 4.2 4.2 0 2.3-1.9 4.2-4.2 4.2-2.3 0-4.2-1.9-4.2-4.2zm13.1 6.5c2.6 0 4.7 2.1 4.7 4.7s-2.1 4.7-4.7 4.7-4.7-2.1-4.7-4.7 2.1-4.7 4.7-4.7z" fill="#217229"/><ellipse transform="rotate(-37.599 157.096 124.914)" cx="157.1" cy="124.9" rx="3.2" ry="7.1" fill="#abefaf"/></svg>