<svg xmlns="http://www.w3.org/2000/svg" viewBox="0 0 300 300"><path d="M193 144.5c-10.2-1.3-10.3 3.6-22.7-2.5-5.3-3.5.4-.3 2-1.3 2.9-1.8 3.2-5.9 1.7-8.7-1.5-2.9-5.4-3.9-7.8-2.2-3.6 2.5-1 9.2-5.9 5.1-3.6-3-2.3-7.1-1-10.9.4-1.9 1.8-3.2 1.6-5.3-.4-5.5-4.1-9.8-9.9-9.9s-9.6 4.1-10.1 9.7c-.2 1.8 1 3 1.3 4.7 0 .1.1.2.1.2.1 0 0 .2.1.2 4.4 3.1 4.5 10.2 1.1 12.7-3.3 2.5-2.4-.5-2-1.3.7-1.5 1-2.8-.3-4.2-2.2-2.5-5.6-3.1-8.4-.8-2.7 2.3-3 5.9-1.4 8.8.8 1.3 1.6 1 2.7 1 0 0 .1-.1.2-.1 1 0-.4 1.3-3.2 2.7-8.1 4.1-15 1.1-21.7 1.6-8.2.6-9.4 5.7-9.3 11.4.2 5.7 6.6 9.5 11.5 8.3 6.8-1.6 18.6-14.1 23.3-5.6 1.5 2.7-5.4 1.1-7.2 2.6s-2.7 5.3-.3 7.7c2.4 2.4 6.6 2.3 8.7.8 3.6-2.5.9-9.1 6.1-7.2 9.3 3.4-.3 12.4-1 19.4-.5 5.3 4.1 10.2 9.7 10.1 5.6-.1 10.2-4 10.2-9.9s-7.3-14.9-.1-19c-2 .4-3.1.4 0 0s4.8.6 5.3 3.6v.1c.1 1.8.5 3.2 2.3 4.1 3 1.5 6.5.6 8.5-2.2 2-2.8 1.6-5.9-1.1-7.8-1.2-.8-2.4-.5-3.6-.4h-.2-.1c-1.2.5-3.4-.8-2.8-2.2 3.6-8 14.2 4.7 20.4 6.3 4.2 1.1 11-2.2 11.5-7.8.3-5.6-1.2-10.9-8.2-11.8z" fill="#f15a24"/><path d="M157.7 113.5c.9 1.1 2.7 3.9 1.2 5.1-1.6 1.2-3.9-1.1-4.8-2.3-.9-1.2-2.6-4.1-1-5.3 1.5-1.2 3.8 1.4 4.6 2.5z" fill="#f49173"/><path d="M99.9 155.3c1 5.5 6.6 9.4 11.6 8.3 7.1-1.6 18.5-14.1 23.3-5.6 1.5 2.6-5.5 1.1-7.2 2.6-1.8 1.5-2.7 5.3-.3 7.7 2.4 2.4 6.6 2.3 8.7.8 3.6-2.5.9-9.1 6.1-7.2 9.3 3.4-.3 12.4-1 19.4-.5 5.3 4.1 10.2 9.7 10.1 5.6-.1 10.2-4 10.2-9.9s-7.3-14.9-.1-19c-2 .4-3.1.4 0 0s4.8.6 5.3 3.6v.1c.1 1.8.5 3.2 2.3 4.1 3 1.5 6.5.6 8.5-2.2 2-2.8 1.6-5.9-1.1-7.8-1.2-.8-2.4-.5-3.6-.4h-.1-.1-.1c-1.2.5-3.4-.8-2.8-2.2 3.6-8 14.1 4.6 20.4 6.3 4.3 1.1 10.6-2.3 11.5-7.8-26 .9-76.2 2-101.2-.9z" opacity=".4" fill="#af4120"/></svg>