<svg xmlns="http://www.w3.org/2000/svg" viewBox="0 0 300 300"><path d="M178 147.7c-3.2-.4-5.8 1.3-8.6 2.2-.1-7.9-2.8-13.4-10-17-2.3-1.2-4.7-1.1-7.1-1.5 3.7-6.9 3.7-13.5-3.3-18.1-7.7-5-16.6-4.8-22.5 2.6-5.9 7.4-5.7 17.2 1.6 23.5 1.2 1 2.5 1 3.8 1.5-.1.2-.2.3-.3.5-4.4 11.9.1 22.2 11.4 27.4 5.4 2.5 10.5 1.1 15.7-.8 2.2 6 7 10.5 13.7 11.1 9.3.8 17.2-5.3 18.5-14.5s-4.2-15.8-12.9-16.9z" fill="#00a99d"/><path d="M149.6 116.7c1.4 1.5 3.9 4.9 1.8 6.6s-5.2-.9-6.6-2.5c-1.4-1.5-4.1-5.5-2.1-7.2 2.1-1.7 5.5 1.6 6.9 3.1z" fill="#00ffe6"/><path d="M126.2 115.7c-5.2 8.2-5.9 17 1.8 23.7 1.2 1.1 2.4.9 3.8 1.5-.1.1-.2.3-.3.5-4.5 11.9.1 22.2 11.4 27.4 5.4 2.5 10.5 1.1 15.7-.8 2.4 6 6.8 10.5 13.8 11.1 9.6.8 16.5-5.2 18.7-14.5-34.3 9-61.7-15.6-64.9-48.9z" fill="#02635a"/></svg>