<svg xmlns="http://www.w3.org/2000/svg" viewBox="0 0 300 300"><path d="M190.5 139c-8.5.6-7.4 9.3-14.2-3.3-3-7 12.2-14.8 14.7-17.1 4.4-4.1 3.4-7.2.4-9.6s-7.1-2.1-10.1 1.8c-4.6 5.9-8.1 19.7-17.9 18.1-7.1-1.2-7.1-5.1-5.6-10.2 0-.1.1 0 .1 0 .6-1.7 2-2.8 1.9-4.9-.2-5.4-3.6-9.9-9.3-10.5-5.7-.6-9.9 2.9-10.9 8.3-.3 1.7.6 3 .6 4.7 0 .1 0 .1.1.2s0 .1.1.2c4.5 6-.9 9.7-6.2 10-5.2.3-9.9-7.6-11.1-9.8-2-3.8-2.7-5.7-4.8-7.3-3.5-2.9-6.8-2.9-9.6.2s-1.6 6.9 1.4 9.7c1.4 1.3 4.3 2.7 6.3 3.4.1 0 .2.1.3.1 4.4 1.4 7.7 7.5 6.3 11.3-4 11.2-9.2 4.1-14.9 4.5-7 .6-9 5.5-8.5 10.6.4 5.1 4.6 10 10.7 8.8 8.5-1.6 19.4-12.4 15.1 7.1-1.3 6.1-8.6 4.4-12.4 6.6-3.8 2.2-5.1 6.1-3.8 9.7 1.3 3.6 4.3 5.2 8.1 2.8 6.4-4.1 8.6-14.2 17.5-15 16.1-1.5 4.3 8.5 3.6 16.5-.5 6.2 4.4 10.5 10 10.6 5.6.1 10.5-3.5 10.5-9.9s-7.3-15.8 3.3-17.8c-2.5-.2-6.4-1.1.2.2 6.6 1.3 13.1 6.3 16 12.9 0 .1.1.1.1.2.7 2.6 2.3 5.7 4.1 7.3 3.1 2.7 7.1 4 9.9.7 2.7-3.3.8-7.7-1.9-10.6-1.2-1.3-3.8-2.8-5.6-3.5 0 0-.1 0-.1-.1s-.1 0-.2-.1c0 0-.2-.1-.3-.1-3.2-1.6-7.6-6.6-8.2-9.6-3.6-16.9 5.8-7.4 14.7-7.5 6.1-.1 9.6-5 9.5-10.3 0-5.1-4.1-9.7-9.9-9.3z" fill="#f15a24"/><path d="M156.9 108.6c.8 1.1 2.5 4 .8 5-1.6 1-3.7-1.5-4.5-2.6-.8-1.2-2.4-4.2-.8-5.2 1.6-1.2 3.7 1.7 4.5 2.8z" fill="#f49173"/><path d="M99.3 149.5c1.6 4.8 4.6 9.9 10.9 8.8 8.8-1.6 19.3-12.4 15.2 7.1-1.3 6.1-8.7 4.4-12.4 6.6-3.8 2.2-5.1 6.1-3.8 9.7s4.3 5.2 8.1 2.8c6.4-4.1 8.6-14.2 17.5-15 16.1-1.5 4.3 8.5 3.6 16.5-.5 6.2 4.4 10.5 10 10.6 5.6.1 10.5-3.5 10.5-9.9s-7.3-15.8 3.3-17.8c-2.5-.2-6.4-1.1.2.2s13.1 6.3 16 12.9c0 .1.1.1.1.2.7 2.6 2.3 5.7 4.1 7.3 3.1 2.7 7.1 4 9.9.7 2.7-3.3.8-7.7-1.9-10.6-1.2-1.3-3.8-2.8-5.6-3.5 0 0-.1 0-.1-.1s-.1 0-.2-.1c0 0-.2-.1-.3-.1-3.2-1.6-7.6-6.6-8.2-9.6-3.4-16.9 5.5-7.4 14.8-7.5 6.3-.1 8.9-5 9.7-10.3-41.3 11-60.4 8.2-101.4 1.1z" opacity=".4" fill="#af4120"/></svg>