<svg xmlns="http://www.w3.org/2000/svg" viewBox="0 0 300 300"><path d="M177.3 161.9c-2.6-2.1-5.6-3.3-8.7-3.6 3.6-8.2 1.5-18.2-5.8-24.1-2.3-1.9-5-3.2-7.7-3.9 4.2-6.9 2.8-16-3.6-21.2-7-5.7-17.4-4.7-23.1 2.3-5.7 7-4.7 17.4 2.3 23.1 1.1.9 2.3 1.6 3.6 2.2l-.4.4c-7.2 8.8-5.9 21.7 2.9 28.9 4.2 3.4 9.2 4.9 14.2 4.6-1.5 6 .4 12.6 5.5 16.8 7 5.7 17.4 4.7 23.1-2.3 5.7-7.1 4.7-17.5-2.3-23.2z" fill="#00a99d"/><ellipse transform="rotate(-37.599 149.351 114.74)" cx="149.3" cy="114.7" rx="3.2" ry="7.1" fill="#00ffe6"/><path d="M128.4 111.4c-5.7 7-4.7 17.4 2.3 23.1 1.1.9 2.3 1.6 3.6 2.2l-.4.4c-7.2 8.8-5.9 21.7 2.9 28.9 4.2 3.4 9.2 4.9 14.2 4.6-1.5 6 .4 12.6 5.5 16.8 7 5.7 17.4 4.7 23.1-2.3-23.6-5-49.6-49-51.2-73.7z" fill="#02635a"/></svg>