<svg xmlns="http://www.w3.org/2000/svg" viewBox="0 0 300 300"><path d="M190.6 139.9c-8.2 0-7 9.1-19.3.5-5.1-4.2 5.5-6.9 6.9-8.3 2.5-2.5 2.5-6.5 0-9s-6.3-2.3-9 0c-3.9 3.5-1.2 15.1-9 10.6-5.7-3.2-3.1-11.9-1.8-13.6 1.1-1.6 1.7-3.6 1.7-5.7 0-5.6-4.5-10.1-10.1-10.1s-10.1 4.5-10.1 10.1c0 1.8.5 3.4 1.2 4.9 0 .1.1.1.1.2s.1.1.1.2c5.8 6.1 1.9 13.1-1.5 14-3.5.9-4.8-4.4-4.7-5.4.2-1.9-.4-3.8-1.8-5.2-2.5-2.5-6.5-2.5-9 0s-2.5 6.5 0 9c1.1 1.1 2.5 1.7 4 1.8h.1c2.1 0 3.6 3.7.3 6.3-9.5 7.7-14.9-.4-19.4-.4-5.6 0-10.1 4.5-10.1 10.1s4.5 10.1 10.1 10.1c7.8 0 20.9-10.7 22.9 2.5.6 4.1-5.6 2.9-7.9 5.3-2.5 2.5-2.5 6.5 0 9s6.5 2.5 9 0c4.2-4.3-.1-11.5 6.5-10.6 11.8 1.5.1 11.9.1 19.3 0 5.6 4.5 10.1 10.1 10.1s10.1-4.5 10.1-10.1c0-5.7-8.4-16.8.1-19.3 0 0-5.9 1 0 0s7.2 3.1 7.2 5.2v.1c-.3 1.9.3 3.9 1.8 5.3 2.5 2.5 6.5 2.5 9 0s2.5-6.5 0-9c-1.1-1.1-2.4-1.7-3.8-1.8h-.1-.1-.1c-2-.2-3.7-2.7-3.7-4.7 0-11.3 12.1-1.3 20.3-1.3 5.6 0 10.1-4.5 10.1-10.1s-4.6-10-10.2-10z" fill="#f15a24"/><ellipse transform="rotate(-37.599 155.109 110.576)" cx="155.1" cy="110.6" rx="2.3" ry="5" fill="#f49173"/><path d="M99.3 150c0 5.6 4.5 10.1 10.1 10.1 7.8 0 20.9-10.7 22.9 2.5.6 4.1-5.6 2.9-7.9 5.3-2.5 2.5-2.5 6.5 0 9s6.5 2.5 9 0c4.2-4.3-.1-11.5 6.5-10.6 11.8 1.5.1 11.9.1 19.3 0 5.6 4.5 10.1 10.1 10.1s10.1-4.5 10.1-10.1c0-5.7-8.4-16.8.1-19.3 0 0-5.9 1 0 0s7.2 3.1 7.2 5.2v.1c-.3 1.9.3 3.9 1.8 5.3 2.5 2.5 6.5 2.5 9 0s2.5-6.5 0-9c-1.1-1.1-2.4-1.7-3.8-1.8h-.1-.1-.1c-2-.2-3.7-2.7-3.7-4.7 0-11.3 12.1-1.3 20.3-1.3 5.6 0 10.1-4.5 10.1-10.1-41.8 9.6-67.8 8.6-101.6 0z" opacity=".4" fill="#af4120"/></svg>