<svg xmlns="http://www.w3.org/2000/svg" viewBox="0 0 300 300"><path d="M168.7 137.8c-2.6 1.7-2.7 4.5-4.6 6.6-.4-5.6-.4-9.4-6-12.1-1.8-.9-3.6-.7-5.5-1.1 4.3-6 6.6-12.3-.4-17.1-7.7-5.3-16.8-5.4-23.1 1.8-6.3 7.2-6.8 17.8.9 24.1 1.2 1 2.6.8 3.9 1.2-.1.1-.2.3-.3.6-4 12.1.4 22.9 12.7 26.5 5.8 1.7 10.1-1.1 14.2-4.4 4.1 4.9 10.5 6.1 16.7 3.4 8.5-3.8 12.2-14.1 8.9-22.5-3.2-8.6-10.3-11.8-17.4-7z" fill="#00a99d"/><path d="M152.5 117.2c1.4 1.6 3.1 4.8.8 6.3-2.2 1.5-4.8-1-6.1-2.5-1.3-1.6-3.6-5.3-1.4-6.8 2.1-1.5 5.3 1.4 6.7 3z" fill="#00ffe6"/><path d="M128.8 115.7c-5.6 8.1-6.9 17.6 1.1 24.3 1.3 1.1 2.5.7 3.9 1.2-.1.1-.2.3-.3.5-4 12.1.4 22.9 12.7 26.5 5.8 1.7 10.1-1.1 14.2-4.4 4.1 4.7 10.4 6.3 16.7 3.3 8.7-4.1 11.9-13.5 9-22.7-28.9 30-55.9 6.7-57.3-28.7z" fill="#02635a"/></svg>