<svg data-name="Layer 1" xmlns="http://www.w3.org/2000/svg" width="1991.11" height="1343"><defs><clipPath id="a" transform="translate(38 46)"><path fill="none" d="M-.29 0h1920v1199H-.29z"/></clipPath></defs><path fill="#1a1a1a" d="M37.71 46h1920v1199h-1920z"/><g clip-path="url(#a)"><circle cx="54.71" cy="231" r="7"/><circle cx="54.71" cy="262" r="7"/><circle cx="199.71" cy="280" r="7"/><circle cx="139.71" cy="458" r="7"/><circle cx="139.71" cy="483" r="7"/><circle cx="116.71" cy="483" r="7"/><path d="M176.71 414a7 7 0 1 0 7.65-7l-13.53-13.5H96.09l-15 14.94a7 7 0 1 0 2.57 1.67l13.67-13.61h72.26l11.16 11.16a7 7 0 0 0-4.04 6.34z"/><circle cx="406.71" cy="508" r="7"/><path d="M464.71 581a7 7 0 1 0-7-7 7.12 7.12 0 0 0 .52 2.66l-68.64 68.65H355.9l-71.31 71.31h-67.38l-57.62 57.63h-18.75l-40.63 40.63v136.5L68.59 983H33.21v3h36.62l33.38-33.38v-136.5l38.87-38.87h18.75l57.62-57.63h67.38l71.31-71.31h33.69L460 579.16a7 7 0 0 0 4.71 1.84z"/><circle cx="444.71" cy="608" r="7"/><circle cx="382.71" cy="584" r="7"/><path d="M364.71 586a7 7 0 1 0 5.23 11.64l1.35 1.36h26.83l61-61h57l32-32H632l3.17-1.76a7 7 0 1 0-1.43-4.24 7.1 7.1 0 0 0 .46 2.49l-2.75 1.51h-84.16l-32 32h-57l-61 61h-25.17l-1.06-1.07a7 7 0 0 0-6.35-9.93zM377.71 710a7 7 0 0 0 7-7 6.69 6.69 0 0 0-.17-1.5h1.79L511.83 576h29l26-26h57l13-13h14.76l5.86 5.87a7 7 0 1 0 1.9-2.35l-6.52-6.52h-17.24l-13 13h-57l-26 26h-29l-125.5 125.5h-2a7 7 0 1 0-5.36 11.5z"/><path d="M282.71 806a7 7 0 1 0 6.25 3.87l46.37-46.37h26.5L405 720.37v-11.25l115-115h28.88l3.56-3.56h57.44l9.12-9.16v-3.52a7 7 0 1 0-3-.1v2.38l-7.4 7.4h-57.45l-3.56 3.56h-28.88L402 707.88v11.25l-41.41 41.37h-26.5l-47 47a7 7 0 0 0-4.38-1.5z"/><path d="M282.71 844a7 7 0 0 0 6.35-9.92l7-7v-16.64l40.8-40.8h26.64l46.5-46.52V711.4l110.83-110.84h30.56l6.44-6.44H613l18-18v-12.75l2.87-2.87h19.26l5.61 5.61a7 7 0 1 0 2.57-1.67l-6.94-6.94h-21.78l-4.59 4.63v12.75l-16.25 16.24h-55.16l-6.44 6.44h-30.56L407 710.16v11.72l-44.76 44.76h-26.65L293 809.2v16.68l-5.79 5.79a7 7 0 1 0-4.5 12.33z"/><path d="M395.71 897a7 7 0 0 0 7-7 6.91 6.91 0 0 0-1.09-3.73l21.15-21.15v-45.94l26.06-26.06v-35.87l83-83h45.25l15.75-15.75h7.5l13-13a7 7 0 1 0-1.9-2.35l-12.34 12.35h-7.5l-15.75 15.75h-45.25L445.83 756v35.88l-26.06 26.06v45.94l-20.25 20.25a7 7 0 1 0-3.81 12.87z"/><path d="M395.71 914a7 7 0 0 0 6-10.58l27.3-27.3v-53.69l24.31-24.31v-37.37l79.5-79.5h52.25l27.75-27.75h13.5l8-8a7 7 0 1 0-1.9-2.35l-7.36 7.37h-13.5l-27.75 27.75h-52.22l-81.26 81.23v37.38L426 821.19v53.69l-26.35 26.35a7 7 0 1 0-4 12.77z"/><path d="M328.71 996a7 7 0 1 0-4.36-12.48l-7.14-7.14v-14.26l7.37-7.37h43.25L433.58 889v-62.88l25.56-25.56v-36.44l77.41-77.4h61.28l17.93-17.94a7 7 0 1 0-2-2.18l-17.12 17.12H535.3l-79.16 79.16v36.44l-25.56 25.56v62.87l-64 64h-43.24l-9.13 9.13v16.74l8.24 8.25a7 7 0 0 0 6.26 10.13z"/><circle cx="504.71" cy="1136" r="7"/><circle cx="463.71" cy="1198" r="7"/><path d="M516.81 1037.27l6.48 6.48h15.58l23.34-23.34v-83.5l22.5-22.5v-50l70-70v-7l5.62-5A7 7 0 1 0 659 781l-6.25 5.56v7l-70 70v50l-22.5 22.5v83.5L538 1041.75h-13.88l-5.64-5.64a7 7 0 1 0-1.67 1.16z"/><circle cx="548.71" cy="1008" r="7"/><circle cx="602.71" cy="1008" r="7"/><circle cx="642.71" cy="1008" r="7"/><circle cx="641.71" cy="939" r="7"/><circle cx="601.71" cy="939" r="7"/><circle cx="677.71" cy="1009" r="7"/><circle cx="677.71" cy="939" r="7"/><path d="M695.71 1040a7 7 0 0 0-12.23-4.64l-20.77-20.77V887h14v-17h-14v-13h15.5v-43.09l5.27-5.27a7 7 0 1 0-1.77-4.64 6.83 6.83 0 0 0 .65 2.93l-6.15 6.16V855h-15.5v17h14v13h-14v130.41l21.65 21.66a6.83 6.83 0 0 0-.65 2.93 7 7 0 0 0 14 0z"/><path d="M684.71 1065a7 7 0 1 0-4.74-12.15l-24.26-24.26V838.41l5.81-5.81a7 7 0 1 0-1.41-1.41l-6.4 6.4v191.82l25 25a7 7 0 0 0 6 10.59zM891.71 1176a7 7 0 1 0 8-6.92v-14.49l-125-125V923.41l4-4v-98l15.5-15.5v-17.5l5-5a7 7 0 1 0-1-1.78l-6 6v17.5l-15.5 15.5v98l-4 4v107.78l125 125v13.67a7 7 0 0 0-6 6.92z"/><path d="M916.71 1157a7 7 0 1 0-6.92-8h-3.67l-125.41-126.14v-97.75l4-4v-95.58l15.83-15.92a6.92 6.92 0 0 0 4.17 1.39 7 7 0 1 0-5.59-2.8l-16.41 16.51v95.55l-4 4v99.39l126.29 127 .29.29h4.5a7 7 0 0 0 6.92 6.06z"/><path d="M857.71 1141a7 7 0 1 0-3.44-13.1L838 1111.59v-8.25l-66.75-66.75V813.91l4.76-4.76a7 7 0 1 0-1.27-1.56l-5.49 5.5v224.32l66.75 66.75v8.25l16.72 16.73a7 7 0 0 0 5 11.86z"/><path d="M822.71 1115a7 7 0 1 0-4.19-12.6l-52.81-52.81v-73l-6-6V833.92a7 7 0 1 0-2 0v137.49l6 6v73l53.4 53.4a7 7 0 0 0 5.6 11.19z"/><path d="M830.71 1125a7 7 0 0 0-13.71-2h-27.29v15h-14.63v-46.79l-7.62-7.62v-20.75l-9.25-9.25v-74.5l-11.5-11.5V813.5l6.65-5a7 7 0 1 0-1.06-1.7l-7.59 5.69v155.92l11.5 11.5v74.5l9.25 9.25v20.75l7.62 7.63v48h18.63v-15h25a7 7 0 0 0 14 0z"/><path d="M920.71 1105a7 7 0 1 0 4.73 12.15l5.27 5.26v13.4h-20.4l-108.19-108.19h-5.62l-11-11v-85.46l8.75-8.75v-83.5l6.31-6.31a7 7 0 1 0-1.41-1.41l-6.9 6.9v83.5l-8.75 8.75v87.07l12.21 12.21h5.62l108.19 108.19h23.23v-16.22l-6-6a7 7 0 0 0-6-10.59z"/><path d="M901.71 1053a7 7 0 1 0 7-7 6.9 6.9 0 0 0-2.77.57l-3.82-3.82h-9.75l-20.16-20.16v-91.5l-8.5-8.5v-78l-11-11v-1.88a7 7 0 1 0-2 .29v2.41l11 11v78l8.5 8.5v91.5l21.33 21.34h9.75l2.91 2.9a7 7 0 0 0-2.49 5.35z"/><circle cx="893.71" cy="1005" r="7"/><circle cx="893.71" cy="941" r="7"/><circle cx="848.71" cy="939" r="7"/><circle cx="848.71" cy="1006" r="7"/><circle cx="803.71" cy="1008" r="7"/><circle cx="802.71" cy="938" r="7"/><path d="M728.71 1060a7 7 0 0 0 5.38-11.47l6.12-6.12v-44.32l-11.5-11.5v-214l-12.4-12.4a7 7 0 1 0-5.6 2.81 6.89 6.89 0 0 0 4.18-1.4l11.82 11.81v214l11.5 11.5v42.68l-5.6 5.6a7 7 0 1 0-3.9 12.81z"/><path d="M723.71 1033a7 7 0 0 0 6.35-9.93l5.65-5.66v-14.82l-12-12v-199l-7.86-7.86a7 7 0 1 0-1.55 1.27l7.41 7.41v199l12 12v13.18l-4.77 4.77a7 7 0 1 0-5.23 11.64z"/><circle cx="723.71" cy="1008" r="7"/><circle cx="687.71" cy="640" r="7"/><circle cx="687.71" cy="663" r="7"/><path d="M662.71 714a7 7 0 1 0-7-7 6.59 6.59 0 0 0 .21 1.67l-10.83 10.83h-38.5l-11.75 11.75h-36.25l-53.26 53.25v95.38L394 991.19v25.69L348.86 1062v16.21a7 7 0 1 0 3-.15v-14.82l45.14-45.12v-25.69l111.33-111.31v-95.37l51.5-51.5h36.25l11.75-11.75h38.5l11-11a7 7 0 0 0 5.38 2.5z"/><circle cx="710.71" cy="709" r="7"/><circle cx="735.71" cy="709" r="7"/><circle cx="757.71" cy="709" r="7"/><circle cx="781.71" cy="709" r="7"/><circle cx="710.71" cy="732" r="7"/><circle cx="804.71" cy="756" r="7"/><path d="M873.71 818a7 7 0 1 0 3.59 13l4.41 4.41v175l9.4 9.4a7 7 0 1 0 1.41-1.41l-8.81-8.81v-175l-4.86-4.86a7 7 0 0 0-5.14-11.73z"/><circle cx="961.71" cy="952" r="7"/><path d="M951.71 985a7 7 0 0 0-7 7h-14.59l-6.41-6.41v-60l-8.5-8.5v-102.5l-32.84-32.84h-3.23a6.8 6.8 0 0 0 .57-2.75 7 7 0 1 0-1.87 4.75h3.7l31.67 31.66v102.5l8.5 8.5v60l7.58 7.59H945a7 7 0 1 0 6.71-9z"/><path d="M973.71 1002a7 7 0 0 0 0 14v4.59l-6.42 6.41h-36.17l-25.91-25.91v-68.5L891 918.34v-84.75l-4.13-4.13v-18.87l-7.15-7.15V803a7 7 0 1 0-.56 2.73l5.68 5.68v18.88l4.13 4.12v84.75l14.25 14.25v68.5l27.07 27.09h37.83l7.59-7.59v-5.7a7 7 0 0 0-2-13.71zM1093.71 980a7 7 0 1 0-3.41 6l11.91 11.91V1282h2V997.09l-12.36-12.36a6.93 6.93 0 0 0 1.86-4.73z"/><path d="M1085.71 1005a7 7 0 1 0-5.6-2.81l-2.4 2.4V1284h2v-278.59l1.81-1.81a6.94 6.94 0 0 0 4.19 1.4z"/><path d="M1091.71 1008a7 7 0 0 0-1 13.92V1270h2v-248.08a7 7 0 0 0-1-13.92z"/><circle cx="1153.71" cy="1006" r="7"/><circle cx="1186.71" cy="1006" r="7"/><circle cx="1243.71" cy="1006" r="7"/><circle cx="1243.71" cy="969" r="7"/><circle cx="1276.71" cy="1112" r="8"/><path d="M1239.21 1107a7.5 7.5 0 1 0 5.08 13l11.42 11.41v21.18l-11 11v52.82l44.79 44.8 1.41-1.42-44.2-44.2v-51.18l11-11v-22.82l-12.14-12.14a7.41 7.41 0 0 0 1.14-4 7.5 7.5 0 0 0-7.5-7.45z"/><path d="M1226.21 1119a7.5 7.5 0 1 0 7.47 8h9.61l6.42 6.41v14.18l-12.5 12.5v58.32l44.54 44.55 1.41-1.42-44-44v-56.68l12.5-12.5v-15.82l-7.59-7.59h-10.56a7.51 7.51 0 0 0-7.3-5.95z"/><circle cx="1280.21" cy="1190.5" r="7.5"/><path d="M1317.71 1238.5a7.51 7.51 0 1 0-3.55 6.37l5.34 5.34 1.41-1.42-5.2-5.2a7.5 7.5 0 0 0 2-5.09z"/><circle cx="1425.21" cy="1201.5" r="7.5"/><circle cx="1462.21" cy="1199.5" r="7.5"/><path d="M1085.71 948a7 7 0 1 0-3.41 6l30.41 30.41V1286h2V983.59l-30.86-30.86a6.93 6.93 0 0 0 1.86-4.73zM1130.71 942a7 7 0 1 0-2.27 5.15l11.77 11.76V1265h2V958.09l-12.5-12.5a7 7 0 0 0 1-3.59zM869.71 756a7 7 0 1 0 8-6.92v-6.49l-10.09-10.09h-30.33l-10.83 10.84v174.25l-3.38 3.41v95.45l71.9 71.9h40.31l20.76 20.76v68.52L923.62 1210a7 7 0 1 0 1.22 1.61l33.21-33.22v-70.17l-21.93-21.93h-40.31l-70.73-70.72v-93.8l3.38-3.38V744.16l9.66-9.66h28.67l8.92 8.91v5.67a7 7 0 0 0-6 6.92z"/><circle cx="735.71" cy="732" r="7"/><circle cx="757.71" cy="732" r="7"/><circle cx="781.71" cy="732" r="7"/><circle cx="802.71" cy="709" r="7"/><circle cx="871.71" cy="709" r="7"/><circle cx="896.71" cy="709" r="7"/><circle cx="1011.71" cy="686" r="7"/><path d="M595.71 749a7 7 0 0 0-6.26 10.13l-7.36 7.37h-25.5l-28.13 28.13v96.25l-110.88 110.87v25.13l-14.44 14.44v3.68a7 7 0 1 0 3 .41v-2.88l14.44-14.44V1003l110.88-110.88v-96.25l26.37-26.37h25.5l8-8a7 7 0 1 0 4.38-12.5z"/><circle cx="709.71" cy="640" r="7"/><circle cx="740.71" cy="640" r="7"/><circle cx="740.71" cy="617" r="7"/><circle cx="710.71" cy="617" r="7"/><circle cx="663.71" cy="615" r="7"/><path d="M617.71 609a7 7 0 0 0-7 7h-3.12l-10 10h-73l-93.88 93.88v13L324.09 839.5h-8.5l-7.82 7.81a7 7 0 1 0 2.69 1.56l6.37-6.37h8.5l108.38-108.38v-13L525.83 629h73l10-10h2.56a7 7 0 1 0 6.32-10z"/><path d="M670.71 558a7 7 0 0 0 5 6.71v6.17l-9.12 9.12h-27l-24.5 24.5h-56.5l-5.75 5.75h-29.25L418.83 715v13.88L318.65 829.06h-15.06l-18.4 18.4a7 7 0 1 0 4.52 6.54 6.93 6.93 0 0 0-2-4.85l17.09-17.09h15.06l101.97-101.94v-13.87l103-103h29.25l5.75-5.75h56.5l24.5-24.5h27l10.88-10.88v-7.2a7 7 0 1 0-8-6.92z"/><circle cx="664.71" cy="523" r="7"/><circle cx="688.71" cy="431" r="7"/><circle cx="688.71" cy="407" r="7"/><circle cx="731.71" cy="407" r="7"/><circle cx="754.71" cy="407" r="7"/><circle cx="777.71" cy="407" r="7"/><circle cx="801.71" cy="407" r="7"/><circle cx="688.71" cy="453" r="7"/><circle cx="688.71" cy="477" r="7"/><circle cx="710.71" cy="453" r="7"/><circle cx="710.71" cy="477" r="7"/><path d="M273.71 813a7 7 0 1 0-10 6.32v37.8l10.38 10.38h16.74l3.63-3.63v-13.75l12.74-12.74h14.63l104.56-104.57v-13.69l101.28-101.28H589a7 7 0 1 0-.15-3h-62.42l-103 103v13.69L320.59 834.38H306l-14.5 14.5v13.75l-1.87 1.87h-14.3l-8.62-8.62V820a7 7 0 0 0 7-7z"/><path d="M232.71 737a7 7 0 1 0 3.4 13.12l7.48 7.47h117.83l39.47-39.47v-11.81l116.94-116.93h27.37l4.63-4.63h48.75l7.63-7.63v-20.5l2.62-2.62h18l5-5H635a7 7 0 1 0-.21-3h-4.2l-5 5h-18l-4.38 4.38v20.5l-5.87 5.87h-48.75l-4.59 4.63h-27.41l-118.7 118.69v11.81l-37.71 37.71H244.83l-6.47-6.47a7 7 0 0 0-5.65-11.12zM258.14 330.76l9.68 1.45a7 7 0 1 0 .13-3l-9.25-1.38a7 7 0 1 0-.56 2.95zM364.71 352a7 7 0 1 0 4.29 12.5h70.3l14.5-14.5h149.79l6.86 6.87a7 7 0 1 0 1.9-2.35l-7.52-7.52H452.59l-14.5 14.5h-66.85a7 7 0 0 0-6.53-9.5z"/><path d="M348.71 360a7 7 0 1 0 3.59 13h97.53l11-11h126a7 7 0 1 0 .21-3H459.59l-11 11H355a6.85 6.85 0 0 0 .69-3 7 7 0 0 0-6.98-7z"/><circle cx="477.71" cy="290" r="7"/><circle cx="506.71" cy="319" r="7"/><path d="M408.71 211a7 7 0 0 0 6.31-4h68.44l121 121h18L651 356.5h17.91a7 7 0 1 0 1.48-6h-16.9L625 322h-18L486 201h-71a7 7 0 1 0-6.31 10z"/><path d="M408.71 179a7 7 0 0 0 6.7-5h56.18l116.12 116.13a7 7 0 1 0 .82-3.43L472.83 171h-57.2a7 7 0 1 0-6.92 8z"/><path d="M430.71 118a7 7 0 0 0 3.77-1.11l5.73 5.73v10.5l14.63 14.63h15l14.86-14.87h24.89l140.18 140.18v53.06l7.07 7.07a7 7 0 1 0 2.14-2.11l-6.21-6.2v-53.06L510.83 129.88h-27.37l-14.87 14.87h-12.51l-12.87-12.87v-10.5l-6.61-6.61a7 7 0 1 0-5.89 3.23z"/><path d="M461.71 140a7 7 0 0 0 6.21-10.22l9.92-10.28h32.25l150.62 150.62v45L680.4 334a7 7 0 1 0 1.85-2.38l-18.54-17.74v-45L511.33 116.5h-34.76L466 127.47a6.92 6.92 0 0 0-4.29-1.47 7 7 0 0 0 0 14z"/><path d="M617.71 321a7 7 0 1 0-4.07-12.69l-6.43-6.43v-49.5L510 155.13a7 7 0 1 0-1.9 2.35l96.15 96.14v49.5l7.42 7.42a6.88 6.88 0 0 0-.92 3.46 7 7 0 0 0 6.96 7z"/><circle cx="825.71" cy="360" r="7"/><circle cx="896.71" cy="360" r="7"/><circle cx="805.71" cy="67" r="7"/><circle cx="890.71" cy="64" r="7"/><circle cx="806.71" cy="134" r="7"/><circle cx="943.71" cy="382" r="7"/><circle cx="968.71" cy="382" r="7"/><circle cx="989.71" cy="382" r="7"/><circle cx="1013.71" cy="382" r="7"/><path d="M1153.71 258a7 7 0 1 0 4.09 1.33l24.91-24.92V26h-2v207.59l-24.78 24.78a6.85 6.85 0 0 0-2.22-.37z"/><circle cx="1132.71" cy="207" r="7"/><circle cx="1373.71" cy="140" r="7"/><circle cx="1513.71" cy="94" r="7"/><circle cx="1513.71" cy="125" r="7"/><circle cx="1513.71" cy="153" r="7"/><circle cx="1510.71" cy="178" r="7"/><circle cx="1493.71" cy="322" r="7"/><path d="M1514.71 253a7 7 0 0 0 5 6.71v17.7l13 13v51.18L1520.29 354h-96l-43.5 43.5h-46.5L1269 462.75h-97.75l-27.12 27.13h-29.88l-3.73 3.73a7 7 0 1 0 1.72 1.1l2.84-2.83H1145l27.12-27.13h97.75l65.25-65.25h46.5l43.5-43.5h96l13.59-13.59v-52.82l-13-13V260a7 7 0 1 0-7-7zM1704.71 288a7 7 0 0 0 6.92-6h22.66l17.42 17.41v372.18l-11 11a21.76 21.76 0 1 0 1.41 1.42l11.63-11.63V298.59L1735.12 280h-23.49a7 7 0 1 0-6.92 8z"/><circle cx="1904.71" cy="327" r="7"/><circle cx="1904.71" cy="259" r="7"/><circle cx="1705.71" cy="177" r="7"/><circle cx="1615.71" cy="272.5" r="13.5"/><path d="M1383.71 105.5a13.53 13.53 0 1 0-7.22 11.94l18 18v72.93l-192.2 192.13h-123.67l-14.31-14.31a7 7 0 1 0-5.6 2.81 6.89 6.89 0 0 0 4.18-1.4l14.9 14.9h125.33l193.34-193.34v-74.57l-18.24-18.24a13.49 13.49 0 0 0 5.49-10.85z"/><circle cx="1615.21" cy="380.5" r="13.5"/><circle cx="1616.21" cy="489.5" r="13.5"/><circle cx="1937.21" cy="549.5" r="13.5"/><circle cx="1619.21" cy="835.5" r="13.5"/><circle cx="1504.21" cy="849.5" r="13.5"/><circle cx="1620.21" cy="928.5" r="13.5"/><circle cx="1621.21" cy="1022.5" r="13.5"/><circle cx="1386.21" cy="885.5" r="13.5"/><path d="M1347.21 1080a13.5 13.5 0 1 0 8.25 24.17l9.75 9.74v37.5l11.83 11.84h31.23a7.07 7.07 0 1 0 1.31-2h-31.71l-10.66-10.66v-37.5l-10.21-10.26a13.49 13.49 0 0 0-9.74-22.83z"/><circle cx="1392.21" cy="1093.5" r="13.5"/><circle cx="1441.21" cy="1093.5" r="13.5"/><circle cx="1484.21" cy="1093.5" r="13.5"/><circle cx="1531.21" cy="1093.5" r="13.5"/><circle cx="1347.21" cy="1140.5" r="13.5"/><circle cx="1359.21" cy="1225.5" r="13.5"/><circle cx="1689.21" cy="1184.5" r="13.5"/><circle cx="1621.21" cy="1129.5" r="13.5"/><circle cx="1755.21" cy="1090.5" r="13.5"/><circle cx="1812.21" cy="1200.5" r="13.5"/><circle cx="1858.21" cy="1200.5" r="13.5"/><circle cx="1904.21" cy="1200.5" r="13.5"/><circle cx="1953.21" cy="1200.5" r="13.5"/><circle cx="1788.21" cy="1244.5" r="13.5"/><circle cx="1834.21" cy="1244.5" r="13.5"/><circle cx="1880.21" cy="1244.5" r="13.5"/><path d="M1929.21 1231h-.5v-161.41l-63.09-63.09h-175.5l-7.25-7.25h-83.75l-4-4v-58.66l-71.27-71.28h-31.69l-5.57-5.57v-17.33l11.08-11.07v-86.93l35.95-35.95h14.54l13.66-13.66a7 7 0 1 0-1.48-1.35l-13 13h-14.54l-37.12 37.13v86.92l-11.08 11.08v19l6.74 6.74H1523l70.1 70.1V996l5.21 5.21H1682l7.25 7.25h175.5l61.92 61.91v160.83a13.47 13.47 0 1 0 2.5-.24z"/><circle cx="1392.21" cy="1140.5" r="13.5"/><circle cx="1441.21" cy="1140.5" r="13.5"/><circle cx="1484.21" cy="1140.5" r="13.5"/><circle cx="1531.21" cy="1140.5" r="13.5"/><circle cx="1504.21" cy="965.5" r="13.5"/><circle cx="1958.21" cy="883.5" r="13.5"/><circle cx="1958.21" cy="985.5" r="13.5"/><circle cx="1726.21" cy="238.5" r="21.5"/><circle cx="1735.21" cy="115" r="29"/><circle cx="1726.21" cy="312.5" r="21.5"/><circle cx="1829.21" cy="312.5" r="21.5"/><circle cx="1726.21" cy="389.5" r="21.5"/><circle cx="1726.21" cy="466.5" r="21.5"/><circle cx="1829.21" cy="466.5" r="21.5"/><circle cx="1726.21" cy="542.5" r="21.5"/><circle cx="1829.21" cy="542.5" r="21.5"/><circle cx="1726.21" cy="621.5" r="21.5"/><circle cx="1829.21" cy="621.5" r="21.5"/><circle cx="1829.21" cy="698.5" r="21.5"/><circle cx="1726.21" cy="775.5" r="21.5"/><circle cx="1829.21" cy="775.5" r="21.5"/><circle cx="1726.21" cy="929.5" r="21.5"/><circle cx="1829.21" cy="853.5" r="21.5"/><path d="M1537.71 408a7 7 0 0 0-6.71 5h-21.71l-43.5 43.5h-103.55a7 7 0 1 0 .47 2.5v-.5h103.94l43.5-43.5h20.59a7 7 0 1 0 7-7z"/><circle cx="1459.71" cy="413" r="7"/><circle cx="1461.71" cy="447" r="7"/><circle cx="1538.71" cy="467" r="7"/><path d="M1539.71 477a7 7 0 0 0-6.92 6h-54.5l-11.5 11.5h-62.55a7 7 0 1 0 .47 2.5v-.5h62.94l11.5-11.5h53.67a7 7 0 1 0 6.92-8z"/><circle cx="1459.71" cy="480" r="7"/><circle cx="1459.71" cy="512" r="7"/><circle cx="1530.71" cy="518" r="7"/><circle cx="1037.71" cy="429" r="7"/><circle cx="1037.71" cy="453" r="7"/><path d="M1107.71 471a7 7 0 1 0 4.89 12h30.52l24-24h94l68-68h46l44.5-44.5h79.5l18.69-18.69a7 7 0 1 0-1.49-1.34l-18 18h-79.5l-44.5 44.5h-46l-68 68h-94l-24 24H1114a6.85 6.85 0 0 0 .69-3 7 7 0 0 0-6.98-6.97z"/><path d="M1083.71 470a7 7 0 1 0 4.89 12h4.48v23l6.21 6.21h12.08l11.75-11.75h26.5l25.5-25.5h101l65-65h43l39-39h6.88a7 7 0 1 0-.29-2h-7.42l-39 39h-43l-65 65h-101l-25.5 25.5h-26.5l-11.75 11.75h-10.42l-5-5V480H1090a6.85 6.85 0 0 0 .69-3 7 7 0 0 0-6.98-7z"/><path d="M1067.71 477a7 7 0 1 0-7 7 6.74 6.74 0 0 0 1.63-.2l5.62 5.61v83.75l9.33 9.34h92.33l39.5-39.5h149.17l51.42 51.41v3.67a7 7 0 1 0 2 0v-4.49L1359.12 541h-150.83l-39.5 39.5h-90.67l-8.16-8.16v-83.75l-5.62-5.62a7 7 0 0 0 3.37-5.97z"/><circle cx="1059.71" cy="499" r="7"/><path d="M1083.71 507a6.85 6.85 0 0 0 2.22-.37l13.86 13.87h13.33l13.25-13.25h26.75l26.13-26.13h99.87l63.56-63.56h52.44l27.73-27.72a7 7 0 1 0-1.5-1.34l-27.06 27.06h-52.43l-63.57 63.56h-99.87l-26.13 26.13h-26.75l-13.25 13.25h-11.67l-12.82-12.83a7 7 0 1 0-4.09 1.33z"/><path d="M1081.71 529a6.94 6.94 0 0 0 4.66-1.79l2.92 2.91h23.88l5.12 5.13h15.08l15.75-15.75h11.5l25.5-25.5h103l60-60h37.67a6.63 6.63 0 0 0-.08 1 7 7 0 0 0 13.84 1.48h11.07l44.5-44.5H1527a7 7 0 1 0-.29-2h-71.42l-44.5 44.5h-10.11a7 7 0 0 0-13.32-2.45h-39.07l-60 60h-103l-25.5 25.5h-11.5l-15.75 15.75h-13.42l-5.12-5.13h-23.88l-2.46-2.45a7 7 0 1 0-6 3.33zM1106.71 585a7 7 0 1 0 5 11.9l7.59 7.6h52.33l45.5-45.5H1322a6.89 6.89 0 0 0-1.26 4 7 7 0 1 0 3.41-6h-107.86l-45.5 45.5h-50.67l-7.23-7.23a6.92 6.92 0 0 0 .82-3.27 7 7 0 0 0-7-7z"/><path d="M1081.71 585a7 7 0 1 0 4 12.74l6.79 6.88h18.12l8.51 8.63h57.31l45.13-45.75h92.38l7.15 7.25a7 7 0 1 0 4.62-1.75 6.84 6.84 0 0 0-2.9.64l-8-8.14h-94l-45.13 45.75H1120l-8.51-8.63h-18.12l-6.17-6.24a7 7 0 0 0-5.45-11.38zM1059.71 651a7 7 0 0 0 5.51-2.7l4.07 4.08h105.21l37.62-37.63h40.42l45.75 45.75h144.33l37.5-37.5h42l25.56-27.26a7 7 0 1 0-1.46-1.37l-25 26.63h-42l-37.5 37.5h-142.6l-45.75-45.75h-42.08l-37.62 37.63h-103.55l-3.88-3.89a6.85 6.85 0 0 0 .47-2.49 7 7 0 1 0-7 7zM1200.71 727a7 7 0 1 0 4.73 12.15l15.85 15.85h56.83l27-27h22.17l91.92 91.91v56.5l45.79 45.84h33.25l32.83 32.75v33h-.37a7 7 0 1 0 2.37.42v-34.21l-34-34h-33.25l-44.66-44.66v-56.5L1328.12 726h-23.83l-27 27h-55.17l-15.41-15.41a7 7 0 0 0-6-10.59z"/><path d="M1218.71 728a7 7 0 0 0 0 14 6.89 6.89 0 0 0 4.18-1.4l7.9 7.9h18.33l31.75-31.75h83.42l16.39 16.39a6.91 6.91 0 1 0 1.59-1.24l-17.15-17.15H1280l-31.75 31.75h-16.67l-7.31-7.31a7 7 0 0 0-5.6-11.19zM1232.71 578a7 7 0 0 0 0 14 6.89 6.89 0 0 0 4.18-1.4l7.4 7.4h28l50 50h112.83l37.5-37.5h37.5l.31-.31a7.08 7.08 0 0 0 3.28.81 7 7 0 1 0-5.36-2.5h-36.56l-37.5 37.5h-111.17l-50-50h-28l-6.81-6.81a7 7 0 0 0-5.6-11.19z"/><circle cx="1250.71" cy="585" r="7"/><circle cx="1256.71" cy="635" r="7"/><circle cx="1254.71" cy="658" r="7"/><circle cx="1315.71" cy="594" r="7"/><path d="M1349.71 601a7 7 0 0 0 0 14 6.89 6.89 0 0 0 4.18-1.4l3.9 3.9h60.33l7.84-7.84v-12.07l-65.71-65.71h-154l-41.06 41.06h-29.11l-1.76-1.77a7 7 0 1 0-.95 1.88l1.88 1.89h30.77l41.06-41.06h152.3l64.62 64.53v10.43l-6.67 6.66h-58.67l-3.31-3.31a7 7 0 0 0-5.6-11.19z"/><circle cx="1386.71" cy="603" r="7"/><path d="M1462.71 575a7 7 0 1 0-7-7h-21.59l-62.5-62.5h-178.33l-35.59 35.6a7.05 7.05 0 1 0 1.19 1.63l35.23-35.23h176.67l62.5 62.5H1456a7 7 0 0 0 6.71 5z"/><path d="M1547.71 579a7 7 0 1 0-6.54-9.5h-10.55l-29.5-29.5h-76l-47-47h-7.49a7 7 0 1 0 0 2h6.66l47 47h76l29.5 29.5h10.94v.5a7 7 0 0 0 6.98 7z"/><circle cx="1472.71" cy="599" r="7"/><path d="M1416.71 638a7 7 0 0 0 6.59-4.66h11.16l18.93-18.93V596.9l-83.27-83.28h-171.2l-40.63 40.63h-12.42l-5.75-5.75h-19.33l-9.5 9.5h-19l-5.22 4.56a7 7 0 1 0 1.36 1.47l4.61-4h19l9.5-9.5h17.67l5.75 5.75h14.08l40.63-40.63h169.54l82.1 82.11v15.86l-17.75 17.75h-10v-.34a7 7 0 1 0-7 7z"/><circle cx="1494.71" cy="693" r="7"/><circle cx="1401.71" cy="703" r="7"/><circle cx="1207.71" cy="791" r="7"/><circle cx="1322.71" cy="790" r="7"/><circle cx="1292.71" cy="901" r="7"/><circle cx="1373.71" cy="859" r="7"/><circle cx="1459.71" cy="815" r="7"/><circle cx="1458.71" cy="782" r="7"/><circle cx="1565.71" cy="878" r="7"/><circle cx="1574.71" cy="1045" r="7"/><circle cx="1479.71" cy="1001" r="7"/><circle cx="1435.71" cy="1001" r="7"/><circle cx="1380.71" cy="1001" r="7"/><circle cx="1404.71" cy="957" r="7"/><circle cx="1433.71" cy="961" r="7"/><path d="M1771.71 1190a7 7 0 1 0 7-7h-.19v-9.24l-64.4-64.39h-103.45l-10.38 10.37h-81.92l-13.16-13.16v-20.5l-21.5-21.5v-22l-29.59-29.58h-33l-7.81-7.81a7 7 0 1 0-5.6 2.81 6.89 6.89 0 0 0 4.18-1.4l8.4 8.4h33l28.42 28.41v22l21.5 21.5v20.5l14.33 14.34h83.58l10.38-10.37h101.79l63.23 63.22v8.75a7 7 0 0 0-4.81 6.65z"/><circle cx="1859.71" cy="1022" r="7"/><circle cx="1037.71" cy="501" r="7"/><circle cx="1586.71" cy="184" r="7"/><circle cx="1586.71" cy="153" r="7"/><circle cx="1586.71" cy="125" r="7"/><circle cx="1586.71" cy="95" r="7"/><circle cx="1102.71" cy="207" r="7"/><path d="M1100.71 148a7 7 0 1 0 6.35 4.07l14.65-14.66V39h-2v97.59l-13.77 13.77a7 7 0 0 0-5.23-2.36z"/><path d="M1079.71 148a7 7 0 1 0 5.14 2.27l19.36-19.36V39h-2v91.09L1083.3 149a7 7 0 0 0-3.59-1z"/><circle cx="1102.71" cy="222" r="7"/><path d="M1136.63 360h28.49l78-78H1259a7 7 0 1 0-.29-2h-16.42l-78 78h-27.66a7 7 0 1 0 0 2zM1601.71 211h27v26h-27zM1600.71 321h27v26h-27zM1923.71 491h27v26h-27zM1595.71 669h27v26h-27zM1634.71 777h-27v26h9.29l-23.75 23.75h-28.92l-18.16-18.16v-44.68l4.76-4.76a7 7 0 1 0-1.27-1.56l-5.49 5.5v46.32l19.33 19.34h30.58l25.79-25.75h14.84zM1946.71 925h27v26h-27zM1607.71 870h27v26h-27zM1743.71 1013h27v26h-27zM1606.71 1070h27v26h-27zM1653.71 1231h27v26h-27zM1581.71 1172v26h27v-12h38.58l22 22H1721a7 7 0 1 0-1.26-4 6.91 6.91 0 0 0 .29 2h-49.88l-22-22h-39.41v-12zM1529.71 1212h27v26h-27zM1374.71 917h27v26h-27zM220.71 542h27v26h-27zM500.71 1229h27v26h-27zM1807.71 909h40v38.52h-40zM1955.71 45.5h-81.5v92l81.5 81.5V45.5zM503.21 971.5l64.5-64.5v-46.5L631 797.25V774.5l5.62-5.62h21.63l39.68-39.69V705.5l9.16-9.16h102.12l17.58 17.58h33.42V690.5h52v20l4 4h76v-36h-45l-6-6h-180l-12.5-12.5h-47.5v7.5l-7.5 7.5h-9.5l-6.75 6.75v6.75l-5.13 5.12v24.88l-25.06 25.06h-21.06l-21 21v22l-63 63v47l-65 65v147l-19 19h-9l-24.5 24.5v20.5L386 1211.25h-44.79l-33.63 33.63 137.63.62 41-41v-67l17-17zm-39.5 239a12.5 12.5 0 1 1 12.5-12.5 12.5 12.5 0 0 1-12.5 12.5zM573.21 153.12l99.25 99.25v46.75l4.5 4.5h15.63l4.8 4.81V326l5.68 6.83a7 7 0 1 0 2.25-2l-4.93-5.83v-17.81l-6.56-6.57H678.2l-2.74-2.74v-46.75l-99.25-99.25v-20.5l-86.44-86.44-2.12 2.12 85.56 85.56z"/><path d="M675.59 316H679a7 7 0 1 0-.21-3h-2l-6.62-6.62v-50.5L566 151.63v-4.75a7 7 0 1 0-3-.11v6.1l104.21 104.25v50.5z"/><path d="M584.21 156.12L684 255.87v28.69a7 7 0 1 0 3-.55v-29.38l-99.75-99.75v-25.5l-83.98-83.94-2.12 2.12 83.06 83.06z"/><path d="M592 155.87l104.21 104.25v37.5l10.63 10.64a7 7 0 1 0 4.51.26l-12.14-12.14v-37.5L595 154.63v-31.75l-78.61-78.57-2.12 2.13L592 124.12z"/><path d="M602.21 156.12L708 261.87v22.36a7 7 0 1 0 3-.11v-23.49L605.21 154.88v-33.5l-75.94-75.94-2.12 2.12 75.06 75.06z"/><path d="M611.21 156.62l107.5 107.5v62l7.11 7.11a7 7 0 1 0 2.12-2.12l-6.23-6.23v-62l-107.5-107.5v-37.5L541 44.69l-2.1 2.12 72.31 72.31z"/><path d="M619.21 154.12L725 259.87V302l5.09 7.23a7 7 0 1 0 3.75.11L728 301v-42.37L622.21 152.88v-39.5l-68.94-68.94-2.12 2.12 68.06 68.06z"/><path d="M626 153.87l104.21 104.25v41.5l9.5 9.5v58.31l12.14 6.07h18.48l7.24-7.25a6.92 6.92 0 0 0 3.14.75 7 7 0 1 0-5.48-2.65l-6.14 6.15h-16.53l-9.85-4.93v-57.69l-9.5-9.5v-41.5L629 152.63v-43.75l-66.11-66.07-2.12 2.13L626 110.12z"/><path d="M636.21 155.12L736 254.87v41.25l17.37 17.38v39.92a7 7 0 1 0 3-.39v-40.78L739 294.88v-41.25l-99.75-99.75v-48.5l-61.98-61.94-2.12 2.12 61.06 61.06z"/><path d="M643.46 155.37l97.75 97.75v41.5l8.38 8.38h18.62v23.62l6 6a7 7 0 1 0 2.34-1.9l-5.36-5.37V300h-20.36l-6.62-6.62v-41.5l-97.75-97.75V98.88l-57.82-57.82-2.12 2.13 56.94 56.93z"/><path d="M651.71 154.12l100.5 100.5v30.32a7 7 0 1 0 3.5-.94 4.07 4.07 0 0 0-.5 0v-30.62l-100.5-100.5v-55l-56.44-56.44-2.12 2.12 55.56 55.56z"/><path d="M661 155.87l96.25 96.25v24.5l14.5 14.5V317H775a7 7 0 1 0-.21-3h-.08v-24.12l-14.5-14.5v-24.5L664 154.63V92.88l-51.11-51.07-2.12 2.13L661 94.12z"/><path d="M668.71 153.12l95.5 95.5v24.5L778 286.87v14.25L791.83 315v34.12l5.93 5.93a7 7 0 1 0 2.6-1.64l-5.53-5.53v-34.13L781 299.88v-14.25l-13.75-13.75v-24.5l-95.5-95.5v-64l-45.48-45.44-2.12 2.12 44.56 44.56z"/><path d="M678.58 154.25l91.88 91.87v23.25l12.75 12.75v14.5l14.61 14.61a7 7 0 1 0 2.12-2.12l-13.73-13.73v-14.5l-12.75-12.75v-23.25L681.58 153V83.88L639.71 42l-2.13 2.12 41 41z"/><path d="M685.21 155.12L776 245.87v22.25l12.37 12.38v16.62l8.07 8.07h11.19l5 5v54.91l7.93 7.93h88.29l7.14-7.14a6.92 6.92 0 0 0 3.74 1.09 7 7 0 1 0-5.88-3.2l-6.24 6.25h-85.83l-6.17-6.17V309l-6.78-6.78h-11.19l-6.31-6.31v-16.66L779 266.88v-22.25l-90.75-90.75v-71.5l-40.98-40.94-2.12 2.12 40.06 40.06z"/><path d="M695 155.87l86.25 86.25v22.5l14.5 14.5v7a6.95 6.95 0 1 0 3-1.82v-6.41l-14.5-14.5v-22.5L698 154.63V74.88l-34.61-34.57-2.12 2.13L695 76.12zM614.71 248.12v36.17a7 7 0 1 0 3-.21v-37.2L507.83 137h-20.24l-1.06 1a7.37 7.37 0 0 0-.82 0 7 7 0 1 0 4.89 2h16zM55.77 187h159.82l4.12 4.12v193l7.88 7.88h227.24l7-7H588a7 7 0 1 0-.21-3h-127.2l-7 7H228.83l-6.12-6.12v-193l-5.88-5.88H54.65l-22.42 19.37 2 2.26z"/><path d="M658.82 380.23a7 7 0 1 0 2.12-2.12l-8.61-8.61H458.59l-10.25 10.25H325.83l-6.83-6.87h-74a7 7 0 1 0 .75 3.12v-.12h72l6.88 6.87h125l10.25-10.25h191.21zM126.83 404h34.88v3.68a7 7 0 1 0 3-.68v-6h-39.12l-65 65H32.21v3h29.62z"/><path d="M130.83 414h7.88a7 7 0 1 0 .68-3h-9.8l-65 65H30.21v3h35.62zM221.34 402.25h240.49l6.62-6.63h138.38l5.88-5.88a7 7 0 1 0-2-2.2l-5.08 5.08H467.21l-6.62 6.63h-238l-8.37-8.37v-190.5l-8.39-8.38H66.71v70.88l-19 19v27.41a7 7 0 1 0 3-.21v-26l19-19V195h134.88l6.62 6.62v190.5z"/><path d="M153.71 433.5h328.62l29.5-29.5h109l15-15a7.06 7.06 0 1 0-1.67-2.58L619.59 401h-109l-26.72 26.72a7 7 0 0 0-4.16-11.64v-3.2l-6.38-6.38H213.59l-17.75 17.75h-54.25l-62.88 62.87h-47.5v3H80l62.88-62.87h54.25l17.75-17.75h257.21l4.62 4.62v2.17a7 7 0 1 0 6.72 11.87l-2.34 2.34H150.71V498H30.21v3h123.5z"/><path d="M649.71 398.75h-10.37l-12.75 12.75h-117.5l-28.5 28.5h-316l-4.88 4.88v58l-3.12 3.12H31.21v3h126.62l4.88-4.88v-58l3.12-3.12h316l28.5-28.5h117.5l12.75-12.75h6.13v21.13l-2.65 2.64a7.07 7.07 0 1 0 1.9 2.35l3.75-3.75z"/><path d="M101.71 519h5v39h11v-38h5v40h12v-42h5v41h11v-39h6v26h11.75v-89.13l6.37-6.37h307.5l29.5-29.5h69.8l7.07 6.43a6.86 6.86 0 0 0-1 3.57 7 7 0 1 0 3-5.77l-8-7.23h-72.2L481 447.5H173.59l-8.13 8.13V543h-5.75v-26h-12v39h-5v-41h-11v42h-6v-40h-11v38h-5v-39h-11v41h-70.5v3h73.5z"/><path d="M261.59 484l-8.38 8.38v18.5l-3.37 3.37h-42.25l-11.26 11.25V548h-18.74l-18 18H29.21v3h131.62l18-18h20.5v-24.25l9.5-9.5h42.25l5.13-5.13v-18.5l6.62-6.62h44.88v-32h-62v11.68a7 7 0 1 0 3-.68v-8h56v26z"/><path d="M40.83 576.41h125.4l14.6-14.6h21.81l5.69-5.69v-22.37l6.5-6.5h41.25l7.13-7.13v-23.5l3.62-3.62h104.88v-11h-56v-6h55v-11h-48v-4.5h157.62l21.5-21.5H511a7 7 0 1 0-.21-3h-10.2l-21.5 21.5H319.71V468h48v5h-55v12h56v5H265.59l-5.38 5.38v23.5l-5.37 5.37h-41.25l-8.26 8.25v22.38l-3.93 3.93h-21.81L165 573.41H39.59l-9.74 9.73 2.15 2.12z"/><path d="M44.33 586.5h124.5l16.75-16.75h29.13v-30.63l4.12-4.12h47l4.38-4.38v-11.5l2.87-2.87h102.63V507h-107v-6h105.12l6.38-6.38v-22.5l4.37-4.37h102.25l16.37-16.37h61.63l7.69-7.69h33.31l7.35-7.36a7 7 0 1 0-1.83-2.41l-6.76 6.77h-33.32l-7.68 7.69H502l-16.37 16.37H383.34l-6.13 6.13v22.5l-4.62 4.62H265.71v12h107v3.25H271.84l-4.63 4.63v11.5l-2.62 2.62h-47l-5.88 5.88v28.87h-27.37l-16.75 16.75H43.09l-8.94 8.94 2.12 2.12z"/><path d="M248 577.4l8.28-8.28v-12.44l28.56-28.56H405l42.88-42.87h44.25l16.75-16.75h94.5l9-9a7 7 0 1 0-1.9-2.35l-8.36 8.37h-94.5l-16.75 16.75h-44.28l-42.88 42.87H283.59l-30.32 30.32v12.44l-8.27 8.26v13.72l-1.72 1.72a12 12 0 1 0 1.82 2.4l2.89-2.89zM36.71 611h11v-19h6v19h12v-16h5v17h20v-4.08a7 7 0 1 0-3-.21V609h-14v-17h-11v16h-6v-19h-12v19h-5v-9h-11.5v3h8.5z"/><path d="M40.71 621h66v-27h4v27h12v-27h4v28h13v-29h4v30h13v-29h4v27h12v-28h6v29h10v-45h5v44h13v-45h5v43h46.18v-35.69l8.19-8.19V563.5l23.75-23.75h113.75l47.25-47.25h49.5l14.5-14.5h95a7 7 0 1 0 .21-3h-96.45l-14.5 14.5h-49.5l-47.25 47.25H288.59l-25.51 25.5v11.63l-8.19 8.19V616h-40.18v-43h-11v45h-7v-44h-11v45h-4v-29h-12v28h-6v-27h-10v29h-7v-30h-10v29h-7v-28h-10v27h-6v-27h-10v27h-66v142h-24.5v3h27.5z"/><path d="M47.71 776v8h-5.88l-10.56-10.56-2.12 2.12L40.59 787h10.12v-8h9v-12h-13v-5h17v-11h-18v-6h20v-10h-20v-5h18v-12h-17v-6h19v-12h-19v-71h218v-42.88l8.5-8.5v-8.5l20.87-20.87h110.75L455 498.12h57.88l1.57-1.57a7 7 0 1 0-1.46-2.78l-1.35 1.35h-57.93l-50.12 50.13H292.84l-22.63 22.63v8.5l-8.5 8.5V626h-218v77h19v6h-19v12h17v6h-18v11h20v4h-20v12h18v5h-17v11h13v6z"/><path d="M609.83 487.25l-6.13-6.13h-60.11l-18.44 18.44h-67.56l-53.72 53.72H297.59L279.85 571v10.86l-8.57 8.57V650h-5.57v-18h-11v20h-7v-18h-195v12h33v6h-34v10h33v6h-33v12h34v5h-35v10h18v80.88l-36.56 36.56 2.12 2.12 37.44-37.44V692h-18v-4h35v-11h-34v-6h33v-12h-33v-4h34v-12h-33v-6h189v18h13v-20h5v18h11.57v-61.31l8.57-8.57v-10.86l16-16h106.26l53.72-53.72h67.56l18.44-18.44h57.63l6.13 6.13h12.49l8.13-8.13v-35.5l3.62-3.62h19l7.51-7.51a7 7 0 1 0-1.63-4.49 6.59 6.59 0 0 0 .21 1.67l-7.33 7.35h-19l-5.38 5.38v35.5l-6.37 6.37z"/><path d="M240.71 655v-12H93.21v46.38l-15.5 15.5v73l-42.56 42.56 2.12 2.12 43.44-43.44v-73l15.5-15.5V646h141.5v6h-135v10h172.12l8.88-8.88V595h3v47h12v-73h3v53h14v-57h5v39h12v-39h3v34h12v-34h64.12l49-49h11.88a7 7 0 1 0 .68-3h-13.8l-49 49h-65.88v34h-6v-34h-9v39h-6v-39h-11v57h-8v-53h-9v73h-6v-47h-9v59.88l-7.12 7.12H105.71v-4z"/><path d="M545.59 492l-33.5 33.5h-57.5l-44.75 44.75h-41.15a6.92 6.92 0 0 0-4-1.25 7 7 0 1 0 7 7 6.8 6.8 0 0 0-.57-2.75h39.94l44.75-44.75h57.5l33.5-33.5h81l11-11.05a7.55 7.55 0 0 0 .83.05 7 7 0 1 0-3.92-1.2l-9.2 9.2zM489.83 476l16-16h61l5-5H587a7 7 0 1 0-.21-3h-16.2l-5 5h-61l-16 16h-76l-25.38 25.38v12.09a7 7 0 1 0 3-.44v-10.41L413.83 476z"/><path d="M31.21 964h30V835.62l44.5-44.5V740h67v-12h-66v-5h81.13l17-17h61l80-80h53.05l61.95-62h68.09l28.91-28.9H621l9.06-9.07v-9.53l3.75-3.75h13.75l5.63-5.63v-41.74l-7.61-7.61a7 7 0 1 0-2.12 2.12l6.73 6.73v39.26l-3.87 3.87h-13.73l-5.51 5.5v9.63l-7.31 7.31h-63.18l-28.91 28.9h-68.09l-62 62h-53l-80 80h-61l-17 17h-82.88v11h66v6h-67v52.88l-44.5 44.5V961h-27z"/><path d="M28.21 940h25.5v-12h-20.5v3h17.5v6h-22.5v3zM28.21 954v3h25.5v-12h-20.5v3h17.5v6h-22.5zM50.71 832.12l46-46v-69l3.12-3.12h88.88v-11h-44v-7h121v-11h-120v-7h137.12l61.5-61.5h56.5l61.25-61.25h65.75l29.62-29.63h30.77a7 7 0 1 0-.49-3h-31.52l-29.62 29.63h-65.75l-61.25 61.25h-56.5l-61.5 61.5H142.71v13h120v5h-121v13h44v5H98.59l-4.88 4.88v69l-46 46V920h-12.5v3h15.5z"/><path d="M34 872.31l10.21-10.19v-34.5l44.5-44.5v-73l5.12-5.12h12.88v-35.31h170.81l60.31-60.31h61.37l62.63-62.63h60.75l33.25-33.25h50.26l5.14 5.15a7 7 0 1 0 2.34-1.9l-6.24-6.25h-52.74l-33.25 33.25h-60.75L398 606.38h-61.41l-60.32 60.31H103.71V702H92.59l-6.88 6.88v73l-44.5 44.5v34.5l-9.31 9.31zM43.21 880.38l-5.94-5.94-2.12 2.12 5.06 5.06V908h-8v3h11v-30.62z"/><path d="M24.21 999h265.5v-16h-177v-6h178v-17h-179v-7h179v-14h-178v-8h178v-14h-179v-8h157v-14h-154v-8h137v-14h-138v-12h114v-11h-114v-26.88L124.83 812h121.88v-15h-100v-9h145v-13h-85.63v-24.5l18.75-18.75h65.75l60.25-60.25h48.5l58.38-58.38v-11.2a7 7 0 1 0-3-.21v10.17l-56.62 56.62h-48.5l-60.25 60.25h-65.75l-20.51 20.5V778h85.63v7h-145v15h100v9H123.59l-12.88 12.88V853h114v5h-114v18h138v8h-137v14h154v8h-157v14h179v8h-178v14h178v8h-179v13h179v11h-178v12h177v10H24.21z"/><path d="M384.33 681.75a7 7 0 1 0 .34 3h11.91L508.83 572.5h27.5l27.5-27.5h57l16.52-16.52a7 7 0 1 0-1.9-2.35L619.59 542h-57l-27.5 27.5h-27.5L395.34 681.75z"/><path d="M304.48 738.11a7 7 0 1 0 2.12 2.12l6.73-6.73h63.5L393 717.37v-13.25l121-121h27.88l13.06-13.06h32.89a7.3 7.3 0 0 0-.07.94 7 7 0 1 0 1.21-3.94h-35.32l-13.06 13.06h-27.88L390 702.88v13.25l-14.41 14.37h-63.5z"/><path d="M364.58 778.75l52.63-52.63v-14.5L521.83 607h29l7-7h54l23.52-23.52a7 7 0 1 0-1.9-2.35L610.59 597h-54l-7 7h-29L414.21 710.38v14.5l-50.87 50.87h-18.75L308 812.38a7 7 0 1 0 2.63 1.61l35.24-35.24z"/><path d="M589 642a7 7 0 1 0-.21-3h-57.2l-72.11 72.11a7 7 0 1 0 2.12 2.12L532.83 642z"/><path d="M609.59 626l-5.38 5.38v12.5l-6.87 6.87h-60.75l-149.51 149.5V814a7 7 0 1 0 3 .39V801.5l147.75-147.75h60.75l8.63-8.63v-12.5l3.62-3.62h17l7.11-7.11a7 7 0 1 0-2.12-2.12l-6.23 6.23z"/><path d="M441.71 791.12v-34L534.83 664h29a7 7 0 1 0 .21-3h-30.45l-94.88 94.88v34l-46 46v31.8a7 7 0 1 0 3-.68v-29.88z"/><path d="M438.83 891.12v-62.87L464 803.12v-34.75l74.87-74.87h73.5l2.61-2.61a7 7 0 1 0-2.12-2.12l-1.73 1.73h-73.5L461 767.13v34.75L435.83 827v62.88l-75.18 75.18h-25a7 7 0 1 0-.24 3h26.49z"/><path d="M444.71 895.12v-64l26.5-26.5v-35.5l70.37-70.37h81.25l8.25-8.25v-15.38l6.09-6.09a6.94 6.94 0 1 0-2.21-2l-6.88 6.88v15.37l-6.49 6.5h-81.25l-72.13 72.13v35.5l-26.5 26.5v64l-85 85v15.8a7 7 0 1 0 3-.68v-13.91z"/><path d="M632.17 735.34h3a7 7 0 1 0-.38-3h-3.81l-10.34 10.35h-56.37l-48.19 48.19v93.37L404.46 995.88v26.75l-28.25 28.25v27.5l-10.73 10.73a7 7 0 1 0 2.12 2.12l11.61-11.61v-27.5l28.25-28.25v-26.75L519.08 885.5v-93.38l46.44-46.43h56.31z"/><path d="M560.59 737l-48.88 48.88v96l-112.5 112.5v25.5L367 1052.13v8.1a7 7 0 1 0 3-.11v-6.75l32.25-32.25v-25.5l112.5-112.5v-96L561.83 740h45.92l3.32-2.77a7 7 0 1 0-1.77-2.42l-2.64 2.19z"/><path d="M413.21 1025.62v-26.5L524 888.37v-95.25l36-36h3.76a7 7 0 1 0 .62-3h-5.62L521 791.88v95.25L410.21 997.88v26.5l-21.5 21.5v21.8a7 7 0 1 0 3-.68v-19.88z"/><path d="M535.71 798.41l18.91-18.91h34.11a7 7 0 1 0 .14-2h-35.08l-20.08 20.09v96l-111 111v48l-9.41 9.41a7.07 7.07 0 1 0 1.55 1.27l9.86-9.86v-48l111-111z"/><path d="M760.27 588.86h-95L650.13 604v72.58l-25.62 25.62h-26.22l-7.39 7.4h-42.61l-65.78 65.78v96.2l-109.9 109.9v24.1l-48.95 48.95v46.87l46 46v27.15l-6.4 6.4h-18.14l-57.41-57.41v-111l-6.59-6.54H30.71v2H280.3l5.41 5.41v111l58.58 58.59h19.82l7.57-7.58v-28.8l-46-46v-45.22l48.95-49v-24.08l109.9-109.91v-96.19l64.61-64.61h42.61l7.39-7.4h26.21l26.8-26.8v-72.57l14-14h93.32l7.56 7.55v46.71l3.29 3.3h182.55l7.42 7.42H1005l15.43-15.43V626.1l14.73-14.72h35.8l9.37 9.37h18.25l5.75 5.75h11.5l6.91 6.91a7 7 0 1 0 1.27-1.56l-7.35-7.35h-11.5l-5.75-5.75h-18.25l-9.37-9.37h-37.5l-15.9 15.89v14.32l-14.25 14.25h-43l-7.42-7.42h-182.6L769 644.3v-46.71z"/><path d="M1031.68 631.41l11.43-11.41h29.18l7 7h15l5.82 5.82a7 7 0 1 0 1.41-1.41l-6.4-6.41h-15l-7-7h-30.84l-12.6 12.6v16l-21.39 21.38h-48.11l-6.06-6.05H769.23l-13.3-13.3v-39.27l-3.81-3.81h-61.28l-30 30v43.09l-32.55 32.56h-24.8l-9.2 9.19h-42.61l-59.19 59.2v94.78L381.27 985.59v26.56l-47.44 47.44v33.7l46.17 46.12v40.43l-13.67 13.66h-26.71l-61.91-61.91v-109l-4.59-4.59H32.71v2h239.58l3.42 3.41v109l63.08 63.09h28.33l14.88-14.84v-42.07l-46.13-46.13v-32.05l47.4-47.41v-26.59L494.49 875.2v-94.79l58-58h42.61l9.2-9.19h24.8l33.68-33.69v-43.1l28.87-28.86h59.62l2.64 2.64v39.22l14.48 14.48h184.9l6.06 6.05h49.77l22.56-22.55z"/><path d="M453.79 1108a7 7 0 1 0 0-2h-4.08v-23h-15v31h-6v-27h-13v49h-10v-42h-15v89.59l-17.92 17.91h-48.5l-5.75 5.75H145.71V1197h114v-12h-116v-11h112v-13h-110v-8h111v-13h-112v-11h110v-12h-106v-11h106v-10h-113v-13h116v-12h-115v-13h113v-10h-113v-10h114v-10h-227v2h225v6h-114v14h113v6h-113v17h115v8h-116v17h113v6h-106v15h106v8h-110v15h112v9h-111v12h110v9h-112v15h116v8h-114v14.25h175.66l5.75-5.75h48.5l19.09-19.09V1096h11v42h14v-49h9v27h10v-31h11v23zM33.002 1115.71l1.414-1.414 135.503 135.503-1.415 1.414zM30 1129.71l1.414-1.414L166.917 1263.8l-1.414 1.415zM26 1140.707l1.414-1.414 135.503 135.503-1.415 1.414zM20.005 1151.708l1.414-1.414 135.503 135.503-1.414 1.414zM8.008 1155.712l1.414-1.414L144.925 1289.8l-1.414 1.415zM.008 1163.705l1.414-1.414 135.503 135.503-1.414 1.414zM821.21 260.64a7 7 0 1 0 4.5-1.64 6.86 6.86 0 0 0-2.5.47v-57.38l-28.5-28.5V42h-2v132.41l28.5 28.5z"/><path d="M831.21 254.91l5.5 5.5v58l11.71 11.71a7 7 0 1 0 2.89.07l-12.6-12.6v-58l-5.5-5.5v-61.5l-16.75-16.75V41h-2v135.66l16.75 16.75z"/><path d="M842.21 304.41l4 4a7 7 0 1 0 2.46-.45h-.08l-4.42-4.41V188.09l-17.5-17.5V40h-2v131.41l17.5 17.5z"/><path d="M851 260.84l-3.75 3.75v35.32l11.5 11.5v40.21l8.39 4.2a7 7 0 1 0 1.51-1.49l-7.9-3.95v-39.79l-11.5-11.5v-33.68l3.75-3.75v-78.07L836.33 167V35h-2v132.79L851 184.41z"/><path d="M856 267.84l-4.75 4.75v24.32l15.65 15.65a6.9 6.9 0 0 0-.15 1.44 7 7 0 1 0 .93-3.48l-14.43-14.43v-22.68l4.75-4.75v-92.07L844.33 163V39h-2v124.79L856 177.41z"/><path d="M866.77 271.65l-7.94 7.94v15.7l7.46 7.46h12.25l4.67 4.66v17.68l-6.77 6.76a7 7 0 1 0 1.27 1.56l7.5-7.5v-19.32l-5.84-5.84h-12.25l-6.29-6.29v-14.05l7.94-7.93v-97.89l-18-18V33h-2v124.38l18 18z"/><path d="M875.21 274.09l-4.5 4.5v4.7a7 7 0 1 0 2-.29v-3.59l4.5-4.5V170.59L860 153.34V38h-2v116.16l17.25 17.25z"/><path d="M883.71 297.41l10.18 10.19a7 7 0 1 0 2.82-.6 5.12 5.12 0 0 0-.56 0l-10.44-10.44v-131l-17.5-17.5V38h-2v110.91l17.5 17.5z"/><path d="M889.21 275.91l4.5 4.5v4.85a7 7 0 1 0 4-1.26 6.91 6.91 0 0 0-2 .29v-4.7l-4.5-4.5v-113.5L875 145.34V38h-2v108.16l16.25 16.25zM958.21 303.91l5.5 5.5v25l19.35 19.36a7 7 0 1 0 4.65-1.77 7.06 7.06 0 0 0-2.94.65l-19.06-19.06v-25l-5.5-5.5v-93.68L992 177.66V41h-2v135.84l-31.75 31.75z"/><path d="M952.21 326.59l-5 5a7 7 0 1 0 1.34 1.49l5.69-5.69V199.91l30.5-30.5V42h-2v126.59l-30.5 30.5z"/><path d="M966.21 300.91l7.5 7.5v19.18l9.4 5.14a7.06 7.06 0 1 0 2-1.21l-9.37-5.11v-18.82l-7.5-7.5v-82.68l31.25-31.25V85h38.25V42h-2v41h-38.28v102.34l-31.25 31.25z"/><path d="M1005.71 196.59l-31 31v68.82l12.6 12.59a7 7 0 1 0 3.58.75l-14.18-14.18v-67.16l31-31V91h37V42h-2v47h-37z"/><path d="M1014.71 203.59l-28 28v55.49a7 7 0 1 0 2 0v-54.67l28-28V100h36V40h-2v58h-36z"/><path d="M1027.71 214.59l-28.5 28.5v84.32l6.68 6.69a7 7 0 1 0 1.35-1.49l-6-6v-82.7l28.5-28.5V106h30V40h-2v64h-30z"/><path d="M1037.21 218.09l-27.5 27.5v41.7a7 7 0 1 0 2-.29v-40.59l27.5-27.5V115h30.5V33h-2v80h-30.5z"/><path d="M1047.71 224.59l-25 25v52l-8.07 8.06a7 7 0 1 0 1.71 1.12l8.36-8.36v-52l25-25V124h27V39h-2v83h-27z"/><path d="M1057.71 131v95.59l-13 13v41l-6.78 6.78a6.85 6.85 0 0 0-2.22-.37 7 7 0 1 0 4.09 1.33l6.91-6.92v-41l13-13V133h15.41l12.09-12.09V40h-2v80.09L1074.29 131z"/><path d="M1067.71 142v88.59l-16.5 16.5v44.5l-15.75 15.75V309a7 7 0 1 0 2 .22v-1.07l15.75-15.75v-44.5l16.5-16.5V144h8.41l15.59-15.59V42h-2v85.59L1077.29 142z"/><path d="M1073.83 232.71L1058 248.59v45.25l-11.75 11.75v18.5l-29.77 29.76a7 7 0 1 0 1.27 1.56l30.5-30.5v-18.5l11.75-11.75v-45.25l15.87-15.87V168h53.88V39h-2v127h-53.88zM402.66 345.49a7 7 0 1 0 6-3.49 7.09 7.09 0 0 0-2.13.33l-168.06-168.1-.73-.73h-202v5h200z"/><path d="M182.79 276.5h-62.5L107 289.84v33.75l-17 17H54.57a7 7 0 1 0 .11 2h36.07L109 324.41v-33.75l12.12-12.16h62.5l19.09-19.09V213h-41.42l-16.4 16.4a6.89 6.89 0 0 0-4.18-1.4 7 7 0 1 0 5.6 2.81L162.12 215h38.59v43.59z"/><path d="M199.71 295h-56v-2h-27v26h27v-22h54v67.59l-15.92 15.91h-93.5l-29 29a7 7 0 1 0 1.79 1l28-28h93.5l17.09-17.09zM346.66 1163.49a7 7 0 1 0 6-3.49 7.09 7.09 0 0 0-2.13.33L305.21 1115V907l-75.47-75.5h-87l-5.64-5.65a7 7 0 1 0-3.54 3.54l7.11 7.11h87l72.54 72.5v208zM785.71 260.41l34.5 34.5v32.5l2.8 2.81a7 7 0 1 0 2.69-.14l-3.49-3.49v-32.5l-34.5-34.5v-31l-74-74V80.45l11.47-10.12a7 7 0 1 0-1.33-1.5l-12.14 10.72v75.86l74 74z"/><path d="M728.21 126a4.19 4.19 0 0 0-.5 0 7 7 0 0 0 0 14 4.19 4.19 0 0 0 .5 0v12.44L798 222.16v34.25l32.87 32.88v30.94l4.88 10v17.18l8.4 8.4a7 7 0 1 0 1.41-1.41l-7.81-7.81v-16.82l-4.88-10v-31.31L800 255.59v-34.25l-69.75-69.75v-12.06a7 7 0 0 0 0-13.06v-18.56l14.5-14.5V41h-2v51.59l-14.5 14.5zM900.21 144.91v120.5l7.75 7.75v50.43l-7.96 7.92a7 7 0 1 0 2.67 5.49 6.88 6.88 0 0 0-1.3-4l8.55-8.55v-52.11l-7.75-7.75v-120.5L889.12 131l12.59-12.59V41h-2v76.59L886.29 131z"/><path d="M933.46 368.59L919.08 383v11.5h-4.87l-5.5 5.5h-13l.5 11.5h15v5.5h29.5l-7.5 7.5h-66l-8-8V449c0-.5-28.5 0-28.5 0l-3.5-3.5h26v-27H849v-8.75l-9.79-9.75h-6.91a7 7 0 1 0-3.79 13l6.7 2.51V420h-103.5l-5.5 5.5H716a7 7 0 1 0 0 11h13.18v8H756v8.75l-14.29 14.25V550l-18.5 18.5v-33h-6v-10.91a7 7 0 1 0-13 0v10.91h-3v49h68l9 9v46h184l5-5v-31l14.5-14.5 4.5 4.5V617h7.5l-8.5 8.5v17h10v-13l13-13v-59l11-11 10 4v23h5.5v10.08l13.13 7.6a7 7 0 1 0 1.35-1.53l-12.48-7.23v-8.92h7.12v-47.62l-6.62-6.63h-42.75l-10.75-10.75V466h19v35h2a7 7 0 1 0 .29-2h-.29v-33h12v-26h-11.44v-27l21.85-21.86h11l23.12 23.13h145.08l199.84-199.84V75.09L1387.12 56h-2.41V43h-27v26h27V58h1.58l17.92 17.91v137.68l-198.67 198.66h-143.42L1039 389.12h-12.71l-23 23V440h-19.83v-36.75l-8.75-8.75h-53.63v-10.71l14.38-14.38v-14.57l-16.25-16.25V67.91l16.5-16.5V41h-2v9.59l-16.5 16.5v272.32l16.25 16.25z"/><path d="M927.21 301.41l9.31 9.32a6.92 6.92 0 0 0-.81 3.27 7 7 0 1 0 2-4.9l-8.51-8.51V86.91L957.12 59h20.59V42h-2v15h-19.42l-29.08 29.09z"/><path d="M939.71 285.68a7 7 0 1 0 6 0V116.24l7.35-7.35a15.07 15.07 0 1 0-4.44-4l-8.91 8.91zM1099.63 178a7 7 0 1 0 0 2h28.49l12.09-12.09V35h-2v132.09L1127.29 178z"/><path d="M1082.46 192v44.34l-16.25 16.25v46.32l9.49 9.5a7 7 0 1 0 1.27-1.56l-8.76-8.76v-44.68l16.25-16.25V194h49.66l14.59-14.59V31h-2v147.59L1133.29 192z"/><path d="M1103.29 232l-22.58 22.59v28.49a7 7 0 1 0 2 0v-27.67l21.41-21.41h30l21.59-21.59V22h-2v189.59L1133.29 232z"/><path d="M1103.29 242l-13.58 13.59v20.84L1100 286a6.92 6.92 0 0 0-1.25 4 7 7 0 1 0 2.62-5.46l-9.62-9v-19.13l12.37-12.41h34l25.59-25.59V36h-2v181.59L1137.29 242z"/><path d="M1111.71 266a7 7 0 1 0-.3 2h20.71l41.09-41.09V19h-2v207.09L1131.29 266z"/><path d="M1135.41 288a7 7 0 1 0 .3 2h9.41l46.59-46.59V30h-2v212.59L1144.29 288z"/><path d="M1141.79 299.5l-7.85 7.86a7 7 0 1 0 1.12 1.71l7.56-7.57h5.5l51.88-51.84V13h-2v235.84l-50.67 50.66z"/><path d="M1119.33 323l-6-12h-.7a7 7 0 1 0-.16 2.77l5.62 11.23h17l72.59-72.59V36h-2v215.59L1134.29 323z"/><path d="M1251.71 110.41v108.18L1142.29 328h-54l-25.4 25.4a6.89 6.89 0 0 0-4.18-1.4 7 7 0 1 0 5.6 2.81l24.81-24.81h54l110.59-110.59V109.59l-8.09-8.09h-27.91V34h-2v69.5h29.08z"/><path d="M1118 339.75l-7.75 7.75h-17.5l-5.9 5.9a6.89 6.89 0 0 0-4.18-1.4 7 7 0 1 0 5.6 2.81l5.31-5.31h17.5l7.75-7.75h31.25l160.46-160.46V35h-2v145.46l-159.25 159.29z"/><path d="M1239.29 260l-85 85h-33l-10.52 10.52a7 7 0 1 0 .94 3.48 7.65 7.65 0 0 0-.15-1.44l10.56-10.56h33l85-85h45l34.59-34.59V40h-2v186.59L1284.29 260z"/><path d="M1095.79 367.5l-8.9 8.9a6.89 6.89 0 0 0-4.18-1.4 7 7 0 1 0 5.6 2.81l8.31-8.31h98.5L1330 234.66V31h-2v202.84L1194.29 367.5z"/><path d="M1136.63 381a7 7 0 1 0 0 2h55.49l146.59-146.59V33h-2v202.59L1191.29 381z"/><path d="M1117.12 393l-6.81-6.81a7 7 0 1 0-5.6 2.81 6.89 6.89 0 0 0 4.18-1.4l7.4 7.4h77.83l155.59-155.59V28h-2v210.59L1193.29 393z"/><path d="M1136.29 422l-2.4 2.4a6.89 6.89 0 0 0-4.18-1.4 7 7 0 1 0 5.6 2.81l1.81-1.81h75l222.09-222.09V33h-2v168.09L1211.29 422z"/><path d="M1149 425.75l-12.75 12.75h-12.67l-10.5-10.5h-.49a7 7 0 1 0-.05 2.29l10.21 10.21h14.33l12.75-12.75h70.25l220.46-220.46V37h-2v169.46l-219.25 219.29z"/><path d="M1149.79 429.5l-16.9 16.9a6.89 6.89 0 0 0-4.18-1.4 7 7 0 1 0 5.6 2.81l16.31-16.31h72.5L1448 206.66V20h-2v185.84L1222.29 429.5z"/><path d="M1158.23 437.94l-23.94 23.94h-10l-6.29-6.29v-11.25l-4.84-4.84h-18.5l-6.31-6.31a7 7 0 1 0-5.6 2.81 6.89 6.89 0 0 0 4.18-1.4l6.9 6.9h18.5l3.67 3.66v11.25l7.46 7.47h11.7l23.94-23.94h67.06l227.06-227.06V20h-2v192.05l-225.93 225.89z"/><path d="M1160.54 442.25l-25.25 25.25h-12.67l-16.5-16.5h-40.49a7 7 0 1 0 0 2h39.66l16.5 16.5h14.33l25.25-25.25h66.75l229.71-229.71V35h-2v178.71l-228.54 228.54z"/><path d="M1162.92 448.62l-23.63 23.63h-21.42l-14.75-14.75h-31.33l-5.5 5.5h-14.17l-3.41-3.41v-17.18l7.41-7.41a7 7 0 1 0-1.56-1.27l-7.85 7.86v18.82l4.58 4.59h15.83l5.5-5.5h29.67l14.71 14.75h23.08l23.63-23.63h66.37L1464 216.73V28h-2v187.9l-232.71 232.72z"/><path d="M1422.71 324.08a7 7 0 1 0 2 0v-13.67l43-43V22h-2v244.59l-43 43z"/><path d="M1433.71 309.08a7 7 0 1 0 2 0v-1.67l36.5-36.5V22h-2v248.09l-36.5 36.5z"/><path d="M1443.71 324.08a7 7 0 1 0 2 0v-16.67l33-33V22h-2v251.59l-33 33z"/><path d="M1457.71 309.08a7 7 0 1 0 2 0v-5.67l24.5-24.5V21h-2v257.09l-24.5 24.5z"/><path d="M1469.71 324a7 7 0 1 0 2 .29v-12.88l19-19V32h-2v259.59l-19 19z"/><path d="M1543.61 347.49l-17.32 17.32h-64.18l-57.82 57.81h-57.37l-64.63 64.63h-100.75l-26.25 26.25h-19.5l-4.15 4.15a7 7 0 1 0 1.71 1.12l3.27-3.27h19.5l26.25-26.25h100.75l64.63-64.63h57.37l57.81-57.81h64.19l18.49-18.49v-90.73l-21.45-21.46V35h-2v202l21.45 21.45z"/><path d="M1427.79 448.5h-40.67l-7.25-7.25h-29.58l-56.87 56.87h-104.13l-27.93 27.94h-9.07l-14 14h-25.85a7 7 0 1 0 1.24 4 7.16 7.16 0 0 0-.29-2h25.73l14-14h9.06l27.94-27.94h104.13l56.87-56.87H1379l7.25 7.25h42.33l21.5-21.5h10.67a6.63 6.63 0 0 0-.08 1 7 7 0 1 0 .68-3h-12.1z"/><path d="M1133.29 558l8 8h22.83l42-42h158.17l72.92 72.91v3.26a7 7 0 1 0 2-.14v-3.94L1365.12 522h-159.83l-42 42h-21.17l-8-8h-11.83l-11.18 11.18a7 7 0 1 0 .6 2.82v-.56l11.41-11.44z"/><path d="M1339.71 557.59l-8.09-8.09h-120.33L1168 592.75h-32.37V592a7 7 0 1 0-.57 2.75h33.73l43.25-43.25h118.67l6.92 6.91v38.18l-5.82 5.81a6.89 6.89 0 0 0-4.18-1.4 7 7 0 1 0 5.6 2.81l6.4-6.4z"/><path d="M1084.79 613.5h20.5l7.25 7.25h65.58l46.88-46.87h50.29l67.57 67.56h91.26l26.81-26.81v-21.22l7.3-7.3h17.06l7.22 7.21a7 7 0 1 0 1.54-1.28l-7.93-7.93h-18.72l-8.47 8.48v21.21l-25.64 25.64h-89.61l-67.56-67.56h-51.95l-46.88 46.87h-63.92l-7.25-7.25h-20.5l-14.91-14.91v-10l-11-11V529a7 7 0 1 0-2-.29v47.7l11 11v10z"/><path d="M1299.29 653.75h138.58l36.25-36.25h45.5l8.09-8.09v-16l2.26-2.26a7 7 0 1 0-1.27-1.56l-3 3v16l-6.92 6.91h-45.5L1437 651.75h-136.88l-48.87-48.87h-10.87a7 7 0 1 0 .33 2.12v-.12h9.72z"/><path d="M1549.21 558.91l11.5 11.5v24.18L1529.29 626h-47l-38 38h-163.17l-18-18h-13.41v-3h-5a7 7 0 1 0-.3 2h3.3v3h14.58l18 18h164.83l38-38h47l32.59-32.59v-25.82l-11.5-11.5v-305.5l-19.75-19.75V25h-2v208.66l19.75 19.75z"/><path d="M1047.46 655.41v-18.25l4.66-4.66h14.67l3.92 3.91v5l5.58 5.59h93.83l41.36-41.36a7 7 0 1 0-1.77-4.64 6.83 6.83 0 0 0 .65 2.93L1169.29 645h-92.17l-4.41-4.41v-5l-5.09-5.09h-16.33l-5.83 5.84v18.25L1029.08 671v68.45l34.4 34.4h10.81l10.1 10.1h14.9l6 6h20l155.44 155.44v122l11.49 11.49v92.51l42.74 42.75v21.25l21.17 21.17 1.41-1.41-20.54-20.56v-21.26l-42.74-42.74v-92.52l-11.49-11.48v-122L1126.12 788h-19.95l-6.05-6h-14.91l-10.09-10.1h-10.81l-33.23-33.22v-66.8z"/><path d="M1332 1213.28l-42.69-42.69V1082l-10.31-10.41V946.34l-154.88-154.82h-20.51l-4.49-4.49h-19l-10-10h-8.06l-36.48-36.47v-71.3l16.88-16.88v-17.22l8.66-8.66h21.67l5.27 5.27a7 7 0 1 0 4.65-1.77 7.06 7.06 0 0 0-2.94.65l-6.15-6.15h-23.33l-9.83 9.84v17.25l-16.88 16.87v72.95l37.65 37.65h8.06l10 10h19l4.49 4.49h20.51L1277 947.17v125.24l10.38 10.38v88.62l42.62 42.69v21.31l35.64 35.64 1.41-1.41-35-35.05z"/><path d="M1339 1199.09l-34.51-34.5v-93.82l-10.19-10.18V940l-163.18-163.25h-18.75l-4.25-4.25h-17.5l-12.5-12.5h-10l-26.41-26.41v-43.18l31.41-31.41h123l21.88-21.85a7 7 0 1 0-1.27-1.56L1195.29 657h-123l-32.58 32.59v44.82l27.58 27.59h10l12.5 12.5h17.5l4.25 4.25h18.75l162 162v120.62l10.19 10.19v93.81l35.68 35.68h35.09l4.87 4.87v57h2v-57.87l-6-6z"/><path d="M1335.68 1204.44l-36.85-36.85v-94.13l-9.87-9.87V941.34L1129.12 781.5h-20.5l-3.5-3.5h-15l-13-13h-11l-29.41-29.41v-51.22l8.54-10a7 7 0 1 0-1.35-1.49l-9.19 10.72v52.78l30.58 30.62h11l13 13h15l3.5 3.5h20.5L1287 942.16v122.25l9.87 9.88v94.12l38 38h33.43l5.2 5.19v46.4h2v-47.2l-6.37-6.36z"/><path d="M1554.11 557l11.41 11.4v29l-34.23 34.22h-49.37l-38.63 38.63h-206.42l-5.75-5.75h-153.33l-25.08 25.09v12.49a7 7 0 1 0 2 0v-11.67l23.91-23.91h151.67l5.75 5.75h208.08l38.63-38.63h49.37l35.4-35.39v-30.64l-11.41-11.41V248.59l-18.7-18.71V29h-2v201.71l18.7 18.7z"/><path d="M1386.48 1199.81l-7.36-7.36h-37.45l-31.86-31.86v-91.11l-9.89-9.89V937.38l-166.8-166.8h-17.58l-4.42-4.42H1091l-8.84-8.85h-11.31l-10.73-10.72v-26.8l4.38-4.38v-30.25l14.66-14.66h81.67l10.83 10.83a7 7 0 1 0 4.09-1.33 6.76 6.76 0 0 0-2.22.37l-11.87-11.87h-83.33l-15.83 15.84v30.25l-4.38 4.37v28.45l11.9 11.9h11.31l8.85 8.85h20.15l4.42 4.42h17.58l165.59 165.62v122.21l9.89 9.9v91.1l33 33h37.44l6.19 6.19v38.77l23.91 23.91 1.41-1.42-23.32-23.31z"/><path d="M1156.29 677l4.92 4.91v8.5l9.33 9.34h23.58l21.88-21.87h204.29l6.48 6.47v12.93a7 7 0 1 0 2-.28v-13.48l-7.65-7.64h-205.95l-21.88 21.87h-21.92l-8.16-8.16v-8.5l-6.09-6.09h-63.83l-7 7a7.07 7.07 0 1 0 1.55 1.27l6.27-6.27z"/><path d="M1560.15 554l9.45 9.44v37.07l-37.31 37.3h-48.22l-46.8 46.81v25.56l-3 3H1421l-3.54-3.53v-21.81l-6.34-6.34h-192.33l-27.5 27.5h-15.17l-17.27-17.27a7 7 0 1 0-1.55 1.27l18 18h16.83l27.5-27.5h190.67l5.17 5.16v21.75l4.71 4.71h14.95l4.15-4.14v-25.57l45.63-45.63h48.22l38.48-38.48v-38.71l-9.45-9.45V246.59l-19.22-19.23V0h-2v228.19l19.22 19.22z"/><path d="M1565.33 549.79l11.67 11.62v40.43l-41.67 41.66h-46.5l-44.08 44.09v26l-6.42 6.41h-22.17l-3.41-3.41v-23l-5.59-5.59h-183.87l-29 29h-37.17l-31-31h-14.71a7 7 0 1 0 .3 2h13.58l31 31h38.83l29-29h182.17l4.42 4.41v23l4.58 4.59h23.83l7.59-7.59v-26l42.91-42.91h46.5l42.88-42.84v-42.07L1567.33 549V243.59L1549 225.27V34h-2v192.1l18.31 18.31z"/><path d="M1240.29 692l-16.52 16.52a7 7 0 1 0 .94 3.48 7.65 7.65 0 0 0-.15-1.44l16.56-16.56h135.17l31 31h35.83l8.09-8.09v-26.5l39.16-39.16h47.75l45.71-45.71v-46.95L1573.27 548V322.41l1.48-1.47a7 7 0 1 0-1.21-1.63l-2.27 2.28v227.26l10.56 10.56v45.3l-44.54 44.54h-47.75l-40.33 40.34v26.5l-6.92 6.91h-34.17l-31-31zM1400.28 1242.84l-6.26-6.25v-38.32l-10.9-10.89h-39.37l-29.75-29.79v-93.25l-7.75-7.75v-122.5L1136.15 764l-37.44-2.56-11.59-11.59h-12.87l-5.29-5.29v-23.9l4.25-4.25v-12.5l3.91-3.91h40.17l5.82 5.81a7 7 0 1 0 1.41-1.41l-6.4-6.4h-41.83l-5.08 5.09v12.5l-4.25 4.25v25.57l6.46 6.47h12.87l11.54 11.53 37.43 2.56 169 168.94v122.5l7.75 7.75v93.25l31 31h39.37l9.73 9.72v38.31l7.43 7.43h234.84l10.29 10.29 1.41-1.42-10.87-10.87z"/><path d="M1584.26 1224.87l-20.14-20.14H1495l-24.73 24.73h-49.63l-20.88-20.87v-13.08l-13.66-13.66h-38.85l-26.25-26.26v-93.3l-7.7-7.7V900l-15.18-15.18h-28.81l-126.19-126.2h-22.62l-6.38-6.37h-17.25l-8.75-8.75h-9.5l-4.91-4.91v-14.2l7.62-8.26a7 7 0 1 0-1.6-1.21l-8 8.69v15.8l6.08 6.09h9.5l8.75 8.75h17.25l6.38 6.37h22.62l126.19 126.19h28.81l14 14v154.59l7.7 7.71v93.29l27.44 27.44h38.85l12.49 12.49v13.07l22 22h51.29l24.73-24.73h67.44l20.14 20.14h105.86l4 4V1259h2v-29l-5.15-5.15z"/><path d="M1595.26 1212.86l-21.14-21.15h-63.71l-20.29-20.28h-22.43l-15.57-15.57h-24.85l-8.27-8.27v-12.29l-14.88-14.88h-13.42l-21.84-21.83v-25.16l-42.86-42.84V895.27l-21.9-21.89h-30.37l-124.61-124.63h-25.75l-6.25-6.25h-15.5l-5.91-5.91v-16.1l6.58-5.06a7 7 0 1 0-1.36-1.48l-7.22 5.56v17.9l7.08 7.09h15.5l6.25 6.25h25.75l124.63 124.63h30.37L1324 896.1v135.31l42.84 42.85v25.15l23 23h13.42l13.71 13.7v12.29l9.44 9.45h24.85l15.58 15.57h22.42l20.29 20.28h63.71l21.15 21.15h105.85l6 6V1258h2v-38l-7.16-7.15z"/><path d="M1589 1219.14l-20.86-20.86h-77.28l-11.72-11.72h-76.56l-11.44-11.44H1349l-22.54-22.53v-93.75l-8.25-8.25v-152.5L1300.12 880h-28l-128-128h-23l-5-5h-17l-11.24-9.74a7 7 0 1 0-3.13.74 6.11 6.11 0 0 0 .86-.06l12.72 11.06h17l5 5h23l128 128h28l16.92 16.91v152.5l8.25 8.25v93.75l23.71 23.71h42.12l11.44 11.44h76.56l11.72 11.72h77.28l20.86 20.86h106.14l4.85 4.84v35h2v-35.84l-6-6zM1518.93 978.63l4.21-4.22v-16.26l-28-28H1463l-50.54-50.53v-51.78l-88.25-88.25a7 7 0 1 0-13.5-2.59 7.06 7.06 0 0 0 1 3.59l-19.56 19.56c-4 .93-56.83.43-92-.14l-29-29h-35.41a7 7 0 1 0-.3 2h34.88l29 29h.4c.23 0 23.14.38 46 .56 46.54.38 47.25-.33 47.77-.85l19.51-19.57a7 7 0 0 0 10.2-.78l87.29 87.29v51.75l51.71 51.71h32.12l26.82 26.88v14.61l-4.21 4.21v36.61l50 50h8.83a7 7 0 1 0 .17-2h-8.17l-48.8-48.8z"/><path d="M1230.63 792a7 7 0 1 0 0 2h76.66l9.07 9.07a6.83 6.83 0 0 0-.65 2.93 7 7 0 1 0 1.77-4.64l-9.36-9.36z"/><path d="M1304.29 801.5l4.17 4.16v9.75l7.36 7.37a7 7 0 1 0 .73-2.1l-6.09-6.09v-9.75l-5.34-5.34h-71.33l-4.9 4.9a6.89 6.89 0 0 0-4.18-1.4 7 7 0 1 0 5.6 2.81l4.31-4.31z"/><path d="M1269.12 816.59l-.58-.59h-8.13a7 7 0 1 0 0 4h6.47l86.41 86.41.59.59h53l89.83 89.83v30l63.67 63.67h26a7 7 0 1 0-1.64-4.5v.5H1562l-61.33-61.33v-30l-91.59-91.58-.58-.59h-53zM1587.28 321.16l-9.43 9.43v215.68l10.15 10.14v49.46l-48.7 48.69h-46.43l-37 37v28.12l-10.54 10.54h-42.42l-31.75-31.75h-119.37l-11.9 11.9a6.89 6.89 0 0 0-4.18-1.4 7 7 0 1 0 5.6 2.81l11.31-11.31h117.67l31.71 31.78h44.08l11.71-11.71v-28.13l35.85-35.85h46.44L1590 606.7v-51.11l-10.14-10.14v-214l9.43-9.43v-66.43l-34.79-34.79V32h-2v189.63l34.79 34.78z"/><path d="M1594.39 322.27l-10.31 10.32V543l10.38 10.37v56.93l-50.17 50.16h-46.5l-35.08 35.09v24L1447.29 735h-48.17l-31-31h-100.83l-25.4 25.4a6.89 6.89 0 0 0-4.18-1.4 7 7 0 1 0 5.6 2.81l24.81-24.81h99.17l31 31h49.83l16.59-16.59v-24l33.91-33.91h46.5l51.34-51.34v-58.57l-10.38-10.38v-208.8l10.31-10.31v-72.51l-36.34-36.35V4h-2v211.07l36.34 36.34zM1322.21 1230.09l-6.09-6.09h-9.44a7.44 7.44 0 1 0-.12 2h8.73l4.92 4.91v11.5l21 21 1.41-1.42-20.45-20.45z"/><path d="M1288.71 1209.49a7.49 7.49 0 1 0-3-6 7.38 7.38 0 0 0 1 3.73v26.18l24.79 24.8 1.41-1.42-24.2-24.2z"/><path d="M1326.33 1218l-41.33-41.41v-9.25l-15.75-15.75v-22.5l-13.5-13.5v-9l-10.14-10.14a7.41 7.41 0 0 0 1.14-4 7.53 7.53 0 1 0-2.42 5.5l9.42 9.41v9l13.5 13.5v22.5l15.75 15.75v9.25l41.37 41.38v21.62l24 24 1.42-1.41-23.4-23.39z"/><path d="M1269.71 1162.59l-8-8v-25l-10-10v-10l-7.59-7.59h-10.56a7.55 7.55 0 1 0 .12 2h9.61l6.42 6.41v10l10 10v25l8 8v58l42.29 42.3 1.41-1.42-41.7-41.7z"/><path d="M1257.71 1176a7.44 7.44 0 1 0-2-.12v43.56l40.79 40.8 1.41-1.42-40.2-40.2z"/><path d="M1267.91 1253.79l-40.2-40.2v-48.18l13-13v-7.56a7.55 7.55 0 1 0-2 .12v6.62l-13 13v49.82l40.79 40.8z"/><path d="M1261 1257.71l1.41-1.42-40.7-40.7v-61.1a7.49 7.49 0 1 0-3-6 7.38 7.38 0 0 0 1 3.73v64.18zM1123.12 798h-25l-3-3h-18l-10-10h-10l-42-42h-16.83l-6.65 6.65a7 7 0 1 0 1.71 1.12l5.77-5.77h15.17l42 42h10l10 10h18l3 3h25l147.42 147.41v141.72a8 8 0 1 0 2-2.37V946.59z"/><path d="M1266.33 950l-146.21-146.25h-22.75l-4.25-4.25h-17.5l-9.5-9.5h-15l-7.41-7.41a7 7 0 1 0-1.27 1.56l7.85 7.85h15l9.5 9.5h17.5l4.25 4.25h22.75l145 145v70.8L1215 1070.9v147.51l70.64 70.64 1.41-1.41-70-70.05v-145.86l49.31-49.32z"/><path d="M1209.58 1065.46v157l73.86 73.86 1.41-1.41-73.27-73.27v-155.3l47.88-47.88v-66.62L1117.12 809.5h-24.5l-4.5-4.5h-20.71a6.91 6.91 0 0 0 .3-2 7 7 0 1 0-1.26 4h20.84l4.5 4.5h24.5l141.17 141.16v64.93z"/><path d="M1206.71 1063.41l48-48v-61.82L1123.12 822H1113a7 7 0 1 0 .69 3 8.26 8.26 0 0 0-.08-1h8.66l130.42 130.41v60.18l-48 48v161.82l87.79 87.8 1.41-1.42-87.2-87.2z"/><path d="M1088.12 812.88h-32.87l-6.29-6.29v-8.25l-7.84-7.84h-13.5l-2.91-2.91v-19l-8.4-8.4a7 7 0 1 0-5.6 2.81 6.89 6.89 0 0 0 4.18-1.4l7.82 7.81v19l4.08 4.09h13.5l6.67 6.66v8.25l7.46 7.47h32.87l5 5v12.56l7.8 7.81h30.22L1230.1 940v87.57l-33.2 33.19v166.63l59.7 59.7 1.41-1.41-59.11-59.11v-165l33.2-33.2V939.2l-101-101h-30.2l-6.63-6.63V819z"/><path d="M1192.21 1059.91l34.5-34.5v-75.82l-46.4-46.4a7 7 0 1 0-5.6 2.81 6.89 6.89 0 0 0 4.18-1.4l45.82 45.81v74.18l-34.5 34.5v172.32l89 89 1.41-1.42-88.45-88.45z"/><path d="M1126.12 852.5h-34.5l-6.91-6.91v-13.67a7 7 0 1 0-2 0v14.49l8.08 8.09h34.5l37.17 37.16v14.75l55.12 55.13v62.05l-31.44 31.41v178.39l19.08 19.08 1.41-1.42-18.49-18.48v-176.72l31.44-31.44v-63.7l-55.12-55.12v-14.75z"/><path d="M1180.64 1053.52v181.89l61.83 61.83 1.41-1.42-61.24-61.23v-180.24l32.94-32.94v-56.7l-56.12-56.12v-13.75l-37.34-37.34h-52.5l-7.91-7.91V832a7 7 0 1 0-2-.29v18.7l9.08 9.09h52.5l36.17 36.16v13.75l56.12 56.13v55.05z"/><path d="M1176.49 1051.2l32.78-32.79V966l-55.44-55.43v-14.11l-32.71-32.71h-59.75l-13.16-13.16v-32.5l-8.68-8.69a7 7 0 1 0-2.82.6 4.93 4.93 0 0 0 .55 0l9 8.94v32.5l14.33 14.34h59.75l31.54 31.54v14.12l55.44 55.44v50.74l-32.78 32.78v188l102.9 102.91 1.41-1.42-102.31-102.31z"/><path d="M1172.33 1048l31.67-31.59v-47.07l-56.75-56.75v-13.5L1118.12 870h-58l-23.41-23.41V832a7 7 0 1 0-2-.29v15.7l24.58 24.59h58l27.92 27.91v13.5l56.79 56.75v45.43l-31.63 31.62v192.2l57.48 57.48 1.42-1.41-56.9-56.89z"/><path d="M1199.52 976.77l-58.19-58.18V902l-26.21-26.21h-57.75l-31.16-31.16v-47.5L1015 785.88a7 7 0 1 0-2.9-.07l12.11 12.1v47.5l32.33 32.34h57.75l25 25v16.62l58.19 58.19v35l-32.37 32.44v225h2v-224.18l32.41-32.41z"/><path d="M1177.21 963.09l-40.5-40.5v-17L1111.12 880h-55l-35.41-35.41v-30l-4.71-4.71a7 7 0 1 0-2.9-.07l5.61 5.6v30l36.58 36.59h55l24.42 24.41v17l40.5 40.5v53.68l-16.21 16.25V1284h2v-249.34l16.25-16.25z"/><path d="M1170.21 963.09l-40.5-40.5v-7.85a6.93 6.93 0 1 0-2 1v7.7l40.5 40.5v49.68l-14.75 14.75V1269h2v-239.84l14.75-14.75z"/><path d="M1164.71 967.59l-38-38a7 7 0 1 0-1.27 1.56l37.27 37.26v44.18l-15 15V1282h2v-253.59l15-15z"/><path d="M1108 906.27l-19.9-19.89h-36.37L1015 849.59v-33.25l-12.75-12.75v-29.5l-8.13-8.09h-16l-5-5.58a6.92 6.92 0 0 0 1.58-4.42 7 7 0 1 0-3.05 5.78l5.6 6.22h16l6.92 6.91v29.5l12.83 12.75v33.25l38 38h36.37L1106 907.1v34.31l27.84 27.85V1274h2V968.43L1108 940.59z"/><path d="M1102.83 909.46l-16.71-16.71h-36.75l-41.16-41.16v-31.5l-16.5-16.5v-17.88a7 7 0 1 0-2 .29v18.41l16.5 16.5v31.5l42.33 42.34h36.75l15.54 15.54v35.12l29.44 29.44V1283h2V974l-29.44-29.43z"/><path d="M1096.71 931.59l-13.36-13.36a7 7 0 1 0-1.71 1.12l13.07 13.06v15l30 30V1275h2V976.59l-30-30z"/><path d="M1090.21 941.09l-5.5-5.5a7 7 0 1 0-1.27 1.56l4.77 4.76v9.5l29.25 29.25V1280h2V979.84l-29.25-29.25z"/><path d="M1079.06 963.06l-10.48-10.47v-33.88l-66.12-66.12v-31.75l-16.25-16.25v-9.5l-12.5-12.5a7 7 0 1 0-1.27 1.56l11.77 11.76v9.5l16.25 16.25v31.75l66.12 66.13v33.87l11.65 11.65h10.06l19.89 19.94v302h2V984.12l-21.06-21.06z"/><path d="M1062.71 917.59l-70-70v-16.27a7 7 0 1 0-3 .68 6.63 6.63 0 0 0 1-.08v16.49l70 70v37l13.5 13.5V1255h2V968.09l-13.5-13.5z"/><path d="M1057.58 918.71l-77.12-77.12v-45.75l-8.34-8.34h-14.5l-12.91-12.91v-11.67a7 7 0 1 0-2 0v12.49l14.08 14.09h14.5l7.17 7.16v45.75l77.12 77.13v36.87l11.56 11.59v301h2V967.15l-11.56-11.56z"/><path d="M1051.71 923.59l-84-84v-29.67a7 7 0 1 0-2 0v30.49l84 84v35l10.5 10.5V1293h2V969.09l-10.5-10.5z"/><path d="M1046.08 928.21l-83.62-83.62v-27.75l-28.25-28.25v-19.5l-8.9-8.9a7 7 0 1 0-5.6 2.81 6.89 6.89 0 0 0 4.18-1.4l8.32 8.31v19.5l28.25 28.25v27.75l83.62 83.59v34.37l10.81 10.82V1262h2V973.4l-10.81-10.81z"/><path d="M1040.89 928.4l-20.77-20.78H965.5l-7-7v-82.78l-8.34-8.34h-8.5l-19.91-19.91v-3.67a7 7 0 1 0-2 0v4.49l21.08 21.09h8.5l7.17 7.16v82.75l8.21 8.21h54.62l19.6 19.61v34.18l11.91 11.91V1282h2V974.49l-11.91-11.9z"/><path d="M975.62 985.5l-31.91-31.91V831.92a7 7 0 1 0-2 0v122.49l33.08 33.09h9.5l10.17 10.16V1253h2V996.84l-11.34-11.34zM1035.21 938.09l-11.5-11.5a7 7 0 1 0-1.27 1.56l10.77 10.76v27.5l12.79 12.75V1269h2V978.34l-12.75-12.75z"/><path d="M1029.21 951.09l-5.5-5.5a7 7 0 1 0-1.27 1.56l4.77 4.76v16.5l11.25 11.25V1275h2V978.84l-11.25-11.25z"/><path d="M1019.71 964.71a7 7 0 1 0-2 .29v2.41l12.5 12.5V1267h2V979.09l-12.5-12.5z"/><path d="M1008.71 941.59l-13.86-13.86a7 7 0 1 0-1.55 1.27l13.41 13.41v21l18 18V1275h2V980.59l-18-18z"/><path d="M1000.21 951.09l-3.9-3.9a7 7 0 1 0-5.6 2.81 6.89 6.89 0 0 0 4.18-1.4l3.32 3.31v11.5l19.79 19.75V1274h2V982.34l-19.75-19.75z"/><path d="M993.71 965.32a7 7 0 1 0-3 .68 6.63 6.63 0 0 0 1-.08v5.49l20 20V1277h2V990.59l-20-20z"/><path d="M979.71 935.59l-12-12a7 7 0 1 0-1.27 1.56l11.27 11.26v30l28.5 28.5V1274h2V994.09l-28.5-28.5z"/><path d="M973.21 946.09l-5.9-5.9a7 7 0 1 0-5.6 2.81 6.89 6.89 0 0 0 4.18-1.4l5.32 5.31v24.5L999 999.16V1275h2V998.34l-27.75-27.75z"/><path d="M973.12 990l-33.41-33.41v-41l-7-7v-97l-23-23v-22l-6.4-6.4a7 7 0 1 0-5.6 2.81 6.89 6.89 0 0 0 4.18-1.4l5.82 5.81v22l23 23v97l7 7v41L972.29 992h10l7.92 7.91V1289h2V999.09l-9.09-9.09z"/><path d="M971.87 996.25l-36.66-36.66v-39.5l-8.5-8.5v-100l-25.91-25.91a7 7 0 1 0-2.53.3l26.44 26.43v100l8.5 8.5v39.5L971 998.25h8.25l5.29 5.29V1270h2v-267.29l-6.46-6.46z"/><path d="M943.93 1115.37l-17.81-17.81h-31.56l-80-80V917.29l4.88-4.88V737.16l13.66-13.66h32.67l6.5 6.5h119.85l15.4-15.4a7 7 0 1 0-1.41-1.41L991.29 728H873.12l-6.5-6.5h-34.33l-14.83 14.84v175.25l-4.88 4.87v101.95l81.15 81.15h31.56l16.64 16.64v32.39L825.11 1265.4l1.41 1.42 117.41-117.41z"/><path d="M879.12 766.5h-17.5l-5.77-5.77a7 7 0 1 0-1.55 1.27l6.49 6.5h17.5l5.67 5.66v6.25l34.37 34.38v100.62l8.67 8.69v54l.79.79a7 7 0 1 0 1.21-2.94v-52.68l-8.69-8.68V814L886 779.59v-6.25z"/><path d="M907.71 820.41v103l7 7v59l17.77 17.78a7 7 0 1 0-.75-3.58l-15-15v-59l-7-7v-103L879.12 789h-17l-5.81-5.81a7 7 0 1 0-5.6 2.81 6.89 6.89 0 0 0 4.18-1.4l6.4 6.4h17z"/><path d="M932.54 1016.75h19.4a7 7 0 1 0-.22-2h-18.35l-21.16-21.16v-63.5l-14.5-14.5v-83.67a7 7 0 1 0-2 0v84.49l14.5 14.5v63.5z"/><path d="M856.71 806.59a7 7 0 1 0-1.27 1.56l6.27 6.26v19l9.5 9.5v77.5l4.75 4.75v97.25l17.46 17.47h21.87l7 7V1058a5.25 5.25 0 0 0-.56 0 7 7 0 1 0 2.56.49V1046l-8.15-8.14h-21.89L878 1021.59v-97.25l-4.75-4.75v-77.5l-9.5-9.5v-19z"/><path d="M898.37 1077.75l-66.16-66.16v-78.68l5.5-5.5V745H856a6.91 6.91 0 0 0-.29 2 7 7 0 1 0 1.26-4h-21.26v183.59l-5.5 5.5v80.32l67.33 67.34h43.75l23.54 23.54v95.3l-54.27 54.27 1.42 1.41 54.85-54.86v-97l-24.71-24.71z"/><path d="M800.62 1020.5l-8.91-8.91v-78.18l14-14v-64.49a7 7 0 1 0-2 0v63.67l-14 14v79.82l10.08 10.09h6.5l107.82 107.81a7 7 0 1 0-.35-3.17L807.12 1020.5zM751.12 791h19l6.51-7.16a7 7 0 1 0-1.19-1.67l-6.18 6.83h-19l-9.58 9.59v174.82l10.5 10.5v85.77a7 7 0 1 0 5.5-2.68 7 7 0 0 0-3.5.94v-84.85l-10.5-10.5V799.41z"/><path d="M746.71 988.59l-11-11V792.41L748.12 780h4.67a7 7 0 1 0 0-2h-5.5l-13.58 13.59v186.82l11 11v70.18l-6.27 6.26a7 7 0 1 0 1.27 1.56l7-7z"/><path d="M728.62 1081.5l-16.91-16.91V833.92a6.53 6.53 0 0 0 1 .08 7 7 0 1 0-3-.68v232.09l18.08 18.09h20.5l16.17 16.16v11.93l-6.29 6.29H572.29l-9.15 9.14v129h2v-128.17l8-8H759l7.46-7.47v-13.57l-17.34-17.34z"/><path d="M726.29 1105h21.5a7 7 0 1 0 0-2h-20.67l-26.41-26.41v-39l-11.5-11.5V834a7 7 0 1 0-2-.14v193.05l11.5 11.5v39z"/><path d="M707.72 808.9a6.94 6.94 0 1 0-1.2-1.63l-8.31 8.32v212.32l6.5 6.5v37l23.58 23.59h7.5a7 7 0 1 0 0-2h-6.67l-22.41-22.41v-37l-6.5-6.5V816.41zM580.71 1088.41v-140l22-22v-54l95-95v-23.49a7 7 0 1 0-2 0v22.67l-95 95v54l-22 22v140l-40.77 40.77a7 7 0 1 0 1.12 1.71z"/><path d="M518.71 1077.41l52-52v-84l22-22v-51l86-86v-11.49a6.53 6.53 0 0 0 1 .08 7 7 0 1 0-3-.68v11.27l-86 86v51l-22 22v84l-52 52v120l-24 24V1266h2v-44.59l24-24z"/><path d="M573.71 861.59v49l-41 41V1024a7 7 0 1 0 2 .29v-71.88l41-41v-49l68-68V787a7 7 0 1 0-2-.29v6.88zM1740.47 1225.41v-31.59l-26.35-26.35h-137.36l-13.47 13.47h-56.11l-15.06-15.06h-21.87l-12.25-12.29v-21.25l-14.84-14.84h-18.5l-11.91-11.91v-15l-70-70v-48l-1.76-2a7 7 0 1 0-1.52 1.3l1.28 1.46v48l70 70v15l13.08 13.09h18.5l13.67 13.66v21.25l13.46 13.47h21.87l15.07 15.06h57.76l13.47-13.47h135.7l25.18 25.18v29.94l-27.59 27.59 1.42 1.41z"/><path d="M1574.06 1158.77l-14.77 14.76h-48.7l-16.47-16.47h-18.06l-9.48-9.47v-19.88l-16.46-16.46h-19.25l-8.66-8.66v-19.5l-69.5-69.5v-50l-11.4-11.4a7 7 0 1 0-5.6 2.81 6.89 6.89 0 0 0 4.18-1.4l10.82 10.81v50l69.5 69.5v19.5l9.83 9.84h19.25l15.29 15.29v19.87l10.65 10.65h18.06l16.47 16.47h50.36l14.77-14.76h140.4l31.53 31.53v37.29l-34.76 34.76 1.41 1.42 35.35-35.36v-38.94l-32.7-32.7z"/><path d="M1785.07 1226.05l-26.46-26.46v-13.91l-37.49-37.48h-79.63l-6.2 6.19h-23.56l-5.61-5.61h-38l-15.78 15.78h-35.73l-9-9v-24.88l-12.46-12.46h-27.25l-6.66-6.66v-67.5l-17.12-17.06h-66l-16.41-16.41v-72l-8.59-8.59h-10.49a7 7 0 1 0 0 2h9.66l7.42 7.41v72l17.58 17.59h66l15.92 15.91v67.5l7.83 7.84h27.25l11.29 11.29v24.87l10.15 10.15h37.39l15.78-15.78h36.39l5.61 5.61h25.22l6.2-6.19h78l36.32 36.31v13.9l27.63 27.64h14l6.39 6.39V1252h2v-18.39l-7.56-7.56z"/><path d="M1789.86 1218.26l-23.67-23.67v-11.48l-42.07-42.11h-89.78l-5 5H1613l-4.92-4.92h-44.66l-16.17 16.17h-29.51l-5.76-5.75v-25.32l-12.9-12.89h-25.37l-5.79-5.79v-69.16l-18.84-18.84h-62.5l-15.91-15.91v-70L1351.12 914h-8.49a7 7 0 1 0 0 2h7.66l18.42 18.41v70l17.08 17.09h62.5l17.71 17.66v69.25l7 7h25.37l11.63 11.69v25.31l6.93 6.93h31.17l16.17-16.17h43l4.92 4.92h17.91l5-5h88.13l40.9 40.9v11.47l24.84 24.85h18.26l7.29 7.28V1254h2v-27.28l-8.46-8.46z"/><path d="M1492.21 1061.59v-23.5l-26.5-26.5v-3.88a7 7 0 1 0-2 .29v4.41l26.5 26.5v23.5l19.75 19.75v22.25l8.46 8.47h77.7l8.44-8.44h112.73l72.55 72.54a7 7 0 1 0 1.64-1.19l-73.36-73.35h-114.39l-8.44 8.44h-76l-7.29-7.29v-22.25z"/><path d="M1830.58 1187.71l-19.46-19.46h-15.25l-104.75-104.75h-84.33l-4.08 4.09v25l-4.42 4.41h-37.17l-27-27h-10.49a7 7 0 1 0 0 2h9.66l27 27h38.83l5.59-5.59v-25l2.91-2.91h82.67L1795 1170.25h15.25l18.29 18.29v27.87l21.56 21.57v34h2v-34.85l-21.56-21.56z"/><path d="M1834.33 1179l-35.21-35.21h-16.75l-84.25-84.25h-95.33l-15.5 15.5h-26.17l-51.41-51.41v-27l-103-103v-40l-86-86v-7.27a7 7 0 1 0-8.15-1.58l-7.33 9h-108.86l-26.25-26.25h-44.5l-9.5-9.5h-2.49a8.26 8.26 0 0 0 .08-1 7 7 0 1 0-.69 3h2.27l9.5 9.5h44.5l26.25 26.25h110.64l7.93-9.75a7 7 0 0 0 3.6 1 6.63 6.63 0 0 0 1-.08v7.49l86 86v40l103 103v27l52.58 52.59h27.83l15.5-15.5h93.67l84.25 84.25h16.75l34 34v32.62l24.19 24.19V1274h2v-38.23l-24.19-24.18z"/><path d="M1390.35 761.23a7 7 0 1 0-1.71 1.12l44.07 44.06v65l39.58 39.59h32l43.92 43.91V970a7 7 0 1 0 2 .14v-16.05L1505.12 909h-32l-38.41-38.41v-65z"/><path d="M1841.66 1106.63l-41.54-41.53H1734l-13.9-13.9h-112.17l-21.81-21.81h-22.39l-8.8-8.8v-27l10.21-10.22v-31.22l-57-57H1480l-31.54-31.53V751.16l21.75-21.75v-29.5l25.91-25.91H1524a7 7 0 1 0-.29-2h-28.42l-27.08 27.09v29.5l-21.75 21.75v114.07l32.71 32.71h28.12l55.85 55.88v29.61l-10.21 10.21v28.61l10 10h22.39l21.81 21.81h112.19l13.91 13.9h66.09l40.37 40.36v101l23 23v67.5h2v-68.39l-23-23z"/><path d="M1875.13 1099.16l-42.01-42h-98.16l-11.84-11.85h-112.31l-22.69-22.68h-16.62l-9.04-9.04v-17.43l10.75-10.75v-38.32L1513.12 887h-30l-20.41-20.41v-32.18l13-13v-87l20-20V700h-2v13.59l-20 20v87l-13 13v33.82l21.58 21.59h30l58.92 58.91v36.68l-10.75 10.75v19.07l10.21 10.22h16.62l22.69 22.68h112.31l11.85 11.85h98.15l40.84 40.83v115.42l23.79 23.79v65.8h2v-66.62l-23.79-23.79v-115.43z"/><path d="M1885.36 1087.93l-35.24-35.24h-110.69l-12.31-12.31h-114.38l-23.62-23.61h-15.76l-5.18-5.18v-13.71l9.46-9.47v-44.76l-62.52-62.53H1486l-15.54-15.53v-30.43l10.75-10.75v-88.5l30.5-30.5V700a7 7 0 1 0-2-.29v4.88l-30.5 30.5v88.5l-10.75 10.75v32.07l16.71 16.71h29.12l61.35 61.36v43.11l-9.46 9.46v15.36l6.35 6.36h15.76l23.62 23.61h114.38l12.31 12.31h110.69l34.07 34.07v121.65l19.67 19.68V1315h2v-85.74l-19.67-19.67z"/><path d="M1485.27 825v-84.59l51-51a7 7 0 1 0-1-1.78l-52 52v84.56l-11.44 11.44v27.7l15.46 15.46h31.25l63.67 63.66v49.68l-3.5 3.5v4.37a7 7 0 1 0 2 .29v-3.88l3.5-3.5v-51.32l-64.84-64.84h-31.25l-14.29-14.29v-26.05z"/><path d="M1921.89 1073.4l-28.77-28.78H1740.5l-31.38-31.37h-22.25l-6.75-6.75h-82.5l-8.91-8.91v-58L1521.12 872h-31l-10.41-10.41v-21.18l11-11v-86l38.41-38.41h15l10.59-10.59v-10l6.81-6.81a7 7 0 1 0-1.41-1.41l-7.4 7.4v10l-9.42 9.41h-15l-39.58 39.59v86l-11 11v22.82l11.58 11.59h31l66.42 66.41v58l10.08 10.09h82.5l6.75 6.75h22.25l31.38 31.37h152.62l27.6 27.61v149.36l-11.09 11.09V1343h2v-107.49l11.09-11.1z"/><path d="M1935.88 1068.42l-67.76-67.76h-178.66l-8.34-8.33h-75.33l-4.74-4.74v-53.35l-51.66-51.65V869.9l-47.31-47.31v-73.8l34-34h21.75l20.34-20.34v-28.36l-6.9-6.9a7 7 0 1 0-5.6 2.81 6.89 6.89 0 0 0 4.18-1.4l6.32 6.31v26.68L1557 712.75h-21.75L1500.08 748v75.45l47.31 47.32v12.68l51.66 51.66v53.34l5.91 5.92h75.33l8.34 8.33h178.66l66.59 66.59v147.16l15.91 15.92V1268h2v-36.5l-15.91-15.91z"/><path d="M1700.07 989l-18.5-18.5h-46.86V962h-27v26h27v-8.5h43.13l18.5 18.5h179.5l88.94 88.93 6.36-6.36-91.57-91.57h-179.5z"/><path d="M1878.12 976.6h-175.6l-68.4-68.39h-30.21l-9.62-9.62V877l-15.17-15.17h-28.83l-41.24-41.24v-69.83l30.07-30.07h21.69l25.27-25.28v-52.62l15.38-15.38v-75.57l-11.25-11.25V418.91l1.76-1.76a7 7 0 1 0-1.27-1.56l-2.49 2.5v123.32l11.25 11.25v73.93L1584.08 642v52.63l-24.1 24.1h-21.69l-31.24 31.24v71.48l42.41 42.42h28.83l14 14v21.58l10.8 10.8h30.2l68.4 68.39h175.6L1989.7 1091l1.41-1.42z"/><path d="M1634.21 411.69L1617.89 428h-15.18v26h13.68l16.82 16.81v219.88l-9.57 9.56h-29.25L1564 730.62h-20.63l-22.87 22.88v62.81l36.28 36.28h27.59l16.21 16.21h44.79l15.42 15.41v38.1l45.65 45.69h172l2.65 2.64h-174.56l-71.41-71.41h-27.18l-5.6-5.59V876l-22.22-22.22h-29.73l-36.15-36.14V754l27.88-27.89h21.06l28.65-28.65v-51.92l16.17-16.13v-80.07l-10.75-10.75V428.91l11.5-11.5v-10.82l-7.4-7.4a7 7 0 1 0-5.6 2.81 6.89 6.89 0 0 0 4.18-1.4l6.82 6.81v9.18l-11.5 11.5v111.32l10.75 10.75v78.43l-16.13 16.12v51.88l-27.48 27.47h-21.06l-29 29.06v65.29l37.32 37.32h29.73l21 21v17.63l6.77 6.77h27.18l71.41 71.41h174.59l88.37 88.46 1.42-1.41-2-2 11.27-11.27L1885 952h-172l-36.26-36.26v-38.16L1652 852.8h-44.8l-16.2-16.21h-27.59l-26.91-26.9v-49.56l13.5-13.51h20.63l30.37-30.37h4.63a13.5 13.5 0 1 0 5.12 0h19.5l18.94-18.94V464.19l-19.5-19.5v-5.88l20.5-20.5V85.19l-50.85-50.85-11.29 11.32 46.16 46.15z"/><path d="M1692.77 749.65l-19.48 19.47h-68.87l-5.46 5.47v30.25l-11.67 11.66h-12.67l-8.31-8.31a7 7 0 1 0-5.6 2.81 6.89 6.89 0 0 0 4.18-1.4l8.9 8.9h14.33l12.88-12.84v-30.25l4.29-4.29h68.87l20.65-20.64V57.59L1674 36.76l-1.42 1.42 20.24 20.23z"/><path d="M1678.71 745.59L1664.29 760h-63l-11.58 11.59V801H1586a7 7 0 1 0 .69 3 8.26 8.26 0 0 0-.08-1h5.08v-30.59l10.43-10.41h63l15.59-15.59V60.59l-25.8-25.8-1.41 1.42 25.21 25.2z"/><path d="M1668.71 735.59L1651.29 753h-60l-12.58 12.59v6.49a7 7 0 1 0 2 0v-5.67l11.41-11.41h60l18.59-18.59V71.59l-32.3-32.3-1.41 1.42 31.71 31.7z"/><path d="M1657.46 731.34l-14.17 14.16h-55.5l-26.53 26.5a4.93 4.93 0 0 0-.55 0 7 7 0 1 0 2.82.6l25.09-25.1h55.5l15.34-15.34V75.59l-36.17-36.17-1.41 1.41 35.58 35.58zM1974.38 1031.33l1.41-1.41-117.33-117.33v-19.75l-5.34-5.34h-91.5l-19.54-19.5a21.37 21.37 0 1 0-1.41 1.42l20.12 20.12h91.5l4.17 4.16v19.75z"/><path d="M1759.89 685.77l-4.81 4.82v159.45l28.21 28.21h76.75l8.17 8.16v22.5l57.08 57.09h35.42v-2h-34.59l-55.91-55.91v-22.5l-9.34-9.34h-76.75l-27.04-27.04v-157.8l4.81-4.81V201.59l-61.09-61.1V30h-2v111.32l61.09 61.09v483.36z"/><path d="M1879 905.69l.31.31h.22c1.18.77 6.67 6.45 11.46 11.68l.3.32h68.44v-2h-67.56c-7.65-8.33-10.44-10.88-11.59-11.66-.56-4.48-.23-47 .15-75.33v-.42l-24.09-24.09h-56.5L1781 785.34V94.59l-62-61.92-1.42 1.41L1779 95.41v690.75l20.33 20.34h56.5l22.91 22.91c-1.02 75-.14 75.9.26 76.28z"/><path d="M1768.21 789.91l27.08 27.09h56l16.42 16.41v18.67a7 7 0 1 0 2 0v-19.49L1852.12 815h-56l-25.91-25.91V98.59L1706.66 35l-1.41 1.42 63 63zM1910.71 789.5a6.5 6.5 0 0 0-6.5 6.5v76a13.5 13.5 0 1 0 13-.55V796a6.5 6.5 0 0 0-6.5-6.5z"/><path d="M1789.21 705.91l23.08 23.09h22l56.42 56.41v106l13.58 13.59h55.42v-2h-54.59l-12.41-12.41v-106L1835.12 727h-22l-21.91-21.91V91.59l-78.05-78.05-1.41 1.42 77.46 77.45v613.5z"/><path d="M1798.21 359.91l15.12 15.09a21.37 21.37 0 1 0 1.41-1.42l-14.53-14.53V85.59l-77-77.05-1.46 1.46 76.46 76.45z"/><path d="M1959.71 771.5h-48.31l-22.69-22.69v-109.5L1866 616.56V261.31L1849.69 245a21.61 21.61 0 1 0-7.68 10.7l11 10.95v355.29l22.75 22.75v109.5L1906 784.5h53.7z"/><path d="M1877.71 611.19l24.5 24.5v96.95a13.5 13.5 0 1 0 13-1.67V630.31l-24.5-24.5v-374.5l-70.25-70.25V18h-13v148.44l70.25 70.25z"/><path d="M1914.21 465.31l-11 11v122.38l44 44v88.73a13.5 13.5 0 1 0 13 .55v-94.66l-44-44V481.69l11-11V232.31l-84-84V34h-13v119.69l84 84z"/><path d="M1935.71 411.19l19.4 19.41 9.19-9.2-15.59-15.59v-180.5l-81.75-81.75V28h-13v120.94l81.75 81.75v180.5z"/></g></svg>