<svg xmlns="http://www.w3.org/2000/svg" xmlns:xlink="http://www.w3.org/1999/xlink" viewBox="0 0 1920.1 1199"><path fill="#1a1a1a" d="M-.3 0h1920v1199H-.3z"/><defs><path id="a" d="M-.3 0h1920v1199H-.3z"/></defs><clipPath id="b"><use xlink:href="#a" overflow="visible"/></clipPath><g clip-path="url(#b)"><circle cx="16.7" cy="185" r="7"/><circle cx="16.7" cy="216" r="7"/><circle cx="161.7" cy="234" r="7"/><circle cx="101.7" cy="412" r="7"/><circle cx="101.7" cy="437" r="7"/><circle cx="78.7" cy="437" r="7"/><path d="M138.7 368c0 3.9 3.1 7 7 7s7-3.1 7-7c0-3.6-2.8-6.6-6.3-7l-13.5-13.5H58.1l-14.9 14.9c-.8-.3-1.6-.4-2.4-.4-3.9 0-7 3.1-7 7s3.1 7 7 7 7-3.1 7-7c0-1.9-.8-3.6-2-4.9l13.6-13.6h72.3l11.2 11.2c-2.5 1.1-4.2 3.5-4.2 6.3z"/><circle cx="368.7" cy="462" r="7"/><path d="M426.7 535c3.9 0 7-3.1 7-7s-3.1-7-7-7-7 3.1-7 7c0 .9.2 1.8.5 2.7l-68.6 68.6h-33.7l-71.3 71.3h-67.4l-57.6 57.6h-18.8l-40.6 40.6v136.5L30.6 937H-4.8v3h36.6l33.4-33.4V770.1l38.9-38.9h18.8l57.6-57.6h67.4l71.3-71.3h33.7l69.2-69.2c1.1 1.2 2.8 1.9 4.6 1.9z"/><circle cx="406.7" cy="562" r="7"/><circle cx="344.7" cy="538" r="7"/><path d="M326.7 540c-3.9 0-7 3.1-7 7s3.1 7 7 7c2.1 0 3.9-.9 5.2-2.4l1.4 1.4h26.8l61-61h57l32-32H594l3.2-1.8c1.3 1.7 3.3 2.8 5.6 2.8 3.9 0 7-3.1 7-7s-3.1-7-7-7-7 3.1-7 7c0 .9.2 1.7.5 2.5l-2.7 1.5h-84.2l-32 32h-57l-61 61h-25.2l-1.1-1.1c.4-.9.7-1.9.7-2.9-.1-3.9-3.2-7-7.1-7zM339.7 664c3.9 0 7-3.1 7-7 0-.5-.1-1-.2-1.5h1.8L473.8 530h29l26-26h57l13-13h14.8l5.9 5.9c-.5.9-.7 2-.7 3.1 0 3.9 3.1 7 7 7s7-3.1 7-7-3.1-7-7-7c-1.6 0-3.2.6-4.4 1.5l-6.5-6.5h-17.2l-13 13h-57l-26 26h-29L347.1 652.5h-2c-1.3-1.5-3.2-2.5-5.4-2.5-3.9 0-7 3.1-7 7s3.1 7 7 7z"/><path d="M244.7 760c-3.9 0-7 3.1-7 7s3.1 7 7 7 7-3.1 7-7c0-1.1-.3-2.2-.7-3.1l46.4-46.4h26.5l43.1-43.1v-11.2l115-115h28.9l3.6-3.6h57.4l9.2-9.2v-3.5c3.3-.6 5.7-3.4 5.7-6.9 0-3.9-3.1-7-7-7s-7 3.1-7 7c0 3.3 2.2 6 5.3 6.8v2.4l-7.4 7.4h-57.4l-3.6 3.6h-28.9L364 661.9v11.2l-41.4 41.4h-26.5l-47 47c-1.2-.9-2.7-1.5-4.4-1.5z"/><path d="M244.7 798c3.9 0 7-3.1 7-7 0-1-.2-2-.6-2.9l7-7v-16.7l40.8-40.8h26.6l46.5-46.5v-11.7l110.8-110.8h30.6l6.4-6.4H575l18-18v-12.8l2.9-2.9h19.3l5.6 5.6c-1.2 1.3-2 3-2 4.9 0 3.9 3.1 7 7 7s7-3.1 7-7-3.1-7-7-7c-.9 0-1.7.2-2.4.4l-6.9-6.9h-21.7l-4.6 4.6v12.8L574 545.1h-55.1l-6.4 6.4h-30.6L369 664.2v11.7l-44.8 44.8h-26.6L255 763.2v16.7l-5.8 5.8c-1.2-1-2.8-1.7-4.5-1.7-3.9 0-7 3.1-7 7s3.1 7 7 7z"/><path d="M357.7 851c3.9 0 7-3.1 7-7 0-1.4-.4-2.7-1.1-3.7l21.1-21.1v-45.9l26.1-26.1v-35.9l83-83H539l15.8-15.8h7.5l13-13c1.2 1 2.7 1.5 4.4 1.5 3.9 0 7-3.1 7-7s-3.1-7-7-7-7 3.1-7 7c0 1.1.3 2.2.7 3.1L561 609.5h-7.5l-15.8 15.8h-45.2L407.8 710v35.9L381.7 772v45.9l-20.3 20.3c-1.1-.7-2.4-1.1-3.8-1.1-3.9 0-7 3.1-7 7s3.2 6.9 7.1 6.9z"/><path d="M357.7 868c3.9 0 7-3.1 7-7 0-1.3-.4-2.5-1-3.6l27.3-27.3v-53.7l24.3-24.3v-37.4l79.5-79.5H547l27.8-27.8h13.5l8-8c1.2 1 2.7 1.5 4.4 1.5 3.9 0 7-3.1 7-7s-3.1-7-7-7-7 3.1-7 7c0 1.1.3 2.2.7 3.1l-7.4 7.4h-13.5l-27.8 27.8h-52.2l-81.3 81.3v37.4L388 775.2v53.7l-26.4 26.4c-1.1-.8-2.5-1.2-4-1.2-3.9 0-7 3.1-7 7s3.2 6.9 7.1 6.9z"/><path d="M290.7 950c3.9 0 7-3.1 7-7s-3.1-7-7-7c-1.6 0-3.2.6-4.4 1.5l-7.1-7.1v-14.3l7.4-7.4h43.2l65.8-65.8V780l25.6-25.6V718l77.4-77.4h61.3l17.9-17.9c1.1.8 2.5 1.2 3.9 1.2 3.9 0 7-3.1 7-7s-3.1-7-7-7-7 3.1-7 7c0 1.3.4 2.5 1 3.6l-17.1 17.1h-61.3l-79.2 79.2v36.4l-25.6 25.6v62.9l-64 64h-43.2l-9.1 9.1v16.7l8.2 8.2c-.5.9-.7 2-.7 3.1 0 4.1 3.1 7.2 7 7.2z"/><circle cx="466.7" cy="1090" r="7"/><circle cx="425.7" cy="1152" r="7"/><path d="M478.8 991.3l6.5 6.5h15.6l23.3-23.3V891l22.5-22.5v-50l70-70v-7l5.6-5c1.2 1 2.7 1.5 4.4 1.5 3.9 0 7-3.1 7-7s-3.1-7-7-7-7 3.1-7 7c0 1.5.5 2.9 1.3 4l-6.3 5.6v7l-70 70v50l-22.5 22.5v83.5L500 995.8h-13.9l-5.6-5.6c1.4-1.3 2.2-3.1 2.2-5.1 0-3.9-3.1-7-7-7s-7 3.1-7 7 3.1 7 7 7c1.1-.1 2.2-.4 3.1-.8z"/><circle cx="510.7" cy="962" r="7"/><circle cx="564.7" cy="962" r="7"/><circle cx="604.7" cy="962" r="7"/><circle cx="603.7" cy="893" r="7"/><circle cx="563.7" cy="893" r="7"/><circle cx="639.7" cy="963" r="7"/><circle cx="639.7" cy="893" r="7"/><path d="M657.7 994c0-3.9-3.1-7-7-7-2.1 0-3.9.9-5.2 2.4l-20.8-20.8V841h14v-17h-14v-13h15.5v-43.1l5.3-5.3c1.3 1.4 3.1 2.4 5.2 2.4 3.9 0 7-3.1 7-7s-3.1-7-7-7-7 3.1-7 7c0 1 .2 2 .7 2.9l-6.2 6.2V809h-15.5v17h14v13h-14v130.4l21.7 21.7c-.4.9-.7 1.9-.7 2.9 0 3.9 3.1 7 7 7s7-3.1 7-7z"/><path d="M646.7 1019c3.9 0 7-3.1 7-7s-3.1-7-7-7c-1.8 0-3.5.7-4.7 1.9l-24.3-24.3V792.4l5.8-5.8c1.2.9 2.6 1.4 4.2 1.4 3.9 0 7-3.1 7-7s-3.1-7-7-7-7 3.1-7 7c0 1.6.5 3 1.4 4.2l-6.4 6.4v191.8l25 25c-.6 1.1-1 2.3-1 3.6 0 3.9 3.1 7 7 7zM853.7 1130c0 3.9 3.1 7 7 7s7-3.1 7-7c0-3.5-2.6-6.4-6-6.9v-14.5l-125-125V877.4l4-4v-98l15.5-15.5v-17.5l5-5c1.3 1.6 3.3 2.6 5.5 2.6 3.9 0 7-3.1 7-7s-3.1-7-7-7-7 3.1-7 7c0 .9.2 1.8.5 2.6l-6 6v17.5l-15.5 15.5v98l-4 4v107.8l125 125v13.7c-3.4.5-6 3.4-6 6.9z"/><path d="M878.7 1111c3.9 0 7-3.1 7-7s-3.1-7-7-7c-3.5 0-6.4 2.6-6.9 6h-3.7L742.7 976.9v-97.7l4-4v-95.6l15.8-15.9c1.2.9 2.6 1.4 4.2 1.4 3.9 0 7-3.1 7-7s-3.1-7-7-7-7 3.1-7 7c0 1.6.5 3 1.4 4.2l-16.4 16.5v95.6l-4 4v99.4l126.3 127 .3.3h4.5c.5 3.3 3.4 5.9 6.9 5.9z"/><path d="M819.7 1095c3.9 0 7-3.1 7-7s-3.1-7-7-7c-1.2 0-2.4.3-3.4.9l-16.3-16.3v-8.2l-66.8-66.8V767.9l4.8-4.8c1.2 1.1 2.9 1.9 4.7 1.9 3.9 0 7-3.1 7-7s-3.1-7-7-7-7 3.1-7 7c0 1.3.4 2.5 1 3.6l-5.5 5.5v224.3l66.8 66.8v8.2l16.7 16.7c-1.2 1.3-2 3-2 4.9 0 3.9 3.1 7 7 7z"/><path d="M784.7 1069c3.9 0 7-3.1 7-7s-3.1-7-7-7c-1.6 0-3 .5-4.2 1.4l-52.8-52.8v-73l-6-6V787.9c3.4-.5 6-3.4 6-6.9 0-3.9-3.1-7-7-7s-7 3.1-7 7c0 3.5 2.6 6.4 6 6.9v137.5l6 6v73l53.4 53.4c-.9 1.2-1.4 2.6-1.4 4.2 0 3.9 3.1 7 7 7z"/><path d="M792.7 1079c0-3.9-3.1-7-7-7-3.2 0-5.8 2.1-6.7 5h-27.3v15h-14.6v-46.8l-7.6-7.6v-20.8l-9.2-9.2v-74.5l-11.5-11.5V767.5l6.7-5c1.3 1.5 3.2 2.5 5.3 2.5 3.9 0 7-3.1 7-7s-3.1-7-7-7-7 3.1-7 7c0 1 .2 1.9.6 2.8l-7.6 5.7v155.9l11.5 11.5v74.5l9.2 9.2v20.8l7.6 7.6v48h18.6v-15h25c0 3.9 3.1 7 7 7s7-3.1 7-7z"/><path d="M882.7 1059c-3.9 0-7 3.1-7 7s3.1 7 7 7c1.8 0 3.5-.7 4.7-1.9l5.3 5.3v13.4h-20.4L764.1 981.6h-5.6l-11-11v-85.4l8.8-8.8v-83.5l6.3-6.3c1.2.9 2.6 1.4 4.2 1.4 3.9 0 7-3.1 7-7s-3.1-7-7-7-7 3.1-7 7c0 1.6.5 3 1.4 4.2l-6.9 6.9v83.5l-8.8 8.8v87.1l12.2 12.2h5.6l108.2 108.2h23.2v-16.2l-6-6c.6-1.1 1-2.3 1-3.6 0-4-3.1-7.1-7-7.1z"/><path d="M863.7 1007c0 3.9 3.1 7 7 7s7-3.1 7-7-3.1-7-7-7c-1 0-1.9.2-2.8.6l-3.8-3.8h-9.8l-20.2-20.2v-91.5l-8.5-8.5v-78l-11-11v-1.9c2.9-.9 5-3.5 5-6.7 0-3.9-3.1-7-7-7s-7 3.1-7 7 3.1 7 7 7v2.4l11 11v78l8.5 8.5v91.5l21.3 21.3h9.8l2.9 2.9c-1.4 1.3-2.4 3.3-2.4 5.4z"/><circle cx="855.7" cy="959" r="7"/><circle cx="855.7" cy="895" r="7"/><circle cx="810.7" cy="893" r="7"/><circle cx="810.7" cy="960" r="7"/><circle cx="765.7" cy="962" r="7"/><circle cx="764.7" cy="892" r="7"/><path d="M690.7 1014c3.9 0 7-3.1 7-7 0-1.7-.6-3.3-1.6-4.5l6.1-6.1v-44.3l-11.5-11.5v-214l-12.4-12.4c.9-1.2 1.4-2.6 1.4-4.2 0-3.9-3.1-7-7-7s-7 3.1-7 7 3.1 7 7 7c1.6 0 3-.5 4.2-1.4l11.8 11.8v214l11.5 11.5v42.7l-5.6 5.6c-1.1-.7-2.5-1.2-3.9-1.2-3.9 0-7 3.1-7 7s3.1 7 7 7z"/><path d="M685.7 987c3.9 0 7-3.1 7-7 0-1-.2-2-.7-2.9l5.7-5.7v-14.8l-12-12v-199l-7.9-7.9c1.1-1.2 1.9-2.9 1.9-4.7 0-3.9-3.1-7-7-7s-7 3.1-7 7 3.1 7 7 7c1.3 0 2.5-.4 3.6-1l7.4 7.4v199l12 12v13.2l-4.8 4.8c-1.3-1.4-3.1-2.4-5.2-2.4-3.9 0-7 3.1-7 7s3.1 7 7 7z"/><circle cx="685.7" cy="962" r="7"/><circle cx="649.7" cy="594" r="7"/><circle cx="649.7" cy="617" r="7"/><path d="M624.7 668c3.9 0 7-3.1 7-7s-3.1-7-7-7-7 3.1-7 7c0 .6.1 1.1.2 1.7l-10.8 10.8h-38.5l-11.8 11.8h-36.2l-53.3 53.3V834L356 945.2v25.7l-45.2 45.2v16.2c-3 .8-5.2 3.5-5.2 6.7 0 3.9 3.1 7 7 7s7-3.1 7-7c0-3.5-2.5-6.3-5.8-6.9v-14.8l45.2-45.2v-25.7l111.3-111.3v-95.4l51.5-51.5H558l11.8-11.8h38.5l11-11c1.3 1.6 3.3 2.6 5.4 2.6z"/><circle cx="672.7" cy="663" r="7"/><circle cx="697.7" cy="663" r="7"/><circle cx="719.7" cy="663" r="7"/><circle cx="743.7" cy="663" r="7"/><circle cx="672.7" cy="686" r="7"/><circle cx="766.7" cy="710" r="7"/><path d="M835.7 772c-3.9 0-7 3.1-7 7s3.1 7 7 7c1.3 0 2.5-.4 3.6-1l4.4 4.4v175l9.4 9.4c-.9 1.2-1.4 2.6-1.4 4.2 0 3.9 3.1 7 7 7s7-3.1 7-7-3.1-7-7-7c-1.6 0-3 .5-4.2 1.4l-8.8-8.8v-175l-4.9-4.9c1.1-1.2 1.9-2.9 1.9-4.7 0-3.9-3.1-7-7-7z"/><circle cx="923.7" cy="906" r="7"/><path d="M913.7 939c-3.9 0-7 3.1-7 7h-14.6l-6.4-6.4v-60l-8.5-8.5V768.6l-32.8-32.8h-3.2c.4-.8.6-1.8.6-2.8 0-3.9-3.1-7-7-7s-7 3.1-7 7 3.1 7 7 7c2 0 3.9-.9 5.1-2.2h3.7l31.7 31.7V872l8.5 8.5v60l7.6 7.6H907c.9 2.9 3.5 5 6.7 5 3.9 0 7-3.1 7-7s-3.1-7.1-7-7.1z"/><path d="M935.7 956c-3.9 0-7 3.1-7 7s3.1 7 7 7v4.6l-6.4 6.4h-36.2l-25.9-25.9v-68.5L853 872.3v-84.8l-4.1-4.1v-18.9l-7.1-7.1v-.4c0-3.9-3.1-7-7-7s-7 3.1-7 7 3.1 7 7 7c2.9 0 5.4-1.8 6.4-4.3l5.7 5.7v18.9l4.1 4.1v84.8l14.2 14.2v68.5l27.1 27.1h37.8l7.6-7.6v-5.7c2.9-.9 5-3.5 5-6.7 0-3.9-3.1-7-7-7zM1055.7 934c0-3.9-3.1-7-7-7s-7 3.1-7 7 3.1 7 7 7c1.3 0 2.5-.4 3.6-1l11.9 11.9V1236h2V951.1l-12.4-12.4c1.2-1.2 1.9-2.9 1.9-4.7z"/><path d="M1047.7 959c3.9 0 7-3.1 7-7s-3.1-7-7-7-7 3.1-7 7c0 1.6.5 3 1.4 4.2l-2.4 2.4V1238h2V959.4l1.8-1.8c1.2.9 2.6 1.4 4.2 1.4z"/><path d="M1053.7 962c-3.9 0-7 3.1-7 7 0 3.5 2.6 6.4 6 6.9V1224h2V975.9c3.4-.5 6-3.4 6-6.9 0-3.9-3.1-7-7-7z"/><circle cx="1115.7" cy="960" r="7"/><circle cx="1148.7" cy="960" r="7"/><circle cx="1205.7" cy="960" r="7"/><circle cx="1205.7" cy="923" r="7"/><circle cx="1238.7" cy="1066" r="8"/><path d="M1201.2 1061c-4.1 0-7.5 3.4-7.5 7.5s3.4 7.5 7.5 7.5c2 0 3.7-.8 5.1-2l11.4 11.4v21.2l-11 11v52.8l44.8 44.8 1.4-1.4-44.2-44.2v-51.2l11-11v-22.8l-12.1-12.1c.7-1.1 1.1-2.5 1.1-4 0-4.1-3.4-7.5-7.5-7.5z"/><path d="M1188.2 1073c-4.1 0-7.5 3.4-7.5 7.5s3.4 7.5 7.5 7.5c4 0 7.2-3.1 7.5-7h9.6l6.4 6.4v14.2l-12.5 12.5v58.3l44.5 44.5 1.4-1.4-44-44v-56.7l12.5-12.5v-15.8l-7.6-7.6h-10.6c-.5-3.3-3.6-5.9-7.2-5.9z"/><circle cx="1242.2" cy="1144.5" r="7.5"/><path d="M1279.7 1192.5c0-4.1-3.4-7.5-7.5-7.5s-7.5 3.4-7.5 7.5 3.4 7.5 7.5 7.5c1.5 0 2.8-.4 4-1.1l5.3 5.3 1.4-1.4-5.2-5.2c1.2-1.4 2-3.1 2-5.1z"/><circle cx="1387.2" cy="1155.5" r="7.5"/><circle cx="1424.2" cy="1153.5" r="7.5"/><path d="M1047.7 902c0-3.9-3.1-7-7-7s-7 3.1-7 7 3.1 7 7 7c1.3 0 2.5-.4 3.6-1l30.4 30.4V1240h2V937.6l-30.9-30.9c1.2-1.2 1.9-2.9 1.9-4.7zM1092.7 896c0-3.9-3.1-7-7-7s-7 3.1-7 7 3.1 7 7 7c1.8 0 3.5-.7 4.7-1.9l11.8 11.8V1219h2V912.1l-12.5-12.5c.6-1.1 1-2.3 1-3.6zM831.7 710c0 3.9 3.1 7 7 7s7-3.1 7-7c0-3.5-2.6-6.4-6-6.9v-6.5l-10.1-10.1h-30.3l-10.8 10.8v174.2l-3.4 3.4v95.5l71.9 71.9h40.3l20.8 20.8v68.5l-32.4 32.4c-1.3-1.2-3-2-4.9-2-3.9 0-7 3.1-7 7s3.1 7 7 7 7-3.1 7-7c0-1.2-.3-2.4-.9-3.4l33.2-33.2v-70.2l-21.9-21.9h-40.3l-70.7-70.7v-93.8l3.4-3.4V698.2l9.7-9.7H829l8.9 8.9v5.7c-3.6.5-6.2 3.4-6.2 6.9z"/><circle cx="697.7" cy="686" r="7"/><circle cx="719.7" cy="686" r="7"/><circle cx="743.7" cy="686" r="7"/><circle cx="764.7" cy="663" r="7"/><circle cx="833.7" cy="663" r="7"/><circle cx="858.7" cy="663" r="7"/><circle cx="973.7" cy="640" r="7"/><path d="M557.7 703c-3.9 0-7 3.1-7 7 0 1.1.3 2.2.7 3.1l-7.4 7.4h-25.5l-28.1 28.1v96.2l-110.8 111v25.1l-14.4 14.4v3.7c-3.6.3-6.4 3.3-6.4 7 0 3.9 3.1 7 7 7s7-3.1 7-7c0-3-1.9-5.6-4.6-6.6v-2.9l14.4-14.4V957l110.9-110.9v-96.2l26.4-26.4h25.5l8-8c1.2 1 2.7 1.5 4.4 1.5 3.9 0 7-3.1 7-7s-3.2-7-7.1-7z"/><circle cx="671.7" cy="594" r="7"/><circle cx="702.7" cy="594" r="7"/><circle cx="702.7" cy="571" r="7"/><circle cx="672.7" cy="571" r="7"/><circle cx="625.7" cy="569" r="7"/><path d="M579.7 563c-3.9 0-7 3.1-7 7h-3.1l-10 10h-73l-93.9 93.9v13L286.1 793.5h-8.5l-7.8 7.8c-.7-.2-1.3-.3-2.1-.3-3.9 0-7 3.1-7 7s3.1 7 7 7 7-3.1 7-7c0-2-.9-3.9-2.2-5.1l6.4-6.4h8.5l108.4-108.4v-13l92.1-92.1h73l10-10h2.6c1.1 2.4 3.5 4 6.3 4 3.9 0 7-3.1 7-7s-3.2-7-7.1-7z"/><path d="M632.7 512c0 3.2 2.1 5.8 5 6.7v6.2l-9.1 9.1h-27l-24.5 24.5h-56.5l-5.8 5.8h-29.2L380.8 669v13.9L280.6 783.1h-15.1l-18.4 18.4c-.8-.3-1.6-.5-2.5-.5-3.9 0-7 3.1-7 7s3.1 7 7 7 7-3.1 7-7c0-1.9-.7-3.6-2-4.9l17.1-17.1h15.1l101.9-101.9v-13.9l103-103h29.2l5.8-5.8h56.5l24.5-24.5h27l10.9-10.9v-7.2c3.4-.5 6-3.4 6-6.9 0-3.9-3.1-7-7-7-3.8.1-6.9 3.2-6.9 7.1z"/><circle cx="626.7" cy="477" r="7"/><circle cx="650.7" cy="385" r="7"/><circle cx="650.7" cy="361" r="7"/><circle cx="693.7" cy="361" r="7"/><circle cx="716.7" cy="361" r="7"/><circle cx="739.7" cy="361" r="7"/><circle cx="763.7" cy="361" r="7"/><circle cx="650.7" cy="407" r="7"/><circle cx="650.7" cy="431" r="7"/><circle cx="672.7" cy="407" r="7"/><circle cx="672.7" cy="431" r="7"/><path d="M235.7 767c0-3.9-3.1-7-7-7s-7 3.1-7 7c0 2.8 1.6 5.2 4 6.3v37.8l10.4 10.4h16.7l3.6-3.6v-13.8l12.7-12.7h14.6l104.6-104.6v-13.7l101.3-101.3H551c.8 3 3.5 5.2 6.7 5.2 3.9 0 7-3.1 7-7s-3.1-7-7-7c-3.5 0-6.3 2.5-6.9 5.8h-62.4l-103 103v13.7L282.6 788.4H268l-14.5 14.5v13.8l-1.9 1.9h-14.3l-8.6-8.6v-36c3.9 0 7-3.1 7-7z"/><path d="M194.7 691c-3.9 0-7 3.1-7 7s3.1 7 7 7c1.2 0 2.4-.3 3.4-.9l7.5 7.5h117.8l39.5-39.5v-11.8l116.9-116.9h27.4l4.6-4.6h48.7l7.6-7.6v-20.5l2.6-2.6h18l5-5h3.2c.9 2.9 3.5 5 6.7 5 3.9 0 7-3.1 7-7s-3.1-7-7-7c-3.5 0-6.4 2.6-6.9 6h-4.2l-5 5h-18l-4.4 4.4V530l-5.9 5.9h-48.8l-4.6 4.6h-27.4L359.9 659.1v11.8l-37.7 37.7H206.8l-6.5-6.5c.8-1.2 1.4-2.6 1.4-4.1 0-3.9-3.1-7-7-7zM220.1 284.8l9.7 1.5c.6 3.3 3.4 5.8 6.9 5.8 3.9 0 7-3.1 7-7s-3.1-7-7-7c-3.2 0-6 2.2-6.8 5.2l-9.3-1.4c-.1-3.8-3.2-6.8-7-6.8-3.9 0-7 3.1-7 7s3.1 7 7 7c3-.1 5.5-1.8 6.5-4.3zM326.7 306c-3.9 0-7 3.1-7 7s3.1 7 7 7c1.6 0 3.1-.6 4.3-1.5h70.3l14.5-14.5h149.8l6.9 6.9c-.5.9-.7 2-.7 3.1 0 3.9 3.1 7 7 7s7-3.1 7-7-3.1-7-7-7c-1.6 0-3.2.6-4.4 1.5l-7.5-7.5H414.6l-14.5 14.5h-66.8c.3-.8.5-1.6.5-2.5-.1-3.9-3.2-7-7.1-7z"/><path d="M310.7 314c-3.9 0-7 3.1-7 7s3.1 7 7 7c1.3 0 2.5-.4 3.6-1h97.5l11-11h126c.5 3.4 3.4 6 6.9 6 3.9 0 7-3.1 7-7s-3.1-7-7-7c-3.2 0-5.8 2.1-6.7 5H421.6l-11 11H317c.4-.9.7-1.9.7-3 0-3.9-3.1-7-7-7z"/><circle cx="439.7" cy="244" r="7"/><circle cx="468.7" cy="273" r="7"/><path d="M370.7 165c2.8 0 5.2-1.6 6.3-4h68.4l121 121h18l28.5 28.5h17.9c.7 3.1 3.5 5.5 6.8 5.5 3.9 0 7-3.1 7-7s-3.1-7-7-7c-2.2 0-4.1 1-5.4 2.5h-16.9L586.9 276h-18l-121-121H377c-1.1-2.4-3.5-4-6.3-4-3.9 0-7 3.1-7 7s3.1 7 7 7z"/><path d="M370.7 133c3.2 0 5.8-2.1 6.7-5h56.2l116.1 116.1c.1 3.8 3.2 6.9 7 6.9 3.9 0 7-3.1 7-7s-3.1-7-7-7c-2.7 0-5 1.5-6.2 3.7L434.8 125h-57.2c-.5-3.4-3.4-6-6.9-6-3.9 0-7 3.1-7 7s3.1 7 7 7z"/><path d="M392.7 72c1.4 0 2.7-.4 3.8-1.1l5.7 5.7v10.5l14.6 14.6h15l14.9-14.9h24.9L611.8 227v53.1l7.1 7.1c-.7 1.1-1.1 2.4-1.1 3.8 0 3.9 3.1 7 7 7s7-3.1 7-7-3.1-7-7-7c-1.4 0-2.7.4-3.7 1.1l-6.2-6.2v-53.1L472.8 83.9h-27.4l-14.9 14.9H418l-12.9-12.9V75.4l-6.6-6.6c.7-1.1 1.1-2.4 1.1-3.8 0-3.9-3.1-7-7-7s-7 3.1-7 7 3.2 7 7.1 7z"/><path d="M423.7 94c3.9 0 7-3.1 7-7 0-1.2-.3-2.3-.8-3.2l9.9-10.3H472l150.6 150.6v45l19.7 18.8c-.4.9-.7 1.9-.7 3 0 3.9 3.1 7 7 7s7-3.1 7-7-3.1-7-7-7c-1.7 0-3.2.6-4.5 1.6l-18.5-17.7v-45L473.3 70.5h-34.8l-10.6 11c-1.2-.9-2.7-1.5-4.3-1.5-3.9 0-7 3.1-7 7s3.2 7 7.1 7z"/><path d="M579.7 275c3.9 0 7-3.1 7-7s-3.1-7-7-7c-1.5 0-2.9.5-4.1 1.3l-6.4-6.4v-49.5L472 109.1c.5-.9.7-2 .7-3.1 0-3.9-3.1-7-7-7s-7 3.1-7 7 3.1 7 7 7c1.6 0 3.2-.6 4.4-1.5l96.1 96.1v49.5l7.4 7.4c-.6 1-.9 2.2-.9 3.5 0 3.9 3.1 7 7 7z"/><circle cx="787.7" cy="314" r="7"/><circle cx="858.7" cy="314" r="7"/><circle cx="767.7" cy="21" r="7"/><circle cx="852.7" cy="18" r="7"/><circle cx="768.7" cy="88" r="7"/><circle cx="905.7" cy="336" r="7"/><circle cx="930.7" cy="336" r="7"/><circle cx="951.7" cy="336" r="7"/><circle cx="975.7" cy="336" r="7"/><path d="M1115.7 212c-3.9 0-7 3.1-7 7s3.1 7 7 7 7-3.1 7-7c0-2.3-1.2-4.4-2.9-5.7l24.9-24.9V-20h-2v207.6l-24.8 24.8c-.7-.3-1.4-.4-2.2-.4z"/><circle cx="1094.7" cy="161" r="7"/><circle cx="1335.7" cy="94" r="7"/><circle cx="1475.7" cy="48" r="7"/><circle cx="1475.7" cy="79" r="7"/><circle cx="1475.7" cy="107" r="7"/><circle cx="1472.7" cy="132" r="7"/><circle cx="1455.7" cy="276" r="7"/><path d="M1476.7 207c0 3.2 2.1 5.8 5 6.7v17.7l13 13v51.2l-12.4 12.4h-96l-43.5 43.5h-46.5l-65.2 65.2h-97.8l-27.1 27.1h-29.9l-3.7 3.7c-.9-.4-1.8-.6-2.9-.6-3.9 0-7 3.1-7 7s3.1 7 7 7 7-3.1 7-7c0-2.1-.9-4-2.4-5.3l2.8-2.8h29.9l27.1-27.1h97.8l65.2-65.2h46.5l43.5-43.5h96l13.6-13.6v-52.8l-13-13V214c3.9 0 7-3.1 7-7s-3.1-7-7-7-7 3.1-7 7zM1666.7 242c3.5 0 6.4-2.6 6.9-6h22.7l17.4 17.4v372.2l-11 11c-3.8-3.5-8.9-5.6-14.5-5.6-11.9 0-21.5 9.6-21.5 21.5s9.6 21.5 21.5 21.5 21.5-9.6 21.5-21.5c0-5.6-2.1-10.6-5.6-14.5l11.6-11.6V252.6l-18.6-18.6h-23.5c-.5-3.4-3.4-6-6.9-6-3.9 0-7 3.1-7 7s3.1 7 7 7z"/><circle cx="1866.7" cy="281" r="7"/><circle cx="1866.7" cy="213" r="7"/><circle cx="1667.7" cy="131" r="7"/><circle cx="1577.7" cy="226.5" r="13.5"/><path d="M1345.7 59.5c0-7.5-6-13.5-13.5-13.5s-13.5 6-13.5 13.5 6 13.5 13.5 13.5c2.3 0 4.4-.6 6.3-1.6l18 18v72.9l-192.2 192.2h-123.7l-14.3-14.3c.9-1.2 1.4-2.6 1.4-4.2 0-3.9-3.1-7-7-7s-7 3.1-7 7 3.1 7 7 7c1.6 0 3-.5 4.2-1.4l14.9 14.9h125.3l193.3-193.3V88.6l-18.2-18.2c3.3-2.5 5.5-6.4 5.5-10.9z"/><circle cx="1577.2" cy="334.5" r="13.5"/><circle cx="1578.2" cy="443.5" r="13.5"/><circle cx="1899.2" cy="503.5" r="13.5"/><circle cx="1581.2" cy="789.5" r="13.5"/><circle cx="1466.2" cy="803.5" r="13.5"/><circle cx="1582.2" cy="882.5" r="13.5"/><circle cx="1583.2" cy="976.5" r="13.5"/><circle cx="1348.2" cy="839.5" r="13.5"/><path d="M1309.2 1034c-7.5 0-13.5 6-13.5 13.5s6 13.5 13.5 13.5c3.1 0 6-1.1 8.3-2.8l9.7 9.7v37.5l11.8 11.8h31.2c-.4.8-.6 1.8-.6 2.8 0 3.9 3.1 7 7 7s7-3.1 7-7-3.1-7-7-7c-2 0-3.9.9-5.1 2.2h-31.7l-10.7-10.7V1067l-10.3-10.3c2.3-2.4 3.8-5.7 3.8-9.3.1-7.4-5.9-13.4-13.4-13.4z"/><circle cx="1354.2" cy="1047.5" r="13.5"/><circle cx="1403.2" cy="1047.5" r="13.5"/><circle cx="1446.2" cy="1047.5" r="13.5"/><circle cx="1493.2" cy="1047.5" r="13.5"/><circle cx="1309.2" cy="1094.5" r="13.5"/><circle cx="1321.2" cy="1179.5" r="13.5"/><circle cx="1651.2" cy="1138.5" r="13.5"/><circle cx="1583.2" cy="1083.5" r="13.5"/><circle cx="1717.2" cy="1044.5" r="13.5"/><circle cx="1774.2" cy="1154.5" r="13.5"/><circle cx="1820.2" cy="1154.5" r="13.5"/><circle cx="1866.2" cy="1154.5" r="13.5"/><circle cx="1915.2" cy="1154.5" r="13.5"/><circle cx="1750.2" cy="1198.5" r="13.5"/><circle cx="1796.2" cy="1198.5" r="13.5"/><circle cx="1842.2" cy="1198.5" r="13.5"/><path d="M1891.2 1185h-.5v-161.4l-63.1-63.1h-175.5l-7.2-7.2h-83.8l-4-4v-58.6l-71.3-71.3h-31.7l-5.6-5.6v-17.3l11.1-11.1v-86.9l36-36h14.5l13.7-13.7c1.1.8 2.5 1.2 3.9 1.2 3.9 0 7-3.1 7-7s-3.1-7-7-7-7 3.1-7 7c0 1.7.6 3.2 1.6 4.5l-13 13h-14.5l-37.1 37.1v86.9l-11.1 11.1v19l6.7 6.7h31.7l70.1 70.1V950l5.2 5.2h83.8l7.2 7.2h175.5l61.9 61.9v160.8c-6.3 1.2-11 6.7-11 13.3 0 7.5 6 13.5 13.5 13.5s13.5-6 13.5-13.5-6-13.4-13.5-13.4z"/><circle cx="1354.2" cy="1094.5" r="13.5"/><circle cx="1403.2" cy="1094.5" r="13.5"/><circle cx="1446.2" cy="1094.5" r="13.5"/><circle cx="1493.2" cy="1094.5" r="13.5"/><circle cx="1466.2" cy="919.5" r="13.5"/><circle cx="1920.2" cy="837.5" r="13.5"/><circle cx="1920.2" cy="939.5" r="13.5"/><circle cx="1688.2" cy="192.5" r="21.5"/><circle cx="1697.2" cy="69" r="29"/><circle cx="1688.2" cy="266.5" r="21.5"/><circle cx="1791.2" cy="266.5" r="21.5"/><circle cx="1688.2" cy="343.5" r="21.5"/><circle cx="1688.2" cy="420.5" r="21.5"/><circle cx="1791.2" cy="420.5" r="21.5"/><circle cx="1688.2" cy="496.5" r="21.5"/><circle cx="1791.2" cy="496.5" r="21.5"/><circle cx="1688.2" cy="575.5" r="21.5"/><circle cx="1791.2" cy="575.5" r="21.5"/><circle cx="1791.2" cy="652.5" r="21.5"/><circle cx="1688.2" cy="729.5" r="21.5"/><circle cx="1791.2" cy="729.5" r="21.5"/><circle cx="1688.2" cy="883.5" r="21.5"/><circle cx="1791.2" cy="807.5" r="21.5"/><path d="M1499.7 362c-3.2 0-5.8 2.1-6.7 5h-21.7l-43.5 43.5h-103.6c-1-2.6-3.5-4.5-6.5-4.5-3.9 0-7 3.1-7 7s3.1 7 7 7 7-3.1 7-7v-.5h103.9l43.5-43.5h20.6c0 3.9 3.1 7 7 7s7-3.1 7-7-3.1-7-7-7z"/><circle cx="1421.7" cy="367" r="7"/><circle cx="1423.7" cy="401" r="7"/><circle cx="1500.7" cy="421" r="7"/><path d="M1501.7 431c-3.5 0-6.4 2.6-6.9 6h-54.5l-11.5 11.5h-62.6c-1-2.6-3.5-4.5-6.5-4.5-3.9 0-7 3.1-7 7s3.1 7 7 7 7-3.1 7-7v-.5h62.9l11.5-11.5h53.7c.5 3.4 3.4 6 6.9 6 3.9 0 7-3.1 7-7s-3.1-7-7-7z"/><circle cx="1421.7" cy="434" r="7"/><circle cx="1421.7" cy="466" r="7"/><circle cx="1492.7" cy="472" r="7"/><circle cx="999.7" cy="383" r="7"/><circle cx="999.7" cy="407" r="7"/><path d="M1069.7 425c-3.9 0-7 3.1-7 7s3.1 7 7 7c1.9 0 3.6-.8 4.9-2h30.5l24-24h94l68-68h46l44.5-44.5h79.5l18.7-18.7c1.1.7 2.5 1.2 3.9 1.2 3.9 0 7-3.1 7-7s-3.1-7-7-7-7 3.1-7 7c0 1.7.6 3.3 1.6 4.5l-18 18h-79.5l-44.5 44.5h-46l-68 68h-94l-24 24H1076c.4-.9.7-1.9.7-3 0-3.9-3.1-7-7-7z"/><path d="M1045.7 424c-3.9 0-7 3.1-7 7s3.1 7 7 7c1.9 0 3.6-.8 4.9-2h4.5v23l6.2 6.2h12.1l11.8-11.8h26.5l25.5-25.5h101l65-65h43l39-39h6.9c.9 2.9 3.5 5 6.7 5 3.9 0 7-3.1 7-7s-3.1-7-7-7-7 3.1-7 7h-7.4l-39 39h-43l-65 65h-101l-25.5 25.5h-26.5l-11.8 11.8h-10.4l-5-5V434h-5.1c.4-.9.7-1.9.7-3-.1-3.9-3.2-7-7.1-7z"/><path d="M1029.7 431c0-3.9-3.1-7-7-7s-7 3.1-7 7 3.1 7 7 7c.6 0 1.1-.1 1.6-.2l5.6 5.6v83.8l9.3 9.3h92.3L1171 497h149.2l51.4 51.4v3.7c-3.4.5-6 3.4-6 6.9 0 3.9 3.1 7 7 7s7-3.1 7-7c0-3.5-2.6-6.4-6-6.9v-4.5L1321 495h-150.8l-39.5 39.5H1040l-8.2-8.2v-83.8l-5.6-5.6c2.2-1.2 3.5-3.4 3.5-5.9z"/><circle cx="1021.7" cy="453" r="7"/><path d="M1045.7 461c.8 0 1.5-.1 2.2-.4l13.9 13.9h13.3l13.2-13.2h26.8l26.1-26.1h99.9l63.6-63.6h52.4l27.7-27.7c1.1.7 2.4 1.2 3.9 1.2 3.9 0 7-3.1 7-7s-3.1-7-7-7-7 3.1-7 7c0 1.7.6 3.3 1.6 4.5l-27.1 27.1h-52.4l-63.6 63.6h-99.9l-26.1 26.1h-26.8l-13.2 13.2h-11.7l-12.8-12.8c1.8-1.3 2.9-3.3 2.9-5.7 0-3.9-3.1-7-7-7s-7 3.1-7 7 3.2 6.9 7.1 6.9z"/><path d="M1043.7 483c1.8 0 3.4-.7 4.7-1.8l2.9 2.9h23.9l5.1 5.1h15.1l15.8-15.8h11.5l25.5-25.5h103l60-60h37.7c0 .3-.1.7-.1 1 0 3.9 3.1 7 7 7 3.4 0 6.2-2.4 6.8-5.5h11.1l44.5-44.5h70.9c.9 2.9 3.5 5 6.7 5 3.9 0 7-3.1 7-7s-3.1-7-7-7-7 3.1-7 7h-71.4l-44.5 44.5h-10.1c-.3-3.6-3.3-6.5-7-6.5-2.8 0-5.2 1.7-6.3 4.1h-39.1l-60 60h-103l-25.5 25.5h-11.5l-15.8 15.8h-13.4l-5.1-5.1h-23.9l-2.5-2.5c.7-1.1 1-2.3 1-3.7 0-3.9-3.1-7-7-7s-7 3.1-7 7 3.1 7 7 7zM1068.7 539c-3.9 0-7 3.1-7 7s3.1 7 7 7c2 0 3.7-.8 5-2.1l7.6 7.6h52.3l45.5-45.5H1284c-.8 1.1-1.3 2.5-1.3 4 0 3.9 3.1 7 7 7s7-3.1 7-7-3.1-7-7-7c-1.3 0-2.5.4-3.6 1h-107.8l-45.5 45.5h-50.7l-7.2-7.2c.5-1 .8-2.1.8-3.3 0-3.9-3.1-7-7-7z"/><path d="M1043.7 539c-3.9 0-7 3.1-7 7s3.1 7 7 7c1.5 0 2.9-.5 4-1.3l6.8 6.9h18.1l8.5 8.6h57.3l45.1-45.8h92.4l7.1 7.2c-1.5 1.3-2.4 3.2-2.4 5.3 0 3.9 3.1 7 7 7s7-3.1 7-7-3.1-7-7-7c-1 0-2 .2-2.9.6l-8-8.1h-94.1l-45.1 45.8H1082l-8.5-8.6h-18.1l-6.2-6.2c1-1.2 1.5-2.7 1.5-4.4 0-3.9-3.1-7-7-7zM1021.7 605c2.2 0 4.2-1.1 5.5-2.7l4.1 4.1h105.2l37.6-37.6h40.4l45.8 45.8h144.3l37.5-37.5h42l25.6-27.3c1.1.8 2.5 1.3 4 1.3 3.9 0 7-3.1 7-7s-3.1-7-7-7-7 3.1-7 7c0 1.7.6 3.2 1.5 4.4l-25 26.6h-42l-37.5 37.5H1261l-45.8-45.8h-42.1l-37.6 37.6H1032l-3.9-3.9c.3-.8.5-1.6.5-2.5 0-3.9-3.1-7-7-7s-7 3.1-7 7 3.2 7 7.1 7zM1162.7 681c-3.9 0-7 3.1-7 7s3.1 7 7 7c1.8 0 3.5-.7 4.7-1.9l15.9 15.9h56.8l27-27h22.2l91.9 91.9v56.5l45.8 45.8h33.2L1493 909v33h-.4c-3.9 0-7 3.1-7 7s3.1 7 7 7 7-3.1 7-7c0-3-1.9-5.6-4.6-6.6v-34.2l-34-34h-33.2l-44.7-44.7V773l-93.1-93.1h-23.8l-27 27H1184l-15.4-15.4c.6-1.1 1-2.3 1-3.6.1-3.8-3-6.9-6.9-6.9z"/><path d="M1180.7 682c-3.9 0-7 3.1-7 7s3.1 7 7 7c1.6 0 3-.5 4.2-1.4l7.9 7.9h18.3l31.8-31.8h83.4l16.4 16.4c-1.2 1.3-2 3-2 4.9 0 3.9 3.1 7 7 7s7-3.1 7-7-3.1-7-7-7c-1.2 0-2.4.3-3.4.9l-17.2-17.2H1242l-31.8 31.8h-16.7l-7.3-7.3c.9-1.2 1.4-2.6 1.4-4.2.1-3.9-3-7-6.9-7zM1194.7 532c-3.9 0-7 3.1-7 7s3.1 7 7 7c1.6 0 3-.5 4.2-1.4l7.4 7.4h28l50 50h112.8l37.5-37.5h37.5l.3-.3c1 .5 2.1.8 3.3.8 3.9 0 7-3.1 7-7s-3.1-7-7-7-7 3.1-7 7c0 1.7.6 3.3 1.6 4.5h-36.6l-37.5 37.5H1285l-50-50h-28l-6.8-6.8c.9-1.2 1.4-2.6 1.4-4.2.1-3.9-3-7-6.9-7z"/><circle cx="1212.7" cy="539" r="7"/><circle cx="1218.7" cy="589" r="7"/><circle cx="1216.7" cy="612" r="7"/><circle cx="1277.7" cy="548" r="7"/><path d="M1311.7 555c-3.9 0-7 3.1-7 7s3.1 7 7 7c1.6 0 3-.5 4.2-1.4l3.9 3.9h60.3l7.8-7.8v-12.1l-65.7-65.7h-154l-41.1 41.1H1098l-1.8-1.8c.2-.7.3-1.4.3-2.2 0-3.9-3.1-7-7-7s-7 3.1-7 7 3.1 7 7 7c2.4 0 4.4-1.2 5.7-2.9l1.9 1.9h30.8l41.1-41.1h152.3l64.5 64.5v10.4l-6.7 6.7h-58.7l-3.3-3.3c.9-1.2 1.4-2.6 1.4-4.2.2-3.9-2.9-7-6.8-7z"/><circle cx="1348.7" cy="557" r="7"/><path d="M1424.7 529c3.9 0 7-3.1 7-7s-3.1-7-7-7-7 3.1-7 7h-21.6l-62.5-62.5h-178.3l-35.6 35.6c-1.3-1.3-3-2.1-5-2.1-3.9 0-7 3.1-7 7s3.1 7 7 7 7-3.1 7-7c0-1.2-.3-2.3-.8-3.3l35.2-35.2h176.7l62.5 62.5h22.7c.9 2.9 3.5 5 6.7 5z"/><path d="M1509.7 533c3.9 0 7-3.1 7-7s-3.1-7-7-7c-3 0-5.5 1.9-6.5 4.5h-10.6l-29.5-29.5h-76l-47-47h-7.5c-.5-3.4-3.4-6-6.9-6-3.9 0-7 3.1-7 7s3.1 7 7 7c3.5 0 6.4-2.6 6.9-6h6.7l47 47h76l29.5 29.5h10.9v.5c0 3.9 3.1 7 7 7z"/><circle cx="1434.7" cy="553" r="7"/><path d="M1378.7 592c3 0 5.6-1.9 6.6-4.7h11.2l18.9-18.9v-17.5l-83.3-83.3h-171.2l-40.6 40.6h-12.4l-5.8-5.8h-19.3l-9.5 9.5h-19l-5.2 4.6c-1.2-1-2.7-1.6-4.4-1.6-3.9 0-7 3.1-7 7s3.1 7 7 7 7-3.1 7-7c0-1.5-.5-2.8-1.2-4l4.6-4h19l9.5-9.5h17.7l5.8 5.8h14.1l40.6-40.6h169.5l82.1 82.1v15.9l-17.8 17.8h-9.9v-.3c0-3.9-3.1-7-7-7s-7 3.1-7 7 3.1 6.9 7 6.9z"/><circle cx="1456.7" cy="647" r="7"/><circle cx="1363.7" cy="657" r="7"/><circle cx="1169.7" cy="745" r="7"/><circle cx="1284.7" cy="744" r="7"/><circle cx="1254.7" cy="855" r="7"/><circle cx="1335.7" cy="813" r="7"/><circle cx="1421.7" cy="769" r="7"/><circle cx="1420.7" cy="736" r="7"/><circle cx="1527.7" cy="832" r="7"/><circle cx="1536.7" cy="999" r="7"/><circle cx="1441.7" cy="955" r="7"/><circle cx="1397.7" cy="955" r="7"/><circle cx="1342.7" cy="955" r="7"/><circle cx="1366.7" cy="911" r="7"/><circle cx="1395.7" cy="915" r="7"/><path d="M1733.7 1144c0 3.9 3.1 7 7 7s7-3.1 7-7-3.1-7-7-7h-.2v-9.2l-64.4-64.4h-103.5l-10.4 10.4h-81.9l-13.2-13.2v-20.5l-21.5-21.5v-22L1416 967h-33l-7.8-7.8c.9-1.2 1.4-2.6 1.4-4.2 0-3.9-3.1-7-7-7s-7 3.1-7 7 3.1 7 7 7c1.6 0 3-.5 4.2-1.4l8.4 8.4h33l28.4 28.4v22l21.5 21.5v20.5l14.3 14.3h83.6l10.4-10.4h101.8l63.2 63.2v8.8c-2.7 1-4.7 3.6-4.7 6.7z"/><circle cx="1821.7" cy="976" r="7"/><circle cx="999.7" cy="455" r="7"/><circle cx="1548.7" cy="138" r="7"/><circle cx="1548.7" cy="107" r="7"/><circle cx="1548.7" cy="79" r="7"/><circle cx="1548.7" cy="49" r="7"/><circle cx="1064.7" cy="161" r="7"/><path d="M1062.7 102c-3.9 0-7 3.1-7 7s3.1 7 7 7 7-3.1 7-7c0-1-.2-2-.7-2.9l14.7-14.7V-7h-2v97.6l-13.8 13.8c-1.2-1.5-3.1-2.4-5.2-2.4z"/><path d="M1041.7 102c-3.9 0-7 3.1-7 7s3.1 7 7 7 7-3.1 7-7c0-1.8-.7-3.5-1.9-4.7l19.4-19.4V-7h-2v91.1l-18.9 18.9c-1.1-.6-2.3-1-3.6-1z"/><circle cx="1064.7" cy="176" r="7"/><path d="M1098.6 314h28.5l78-78h15.9c.9 2.9 3.5 5 6.7 5 3.9 0 7-3.1 7-7s-3.1-7-7-7-7 3.1-7 7h-16.4l-78 78h-27.7c-.5-3.4-3.4-6-6.9-6-3.9 0-7 3.1-7 7s3.1 7 7 7c3.5 0 6.4-2.6 6.9-6zM1563.7 165h27v26h-27zM1562.7 275h27v26h-27zM1885.7 445h27v26h-27zM1557.7 623h27v26h-27zM1596.7 731h-27v26h9.3l-23.8 23.8h-28.9l-18.2-18.2v-44.7l4.8-4.8c1.2 1.1 2.9 1.9 4.7 1.9 3.9 0 7-3.1 7-7s-3.1-7-7-7-7 3.1-7 7c0 1.3.4 2.5 1 3.6l-5.5 5.5v46.3l19.3 19.3h30.6l25.8-25.8h14.8V731zM1908.7 879h27v26h-27zM1569.7 824h27v26h-27zM1705.7 967h27v26h-27zM1568.7 1024h27v26h-27zM1615.7 1185h27v26h-27zM1543.7 1126v26h27v-12h38.6l22 22h51.7c1.3 1.8 3.4 3 5.7 3 3.9 0 7-3.1 7-7s-3.1-7-7-7-7 3.1-7 7c0 .7.1 1.4.3 2h-49.9l-22-22h-39.4v-12h-27zM1491.7 1166h27v26h-27zM1336.7 871h27v26h-27zM182.7 496h27v26h-27zM462.7 1183h27v26h-27zM1769.7 863h40v38.5h-40zM1917.7-.5h-81.5v92l81.5 81.5zM465.2 925.5l64.5-64.5v-46.5l63.2-63.2v-22.8l5.6-5.6h21.6l39.7-39.7v-23.7l9.2-9.2h102.2l17.6 17.6h33.4v-23.4h52v20l4 4h76v-36h-45l-6-6h-180L710.7 614h-47.5v7.5l-7.5 7.5h-9.5l-6.8 6.8v6.8l-5.1 5.1v24.9l-25.1 25.1h-21.1l-21 21v22l-63 63v47l-65 65v147l-19 19h-9l-24.5 24.5v20.5l-38.8 38.8H303l-33.6 33.6 137.6.6 41-41v-67l17-17V925.5zm-39.5 239c-6.9 0-12.5-5.6-12.5-12.5s5.6-12.5 12.5-12.5 12.5 5.6 12.5 12.5-5.6 12.5-12.5 12.5zM535.2 107.1l99.2 99.2v46.8l4.5 4.5h15.6l4.8 4.8V280l5.7 6.8c-.9 1.2-1.4 2.6-1.4 4.1 0 3.9 3.1 7 7 7s7-3.1 7-7-3.1-7-7-7c-1.2 0-2.4.3-3.4.9l-4.9-5.9v-17.8l-6.6-6.6h-15.6l-2.7-2.7V205l-99.2-99.2V85.4L451.8-1.1 449.7 1l85.6 85.6v20.5z"/><path d="M637.6 270h3.4c.9 2.9 3.5 5 6.7 5 3.9 0 7-3.1 7-7s-3.1-7-7-7c-3.5 0-6.4 2.6-6.9 6h-2l-6.6-6.6v-50.5L528 105.6v-4.7c3.3-.6 5.8-3.4 5.8-6.9 0-3.9-3.1-7-7-7s-7 3.1-7 7c0 3.3 2.2 6 5.2 6.8v6.1l104.2 104.2v50.5l8.4 8.4z"/><path d="M546.2 110.1l99.8 99.8v28.7c-2.5 1.1-4.2 3.5-4.2 6.4 0 3.9 3.1 7 7 7s7-3.1 7-7c0-3.8-3-6.9-6.8-7v-29.4l-99.8-99.8V83.4l-83.9-84-2.1 2.1 83.1 83.1v25.5z"/><path d="M554 109.9l104.2 104.2v37.5l10.6 10.6c-3 .8-5.1 3.5-5.1 6.7 0 3.9 3.1 7 7 7s7-3.1 7-7c0-2.9-1.8-5.4-4.4-6.5l-12.1-12.1v-37.5L557 108.6V76.9L478.4-1.7 476.3.4 554 78.1v31.8z"/><path d="M564.2 110.1L670 215.9v22.4c-3 .8-5.2 3.5-5.2 6.8 0 3.9 3.1 7 7 7s7-3.1 7-7c0-3.4-2.5-6.3-5.8-6.9v-23.5L567.2 108.9V75.4l-75.9-76-2.1 2.1 75.1 75.1v33.5z"/><path d="M573.2 110.6l107.5 107.5v62l7.1 7.1c-.7 1.1-1.1 2.4-1.1 3.8 0 3.9 3.1 7 7 7s7-3.1 7-7-3.1-7-7-7c-1.4 0-2.7.4-3.8 1.1l-6.2-6.2v-62L576.2 109.4V71.9L503-1.3 500.9.8l72.3 72.3v37.5z"/><path d="M581.2 108.1L687 213.9V256l5.1 7.2c-3.1.7-5.3 3.5-5.3 6.8 0 3.9 3.1 7 7 7s7-3.1 7-7c0-3.1-2.1-5.8-4.9-6.7L690 255v-42.4L584.2 106.9V67.4l-68.9-69-2.1 2.1 68.1 68.1v39.5z"/><path d="M588 107.9l104.2 104.2v41.5l9.5 9.5v58.3l12.1 6.1h18.5l7.2-7.2c.9.5 2 .7 3.1.7 3.9 0 7-3.1 7-7s-3.1-7-7-7-7 3.1-7 7c0 1.6.6 3.2 1.5 4.4l-6.1 6.1h-16.5l-9.9-4.9v-57.7l-9.5-9.5v-41.5L591 106.6V62.9L524.9-3.2l-2.1 2.1L588 64.1v43.8z"/><path d="M598.2 109.1l99.8 99.8v41.2l17.4 17.4v39.9c-2.7 1-4.6 3.5-4.6 6.6 0 3.9 3.1 7 7 7s7-3.1 7-7c0-3.7-2.8-6.7-6.4-7v-40.8L701 248.9v-41.2l-99.8-99.8V59.4l-61.9-62-2.1 2.1 61.1 61.1v48.5z"/><path d="M605.5 109.4l97.8 97.8v41.5l8.4 8.4h18.6v23.6l6 6c-1 1.2-1.5 2.7-1.5 4.4 0 3.9 3.1 7 7 7s7-3.1 7-7-3.1-7-7-7c-1.1 0-2.2.3-3.1.7l-5.4-5.4V254h-20.4l-6.6-6.6v-41.5l-97.8-97.8V52.9L550.6-4.9l-2.1 2.1 56.9 56.9v55.3z"/><path d="M613.7 108.1l100.5 100.5v30.3c-2.1 1.2-3.5 3.5-3.5 6.1 0 3.9 3.1 7 7 7s7-3.1 7-7-3.1-7-7-7h-.5v-30.6L616.7 106.9v-55L560.3-4.6l-2.1 2.1 55.6 55.6v55z"/><path d="M623 109.9l96.2 96.2v24.5l14.5 14.5V271h3.3c.9 2.9 3.5 5 6.7 5 3.9 0 7-3.1 7-7s-3.1-7-7-7c-3.5 0-6.4 2.6-6.9 6h-.1v-24.1l-14.5-14.5v-24.5L626 108.6V46.9L574.9-4.2l-2.1 2.1L623 48.1v61.8z"/><path d="M630.7 107.1l95.5 95.5v24.5l13.8 13.8v14.2l13.9 13.9v34.1l5.9 5.9c-1.3 1.3-2.1 3-2.1 5 0 3.9 3.1 7 7 7s7-3.1 7-7-3.1-7-7-7c-.8 0-1.6.1-2.3.4l-5.5-5.5v-34.1L743 253.9v-14.2l-13.8-13.8v-24.5l-95.5-95.5v-64L588.3-3.6l-2.1 2.1 44.6 44.6v64z"/><path d="M640.6 108.2l91.9 91.9v23.2l12.8 12.8v14.5l14.6 14.6c-.7 1.1-1.1 2.4-1.1 3.8 0 3.9 3.1 7 7 7s7-3.1 7-7-3.1-7-7-7c-1.4 0-2.7.4-3.8 1.1l-13.7-13.7v-14.5l-12.8-12.8v-23.2L643.6 107V37.9L601.7-4l-2.1 2.1 41 41v69.1z"/><path d="M647.2 109.1l90.8 90.8v22.2l12.4 12.4v16.6l8.1 8.1h11.2l5 5v54.9l7.9 7.9h88.3l7.1-7.1c1.1.7 2.4 1.1 3.7 1.1 3.9 0 7-3.1 7-7s-3.1-7-7-7-7 3.1-7 7c0 1.4.4 2.7 1.1 3.8l-6.2 6.2h-85.8l-6.2-6.2V263l-6.8-6.8h-11.2l-6.3-6.3v-16.6L741 220.9v-22.2l-90.8-90.8V36.4l-40.9-41-2.1 2.1 40.1 40.1v71.5z"/><path d="M657 109.9l86.2 86.2v22.5l14.5 14.5v7c-1.2 1.3-2 3-2 4.9 0 3.9 3.1 7 7 7s7-3.1 7-7-3.1-7-7-7c-.7 0-1.4.1-2 .3v-6.4l-14.5-14.5v-22.5L660 108.6V28.9L625.4-5.7l-2.1 2.1L657 30.1v79.8zM576.7 202.1v36.2c-2.9.9-5 3.5-5 6.7 0 3.9 3.1 7 7 7s7-3.1 7-7c0-3.5-2.6-6.4-6-6.9v-37.2L469.8 91h-20.2l-1.1 1.1c-.3 0-.5-.1-.8-.1-3.9 0-7 3.1-7 7s3.1 7 7 7 7-3.1 7-7c0-2-.8-3.7-2.1-5h16l108.1 108.1zM17.8 141h159.8l4.1 4.1v193l7.9 7.9h227.2l7-7H550c.9 2.9 3.5 5 6.7 5 3.9 0 7-3.1 7-7s-3.1-7-7-7c-3.5 0-6.4 2.6-6.9 6H422.6l-7 7H190.8l-6.1-6.1v-193l-5.9-5.9H16.6l-22.4 19.4 2 2.3L17.8 141z"/><path d="M620.8 334.2c-.7 1.1-1.1 2.4-1.1 3.8 0 3.9 3.1 7 7 7s7-3.1 7-7-3.1-7-7-7c-1.4 0-2.7.4-3.8 1.1l-8.6-8.6H420.6l-10.2 10.2H287.8l-6.9-6.9h-74c-1.1-2.3-3.5-3.9-6.3-3.9-3.9 0-7 3.1-7 7s3.1 7 7 7 7-3.1 7-7v-.1h72l6.9 6.9h125l10.2-10.2H613l7.8 7.7zM88.8 358h34.9v3.7c-2.4 1.1-4 3.5-4 6.3 0 3.9 3.1 7 7 7s7-3.1 7-7-3.1-7-7-7v-6H87.6l-65 65H-5.8v3h29.6l65-65z"/><path d="M92.8 368h7.9c0 3.9 3.1 7 7 7s7-3.1 7-7-3.1-7-7-7c-2.8 0-5.2 1.6-6.3 4h-9.8l-65 65H-7.8v3h35.6l65-65zM183.3 356.2h240.5l6.6-6.6h138.4l5.9-5.9c1.1.8 2.5 1.3 4 1.3 3.9 0 7-3.1 7-7s-3.1-7-7-7-7 3.1-7 7c0 1.3.4 2.5 1 3.5l-5.1 5.1H429.2l-6.6 6.6h-238l-8.4-8.4V154.4l-8.4-8.4H28.7v70.9l-19 19v27.4c-2.9.9-5 3.5-5 6.7 0 3.9 3.1 7 7 7s7-3.1 7-7c0-3.5-2.6-6.4-6-6.9v-26l19-19V149h134.9l6.6 6.6v190.5l10.1 10.1z"/><path d="M115.7 387.5h328.6l29.5-29.5h109l15-15c1.3 1.2 3 2 4.9 2 3.9 0 7-3.1 7-7s-3.1-7-7-7-7 3.1-7 7c0 .9.2 1.7.4 2.4L581.6 355h-109l-26.7 26.7c1.1-1.2 1.8-2.9 1.8-4.7 0-3.5-2.6-6.4-6-6.9v-3.2l-6.4-6.4H175.6l-17.8 17.8h-54.2l-62.9 62.9H-6.8v3H42l62.9-62.9h54.2l17.8-17.8h257.3l4.6 4.6v2.2c-2.9.9-5 3.5-5 6.7 0 3.9 3.1 7 7 7 1.8 0 3.5-.7 4.7-1.8l-2.3 2.3H112.7V452H-7.8v3h123.5v-67.5z"/><path d="M611.7 352.8h-10.4l-12.8 12.8H471.1L442.6 394h-316l-4.9 4.9v58l-3.1 3.1H-6.8v3h126.6l4.9-4.9v-58l3.1-3.1h316l28.5-28.5h117.5l12.8-12.8h6.1v21.1l-2.6 2.6c-1.2-1-2.7-1.5-4.4-1.5-3.9 0-7 3.1-7 7s3.1 7 7 7 7-3.1 7-7c0-1.1-.3-2.2-.7-3.1l3.7-3.7v-25.3z"/><path d="M63.7 473h5v39h11v-38h5v40h12v-42h5v41h11v-39h6v26h11.8v-89.1l6.4-6.4h307.5l29.5-29.5h69.8l7.1 6.4c-.6 1-1 2.3-1 3.6 0 3.9 3.1 7 7 7s7-3.1 7-7-3.1-7-7-7c-1.5 0-2.8.5-4 1.2l-8-7.2h-72.2l-29.5 29.5H135.6l-8.1 8.1V497h-5.8v-26h-12v39h-5v-41h-11v42h-6v-40h-11v38h-5v-39h-11v41H-9.8v3h73.5v-41z"/><path d="M223.6 438l-8.4 8.4v18.5l-3.4 3.4h-42.2l-11.3 11.3V502h-18.7l-18 18H-8.8v3h131.6l18-18h20.5v-24.3l9.5-9.5H213l5.1-5.1v-18.5l6.6-6.6h44.9v-32h-62v11.7c-2.4 1.1-4 3.5-4 6.3 0 3.9 3.1 7 7 7s7-3.1 7-7-3.1-7-7-7v-8h56v26h-43z"/><path d="M2.8 530.4h125.4l14.6-14.6h21.8l5.7-5.7v-22.4l6.5-6.5H218l7.1-7.1v-23.5l3.6-3.6h104.9v-11h-56v-6h55v-11h-48v-4.5h157.6l21.5-21.5h9.2c.9 2.9 3.5 5 6.7 5 3.9 0 7-3.1 7-7s-3.1-7-7-7c-3.5 0-6.4 2.6-6.9 6h-10.2L441 411.5H281.7V422h48v5h-55v12h56v5H227.6l-5.4 5.4v23.5l-5.4 5.4h-41.2l-8.3 8.3V509l-3.9 3.9h-21.8L127 527.4H1.6l-9.7 9.7 2.1 2.1 8.8-8.8z"/><path d="M6.3 540.5h124.5l16.8-16.8h29.1v-30.6l4.1-4.1h47l4.4-4.4v-11.5l2.9-2.9h102.6V461h-107v-6h105.1l6.4-6.4v-22.5l4.4-4.4h102.2l16.4-16.4h61.6l7.7-7.7h33.3l7.4-7.4c1.2 1 2.8 1.7 4.5 1.7 3.9 0 7-3.1 7-7s-3.1-7-7-7-7 3.1-7 7c0 1 .2 2 .6 2.9l-6.8 6.8h-33.3l-7.7 7.7H464l-16.4 16.4H345.3l-6.1 6.1v22.5l-4.6 4.6H227.7v12h107v3.2H233.8l-4.6 4.6v11.5l-2.6 2.6h-47l-5.9 5.9v28.9h-27.4l-16.8 16.8H5.1l-8.9 8.9 2.1 2.1 8-7.9z"/><path d="M210 531.4l8.3-8.3v-12.4l28.6-28.6H367l42.9-42.9h44.2l16.8-16.8h94.5l9-9c1.2 1 2.7 1.5 4.4 1.5 3.9 0 7-3.1 7-7s-3.1-7-7-7-7 3.1-7 7c0 1.1.3 2.2.7 3.1l-8.4 8.4h-94.5l-16.8 16.8h-44.2l-42.9 42.9H245.6l-30.3 30.3v12.4l-8.3 8.3v13.7l-1.7 1.7c-2.2-2.2-5.2-3.6-8.6-3.6-6.6 0-12 5.4-12 12s5.4 12 12 12 12-5.4 12-12c0-2.2-.6-4.2-1.6-6l2.9-2.9v-13.6zM-1.3 565h11v-19h6v19h12v-16h5v17h20v-4.1c3.4-.5 6-3.4 6-6.9 0-3.9-3.1-7-7-7s-7 3.1-7 7c0 3.2 2.1 5.8 5 6.7v1.3h-14v-17h-11v16h-6v-19h-12v19h-5v-9H-9.8v3h8.5v9z"/><path d="M2.7 575h66v-27h4v27h12v-27h4v28h13v-29h4v30h13v-29h4v27h12v-28h6v29h10v-45h5v44h13v-45h5v43h46.2v-35.7l8.2-8.2v-11.6l23.7-23.7h113.7l47.3-47.2h49.5l14.5-14.5h95c.5 3.4 3.4 6 6.9 6 3.9 0 7-3.1 7-7s-3.1-7-7-7c-3.2 0-5.8 2.1-6.7 5h-96.4l-14.5 14.5h-49.5l-47.3 47.2H250.6l-25.5 25.5v11.6l-8.2 8.2V570h-40.2v-43h-11v45h-7v-44h-11v45h-4v-29h-12v28h-6v-27h-10v29h-7v-30h-10v29h-7v-28h-10v27h-6v-27h-10v27h-66v142h-24.5v3H2.7V575z"/><path d="M9.7 730v8H3.8l-10.6-10.6-2.1 2.1L2.6 741h10.1v-8h9v-12h-13v-5h17v-11h-18v-6h20v-10h-20v-5h18v-12h-17v-6h19v-12h-19v-71h218v-42.9l8.5-8.5v-8.5l20.9-20.9h110.7l50.1-50.1h57.9l1.6-1.6c1.3 1.5 3.2 2.4 5.3 2.4 3.9 0 7-3.1 7-7s-3.1-7-7-7-7 3.1-7 7c0 .6.1 1.2.2 1.8l-1.4 1.4h-57.9l-50.1 50.1H254.8l-22.6 22.6v8.5l-8.5 8.5V580H5.7v77h19v6h-19v12h17v6h-18v11h20v4h-20v12h18v5h-17v11h13v6h-9z"/><path d="M571.8 441.2l-6.1-6.1h-60.1l-18.4 18.4h-67.6l-53.7 53.7H259.6L241.8 525v10.9l-8.6 8.6V604h-5.6v-18h-11v20h-7v-18h-195v12h33v6h-34v10h33v6h-33v12h34v5h-35v10h18v80.9L-6 766.5l2.1 2.1 37.4-37.4V646h-18v-4h35v-11h-34v-6h33v-12h-33v-4h34v-12h-33v-6h189v18h13v-20h5v18h11.6v-61.3l8.6-8.6v-10.9l16-16H367l53.7-53.7h67.6l18.4-18.4h57.6l6.1 6.1h12.5l8.1-8.1v-35.5l3.6-3.6h19l7.5-7.5c1.3 1.5 3.2 2.5 5.4 2.5 3.9 0 7-3.1 7-7s-3.1-7-7-7-7 3.1-7 7c0 .6.1 1.1.2 1.7l-7.3 7.3h-19l-5.4 5.4v35.5l-6.4 6.4h-9.8z"/><path d="M202.7 609v-12H55.2v46.4l-15.5 15.5v73l-42.6 42.6 2.1 2.1 43.4-43.4v-73l15.5-15.5V600h141.5v6h-135v10h172.1l8.9-8.9V549h3v47h12v-73h3v53h14v-57h5v39h12v-39h3v34h12v-34h64.1l49-49h11.9c0 3.9 3.1 7 7 7s7-3.1 7-7-3.1-7-7-7c-2.8 0-5.2 1.6-6.3 4h-13.8l-49 49h-65.9v34h-6v-34h-9v39h-6v-39h-11v57h-8v-53h-9v73h-6v-47h-9v59.9l-7.1 7.1H67.7v-4h135z"/><path d="M507.6 446l-33.5 33.5h-57.5l-44.8 44.8h-41.1c-1.1-.8-2.5-1.2-4-1.2-3.9 0-7 3.1-7 7s3.1 7 7 7 7-3.1 7-7c0-1-.2-1.9-.6-2.8H373l44.8-44.8h57.5l33.5-33.5h81l11.1-11.1c.3 0 .5.1.8.1 3.9 0 7-3.1 7-7s-3.1-7-7-7-7 3.1-7 7c0 2.4 1.2 4.5 3.1 5.8l-9.2 9.2h-81zM451.8 430l16-16h61l5-5H549c.9 2.9 3.5 5 6.7 5 3.9 0 7-3.1 7-7s-3.1-7-7-7c-3.5 0-6.4 2.6-6.9 6h-16.2l-5 5h-61l-16 16h-76l-25.4 25.4v12.1c-2.6 1-4.5 3.5-4.5 6.5 0 3.9 3.1 7 7 7s7-3.1 7-7c0-3.7-2.9-6.7-6.5-7v-10.4l23.6-23.6h76z"/><path d="M-6.8 918h30V789.6l44.5-44.5V694h67v-12h-66v-5h81.1l17-17h61l80-80h53l62-62h68.1l28.9-28.9H583l9.1-9.1v-9.6l3.7-3.7h13.8l5.6-5.6v-41.7l-7.6-7.6c.7-1.1 1.1-2.4 1.1-3.8 0-3.9-3.1-7-7-7s-7 3.1-7 7 3.1 7 7 7c1.4 0 2.7-.4 3.8-1.1l6.7 6.7v39.3l-3.9 3.9h-13.8l-5.5 5.5v9.6l-7.3 7.3h-63.2l-28.9 28.9h-68.1l-62 62h-53l-80 80h-61l-17 17H65.7v11h66v6h-67V744l-44.5 44.5V915h-27v3z"/><path d="M-9.8 894h25.5v-12H-4.8v3h17.5v6H-9.8zM-9.8 908v3h25.5v-12H-4.8v3h17.5v6zM12.7 786.1l46-46v-69l3.1-3.1h88.9v-11h-44v-7h121v-11h-120v-7h137.1l61.5-61.5h56.5l61.2-61.2h65.8l29.6-29.6h30.8c1 2.6 3.5 4.4 6.5 4.4 3.9 0 7-3.1 7-7s-3.1-7-7-7c-3.7 0-6.8 2.9-7 6.6h-31.5l-29.6 29.6h-65.8l-61.2 61.2h-56.5L243.6 629H104.7v13h120v5h-121v13h44v5H60.6l-4.9 4.9v69l-46 46V874H-2.8v3h15.5v-90.9z"/><path d="M-4 826.3l10.2-10.2v-34.5l44.5-44.5v-73l5.1-5.1h12.9v-35.3h170.8l60.3-60.3h61.4l62.6-62.6h60.7l33.3-33.2h50.3l5.1 5.1c-1 1.2-1.5 2.7-1.5 4.4 0 3.9 3.1 7 7 7s7-3.1 7-7-3.1-7-7-7c-1.1 0-2.2.3-3.1.7l-6.2-6.2h-52.7l-33.3 33.2h-60.7L360 560.4h-61.4l-60.3 60.3H65.7V656H54.6l-6.9 6.9v73L3.2 780.4v34.5l-9.3 9.3 2.1 2.1zM5.2 834.4l-5.9-6-2.2 2.2 5.1 5V862h-8v3h11z"/><path d="M-13.8 953h265.5v-16h-177v-6h178v-17h-179v-7h179v-14h-178v-8h178v-14h-179v-8h157v-14h-154v-8h137v-14h-138v-12h114v-11h-114v-26.9L86.8 766h121.9v-15h-100v-9h145v-13h-85.6v-24.5l18.7-18.7h65.8l60.2-60.2h48.5l58.4-58.4V556c3.4-.5 6-3.4 6-6.9 0-3.9-3.1-7-7-7s-7 3.1-7 7c0 3.2 2.1 5.8 5 6.7V566l-56.6 56.6h-48.5l-60.2 60.2h-65.8l-20.5 20.5V732h85.6v7h-145v15h100v9H85.6l-12.9 12.9V807h114v5h-114v18h138v8h-137v14h154v8h-157v14h179v8h-178v14h178v8h-179v13h179v11h-178v12h177v10H-13.8v3z"/><path d="M346.3 635.8c-.9-2.8-3.5-4.8-6.6-4.8-3.9 0-7 3.1-7 7s3.1 7 7 7c3.6 0 6.6-2.7 7-6.2h11.9l112.2-112.2h27.5l27.5-27.5h57l16.5-16.5c1.2 1 2.7 1.5 4.4 1.5 3.9 0 7-3.1 7-7s-3.1-7-7-7-7 3.1-7 7c0 1.1.3 2.2.7 3.1L581.6 496h-57l-27.5 27.5h-27.5L357.3 635.8h-11z"/><path d="M266.5 692.1c-1.1-.7-2.4-1.1-3.8-1.1-3.9 0-7 3.1-7 7s3.1 7 7 7 7-3.1 7-7c0-1.4-.4-2.7-1.1-3.8l6.7-6.7h63.5l16.1-16.1v-13.2l121-121h27.9l13.1-13.1h32.9c0 .3-.1.6-.1.9 0 3.9 3.1 7 7 7s7-3.1 7-7-3.1-7-7-7c-2.4 0-4.5 1.2-5.8 3.1h-35.3l-13.1 13.1h-27.9L352 656.9v13.2l-14.4 14.4h-63.5l-7.6 7.6z"/><path d="M326.6 732.8l52.6-52.6v-14.5L483.8 561h29l7-7h54l23.5-23.5c1.2 1 2.7 1.5 4.4 1.5 3.9 0 7-3.1 7-7s-3.1-7-7-7-7 3.1-7 7c0 1.1.3 2.2.7 3.1L572.6 551h-54l-7 7h-29L376.2 664.4v14.5l-50.9 50.9h-18.7L270 766.4c-.7-.2-1.5-.4-2.3-.4-3.9 0-7 3.1-7 7s3.1 7 7 7 7-3.1 7-7c0-2-.8-3.7-2.1-5l35.2-35.2h18.8z"/><path d="M551 596c.9 2.9 3.5 5 6.7 5 3.9 0 7-3.1 7-7s-3.1-7-7-7c-3.5 0-6.4 2.6-6.9 6h-57.2l-72.1 72.1c-1.1-.7-2.4-1.1-3.8-1.1-3.9 0-7 3.1-7 7s3.1 7 7 7 7-3.1 7-7c0-1.4-.4-2.7-1.1-3.8l71.2-71.2H551z"/><path d="M571.6 580l-5.4 5.4v12.5l-6.9 6.9h-60.8L349.1 754.3V768c-3.6.3-6.4 3.3-6.4 7 0 3.9 3.1 7 7 7s7-3.1 7-7c0-3-1.9-5.6-4.6-6.6v-12.9l147.7-147.7h60.8l8.6-8.6v-12.5l3.6-3.6h17l7.1-7.1c1.1.7 2.4 1.1 3.8 1.1 3.9 0 7-3.1 7-7s-3.1-7-7-7-7 3.1-7 7c0 1.4.4 2.7 1.1 3.8l-6.2 6.2h-17z"/><path d="M403.7 745.1v-34l93.1-93.1h29c.5 3.4 3.4 6 6.9 6 3.9 0 7-3.1 7-7s-3.1-7-7-7c-3.2 0-5.8 2.1-6.7 5h-30.4l-94.9 94.9v34l-46 46v31.8c-2.4 1.1-4 3.5-4 6.3 0 3.9 3.1 7 7 7s7-3.1 7-7-3.1-7-7-7v-29.9l46-46z"/><path d="M400.8 845.1v-62.9l25.1-25.1v-34.8l74.9-74.9h73.5l2.6-2.6c1.1.7 2.4 1.1 3.8 1.1 3.9 0 7-3.1 7-7s-3.1-7-7-7-7 3.1-7 7c0 1.4.4 2.7 1.1 3.8l-1.7 1.7h-73.5L423 721.1v34.8L397.8 781v62.9l-75.2 75.2h-25c-.5-3.4-3.4-6.1-6.9-6.1-3.9 0-7 3.1-7 7s3.1 7 7 7c3.1 0 5.8-2.1 6.7-4.9h26.5l76.9-77z"/><path d="M406.7 849.1v-64l26.5-26.5v-35.5l70.4-70.4h81.3l8.3-8.3V629l6.1-6.1c1 .6 2.2 1 3.5 1 3.9 0 7-3.1 7-7s-3.1-7-7-7-7 3.1-7 7c0 1.5.5 2.9 1.3 4l-6.9 6.9v15.4l-6.5 6.5h-81.2l-72.1 72.1v35.5l-26.5 26.5v64l-85 85v15.8c-2.4 1.1-4 3.5-4 6.3 0 3.9 3.1 7 7 7s7-3.1 7-7-3.1-7-7-7V934l84.8-84.9z"/><path d="M594.2 689.3h2.9c1 2.7 3.5 4.7 6.6 4.7 3.9 0 7-3.1 7-7s-3.1-7-7-7c-3.6 0-6.6 2.8-7 6.3h-3.8l-10.3 10.3h-56.3l-48.2 48.2v93.4L366.5 949.9v26.8l-28.2 28.2v27.5l-10.7 10.7c-1.1-.7-2.4-1.1-3.8-1.1-3.9 0-7 3.1-7 7s3.1 7 7 7 7-3.1 7-7c0-1.4-.4-2.7-1.1-3.8l11.6-11.6v-27.5l28.2-28.2v-26.8l111.6-111.6v-93.4l46.4-46.4h56.3l10.4-10.4z"/><path d="M522.6 691l-48.9 48.9v96L361.2 948.4v25.5l-32.2 32.2v8.1c-3 .8-5.2 3.5-5.2 6.8 0 3.9 3.1 7 7 7s7-3.1 7-7c0-3.4-2.5-6.3-5.8-6.9v-6.7l32.2-32.2v-25.5l112.5-112.5v-96l47.1-47.1h45.9l3.3-2.8c1.2 1.1 2.9 1.8 4.6 1.8 3.9 0 7-3.1 7-7s-3.1-7-7-7-7 3.1-7 7c0 1 .2 1.9.6 2.8l-2.6 2.2h-46z"/><path d="M375.2 979.6v-26.5L486 842.4v-95.2l36-36h3.8c.1 3.8 3.2 6.9 7 6.9 3.9 0 7-3.1 7-7s-3.1-7-7-7c-2.8 0-5.3 1.7-6.4 4.1h-5.6L483 745.9v95.2L372.2 951.9v26.5l-21.5 21.5v21.8c-2.4 1.1-4 3.5-4 6.3 0 3.9 3.1 7 7 7s7-3.1 7-7-3.1-7-7-7v-19.9l21.5-21.5z"/><path d="M497.7 752.4l18.9-18.9h34.1c.3 3.6 3.3 6.5 7 6.5 3.9 0 7-3.1 7-7s-3.1-7-7-7c-3.4 0-6.1 2.4-6.8 5.5h-35.1l-20.1 20.1v96l-111 111v48l-9.4 9.4c-1.1-.6-2.3-1-3.6-1-3.9 0-7 3.1-7 7s3.1 7 7 7 7-3.1 7-7c0-1.8-.7-3.5-1.9-4.7l9.9-9.9v-48l111-111v-96z"/><path d="M722.3 542.9h-95L612.1 558v72.6l-25.6 25.6h-26.2l-7.4 7.4h-42.6l-65.8 65.8v96.2L334.6 935.5v24.1l-49 49v46.9l46 46v27.1l-6.4 6.4H307l-57.4-57.4v-111L243 960H-7.3v2h249.6l5.4 5.4v111l58.6 58.6h19.8l7.6-7.6v-28.8l-46-46v-45.2l49-49v-24.1l109.9-109.9v-96.2l64.6-64.6h42.6l7.4-7.4h26.2l26.8-26.8v-72.6l14-14h93.3l7.6 7.6v46.7l3.3 3.3H915l7.4 7.4H967l15.4-15.4v-14.3l14.7-14.7h35.8l9.4 9.4h18.2l5.8 5.8h11.5l6.9 6.9c-.6 1.1-1 2.3-1 3.6 0 3.9 3.1 7 7 7s7-3.1 7-7-3.1-7-7-7c-1.8 0-3.5.7-4.7 1.9l-7.4-7.4h-11.5l-5.8-5.8h-18.2l-9.4-9.4h-37.5l-15.9 15.9v14.3L966 607.9h-43l-7.4-7.4H733.1l-2.1-2.1v-46.7l-8.7-8.8z"/><path d="M993.7 585.4l11.4-11.4h29.2l7 7h15l5.8 5.8c-.9 1.2-1.4 2.6-1.4 4.2 0 3.9 3.1 7 7 7s7-3.1 7-7-3.1-7-7-7c-1.6 0-3 .5-4.2 1.4l-6.4-6.4h-15l-7-7h-30.8l-12.6 12.6v16L970.3 622h-48.1l-6.1-6.1H731.2l-13.3-13.3v-39.2l-3.8-3.8h-61.3l-30 30v43.1l-32.5 32.5h-24.8l-9.2 9.2h-42.6l-59.2 59.2v94.8L343.3 939.6v26.6l-47.4 47.4v33.7l46.1 46.1v40.4l-13.7 13.7h-26.7l-61.9-61.9v-109l-4.6-4.6H-5.3v2h239.6l3.4 3.4v109l63.1 63.1h28.3l14.8-14.8v-42.1l-46.1-46.1v-32l47.4-47.4v-26.6l111.2-111.2v-94.8l58-58H557l9.2-9.2H591l33.7-33.7v-43.1l28.9-28.9h59.6l2.6 2.6v39.2l14.5 14.5h184.9l6.1 6.1h49.8l22.6-22.6v-16z"/><path d="M415.8 1062c.5 3.4 3.4 6 6.9 6 3.9 0 7-3.1 7-7s-3.1-7-7-7c-3.5 0-6.4 2.6-6.9 6h-4.1v-23h-15v31h-6v-27h-13v49h-10v-42h-15v89.6l-17.9 17.9h-48.5l-5.8 5.8H107.7V1151h114v-12h-116v-11h112v-13h-110v-8h111v-13h-112v-11h110v-12h-106v-11h106v-10h-113v-13h116v-12h-115v-13h113v-10h-113v-10h114v-10h-227v2h225v6h-114v14h113v6h-113v17h115v8h-116v17h113v6h-106v15h106v8h-110v15h112v9h-111v12h110v9h-112v15h116v8h-114v14.2h175.7l5.8-5.8h48.5l19.1-19.1V1050h11v42h14v-49h9v27h10v-31h11v23h6zM-5.003 1069.644l1.414-1.414 135.48 135.48-1.414 1.414zM-8.003 1083.644l1.414-1.414 135.48 135.48-1.414 1.414zM-12.003 1094.644l1.414-1.415 135.48 135.48-1.414 1.415zM-18.004 1105.644l1.415-1.415 135.48 135.48-1.414 1.415zM-30.003 1109.643l1.414-1.414 135.48 135.48-1.414 1.415zM-38.003 1117.643l1.414-1.414 135.48 135.48-1.414 1.415zM783.2 214.6c-1.5 1.3-2.5 3.2-2.5 5.4 0 3.9 3.1 7 7 7s7-3.1 7-7-3.1-7-7-7c-.9 0-1.7.2-2.5.5v-57.4l-28.5-28.5V-4h-2v132.4l28.5 28.5v57.7z"/><path d="M793.2 208.9l5.5 5.5v58l11.7 11.7c-3.2.6-5.7 3.5-5.7 6.9 0 3.9 3.1 7 7 7s7-3.1 7-7c0-3.3-2.3-6.1-5.4-6.8l-12.6-12.6v-58l-5.5-5.5v-61.5l-16.8-16.8V-5h-2v135.7l16.8 16.8v61.4z"/><path d="M804.2 258.4l4 4c-2.7 1-4.5 3.5-4.5 6.5 0 3.9 3.1 7 7 7s7-3.1 7-7-3.1-7-7-7h-.1l-4.4-4.4V142.1l-17.5-17.5V-6h-2v131.4l17.5 17.5v115.5z"/><path d="M813 214.8l-3.8 3.8v35.3l11.5 11.5v40.2l8.4 4.2c-.9 1.2-1.4 2.6-1.4 4.2 0 3.9 3.1 7 7 7s7-3.1 7-7-3.1-7-7-7c-1.5 0-2.9.5-4.1 1.3l-7.9-4v-39.8L811.2 253v-33.7l3.8-3.8v-78.1L798.3 121V-11h-2v132.8l16.6 16.6v76.4z"/><path d="M818 221.8l-4.8 4.8v24.3l15.6 15.6c-.1.5-.1.9-.1 1.4 0 3.9 3.1 7 7 7s7-3.1 7-7-3.1-7-7-7c-2.6 0-4.9 1.4-6.1 3.5L815.2 250v-22.7l4.8-4.8v-92.1L806.3 117V-7h-2v124.8l13.6 13.6v90.4z"/><path d="M828.8 225.6l-7.9 7.9v15.7l7.5 7.5h12.2l4.7 4.7v17.7l-6.8 6.8c-1.2-1.1-2.9-1.9-4.7-1.9-3.9 0-7 3.1-7 7s3.1 7 7 7 7-3.1 7-7c0-1.3-.4-2.5-1-3.6l7.5-7.5v-19.3l-5.8-5.8h-12.2l-6.3-6.3v-14l7.9-7.9v-97.9l-18-18V-13h-2v124.4l18 18v96.2z"/><path d="M837.2 228.1l-4.5 4.5v4.7c-2.9.9-5 3.5-5 6.7 0 3.9 3.1 7 7 7s7-3.1 7-7-3.1-7-7-7v-3.6l4.5-4.5V124.6L822 107.3V-8h-2v116.2l17.2 17.2v102.7z"/><path d="M845.7 251.4l10.2 10.2c-2.5 1.1-4.2 3.5-4.2 6.4 0 3.9 3.1 7 7 7s7-3.1 7-7-3.1-7-7-7h-.6l-10.4-10.4v-131l-17.5-17.5V-8h-2v110.9l17.5 17.5v131z"/><path d="M851.2 229.9l4.5 4.5v4.8c-1.8 1.3-3 3.4-3 5.7 0 3.9 3.1 7 7 7s7-3.1 7-7-3.1-7-7-7c-.7 0-1.4.1-2 .3v-4.7l-4.5-4.5V115.6L837 99.3V-8h-2v108.2l16.2 16.2v113.5zM920.2 257.9l5.5 5.5v25l19.4 19.4c-1.4 1.3-2.4 3.1-2.4 5.2 0 3.9 3.1 7 7 7s7-3.1 7-7-3.1-7-7-7c-1 0-2 .2-2.9.7l-19.1-19.1v-25l-5.5-5.5v-93.7l31.8-31.8V-5h-2v135.8l-31.8 31.8v95.3z"/><path d="M914.2 280.6l-5 5c-1.2-1-2.8-1.6-4.5-1.6-3.9 0-7 3.1-7 7s3.1 7 7 7 7-3.1 7-7c0-1.4-.4-2.8-1.2-3.9l5.7-5.7V153.9l30.5-30.5V-4h-2v126.6l-30.5 30.5v127.5z"/><path d="M928.2 254.9l7.5 7.5v19.2l9.4 5.1c-1.5 1.3-2.4 3.2-2.4 5.3 0 3.9 3.1 7 7 7s7-3.1 7-7-3.1-7-7-7c-.9 0-1.8.2-2.6.5l-9.4-5.1v-18.8l-7.5-7.5v-82.7l31.2-31.2V39h38.2V-4h-2v41h-38.2v102.3l-31.2 31.2v84.4z"/><path d="M967.7 150.6l-31 31v68.8l12.6 12.6c-3.7.2-6.6 3.2-6.6 7 0 3.9 3.1 7 7 7s7-3.1 7-7c0-2.7-1.6-5.1-3.8-6.2l-14.2-14.2v-67.2l31-31V45h37V-4h-2v47h-37v107.6z"/><path d="M976.7 157.6l-28 28v55.5c-3.4.5-6 3.4-6 6.9 0 3.9 3.1 7 7 7s7-3.1 7-7c0-3.5-2.6-6.4-6-6.9v-54.7l28-28V54h36V-6h-2v58h-36v105.6z"/><path d="M989.7 168.6l-28.5 28.5v84.3l6.7 6.7c-.7 1.1-1.2 2.5-1.2 3.9 0 3.9 3.1 7 7 7s7-3.1 7-7-3.1-7-7-7c-1.7 0-3.3.6-4.5 1.6l-6-6v-82.7l28.5-28.5V60h30V-6h-2v64h-30v110.6z"/><path d="M999.2 172.1l-27.5 27.5v41.7c-2.9.9-5 3.5-5 6.7 0 3.9 3.1 7 7 7s7-3.1 7-7-3.1-7-7-7v-40.6l27.5-27.5V69h30.5v-82h-2v80h-30.5v105.1z"/><path d="M1009.7 178.6l-25 25v52l-8.1 8.1c-.9-.4-1.9-.7-2.9-.7-3.9 0-7 3.1-7 7s3.1 7 7 7 7-3.1 7-7c0-2.1-.9-3.9-2.4-5.2l8.4-8.4v-52l25-25V78h27V-7h-2v83h-27v102.6z"/><path d="M1019.7 85v95.6l-13 13v41l-6.8 6.8c-.7-.2-1.4-.4-2.2-.4-3.9 0-7 3.1-7 7s3.1 7 7 7 7-3.1 7-7c0-2.3-1.2-4.4-2.9-5.7l6.9-6.9v-41l13-13V87h15.4l12.1-12.1V-6h-2v80.1L1036.3 85h-16.6z"/><path d="M1029.7 96v88.6l-16.5 16.5v44.5l-15.8 15.8v1.7c-3.7.1-6.8 3.2-6.8 7 0 3.9 3.1 7 7 7s7-3.1 7-7c0-3.3-2.2-6-5.2-6.8v-1.1l15.8-15.8v-44.5l16.5-16.5V98h8.4l15.6-15.6V-4h-2v85.6L1039.3 96h-9.6z"/><path d="M1035.8 186.7l-15.9 15.9v45.2l-11.8 11.8v18.5l-29.8 29.8c-1.2-1.1-2.9-1.9-4.7-1.9-3.9 0-7 3.1-7 7s3.1 7 7 7 7-3.1 7-7c0-1.3-.4-2.5-1-3.6l30.5-30.5v-18.5l11.8-11.8v-45.2l15.9-15.9V122h53.9V-7h-2v127h-53.9v66.7zM364.7 299.5c-.6 1-1 2.2-1 3.5 0 3.9 3.1 7 7 7s7-3.1 7-7-3.1-7-7-7c-.7 0-1.5.1-2.1.3L200.5 128.2l-.7-.7h-202v5h200l166.9 167z"/><path d="M144.8 230.5H82.3L69 243.8v33.8l-17 17H16.6c-.6-3.2-3.5-5.6-6.9-5.6-3.9 0-7 3.1-7 7s3.1 7 7 7c3.7 0 6.7-2.8 7-6.4h36.1L71 278.4v-33.8l12.2-12.2h62.5l19.1-19.1V167h-41.4L107 183.4c-1.2-.9-2.6-1.4-4.2-1.4-3.9 0-7 3.1-7 7s3.1 7 7 7 7-3.1 7-7c0-1.6-.5-3-1.4-4.2l15.8-15.8h38.6v43.6l-18 17.9z"/><path d="M161.7 249h-56v-2h-27v26h27v-22h54v67.6l-15.9 15.9H50.3l-29 29c-.8-.3-1.7-.5-2.6-.5-3.9 0-7 3.1-7 7s3.1 7 7 7 7-3.1 7-7c0-2.2-1-4.2-2.6-5.5l28-28h93.5l17.1-17.1V249zM308.7 1117.5c-.6 1-1 2.2-1 3.5 0 3.9 3.1 7 7 7s7-3.1 7-7-3.1-7-7-7c-.7 0-1.5.1-2.1.3l-45.4-45.4V861l-75.5-75.5h-87l-5.6-5.6c.4-.9.6-1.8.6-2.9 0-3.9-3.1-7-7-7s-7 3.1-7 7 3.1 7 7 7c1 0 2-.2 2.9-.6l7.1 7.1h87l72.5 72.5v208l46.5 46.5zM747.7 214.4l34.5 34.5v32.5l2.8 2.8c-3 .8-5.3 3.5-5.3 6.8 0 3.9 3.1 7 7 7s7-3.1 7-7c0-3.5-2.6-6.4-6-6.9l-3.5-3.5v-32.5l-34.5-34.5v-31l-74-74V34.5l11.5-10.1c1.2 1 2.8 1.7 4.5 1.7 3.9 0 7-3.1 7-7s-3.1-7-7-7-7 3.1-7 7c0 1.4.4 2.7 1.1 3.8l-12.1 10.7v75.9l74 74v30.9z"/><path d="M690.2 80h-.5c-3.9 0-7 3.1-7 7s3.1 7 7 7h.5v12.4l69.8 69.8v34.2l32.9 32.9v30.9l4.9 10v17.2l8.4 8.4c-.9 1.2-1.4 2.6-1.4 4.2 0 3.9 3.1 7 7 7s7-3.1 7-7-3.1-7-7-7c-1.6 0-3 .5-4.2 1.4l-7.8-7.8v-16.8l-4.9-10v-31.3L762 209.6v-34.2l-69.8-69.8V93.5c2.6-1 4.5-3.5 4.5-6.5s-1.9-5.5-4.5-6.5V61.9l14.5-14.5V-5h-2v51.6l-14.5 14.5V80zM862.2 98.9v120.5l7.8 7.8v50.4l-7.9 7.9c-1.2-.9-2.7-1.5-4.3-1.5-3.9 0-7 3.1-7 7s3.1 7 7 7 7-3.1 7-7c0-1.5-.5-2.9-1.3-4l8.5-8.5v-52.1l-7.8-7.8V98.1L851.1 85l12.6-12.6V-5h-2v76.6L848.3 85l13.9 13.9z"/><path d="M895.5 322.6L881.1 337v11.5h-4.9l-5.5 5.5h-13l.5 11.5h15v5.5h29.5l-7.5 7.5h-66l-8-8V403c0-.5-28.5 0-28.5 0l-3.5-3.5h26v-27H811v-8.8l-9.8-9.8h-6.9c-1.1-.6-2.3-1-3.6-1-3.9 0-7 3.1-7 7 0 3.8 3 6.9 6.8 7l6.7 2.5v4.5H693.7l-5.5 5.5H678c-1.2-.9-2.7-1.5-4.3-1.5-3.9 0-7 3.1-7 7s3.1 7 7 7c1.6 0 3.1-.6 4.3-1.5h13.2v8H718v8.8l-14.2 14.2V504l-18.5 18.5v-33h-6v-10.9c.3-.8.5-1.7.5-2.6 0-3.9-3.1-7-7-7s-7 3.1-7 7c0 .9.2 1.8.5 2.6v10.9h-3v49h68l9 9v46h184l5-5v-31l14.5-14.5 4.5 4.5V571h7.5l-8.5 8.5v17h10v-13l13-13v-59l11-11 10 4v23h5.5v10.1l13.1 7.6c-.7 1.1-1.1 2.4-1.1 3.8 0 3.9 3.1 7 7 7s7-3.1 7-7-3.1-7-7-7c-1.7 0-3.3.6-4.5 1.7l-12.5-7.2v-8.9h7.1V480l-6.6-6.6h-42.8l-10.8-10.8V420h19v35h2c0 3.9 3.1 7 7 7s7-3.1 7-7-3.1-7-7-7c-3.2 0-5.8 2.1-6.7 5h-.3v-33h12v-26h-11.4v-27l21.9-21.9h11l23.1 23.1h145.1l199.8-199.8V29.1L1349.1 10h-2.4V-3h-27v26h27V12h1.6l17.9 17.9v137.7l-198.7 198.7h-143.4l-23.1-23.1h-12.7l-23 23V394h-19.8v-36.8l-8.8-8.8h-53.6v-10.7l14.4-14.4v-14.6l-16.2-16.2V21.9l16.5-16.5V-5h-2v9.6l-16.5 16.5v272.3l16.2 16.2v13z"/><path d="M889.2 255.4l9.3 9.3c-.5 1-.8 2.1-.8 3.3 0 3.9 3.1 7 7 7s7-3.1 7-7-3.1-7-7-7c-2 0-3.7.8-5 2.1l-8.5-8.5V40.9L919.1 13h20.6V-4h-2v15h-19.4l-29.1 29.1v215.3z"/><path d="M901.7 239.7c-2.4 1.1-4 3.5-4 6.3 0 3.9 3.1 7 7 7s7-3.1 7-7c0-2.8-1.6-5.2-4-6.3V70.2l7.4-7.4c2.2 1.3 4.8 2.1 7.6 2.1 8.3 0 15-6.7 15-15s-6.7-15-15-15-15 6.7-15 15c0 3.3 1.1 6.4 2.9 8.8l-8.9 8.9v172.1zM1061.6 132c-.5-3.4-3.4-6-6.9-6-3.9 0-7 3.1-7 7s3.1 7 7 7c3.5 0 6.4-2.6 6.9-6h28.5l12.1-12.1V-11h-2v132.1l-10.9 10.9h-27.7z"/><path d="M1044.5 146v44.3l-16.2 16.2v46.3l9.5 9.5c-.6 1.1-1 2.3-1 3.6 0 3.9 3.1 7 7 7s7-3.1 7-7-3.1-7-7-7c-1.8 0-3.5.7-4.7 1.9l-8.8-8.8v-44.7l16.2-16.2V148h49.7l14.6-14.6V-15h-2v147.6l-13.4 13.4h-50.9z"/><path d="M1065.3 186l-22.6 22.6v28.5c-3.4.5-6 3.4-6 6.9 0 3.9 3.1 7 7 7s7-3.1 7-7c0-3.5-2.6-6.4-6-6.9v-27.7l21.4-21.4h30l21.6-21.6V-24h-2v189.6l-20.4 20.4h-30z"/><path d="M1065.3 196l-13.6 13.6v20.8l10.3 9.6c-.8 1.1-1.3 2.5-1.3 4 0 3.9 3.1 7 7 7s7-3.1 7-7-3.1-7-7-7c-1.7 0-3.2.6-4.4 1.5l-9.6-9v-19.2l12.4-12.4h34l25.6-25.6V-10h-2v181.6l-24.4 24.4h-34z"/><path d="M1073.7 220c0-3.9-3.1-7-7-7s-7 3.1-7 7 3.1 7 7 7c3.2 0 5.8-2.1 6.7-5h20.7l41.1-41.1V-27h-2v207.1l-39.9 39.9h-19.6z"/><path d="M1097.4 242c-.9-2.9-3.5-5-6.7-5-3.9 0-7 3.1-7 7s3.1 7 7 7 7-3.1 7-7h9.4l46.6-46.6V-16h-2v212.6l-45.4 45.4h-8.9z"/><path d="M1103.8 253.5l-7.9 7.9c-1.3-1.4-3.1-2.4-5.2-2.4-3.9 0-7 3.1-7 7s3.1 7 7 7 7-3.1 7-7c0-1-.2-2-.7-2.9l7.6-7.6h5.5l51.8-51.8V-33h-2v235.8l-50.7 50.7h-5.4z"/><path d="M1081.3 277l-6-12h-.7c-.5-3.4-3.4-6-6.9-6-3.9 0-7 3.1-7 7s3.1 7 7 7c3.3 0 6-2.2 6.8-5.2l5.6 11.2h17l72.6-72.6V-10h-2v215.6l-71.4 71.4h-15z"/><path d="M1213.7 64.4v108.2L1104.3 282h-54l-25.4 25.4c-1.2-.9-2.6-1.4-4.2-1.4-3.9 0-7 3.1-7 7s3.1 7 7 7 7-3.1 7-7c0-1.6-.5-3-1.4-4.2l24.8-24.8h54l110.6-110.6V63.6l-8.1-8.1h-27.9V-12h-2v69.5h29.1l6.9 6.9z"/><path d="M1080 293.8l-7.8 7.8h-17.5l-5.9 5.9c-1.2-.9-2.6-1.4-4.2-1.4-3.9 0-7 3.1-7 7s3.1 7 7 7 7-3.1 7-7c0-1.6-.5-3-1.4-4.2l5.3-5.3h17.5l7.8-7.8h31.2l160.5-160.5V-11h-2v145.5l-159.3 159.3H1080z"/><path d="M1201.3 214l-85 85h-33l-10.5 10.5c-1.2-2.1-3.5-3.5-6.1-3.5-3.9 0-7 3.1-7 7s3.1 7 7 7 7-3.1 7-7c0-.5-.1-1-.1-1.4l10.6-10.6h33l85-85h45l34.6-34.6V-6h-2v186.6l-33.4 33.4h-45.1z"/><path d="M1057.8 321.5l-8.9 8.9c-1.2-.9-2.6-1.4-4.2-1.4-3.9 0-7 3.1-7 7s3.1 7 7 7 7-3.1 7-7c0-1.6-.5-3-1.4-4.2l8.3-8.3h98.5L1292 188.7V-15h-2v202.8l-133.7 133.7h-98.5z"/><path d="M1098.6 335c-.5-3.4-3.4-6-6.9-6-3.9 0-7 3.1-7 7s3.1 7 7 7c3.5 0 6.4-2.6 6.9-6h55.5l146.6-146.6V-13h-2v202.6L1153.3 335h-54.7z"/><path d="M1079.1 347l-6.8-6.8c.9-1.2 1.4-2.6 1.4-4.2 0-3.9-3.1-7-7-7s-7 3.1-7 7 3.1 7 7 7c1.6 0 3-.5 4.2-1.4l7.4 7.4h77.8l155.6-155.6V-18h-2v210.6L1155.3 347h-76.2z"/><path d="M1098.3 376l-2.4 2.4c-1.2-.9-2.6-1.4-4.2-1.4-3.9 0-7 3.1-7 7s3.1 7 7 7 7-3.1 7-7c0-1.6-.5-3-1.4-4.2l1.8-1.8h75l222.1-222.1V-13h-2v168.1L1173.3 376h-75z"/><path d="M1111 379.8l-12.8 12.8h-12.7l-10.5-10.5h-.5c-.5-3.4-3.4-6-6.9-6-3.9 0-7 3.1-7 7s3.1 7 7 7c3.4 0 6.3-2.5 6.9-5.7l10.2 10.2h14.3l12.8-12.8h70.2l220.5-220.5V-9h-2v169.5l-219.3 219.3H1111z"/><path d="M1111.8 383.5l-16.9 16.9c-1.2-.9-2.6-1.4-4.2-1.4-3.9 0-7 3.1-7 7s3.1 7 7 7 7-3.1 7-7c0-1.6-.5-3-1.4-4.2l16.3-16.3h72.5L1410 160.7V-26h-2v185.8l-223.7 223.7h-72.5z"/><path d="M1120.2 391.9l-23.9 23.9h-10l-6.3-6.3v-11.2l-4.8-4.8h-18.5l-6.3-6.3c.9-1.2 1.4-2.6 1.4-4.2 0-3.9-3.1-7-7-7s-7 3.1-7 7 3.1 7 7 7c1.6 0 3-.5 4.2-1.4l6.9 6.9h18.5l3.7 3.7v11.2l7.5 7.5h11.7l23.9-23.9h67.1l227.1-227.1V-26h-2v192.1L1187.5 392h-67.3z"/><path d="M1122.5 396.2l-25.2 25.2h-12.7l-16.5-16.5h-40.5c-.5-3.4-3.4-6-6.9-6-3.9 0-7 3.1-7 7s3.1 7 7 7c3.5 0 6.4-2.6 6.9-6h39.7l16.5 16.5h14.3l25.2-25.2h66.8l229.7-229.7V-11h-2v178.7l-228.5 228.5h-66.8z"/><path d="M1124.9 402.6l-23.6 23.6h-21.4l-14.8-14.8h-31.3l-5.5 5.5h-14.2l-3.4-3.4v-17.2l7.4-7.4c1.1.6 2.3 1 3.6 1 3.9 0 7-3.1 7-7s-3.1-7-7-7-7 3.1-7 7c0 1.8.7 3.5 1.9 4.7l-7.9 7.9v18.8l4.6 4.6h15.8l5.5-5.5h29.7l14.8 14.8h23.1l23.6-23.6h66.4L1426 170.7V-18h-2v187.9l-232.7 232.7h-66.4z"/><path d="M1384.7 278.1c-3.4.5-6 3.4-6 6.9 0 3.9 3.1 7 7 7s7-3.1 7-7c0-3.5-2.6-6.4-6-6.9v-13.7l43-43V-24h-2v244.6l-43 43v14.5z"/><path d="M1395.7 263.1c-3.4.5-6 3.4-6 6.9 0 3.9 3.1 7 7 7s7-3.1 7-7c0-3.5-2.6-6.4-6-6.9v-1.7l36.5-36.5V-24h-2v248.1l-36.5 36.5v2.5z"/><path d="M1405.7 278.1c-3.4.5-6 3.4-6 6.9 0 3.9 3.1 7 7 7s7-3.1 7-7c0-3.5-2.6-6.4-6-6.9v-16.7l33-33V-24h-2v251.6l-33 33v17.5z"/><path d="M1419.7 263.1c-3.4.5-6 3.4-6 6.9 0 3.9 3.1 7 7 7s7-3.1 7-7c0-3.5-2.6-6.4-6-6.9v-5.7l24.5-24.5V-25h-2v257.1l-24.5 24.5v6.5z"/><path d="M1431.7 278c-3.9 0-7 3.1-7 7s3.1 7 7 7 7-3.1 7-7c0-3.2-2.1-5.8-5-6.7v-12.9l19-19V-14h-2v259.6l-19 19V278z"/><path d="M1505.6 301.5l-17.3 17.3h-64.2l-57.8 57.8h-57.4l-64.6 64.6h-100.8l-26.2 26.2h-19.5l-4.2 4.2c-.9-.4-1.9-.7-2.9-.7-3.9 0-7 3.1-7 7s3.1 7 7 7 7-3.1 7-7c0-2.1-.9-3.9-2.4-5.2l3.3-3.3h19.5l26.2-26.2h100.8l64.6-64.6h57.4l57.8-57.8h64.2l18.5-18.5v-90.7l-21.5-21.5V-11h-2v202l21.5 21.5v89z"/><path d="M1389.8 402.5h-40.7l-7.2-7.2h-29.6l-56.9 56.9h-104.1l-27.9 27.9h-9.1l-14 14h-25.9c-1.3-1.8-3.4-3-5.8-3-3.9 0-7 3.1-7 7s3.1 7 7 7 7-3.1 7-7c0-.7-.1-1.3-.3-2h25.7l14-14h9.1l27.9-27.9h104.1l56.9-56.9h27.9l7.2 7.2h42.3l21.5-21.5h10.7c0 .3-.1.7-.1 1 0 3.9 3.1 7 7 7s7-3.1 7-7-3.1-7-7-7c-2.8 0-5.2 1.6-6.3 4h-12.1l-21.3 21.5z"/><path d="M1095.3 512l8 8h22.8l42-42h158.2l72.9 72.9v3.3c-3.1.7-5.5 3.5-5.5 6.8 0 3.9 3.1 7 7 7s7-3.1 7-7c0-3.7-2.9-6.7-6.5-7v-3.9l-74.1-74.1h-159.8l-42 42h-21.2l-8-8h-11.8l-11.2 11.2c-1.1-2.5-3.5-4.2-6.4-4.2-3.9 0-7 3.1-7 7s3.1 7 7 7 7-3.1 7-7v-.6l11.4-11.4h10.2z"/><path d="M1301.7 511.6l-8.1-8.1h-120.3l-43.2 43.2h-32.4v-.8c0-3.9-3.1-7-7-7s-7 3.1-7 7 3.1 7 7 7c2.9 0 5.4-1.8 6.4-4.2h33.7l43.2-43.2h118.7l6.9 6.9v38.2l-5.8 5.8c-1.2-.9-2.6-1.4-4.2-1.4-3.9 0-7 3.1-7 7s3.1 7 7 7 7-3.1 7-7c0-1.6-.5-3-1.4-4.2l6.4-6.4v-39.8z"/><path d="M1046.8 567.5h20.5l7.2 7.2h65.6l46.9-46.9h50.3l67.6 67.6h91.3l26.8-26.8v-21.2l7.3-7.3h17.1l7.2 7.2c-1.1 1.2-1.8 2.9-1.8 4.7 0 3.9 3.1 7 7 7s7-3.1 7-7-3.1-7-7-7c-1.3 0-2.6.4-3.7 1l-7.9-7.9h-18.7l-8.5 8.5v21.2l-25.6 25.6h-89.6l-67.6-67.6h-52l-46.9 46.9h-63.9l-7.2-7.2h-20.5l-14.9-14.9v-10l-11-11V483c3.9 0 7-3.1 7-7s-3.1-7-7-7-7 3.1-7 7c0 3.2 2.1 5.8 5 6.7v47.7l11 11v10l16 16.1z"/><path d="M1261.3 607.8h138.6l36.2-36.2h45.5l8.1-8.1v-16l2.3-2.3c1.2 1.1 2.9 1.9 4.7 1.9 3.9 0 7-3.1 7-7s-3.1-7-7-7-7 3.1-7 7c0 1.3.4 2.5 1 3.6l-3 3v16l-6.9 6.9h-45.5l-36.2 36.2h-136.9l-48.9-48.9h-10.9c-.9-2.8-3.5-4.9-6.7-4.9-3.9 0-7 3.1-7 7s3.1 7 7 7 7-3.1 7-7v-.1h9.7l48.9 48.9z"/><path d="M1511.2 512.9l11.5 11.5v24.2l-31.4 31.4h-47l-38 38h-163.2l-18-18h-13.4v-3h-5c0-3.9-3.1-7-7-7s-7 3.1-7 7 3.1 7 7 7c3.2 0 5.8-2.1 6.7-5h3.3v3h14.6l18 18h164.8l38-38h47l32.6-32.6v-25.8l-11.5-11.5V206.6l-19.8-19.8V-21h-2v208.7l19.8 19.8v305.4z"/><path d="M1009.5 609.4v-18.2l4.7-4.7h14.7l3.9 3.9v5l5.6 5.6h93.8l41.4-41.4c1.3 1.4 3.1 2.4 5.2 2.4 3.9 0 7-3.1 7-7s-3.1-7-7-7-7 3.1-7 7c0 1 .2 2 .7 2.9l-41.1 41.1h-92.2l-4.4-4.4v-5l-5.1-5.1h-16.3l-5.8 5.8v18.2L991.1 625v68.5l34.4 34.4h10.8l10.1 10.1h14.9l6 6h20l155.4 155.4v122l11.5 11.5v92.5l42.7 42.7v21.3l21.2 21.2 1.4-1.4-20.6-20.6v-21.3l-42.7-42.7v-92.5l-11.5-11.5v-122L1088.1 742h-20l-6-6h-14.9l-10.1-10.1h-10.8l-33.2-33.2v-66.8l16.4-16.5z"/><path d="M1294 1167.3l-42.7-42.7V1036l-10.4-10.4V900.3l-154.8-154.8h-20.5l-4.5-4.5h-19l-10-10h-8.1l-36.5-36.5v-71.3l16.9-16.9v-17.2l8.7-8.7h21.7l5.3 5.3c-1.4 1.3-2.4 3.1-2.4 5.2 0 3.9 3.1 7 7 7s7-3.1 7-7-3.1-7-7-7c-1 0-2 .2-2.9.7l-6.2-6.2h-23.3l-9.8 9.8v17.2l-16.9 16.9v73l37.6 37.6h8.1l10 10h19l4.5 4.5h20.5L1239 901.1v125.2l10.4 10.4v88.6l42.7 42.7v21.3l35.6 35.6 1.4-1.4-35.1-35.1v-21.1z"/><path d="M1301 1153.1l-34.5-34.5v-93.8l-10.2-10.2V894l-163.2-163.2h-18.8l-4.2-4.2h-17.5l-12.5-12.5h-10l-26.4-26.4v-43.2l31.4-31.4h123l21.9-21.9c1.2 1.1 2.9 1.9 4.7 1.9 3.9 0 7-3.1 7-7s-3.1-7-7-7-7 3.1-7 7c0 1.3.4 2.5 1 3.6l-21.4 21.4h-123l-32.6 32.6v44.8l27.6 27.6h10l12.5 12.5h17.5l4.2 4.2h18.8l162 162v120.6l10.2 10.2v93.8l35.7 35.7h35.1l4.9 4.9v57h2v-57.9l-6-6H1301z"/><path d="M1297.7 1158.4l-36.9-36.9v-94.1l-9.9-9.9V895.3l-159.8-159.8h-20.5l-3.5-3.5h-15l-13-13h-11l-29.4-29.4v-51.2l8.5-10c1.2 1 2.8 1.6 4.5 1.6 3.9 0 7-3.1 7-7s-3.1-7-7-7-7 3.1-7 7c0 1.4.4 2.8 1.2 3.9l-9.2 10.7v52.8l30.6 30.6h11l13 13h15l3.5 3.5h20.5L1249 896.2v122.2l9.9 9.9v94.1l38 38h33.4l5.2 5.2v46.4h2v-47.2l-6.4-6.4h-33.4z"/><path d="M1516.1 511l11.4 11.4v29l-34.2 34.2h-49.4l-38.6 38.6h-206.4l-5.8-5.8h-153.3l-25.1 25.1V656c-3.4.5-6 3.4-6 6.9 0 3.9 3.1 7 7 7s7-3.1 7-7c0-3.5-2.6-6.4-6-6.9v-11.7l23.9-23.9h151.7l5.8 5.8h208.1l38.6-38.6h49.4l35.4-35.4v-30.6l-11.4-11.4V202.6l-18.7-18.7V-17h-2v201.7l18.7 18.7V511z"/><path d="M1348.5 1153.8l-7.4-7.4h-37.4l-31.9-31.9v-91.1l-9.9-9.9V891.4l-166.8-166.8h-17.6l-4.4-4.4H1053l-8.8-8.8h-11.3l-10.7-10.7v-26.8l4.4-4.4v-30.2l14.7-14.7h81.7l10.8 10.8c-1.8 1.3-2.9 3.3-2.9 5.7 0 3.9 3.1 7 7 7s7-3.1 7-7-3.1-7-7-7c-.8 0-1.5.1-2.2.4l-11.9-11.9h-83.3l-15.8 15.8v30.2l-4.4 4.4v28.5l11.9 11.9h11.3l8.8 8.8h20.2l4.4 4.4h17.6l165.6 165.6v122.2l9.9 9.9v91.1l33 33h37.4l6.2 6.2v38.8l23.9 23.9 1.4-1.4-23.3-23.3v-38.8z"/><path d="M1118.3 631l4.9 4.9v8.5l9.3 9.3h23.6l21.9-21.9h204.3l6.5 6.5v12.9c-2.9.8-5.1 3.5-5.1 6.7 0 3.9 3.1 7 7 7s7-3.1 7-7c0-3.8-3.1-7-6.9-7v-13.5l-7.6-7.6h-206l-21.9 21.9h-21.9l-8.2-8.2V635l-6.1-6.1h-63.8l-7 7c-1.1-.6-2.3-1-3.6-1-3.9 0-7 3.1-7 7s3.1 7 7 7 7-3.1 7-7c0-1.8-.7-3.5-1.9-4.7l6.3-6.3h62.2z"/><path d="M1522.2 508l9.4 9.4v37.1l-37.3 37.3h-48.2l-46.8 46.8v25.6l-3 3H1383l-3.5-3.5v-21.8l-6.3-6.3h-192.3l-27.5 27.5h-15.2l-17.3-17.3c1.1-1.2 1.9-2.9 1.9-4.7 0-3.9-3.1-7-7-7s-7 3.1-7 7 3.1 7 7 7c1.3 0 2.5-.4 3.6-1l18 18h16.8l27.5-27.5h190.7l5.2 5.2v21.8l4.7 4.7h15l4.1-4.1v-25.6L1447 594h48.2l38.5-38.5v-38.7l-9.4-9.4V200.6l-19.2-19.2V-46h-2v228.2l19.2 19.2V508z"/><path d="M1527.3 503.8l11.6 11.6v40.4l-41.7 41.7h-46.5l-44.1 44.1v26l-6.4 6.4H1378l-3.4-3.4v-23l-5.6-5.6h-183.8l-29 29H1119l-31-31h-14.7c-.9-2.9-3.5-5-6.7-5-3.9 0-7 3.1-7 7s3.1 7 7 7 7-3.1 7-7h13.6l31 31h38.8l29-29h182.2l4.4 4.4v23l4.6 4.6h23.8l7.6-7.6v-26l42.9-42.9h46.5l42.8-42.8v-42.1l-11.6-11.6V197.6l-18.3-18.3V-12h-2v192.1l18.3 18.3v305.4z"/><path d="M1202.3 646l-16.5 16.5c-1.2-2.1-3.5-3.5-6.1-3.5-3.9 0-7 3.1-7 7s3.1 7 7 7 7-3.1 7-7c0-.5-.1-1-.1-1.4l16.6-16.6h135.2l31 31h35.8l8.1-8.1v-26.5l39.2-39.2h47.8l45.7-45.7v-47l-10.6-10.6V276.4l1.5-1.5c1.3 1.3 3 2.1 5 2.1 3.9 0 7-3.1 7-7s-3.1-7-7-7-7 3.1-7 7c0 1.2.3 2.3.8 3.3l-2.3 2.3v227.3l10.6 10.6v45.3l-44.5 44.5h-47.8l-40.3 40.3v26.5l-6.9 6.9h-34.2l-31-31h-137zM1362.3 1196.8l-6.3-6.3v-38.3l-10.9-10.9h-39.4l-29.8-29.8v-93.2l-7.8-7.8V888.1l-170-170.1-37.4-2.6-11.6-11.6h-12.9l-5.3-5.3v-23.9l4.2-4.2v-12.5l3.9-3.9h40.2l5.8 5.8c-.9 1.2-1.4 2.6-1.4 4.2 0 3.9 3.1 7 7 7s7-3.1 7-7-3.1-7-7-7c-1.6 0-3 .5-4.2 1.4l-6.4-6.4h-41.8l-5.1 5.1v12.5l-4.2 4.2v25.6l6.5 6.5h12.9l11.5 11.5 37.4 2.6 168.9 168.9v122.5l7.8 7.8v93.2l31 31h39.4l9.7 9.7v38.3l7.4 7.4h234.8l10.3 10.3 1.4-1.4-10.9-10.9h-234.7z"/><path d="M1546.3 1178.9l-20.1-20.1H1457l-24.7 24.7h-49.6l-20.9-20.9v-13.1l-13.7-13.7h-38.9l-26.3-26.3v-93.3l-7.7-7.7V854l-15.2-15.2h-28.8L1105 712.6h-22.6l-6.4-6.4h-17.2l-8.8-8.8h-9.5l-4.9-4.9v-14.2l7.6-8.3c1 .6 2.2.9 3.4.9 3.9 0 7-3.1 7-7s-3.1-7-7-7-7 3.1-7 7c0 1.9.8 3.7 2 4.9l-8 8.7v15.8l6.1 6.1h9.5l8.8 8.8h17.2l6.4 6.4h22.6l126.2 126.2h28.8l14 14v154.6l7.7 7.7v93.3l27.4 27.4h38.9l12.5 12.5v13.1l22 22h51.3l24.7-24.7h67.4l20.1 20.1h105.9l4 4v28.2h2v-29l-5.2-5.2h-105.6z"/><path d="M1557.3 1166.9l-21.1-21.1h-63.7l-20.3-20.3h-22.4l-15.6-15.6h-24.9l-8.3-8.3v-12.3l-14.9-14.9h-13.4l-21.8-21.8v-25.2l-42.8-42.8V849.3l-21.9-21.9h-30.4l-124.6-124.6h-25.8l-6.2-6.2h-15.5l-5.9-5.9v-16.1l6.6-5.1c1.2 1 2.7 1.6 4.4 1.6 3.9 0 7-3.1 7-7s-3.1-7-7-7-7 3.1-7 7c0 1.5.5 2.8 1.2 4l-7.2 5.6v17.9l7.1 7.1h15.5l6.2 6.2h25.8L1235 829.5h30.4l20.7 20.7v135.3l42.8 42.8v25.2l23 23h13.4l13.7 13.7v12.3l9.4 9.4h24.9l15.6 15.6h22.4l20.3 20.3h63.7l21.1 21.1h105.9l6 6v37.2h2v-38l-7.2-7.2h-105.8z"/><path d="M1551 1173.1l-20.9-20.9h-77.3l-11.7-11.7h-76.6l-11.4-11.4H1311l-22.5-22.5v-93.8l-8.2-8.2V852.1l-18.1-18.1h-28l-128-128h-23l-5-5h-17l-11.2-9.7c2.3-1.1 3.9-3.5 3.9-6.3 0-3.9-3.1-7-7-7s-7 3.1-7 7 3.1 7 7 7c.3 0 .6 0 .9-.1l12.8 11.1h17l5 5h23l128 128h28l16.9 16.9v152.5l8.2 8.2v93.8l23.7 23.7h42.1l11.4 11.4h76.6l11.7 11.7h77.3l20.9 20.9h106.1l4.8 4.8v35h2v-35.8l-6-6H1551zM1480.9 932.6l4.2-4.2v-16.3l-28-28H1425l-50.5-50.5v-51.8l-88.2-88.2c.3-.8.5-1.7.5-2.6 0-3.9-3.1-7-7-7s-7 3.1-7 7c0 1.3.4 2.5 1 3.6l-19.6 19.6c-4 .9-56.8.4-92-.1l-29-29h-35.4c0-3.9-3.1-7-7-7s-7 3.1-7 7 3.1 7 7 7c3.2 0 5.8-2.1 6.7-5h34.9l29 29h.4c.2 0 23.1.4 45.9.6 46.5.4 47.3-.3 47.8-.9l19.6-19.6c1.2 1.1 2.9 1.9 4.7 1.9 2.2 0 4.2-1 5.5-2.6l87.3 87.3v51.8l51.7 51.7h32.1l26.9 26.9v14.6l-4.2 4.2v36.6l50 50h8.8c.2 3.7 3.2 6.6 7 6.6 3.9 0 7-3.1 7-7s-3.1-7-7-7c-3.3 0-6.1 2.3-6.8 5.4h-8.2l-48.8-48.8v-35.2z"/><path d="M1192.6 746c-.5-3.4-3.4-6-6.9-6-3.9 0-7 3.1-7 7s3.1 7 7 7c3.5 0 6.4-2.6 6.9-6h76.7l9.1 9.1c-.4.9-.7 1.9-.7 2.9 0 3.9 3.1 7 7 7s7-3.1 7-7-3.1-7-7-7c-2.1 0-3.9.9-5.2 2.4l-9.4-9.4h-77.5z"/><path d="M1266.3 755.5l4.2 4.2v9.8l7.4 7.4c-.1.4-.1.8-.1 1.2 0 3.9 3.1 7 7 7s7-3.1 7-7-3.1-7-7-7c-2.7 0-5 1.5-6.2 3.7l-6.1-6.1v-9.8l-5.3-5.3h-71.3l-4.9 4.9c-1.2-.9-2.6-1.4-4.2-1.4-3.9 0-7 3.1-7 7s3.1 7 7 7 7-3.1 7-7c0-1.6-.5-3-1.4-4.2l4.3-4.3h69.6z"/><path d="M1231.1 770.6l-.6-.6h-8.1c-.9-2.9-3.5-5-6.7-5-3.9 0-7 3.1-7 7s3.1 7 7 7c3.2 0 5.8-2.1 6.7-5h6.5l86.4 86.4.6.6h53l89.8 89.8v30l63.7 63.7h26c1.3 1.5 3.2 2.5 5.4 2.5 3.9 0 7-3.1 7-7s-3.1-7-7-7-7 3.1-7 7v.5H1524l-61.3-61.3v-30l-91.6-91.6-.6-.6h-53l-86.4-86.4zM1549.3 275.2l-9.4 9.4v215.7l10.1 10.1v49.5l-48.7 48.7h-46.4l-37 37v28.1l-10.5 10.5H1365l-31.8-31.8h-119.3l-11.9 11.9c-1.2-.9-2.6-1.4-4.2-1.4-3.9 0-7 3.1-7 7s3.1 7 7 7 7-3.1 7-7c0-1.6-.5-3-1.4-4.2l11.3-11.3h117.7l31.8 31.8h44.1l11.7-11.7v-28.1l35.9-35.9h46.4l49.9-49.9v-51.1l-10.1-10.1v-214l9.4-9.4v-66.4l-34.8-34.8V-14h-2v189.6l34.8 34.8v64.8z"/><path d="M1556.4 276.3l-10.3 10.3V497l10.4 10.4v56.9l-50.2 50.2h-46.5l-35.1 35.1v24l-15.4 15.4h-48.2l-31-31h-100.8l-25.4 25.4c-1.2-.9-2.6-1.4-4.2-1.4-3.9 0-7 3.1-7 7s3.1 7 7 7 7-3.1 7-7c0-1.6-.5-3-1.4-4.2l24.8-24.8h99.2l31 31h49.8l16.6-16.6v-24l33.9-33.9h46.5l51.3-51.3v-58.6l-10.4-10.4V287.4l10.3-10.3v-72.5l-36.3-36.3V-42h-2v211.1l36.3 36.3v70.9zM1284.2 1184.1l-6.1-6.1h-9.4c-.3-3.9-3.5-7-7.5-7-4.1 0-7.5 3.4-7.5 7.5s3.4 7.5 7.5 7.5c3.6 0 6.7-2.6 7.3-6h8.7l4.9 4.9v11.5l21 21 1.4-1.4-20.5-20.5v-11.4z"/><path d="M1250.7 1163.5c1.3.9 2.8 1.5 4.5 1.5 4.1 0 7.5-3.4 7.5-7.5s-3.4-7.5-7.5-7.5-7.5 3.4-7.5 7.5c0 1.4.4 2.6 1 3.7v26.2l24.8 24.8 1.4-1.4-24.2-24.2v-23.1z"/><path d="M1288.3 1172l-41.4-41.4v-9.2l-15.8-15.8v-22.5l-13.5-13.5v-9l-10.1-10.1c.7-1.1 1.1-2.5 1.1-4 0-4.1-3.4-7.5-7.5-7.5s-7.5 3.4-7.5 7.5 3.4 7.5 7.5 7.5c2 0 3.7-.8 5.1-2l9.4 9.4v9l13.5 13.5v22.5l15.8 15.8v9.2l41.4 41.4v21.6l24 24 1.4-1.4-23.4-23.4V1172z"/><path d="M1231.7 1116.6l-8-8v-25l-10-10v-10l-7.6-7.6h-10.6c-.7-3.4-3.7-6-7.3-6-4.1 0-7.5 3.4-7.5 7.5s3.4 7.5 7.5 7.5c4 0 7.2-3.1 7.5-7h9.6l6.4 6.4v10l10 10v25l8 8v58l42.3 42.3 1.4-1.4-41.7-41.7v-58z"/><path d="M1219.7 1130c3.9-.3 7-3.5 7-7.5 0-4.1-3.4-7.5-7.5-7.5s-7.5 3.4-7.5 7.5c0 3.6 2.6 6.7 6 7.3v43.6l40.8 40.8 1.4-1.4-40.2-40.2V1130z"/><path d="M1229.9 1207.8l-40.2-40.2v-48.2l13-13v-7.6c3.4-.7 6-3.7 6-7.3 0-4.1-3.4-7.5-7.5-7.5s-7.5 3.4-7.5 7.5c0 4 3.1 7.2 7 7.5v6.6l-13 13v49.8l40.8 40.8 1.4-1.4z"/><path d="M1223 1211.7l1.4-1.4-40.7-40.7v-61.1c1.3.9 2.8 1.5 4.5 1.5 4.1 0 7.5-3.4 7.5-7.5s-3.4-7.5-7.5-7.5-7.5 3.4-7.5 7.5c0 1.4.4 2.6 1 3.7v64.2l41.3 41.3zM1085.1 752h-25l-3-3h-18l-10-10h-10l-42-42h-16.8l-6.7 6.7c-.9-.4-1.9-.7-2.9-.7-3.9 0-7 3.1-7 7s3.1 7 7 7 7-3.1 7-7c0-2.1-.9-3.9-2.4-5.2l5.8-5.8h15.2l42 42h10l10 10h18l3 3h25l147.4 147.4v141.7c-.6 1.1-1 2.5-1 3.9 0 4.4 3.6 8 8 8s8-3.6 8-8-3.6-8-8-8c-1.9 0-3.6.7-5 1.8V900.6L1085.1 752z"/><path d="M1228.3 904l-146.2-146.2h-22.8l-4.2-4.2h-17.5l-9.5-9.5h-15l-7.4-7.4c.6-1.1 1-2.3 1-3.6 0-3.9-3.1-7-7-7s-7 3.1-7 7 3.1 7 7 7c1.8 0 3.5-.7 4.7-1.9l7.9 7.9h15l9.5 9.5h17.5l4.2 4.2h22.8l145 145v70.8l-49.3 49.3v147.5l70.6 70.6 1.4-1.4-70.1-70.1v-145.9l49.3-49.3V904z"/><path d="M1171.6 1019.5v157l73.9 73.9 1.4-1.4-73.3-73.3v-155.3l47.9-47.9v-66.6l-142.3-142.3h-24.5l-4.5-4.5h-20.7c.2-.6.3-1.3.3-2 0-3.9-3.1-7-7-7s-7 3.1-7 7 3.1 7 7 7c2.4 0 4.5-1.2 5.7-3h20.8l4.5 4.5h24.5l141.2 141.2v64.9l-47.9 47.8z"/><path d="M1168.7 1017.4l48-48v-61.8L1085.1 776H1075c-1.1-2.4-3.5-4-6.3-4-3.9 0-7 3.1-7 7s3.1 7 7 7 7-3.1 7-7c0-.3 0-.7-.1-1h8.7l130.4 130.4v60.2l-48 48v161.8l87.8 87.8 1.4-1.4-87.2-87.2v-160.2z"/><path d="M1050.1 766.9h-32.9l-6.3-6.3v-8.2l-7.8-7.8h-13.5l-2.9-2.9v-19l-8.4-8.4c.9-1.2 1.4-2.6 1.4-4.2 0-3.9-3.1-7-7-7s-7 3.1-7 7 3.1 7 7 7c1.6 0 3-.5 4.2-1.4l7.8 7.8v19l4.1 4.1h13.5l6.7 6.7v8.2l7.5 7.5h32.9l5 5v12.6l7.8 7.8h30.2l99.8 99.8v87.6L1159 1015v166.6l59.7 59.7 1.4-1.4-59.1-59.1v-165l33.2-33.2v-89.2l-101-101H1063l-6.6-6.6V773l-6.3-6.1z"/><path d="M1154.2 1013.9l34.5-34.5v-75.8l-46.4-46.4c.9-1.2 1.4-2.6 1.4-4.2 0-3.9-3.1-7-7-7s-7 3.1-7 7 3.1 7 7 7c1.6 0 3-.5 4.2-1.4l45.8 45.8v74.2l-34.5 34.5v172.3l89 89 1.4-1.4-88.5-88.5v-170.6z"/><path d="M1088.1 806.5h-34.5l-6.9-6.9v-13.7c3.4-.5 6-3.4 6-6.9 0-3.9-3.1-7-7-7s-7 3.1-7 7c0 3.5 2.6 6.4 6 6.9v14.5l8.1 8.1h34.5l37.2 37.2v14.8l55.1 55.1v62l-31.4 31.4v178.4l19.1 19.1 1.4-1.4-18.5-18.5v-176.7l31.4-31.4v-63.7l-55.1-55.1v-14.8l-38.4-38.4z"/><path d="M1142.6 1007.5v181.9l61.8 61.8 1.4-1.4-61.2-61.2v-180.2l32.9-32.9v-56.7l-56.1-56.1v-13.8l-37.3-37.3h-52.5l-7.9-7.9V786c3.9 0 7-3.1 7-7s-3.1-7-7-7-7 3.1-7 7c0 3.2 2.1 5.8 5 6.7v18.7l9.1 9.1h52.5l36.2 36.2v13.8l56.1 56.1v55l-33 32.9z"/><path d="M1138.5 1005.2l32.8-32.8V920l-55.4-55.4v-14.1l-32.7-32.7h-59.8l-13.2-13.2v-32.5l-8.7-8.7c2.5-1.1 4.2-3.5 4.2-6.4 0-3.9-3.1-7-7-7s-7 3.1-7 7 3.1 7 7 7h.6l8.9 8.9v32.5l14.3 14.3h59.8l31.5 31.5v14.1l55.4 55.4v50.7l-32.8 32.8v188l102.9 102.9 1.4-1.4-102.3-102.3v-186.2z"/><path d="M1134.3 1002l31.6-31.6v-47.1l-56.8-56.8V853l-29.1-29.1h-58l-23.4-23.4V786c3.9 0 7-3.1 7-7s-3.1-7-7-7-7 3.1-7 7c0 3.2 2.1 5.8 5 6.7v15.7l24.6 24.6h58l27.9 27.9v13.5l56.8 56.8v45.4l-31.6 31.6v192.2l57.5 57.5 1.4-1.4-56.9-56.9V1002z"/><path d="M1161.5 930.8l-58.2-58.2V856l-26.2-26.2h-57.8l-31.2-31.2v-47.5L977 739.9c3.2-.6 5.7-3.5 5.7-6.9 0-3.9-3.1-7-7-7s-7 3.1-7 7c0 3.3 2.3 6.1 5.4 6.8l12.1 12.1v47.5l32.3 32.3h57.8l25 25v16.6l58.2 58.2v35l-32.4 32.4v225h2V999.8l32.4-32.4v-36.6z"/><path d="M1139.2 917.1l-40.5-40.5v-17l-25.6-25.6h-55l-35.4-35.4v-30l-4.7-4.7c3.2-.6 5.7-3.5 5.7-6.9 0-3.9-3.1-7-7-7s-7 3.1-7 7c0 3.3 2.3 6.1 5.4 6.8l5.6 5.6v30l36.6 36.6h55l24.4 24.4v17l40.5 40.5v53.7l-16.2 16.2V1238h2V988.7l16.2-16.2v-55.4z"/><path d="M1132.2 917.1l-40.5-40.5v-7.8c1.8-1.3 3-3.4 3-5.7 0-3.9-3.1-7-7-7s-7 3.1-7 7 3.1 7 7 7c.7 0 1.4-.1 2-.3v7.7l40.5 40.5v49.7l-14.8 14.8V1223h2V983.2l14.8-14.8v-51.3z"/><path d="M1126.7 921.6l-38-38c.6-1.1 1-2.3 1-3.6 0-3.9-3.1-7-7-7s-7 3.1-7 7 3.1 7 7 7c1.8 0 3.5-.7 4.7-1.9l37.3 37.3v44.2l-15 15V1236h2V982.4l15-15v-45.8z"/><path d="M1070 860.3l-19.9-19.9h-36.4L977 803.6v-33.2l-12.8-12.8v-29.5l-8.1-8.1h-16l-5-5.6c1-1.2 1.6-2.7 1.6-4.4 0-3.9-3.1-7-7-7s-7 3.1-7 7 3.1 7 7 7c1.5 0 2.8-.5 4-1.2l5.6 6.2h16l6.9 6.9v29.5l12.8 12.8v33.2l38 38h36.4l18.7 18.7v34.3l27.8 27.8V1228h2V922.4l-27.8-27.8v-34.3z"/><path d="M1064.8 863.5l-16.7-16.7h-36.8l-41.2-41.2v-31.5l-16.5-16.5v-17.9c2.9-.9 5-3.5 5-6.7 0-3.9-3.1-7-7-7s-7 3.1-7 7 3.1 7 7 7v18.4l16.5 16.5v31.5l42.3 42.3h36.8l15.5 15.5v35.1l29.4 29.4V1237h2V928l-29.4-29.4v-35.1z"/><path d="M1058.7 885.6l-13.4-13.4c1.4-1.3 2.4-3.1 2.4-5.2 0-3.9-3.1-7-7-7s-7 3.1-7 7 3.1 7 7 7c1 0 2-.2 2.9-.7l13.1 13.1v15l30 30V1229h2V930.6l-30-30v-15z"/><path d="M1052.2 895.1l-5.5-5.5c.6-1.1 1-2.3 1-3.6 0-3.9-3.1-7-7-7s-7 3.1-7 7 3.1 7 7 7c1.8 0 3.5-.7 4.7-1.9l4.8 4.8v9.5l29.2 29.2V1234h2V933.8l-29.2-29.2v-9.5z"/><path d="M1041.1 917.1l-10.5-10.5v-33.9l-66.1-66.1v-31.8l-16.2-16.2v-9.5l-12.5-12.5c.6-1.1 1-2.3 1-3.6 0-3.9-3.1-7-7-7s-7 3.1-7 7 3.1 7 7 7c1.8 0 3.5-.7 4.7-1.9l11.8 11.8v9.5l16.2 16.2v31.8l66.1 66.1v33.9l11.6 11.6h10.1l19.9 19.9V1241h2V938.1l-21.1-21.1h-10z"/><path d="M1024.7 871.6l-70-70v-16.3c2.4-1.1 4-3.5 4-6.3 0-3.9-3.1-7-7-7s-7 3.1-7 7 3.1 7 7 7c.3 0 .7 0 1-.1v16.5l70 70v37l13.5 13.5V1209h2V922.1l-13.5-13.5v-37z"/><path d="M1019.6 872.7l-77.1-77.1v-45.8l-8.3-8.3h-14.5l-12.9-12.9v-11.7c3.4-.5 6-3.4 6-6.9 0-3.9-3.1-7-7-7s-7 3.1-7 7c0 3.5 2.6 6.4 6 6.9v12.5l14.1 14.1h14.5l7.2 7.2v45.8l77.1 77.1v36.9l11.6 11.6v301h2v-302l-11.6-11.6v-36.8z"/><path d="M1013.7 877.6l-84-84v-29.7c3.4-.5 6-3.4 6-6.9 0-3.9-3.1-7-7-7s-7 3.1-7 7c0 3.5 2.6 6.4 6 6.9v30.5l84 84v35l10.5 10.5V1247h2V923.1l-10.5-10.5v-35z"/><path d="M1008.1 882.2l-83.6-83.6v-27.8l-28.2-28.2v-19.5l-8.9-8.9c.9-1.2 1.4-2.6 1.4-4.2 0-3.9-3.1-7-7-7s-7 3.1-7 7 3.1 7 7 7c1.6 0 3-.5 4.2-1.4l8.3 8.3v19.5l28.2 28.2v27.8l83.6 83.6v34.4l10.8 10.8V1216h2V927.4l-10.8-10.8v-34.4z"/><path d="M1002.9 882.4l-20.8-20.8h-54.6l-7-7v-82.8l-8.3-8.3h-8.5l-19.9-19.9v-3.7c3.4-.5 6-3.4 6-6.9 0-3.9-3.1-7-7-7s-7 3.1-7 7c0 3.5 2.6 6.4 6 6.9v4.5l21.1 21.1h8.5l7.2 7.2v82.8l8.2 8.2h54.6l19.6 19.6v34.2l11.9 11.9V1236h2V928.5l-11.9-11.9v-34.2z"/><path d="M937.6 939.5l-31.9-31.9V785.9c3.4-.5 6-3.4 6-6.9 0-3.9-3.1-7-7-7s-7 3.1-7 7c0 3.5 2.6 6.4 6 6.9v122.5l33.1 33.1h9.5l10.2 10.2V1207h2V950.8l-11.3-11.3h-9.6zM997.2 892.1l-11.5-11.5c.6-1.1 1-2.3 1-3.6 0-3.9-3.1-7-7-7s-7 3.1-7 7 3.1 7 7 7c1.8 0 3.5-.7 4.7-1.9l10.8 10.8v27.5l12.8 12.8V1223h2V932.3l-12.8-12.8v-27.4z"/><path d="M991.2 905.1l-5.5-5.5c.6-1.1 1-2.3 1-3.6 0-3.9-3.1-7-7-7s-7 3.1-7 7 3.1 7 7 7c1.8 0 3.5-.7 4.7-1.9l4.8 4.8v16.5l11.2 11.2V1229h2V932.8l-11.2-11.2v-16.5z"/><path d="M981.7 918.7c2.9-.9 5-3.5 5-6.7 0-3.9-3.1-7-7-7s-7 3.1-7 7 3.1 7 7 7v2.4l12.5 12.5V1221h2V933.1l-12.5-12.5v-1.9z"/><path d="M970.7 895.6l-13.9-13.9c1.1-1.2 1.9-2.9 1.9-4.7 0-3.9-3.1-7-7-7s-7 3.1-7 7 3.1 7 7 7c1.3 0 2.5-.4 3.6-1l13.4 13.4v21l18 18V1229h2V934.6l-18-18v-21z"/><path d="M962.2 905.1l-3.9-3.9c.9-1.2 1.4-2.6 1.4-4.2 0-3.9-3.1-7-7-7s-7 3.1-7 7 3.1 7 7 7c1.6 0 3-.5 4.2-1.4l3.3 3.3v11.5l19.8 19.8V1228h2V936.3l-19.8-19.8v-11.4z"/><path d="M955.7 919.3c2.4-1.1 4-3.5 4-6.3 0-3.9-3.1-7-7-7s-7 3.1-7 7 3.1 7 7 7c.3 0 .7 0 1-.1v5.5l20 20V1231h2V944.6l-20-20v-5.3z"/><path d="M941.7 889.6l-12-12c.6-1.1 1-2.3 1-3.6 0-3.9-3.1-7-7-7s-7 3.1-7 7 3.1 7 7 7c1.8 0 3.5-.7 4.7-1.9l11.3 11.3v30l28.5 28.5V1228h2V948.1l-28.5-28.5v-30z"/><path d="M935.2 900.1l-5.9-5.9c.9-1.2 1.4-2.6 1.4-4.2 0-3.9-3.1-7-7-7s-7 3.1-7 7 3.1 7 7 7c1.6 0 3-.5 4.2-1.4l5.3 5.3v24.5l27.8 27.8V1229h2V952.3l-27.8-27.8v-24.4z"/><path d="M935.1 944l-33.4-33.4v-41l-7-7v-97l-23-23v-22l-6.4-6.4c.9-1.2 1.4-2.6 1.4-4.2 0-3.9-3.1-7-7-7s-7 3.1-7 7 3.1 7 7 7c1.6 0 3-.5 4.2-1.4l5.8 5.8v22l23 23v97l7 7v41l34.6 34.6h10l7.9 7.9V1243h2V953.1l-9.1-9.1h-10z"/><path d="M933.9 950.2l-36.7-36.7V874l-8.5-8.5v-100l-25.9-25.9c2.8-.9 4.9-3.5 4.9-6.7 0-3.9-3.1-7-7-7s-7 3.1-7 7c0 3.7 2.9 6.8 6.6 7l26.4 26.4v100l8.5 8.5v39.5l37.8 37.8h8.2l5.3 5.3V1224h2V956.7l-6.5-6.5h-8.1z"/><path d="M905.9 1069.4l-17.8-17.8h-31.6l-80-80V871.3l4.9-4.9V691.2l13.7-13.7h32.7l6.5 6.5h119.8l15.4-15.4c1.2.9 2.6 1.4 4.2 1.4 3.9 0 7-3.1 7-7s-3.1-7-7-7-7 3.1-7 7c0 1.6.5 3 1.4 4.2L953.3 682H835.1l-6.5-6.5h-34.3l-14.8 14.8v175.2l-4.9 4.9v102l81.1 81.1h31.6l16.6 16.6v32.4l-116.8 116.8 1.4 1.4 117.4-117.4v-33.9z"/><path d="M841.1 720.5h-17.5l-5.8-5.8c1.1-1.2 1.9-2.9 1.9-4.7 0-3.9-3.1-7-7-7s-7 3.1-7 7 3.1 7 7 7c1.3 0 2.5-.4 3.6-1l6.5 6.5h17.5l5.7 5.7v6.2l34.4 34.4v100.6l8.7 8.7v54l.8.8c-.1.4-.1.7-.1 1.1 0 3.9 3.1 7 7 7s7-3.1 7-7-3.1-7-7-7c-2.3 0-4.4 1.2-5.7 2.9v-52.7l-8.7-8.7V768L848 733.6v-6.2l-6.9-6.9z"/><path d="M869.7 774.4v103l7 7v59l17.8 17.8c1.2 2.3 3.5 3.8 6.2 3.8 3.9 0 7-3.1 7-7s-3.1-7-7-7c-3.7 0-6.8 2.9-7 6.6l-15-15v-59l-7-7v-103L841.1 743h-17l-5.8-5.8c.9-1.2 1.4-2.6 1.4-4.2 0-3.9-3.1-7-7-7s-7 3.1-7 7 3.1 7 7 7c1.6 0 3-.5 4.2-1.4l6.4 6.4h17l29.4 29.4z"/><path d="M894.5 970.8h19.4c.8 3 3.5 5.2 6.8 5.2 3.9 0 7-3.1 7-7s-3.1-7-7-7c-3.8 0-6.9 3-7 6.8h-18.3l-21.2-21.2v-63.5l-14.5-14.5v-83.7c3.4-.5 6-3.4 6-6.9 0-3.9-3.1-7-7-7s-7 3.1-7 7c0 3.5 2.6 6.4 6 6.9v84.5l14.5 14.5v63.5l22.3 22.4z"/><path d="M818.7 760.6c.6-1.1 1-2.3 1-3.6 0-3.9-3.1-7-7-7s-7 3.1-7 7 3.1 7 7 7c1.8 0 3.5-.7 4.7-1.9l6.3 6.3v19l9.5 9.5v77.5l4.8 4.8v97.2l17.5 17.5h21.9l7 7v11.2h-.6c-3.9 0-7 3.1-7 7s3.1 7 7 7 7-3.1 7-7c0-3-1.8-5.5-4.4-6.5V1000l-8.1-8.1h-21.9L840 975.6v-97.2l-4.8-4.8v-77.5l-9.5-9.5v-19l-7-7z"/><path d="M860.4 1031.8l-66.2-66.2v-78.7l5.5-5.5V699H818c-.2.6-.3 1.3-.3 2 0 3.9 3.1 7 7 7s7-3.1 7-7-3.1-7-7-7c-2.4 0-4.5 1.2-5.7 3h-21.3v183.6l-5.5 5.5v80.3l67.3 67.3h43.8l23.5 23.5v95.3l-54.3 54.3 1.4 1.4 54.9-54.9v-97l-24.7-24.7h-43.7z"/><path d="M762.6 974.5l-8.9-8.9v-78.2l14-14v-64.5c3.4-.5 6-3.4 6-6.9 0-3.9-3.1-7-7-7s-7 3.1-7 7c0 3.5 2.6 6.4 6 6.9v63.7l-14 14v79.8l10.1 10.1h6.5l107.8 107.8c1 2.7 3.5 4.7 6.6 4.7 3.9 0 7-3.1 7-7s-3.1-7-7-7c-3.6 0-6.5 2.7-6.9 6.1L769.1 974.5h-6.5zM713.1 745h19l6.5-7.2c1.3 1.3 3.1 2.2 5 2.2 3.9 0 7-3.1 7-7s-3.1-7-7-7-7 3.1-7 7c0 1.1.3 2.2.8 3.2l-6.2 6.8h-19l-9.6 9.6v174.8l10.5 10.5v85.8c-.9 1.2-1.5 2.7-1.5 4.3 0 3.9 3.1 7 7 7s7-3.1 7-7-3.1-7-7-7c-1.3 0-2.5.3-3.5.9V937l-10.5-10.5V753.4l8.5-8.4z"/><path d="M708.7 942.6l-11-11V746.4l12.4-12.4h4.7c.5 3.4 3.4 6 6.9 6 3.9 0 7-3.1 7-7s-3.1-7-7-7c-3.5 0-6.4 2.6-6.9 6h-5.5l-13.6 13.6v186.8l11 11v70.2l-6.3 6.3c-1.2-1.1-2.9-1.9-4.7-1.9-3.9 0-7 3.1-7 7s3.1 7 7 7 7-3.1 7-7c0-1.3-.4-2.5-1-3.6l7-7v-71.8z"/><path d="M690.6 1035.5l-16.9-16.9V787.9c.3 0 .7.1 1 .1 3.9 0 7-3.1 7-7s-3.1-7-7-7-7 3.1-7 7c0 2.8 1.6 5.2 4 6.3v232.1l18.1 18.1h20.5l16.2 16.2v11.9l-6.3 6.3H534.3l-9.1 9.1v129h2v-128.1l8-8H721l7.5-7.5v-13.6l-17.3-17.3h-20.6z"/><path d="M688.3 1059h21.5c.5 3.4 3.4 6 6.9 6 3.9 0 7-3.1 7-7s-3.1-7-7-7c-3.5 0-6.4 2.6-6.9 6h-20.7l-26.4-26.4v-39l-11.5-11.5V788c3.6-.3 6.5-3.3 6.5-7 0-3.9-3.1-7-7-7s-7 3.1-7 7c0 3.4 2.4 6.1 5.5 6.8v193.1l11.5 11.5v39l27.6 27.6z"/><path d="M669.7 762.9c1.3 1.3 3 2.1 5 2.1 3.9 0 7-3.1 7-7s-3.1-7-7-7-7 3.1-7 7c0 1.2.3 2.3.8 3.3l-8.3 8.3v212.3l6.5 6.5v37l23.6 23.6h7.5c.5 3.4 3.4 6 6.9 6 3.9 0 7-3.1 7-7s-3.1-7-7-7c-3.5 0-6.4 2.6-6.9 6h-6.7l-22.4-22.4v-37l-6.5-6.5V770.4l7.5-7.5zM542.7 1042.4v-140l22-22v-54l95-95v-23.5c3.4-.5 6-3.4 6-6.9 0-3.9-3.1-7-7-7s-7 3.1-7 7c0 3.5 2.6 6.4 6 6.9v22.7l-95 95v54l-22 22v140l-40.8 40.8c-1.3-1.4-3.1-2.4-5.2-2.4-3.9 0-7 3.1-7 7s3.1 7 7 7 7-3.1 7-7c0-1-.2-2-.7-2.9l41.7-41.7z"/><path d="M480.7 1031.4l52-52v-84l22-22v-51l86-86v-11.5c.3 0 .7.1 1 .1 3.9 0 7-3.1 7-7s-3.1-7-7-7-7 3.1-7 7c0 2.8 1.6 5.2 4 6.3v11.3l-86 86v51l-22 22v84l-52 52v120l-24 24v45.4h2v-44.6l24-24v-120z"/><path d="M535.7 815.6v49l-41 41V978c-3.9 0-7 3.1-7 7s3.1 7 7 7 7-3.1 7-7c0-3.2-2.1-5.8-5-6.7v-71.9l41-41v-49l68-68V741c3.9 0 7-3.1 7-7s-3.1-7-7-7-7 3.1-7 7c0 3.2 2.1 5.8 5 6.7v6.9l-68 68zM1702.5 1179.4v-31.6l-26.4-26.4h-137.4l-13.5 13.5h-56.1l-15.1-15.1h-21.9l-12.3-12.3v-21.2l-14.8-14.8h-18.5l-11.9-11.9v-15l-70-70v-48l-1.8-2c1.1-1.2 1.8-2.8 1.8-4.6 0-3.9-3.1-7-7-7s-7 3.1-7 7 3.1 7 7 7c1.4 0 2.6-.4 3.7-1.1l1.3 1.5v48l70 70v15l13.1 13.1h18.5l13.7 13.7v21.2l13.5 13.5h21.9l15.1 15.1h57.8l13.5-13.5h135.7l25.2 25.2v29.9l-27.6 27.6 1.4 1.4 28.1-28.2z"/><path d="M1536.1 1112.8l-14.8 14.8h-48.7l-16.5-16.5H1438l-9.5-9.5v-19.9l-16.5-16.5h-19.2l-8.7-8.7V1037l-69.5-69.5v-50l-11.4-11.4c.9-1.2 1.4-2.6 1.4-4.2 0-3.9-3.1-7-7-7s-7 3.1-7 7 3.1 7 7 7c1.6 0 3-.5 4.2-1.4l10.8 10.8v50l69.5 69.5v19.5l9.8 9.8h19.2l15.3 15.3v19.9l10.6 10.6h18.1l16.5 16.5h50.4l14.8-14.8h140.4l31.5 31.5v37.3l-34.8 34.8 1.4 1.4 35.4-35.4v-38.9l-32.7-32.7h-141.9z"/><path d="M1747.1 1180l-26.5-26.5v-13.9l-37.5-37.5h-79.6l-6.2 6.2h-23.6l-5.6-5.6h-38l-15.8 15.8h-35.7l-9-9v-24.9l-12.5-12.5h-27.2l-6.7-6.7v-67.5l-17.1-17.1h-66l-16.4-16.4v-72l-8.6-8.6h-10.5c-.5-3.4-3.4-6-6.9-6-3.9 0-7 3.1-7 7s3.1 7 7 7c3.5 0 6.4-2.6 6.9-6h9.7l7.4 7.4v72l17.6 17.6h66l15.9 15.9v67.5l7.8 7.8h27.2l11.3 11.3v24.9l10.1 10.1h37.4l15.8-15.8h36.4l5.6 5.6h25.2l6.2-6.2h78l36.3 36.3v13.9l27.6 27.6h14l6.4 6.4v17.6h2v-18.4l-7.6-7.6h-13.8z"/><path d="M1751.9 1172.3l-23.7-23.7v-11.5l-42.1-42.1h-89.8l-5 5H1575l-4.9-4.9h-44.7l-16.2 16.2h-29.5l-5.8-5.8v-25.3l-12.9-12.9h-25.4l-5.8-5.8v-69.2l-18.8-18.8h-62.5l-15.9-15.9v-70L1313 868h-8.5c-.5-3.4-3.4-6-6.9-6-3.9 0-7 3.1-7 7s3.1 7 7 7c3.5 0 6.4-2.6 6.9-6h7.7l18.4 18.4v70l17.1 17.1h62.5l17.7 17.7v69.2l7 7h25.4l11.7 11.7v25.3l6.9 6.9h31.2l16.2-16.2h43l4.9 4.9h17.9l5-5h88.1l40.9 40.9v11.5l24.8 24.8h18.3l7.3 7.3v26.5h2v-27.3l-8.5-8.5h-18.1z"/><path d="M1454.2 1015.6v-23.5l-26.5-26.5v-3.9c2.9-.9 5-3.5 5-6.7 0-3.9-3.1-7-7-7s-7 3.1-7 7 3.1 7 7 7v4.4l26.5 26.5v23.5l19.8 19.8v22.2l8.5 8.5h77.7l8.4-8.4h112.7l72.5 72.5c-1.3 1.3-2.1 3-2.1 5 0 3.9 3.1 7 7 7s7-3.1 7-7-3.1-7-7-7c-1.2 0-2.3.3-3.2.8l-73.4-73.4h-114.4l-8.4 8.4h-76l-7.3-7.3v-22.2l-19.8-19.7z"/><path d="M1792.6 1141.7l-19.5-19.5h-15.2l-104.8-104.8h-84.3l-4.1 4.1v25l-4.4 4.4h-37.2l-27-27h-10.5c-.5-3.4-3.4-6-6.9-6-3.9 0-7 3.1-7 7s3.1 7 7 7c3.5 0 6.4-2.6 6.9-6h9.7l27 27h38.8l5.6-5.6v-25l2.9-2.9h82.7l104.8 104.8h15.2l18.3 18.3v27.9l21.6 21.6v34h2v-34.9l-21.6-21.6v-27.8z"/><path d="M1796.3 1133l-35.2-35.2h-16.8l-84.2-84.2h-95.3l-15.5 15.5h-26.2l-51.4-51.4v-27l-103-103v-40l-86-86v-7.3c2.4-1.1 4-3.5 4-6.3 0-3.9-3.1-7-7-7s-7 3.1-7 7c0 1.8.7 3.5 1.9 4.7l-7.3 9h-108.9l-26.2-26.2h-44.5l-9.5-9.5h-2.5c0-.3.1-.7.1-1 0-3.9-3.1-7-7-7s-7 3.1-7 7 3.1 7 7 7c2.8 0 5.2-1.6 6.3-4h2.3l9.5 9.5h44.5l26.2 26.2h110.6l7.9-9.8c1.1.6 2.3 1 3.6 1 .3 0 .7 0 1-.1v7.5l86 86v40l103 103v27l52.6 52.6h27.8l15.5-15.5h93.7l84.2 84.2h16.8l34 34v32.6l24.2 24.2v37.4h2v-38.2l-24.2-24.2V1133z"/><path d="M1352.3 715.2c1.4-1.3 2.4-3.1 2.4-5.2 0-3.9-3.1-7-7-7s-7 3.1-7 7 3.1 7 7 7c1 0 2-.2 2.9-.7l44.1 44.1v65l39.6 39.6h32l43.9 43.9V924c-3.6.3-6.5 3.3-6.5 7 0 3.9 3.1 7 7 7s7-3.1 7-7c0-3.4-2.4-6.1-5.5-6.8v-16.1l-45.1-45.1h-32l-38.4-38.4v-65l-44.4-44.4z"/><path d="M1803.7 1060.6l-41.5-41.5H1696l-13.9-13.9h-112.2l-21.8-21.8h-22.4l-8.8-8.8v-27l10.2-10.2v-31.3l-57-57H1442l-31.5-31.5V705.2l21.8-21.8v-29.5l25.9-25.9h27.9c.9 2.9 3.5 5 6.7 5 3.9 0 7-3.1 7-7s-3.1-7-7-7-7 3.1-7 7h-28.4l-27.1 27.1v29.5l-21.8 21.8v114.1l32.7 32.7h28.1l55.9 55.9v29.6l-10.2 10.2v28.6l10 10h22.4l21.8 21.8h112.2l13.9 13.9h66.1l40.4 40.4v101l23 23v67.6h2v-68.4l-23-23v-101.2z"/><path d="M1837.1 1053.2l-42-42H1697l-11.9-11.9h-112.3l-22.7-22.7h-16.6l-9-9v-17.4l10.7-10.8v-38.3l-60.1-60.1h-30l-20.4-20.4v-32.2l13-13v-87l20-20V654h-2v13.6l-20 20v87l-13 13v33.8l21.6 21.6h30l58.9 58.9v36.7l-10.7 10.7v19.1l10.2 10.2h16.6l22.7 22.7h112.3l11.8 11.9h98.2l40.8 40.8v115.4l23.8 23.8v65.8h2v-66.6l-23.8-23.8z"/><path d="M1847.4 1041.9l-35.2-35.2h-110.7l-12.3-12.3h-114.4l-23.6-23.6h-15.8l-5.2-5.2v-13.7l9.5-9.5v-44.8l-62.5-62.5H1448l-15.5-15.5v-30.4l10.8-10.8v-88.5l30.5-30.5V654c3.9 0 7-3.1 7-7s-3.1-7-7-7-7 3.1-7 7c0 3.2 2.1 5.8 5 6.7v4.9l-30.5 30.5v88.5l-10.8 10.8v32.1l16.7 16.7h29.1l61.4 61.4v43.1l-9.5 9.5v15.4l6.4 6.4h15.8l23.6 23.6h114.4l12.3 12.3h110.7l34.1 34.1v121.7l19.7 19.7v84.9h2v-85.7l-19.7-19.7v-122z"/><path d="M1447.3 779v-84.6l51-51c1.3 1.6 3.2 2.6 5.4 2.6 3.9 0 7-3.1 7-7s-3.1-7-7-7-7 3.1-7 7c0 .9.2 1.8.5 2.6l-52 52v84.6l-11.4 11.4v27.7l15.5 15.5h31.2l63.7 63.7v49.7l-3.5 3.5v4.4c-3.9 0-7 3.1-7 7s3.1 7 7 7 7-3.1 7-7c0-3.2-2.1-5.8-5-6.7v-3.9l3.5-3.5v-51.3l-64.8-64.8h-31.2l-14.3-14.3v-26l11.4-11.6z"/><path d="M1883.9 1027.4l-28.8-28.8h-152.6l-31.4-31.4h-22.2l-6.8-6.8h-82.5l-8.9-8.9v-58l-67.6-67.6h-31l-10.4-10.4v-21.2l11-11v-86l38.4-38.4h15l10.6-10.6v-10l6.8-6.8c1.2.9 2.6 1.4 4.2 1.4 3.9 0 7-3.1 7-7s-3.1-7-7-7-7 3.1-7 7c0 1.6.5 3 1.4 4.2l-7.4 7.4v10l-9.4 9.4h-15l-39.6 39.6v86l-11 11v22.8l11.6 11.6h31l66.4 66.4v58l10.1 10.1h82.5l6.8 6.8h22.2l31.4 31.4h152.6l27.6 27.6v149.4l-11.1 11.1V1297h2v-107.5l11.1-11.1v-151z"/><path d="M1897.9 1022.4l-67.8-67.8h-178.7l-8.3-8.3h-75.3l-4.7-4.7v-53.3l-51.7-51.7v-12.7l-47.3-47.3v-73.8l34-34h21.8l20.3-20.3v-28.3l-6.9-6.9c.9-1.2 1.4-2.6 1.4-4.2 0-3.9-3.1-7-7-7s-7 3.1-7 7 3.1 7 7 7c1.6 0 3-.5 4.2-1.4l6.3 6.3v26.7l-19.2 19.2h-21.8l-35.2 35.2v75.5l47.3 47.3v12.7l51.7 51.7v53.3l5.9 5.9h75.3l8.3 8.3h178.7l66.6 66.6v147.2l15.9 15.9v35.7h2v-36.5l-15.9-15.9v-147.4z"/><path d="M1662.1 943l-18.5-18.5h-46.9V916h-27v26h27v-8.5h43.1l18.5 18.5h179.5l89 88.9 6.3-6.3-91.5-91.6z"/><path d="M1840.1 930.6h-175.6l-68.4-68.4h-30.2l-9.6-9.6V831l-15.2-15.2h-28.8l-41.2-41.2v-69.8l30.1-30.1h21.7l25.3-25.3v-52.6l15.4-15.4v-75.6l-11.2-11.2V372.9l1.8-1.8c1.2 1.1 2.9 1.9 4.7 1.9 3.9 0 7-3.1 7-7s-3.1-7-7-7-7 3.1-7 7c0 1.3.4 2.5 1 3.6l-2.5 2.5v123.3l11.2 11.2v73.9l-15.4 15.4v52.6l-24.1 24.1h-21.7l-31.2 31.2v71.5l42.4 42.4h28.8l14 14v21.6l10.8 10.8h30.2l68.4 68.4h175.6l112.4 112.4 1.4-1.4-113.1-112.9z"/><path d="M1596.2 365.7l-16.3 16.3h-15.2v26h13.7l16.8 16.8v219.9l-9.6 9.6h-29.2l-30.4 30.4h-20.6l-22.9 22.9v62.8l36.3 36.3h27.6l16.2 16.2h44.8l15.4 15.4v38.1l45.6 45.6h171.9l2.6 2.6h-174.5l-71.4-71.4h-27.2l-5.6-5.6V830l-22.2-22.2h-29.7l-36.1-36.1v-63.6l27.9-27.9h21.1l28.6-28.6v-51.9l16.1-16.1v-80.1l-10.8-10.8V382.9l11.5-11.5v-10.8l-7.4-7.4c.9-1.2 1.4-2.6 1.4-4.2 0-3.9-3.1-7-7-7s-7 3.1-7 7 3.1 7 7 7c1.6 0 3-.5 4.2-1.4l6.8 6.8v9.2l-11.5 11.5v111.3l10.8 10.8v78.4l-16.1 16.1v51.9l-27.5 27.5h-21.1l-29.1 29.1v65.3l37.3 37.3h29.7l21 21v17.6l6.8 6.8h27.2l71.4 71.4h174.6l88.4 88.4 1.4-1.4-2-2 11.3-11.3-94.4-94.4h-171.9l-36.3-36.3v-38.1l-24.8-24.8H1569l-16.2-16.2h-27.6l-26.9-26.9V714l13.5-13.5h20.6l30.4-30.4h4.6c-6.2 1.2-10.9 6.7-10.9 13.2 0 7.5 6 13.5 13.5 13.5s13.5-6 13.5-13.5c0-6.6-4.7-12.1-10.9-13.2h19.5l18.9-18.9v-233l-19.5-19.5v-5.9l20.5-20.5V39.2l-50.8-50.8-11.3 11.3 46.2 46.2v319.8z"/><path d="M1654.8 703.6l-19.5 19.5h-68.9l-5.5 5.5v30.2l-11.7 11.7h-12.7l-8.3-8.3c.9-1.2 1.4-2.6 1.4-4.2 0-3.9-3.1-7-7-7s-7 3.1-7 7 3.1 7 7 7c1.6 0 3-.5 4.2-1.4l8.9 8.9h14.3l12.8-12.8v-30.2l4.3-4.3h68.9l20.6-20.6v-693l-20.8-20.8-1.4 1.4 20.2 20.2v691.2z"/><path d="M1640.7 699.6l-14.4 14.4h-63l-11.6 11.6V755h-3.7c-1.1-2.4-3.5-4-6.3-4-3.9 0-7 3.1-7 7s3.1 7 7 7 7-3.1 7-7c0-.3 0-.7-.1-1h5.1v-30.6l10.4-10.4h63l15.6-15.6V14.6l-25.8-25.8-1.4 1.4 25.2 25.2v684.2z"/><path d="M1630.7 689.6l-17.4 17.4h-60l-12.6 12.6v6.5c-3.4.5-6 3.4-6 6.9 0 3.9 3.1 7 7 7s7-3.1 7-7c0-3.5-2.6-6.4-6-6.9v-5.7l11.4-11.4h60l18.6-18.6V25.6l-32.3-32.3-1.4 1.4 31.7 31.7v663.2z"/><path d="M1619.5 685.3l-14.2 14.2h-55.5l-26.5 26.5h-.6c-3.9 0-7 3.1-7 7s3.1 7 7 7 7-3.1 7-7c0-2.9-1.7-5.3-4.2-6.4l25.1-25.1h55.5l15.3-15.3V29.6l-36.2-36.2-1.4 1.4 35.6 35.6v654.9zM1936.4 985.3l1.4-1.4-117.3-117.3v-19.8l-5.3-5.3h-91.5l-19.5-19.5c3.5-3.8 5.6-8.9 5.6-14.5 0-11.9-9.6-21.5-21.5-21.5s-21.5 9.6-21.5 21.5 9.6 21.5 21.5 21.5c5.6 0 10.6-2.1 14.5-5.6l20.1 20.1h91.5l4.2 4.2v19.8l117.8 117.8z"/><path d="M1721.9 639.8l-4.8 4.8V804l28.2 28.2h76.7l8.2 8.2v22.5l57.1 57.1h35.4v-2h-34.6l-55.9-55.9v-22.5l-9.3-9.4h-76.8l-27-27V645.4l4.8-4.8v-485l-61.1-61.1V-16h-2V95.3l61.1 61.1z"/><path d="M1841 859.7l.3.3h.2c1.2.8 6.7 6.4 11.5 11.7l.3.3h68.4v-2h-67.6c-7.6-8.3-10.4-10.9-11.6-11.7-.6-4.5-.2-47 .1-75.3v-.4l-24.1-24.1H1762l-19.2-19.2V48.6L1681-13.3l-1.4 1.4 61.3 61.3v690.8l20.3 20.3h56.5l22.9 22.9c-.9 75 0 75.9.4 76.3z"/><path d="M1730.2 743.9l27.1 27.1h56l16.4 16.4v18.7c-3.4.5-6 3.4-6 6.9 0 3.9 3.1 7 7 7s7-3.1 7-7c0-3.5-2.6-6.4-6-6.9v-19.5l-17.6-17.6h-56l-25.9-25.9V52.6L1668.7-11l-1.4 1.4 63 63v690.5zM1872.7 743.5c-3.6 0-6.5 2.9-6.5 6.5v76c-3.9 2.4-6.5 6.6-6.5 11.5 0 7.5 6 13.5 13.5 13.5s13.5-6 13.5-13.5c0-5.3-3.1-9.9-7.5-12.1V750c0-3.6-2.9-6.5-6.5-6.5z"/><path d="M1751.2 659.9l23.1 23.1h22l56.4 56.4v106l13.6 13.6h55.4v-2h-54.6l-12.4-12.4v-106l-57.6-57.6h-22l-21.9-21.9V45.6l-78-78.1-1.4 1.5 77.4 77.4z"/><path d="M1760.2 313.9l15.1 15.1c-3.5 3.8-5.6 8.9-5.6 14.5 0 11.9 9.6 21.5 21.5 21.5s21.5-9.6 21.5-21.5-9.6-21.5-21.5-21.5c-5.6 0-10.6 2.1-14.5 5.6l-14.5-14.5V39.6l-77-77-1.4 1.4 76.5 76.5v273.4z"/><path d="M1921.7 725.5h-48.3l-22.7-22.7V593.3l-22.8-22.8V215.3l-16.3-16.3c.7-2.1 1-4.3 1-6.5 0-11.9-9.6-21.5-21.5-21.5s-21.5 9.6-21.5 21.5 9.6 21.5 21.5 21.5c4.8 0 9.2-1.6 12.8-4.3l10.9 10.9v355.2l22.8 22.8v109.5l30.3 30.3h53.7v-12.9z"/><path d="M1839.7 565.2l24.5 24.5v97c-3.3 2.5-5.5 6.4-5.5 10.9 0 7.5 6 13.5 13.5 13.5s13.5-6 13.5-13.5c0-5.7-3.5-10.5-8.5-12.5V584.3l-24.5-24.5V185.3l-70.2-70.2V-28h-13v148.4l70.2 70.2v374.6z"/><path d="M1876.2 419.3l-11 11v122.4l44 44v88.7c-4.4 2.2-7.5 6.8-7.5 12.1 0 7.5 6 13.5 13.5 13.5s13.5-6 13.5-13.5c0-4.9-2.6-9.2-6.5-11.5v-94.7l-44-44V435.7l11-11V186.3l-84-84V-12h-13v119.7l84 84v227.6z"/><path d="M1897.7 365.2l19.4 19.4 9.2-9.2-15.6-15.6V179.3L1829 97.6V-18h-13v120.9l81.7 81.8z"/></g></svg>