<svg version="1.1" id="Layer_1" xmlns="http://www.w3.org/2000/svg" x="0" y="0" viewBox="0 0 25.5 32.5" xml:space="preserve"><style>.st0{fill:#c7b299}</style><path class="st0" d="M25.1 20.8h-.9l-.3-3.9c0-.1-.1-.2-.2-.3-.1-.1-.2-.1-.3 0l-2.9.9c-.1-3-.6-5.7-1.6-7.9.1 0 .1 0 .2-.1l2.4-1.7 1.4 3.5c.1.2.2.3.4.3h.1l1.2-.4c.2-.1.3-.3.3-.5-.1-.2-.3-.3-.5-.3l-.8.3L22 7.1c0-.1-.1-.2-.3-.2-.1 0-.2 0-.3.1l-2.8 2c-.8-1.7-1.8-3.1-3-3.9L18.4.7c.1-.2.1-.4-.1-.6-.2-.1-.4-.1-.6.1l-2.8 4.4c-.6-.4-1.3-.6-2.1-.6s-1.5.2-2.3.6v-.1L7.8.2c-.2-.2-.4-.3-.6-.1-.2.1-.2.3-.1.5L9.9 5v.1C8.8 6 7.8 7.4 7 9.1c0-.1-.1-.1-.2-.2L4 6.9c-.1-.1-.2-.1-.3-.1l-.3.3L2 10.7l-.8-.3c-.2-.1-.4 0-.5.3-.1.2 0 .4.3.5l1.2.4h.1c.2 0 .3-.1.4-.3L4 7.8l2.4 1.7c.1.1.3.1.4 0-.9 2.2-1.5 5-1.6 8l-3.1-1h-.3c-.1.1-.2.2-.2.3l-.3 3.9H.4c-.2.1-.4.3-.4.5s.2.4.4.4h1.3c.2 0 .4-.2.4-.4l.3-3.8 2.8.9h.1c0 7.8 3.4 14.1 7.6 14.1 2.5 0 4.7-2.3 6.1-5.7.1.1.1.1.3.2l2.9.5-1.5 3.5c-.1.2 0 .4.2.5l1.1.6h.2c.1 0 .3-.1.4-.2.1-.2 0-.4-.2-.5l-.8-.4 1.5-3.6v-.4c-.1-.1-.2-.2-.3-.2l-3.4-.5h-.1c.8-2.2 1.3-4.9 1.3-7.8l2.6-.9.3 3.8c0 .2.2.4.4.4h1.3c.2 0 .4-.2.4-.4-.1-.3-.3-.5-.5-.5z"/><path class="st0" d="M6.1 26.1l-3.4.5c-.1 0-.2.1-.3.2-.1.1-.1.2 0 .4L4 30.8l-.8.4c-.2.1-.3.4-.2.6 0 .1.2.2.3.2h.2l1.1-.6c.2-.1.3-.3.2-.5l-1.5-3.5 2.9-.5c.2 0 .4-.2.3-.5.1-.2-.1-.3-.4-.3z"/></svg>