<svg data-name="Layer 1" xmlns="http://www.w3.org/2000/svg" width="248.92" height="255"><path d="M194.67 139.38h50.94a3.32 3.32 0 0 0 0-6.63h-50.94V85.11c7.57-1.16 27.18-5.73 39.35-22.78 14.73-20.61 14.9-52 14.9-53.31a3.32 3.32 0 0 0-6.63 0c0 .31-.15 30.56-13.65 49.46-10.15 14.21-26.76 18.61-34 19.89v-3.69a31.9 31.9 0 0 0-31.86-31.86h-2.32v-2.39a31.65 31.65 0 0 0-7-19.87l14.58-14.93A3.32 3.32 0 0 0 163.3.99l-14.52 14.84a31.68 31.68 0 0 0-20.22-7.26h-8.57a31.71 31.71 0 0 0-21.42 8.34L85.82 1.22a3.313 3.313 0 1 0-5.14 4.18L94.1 21.92a31.7 31.7 0 0 0-6 18.51v2.42a31.88 31.88 0 0 0-31.38 31.83v4.08c-4.79-.61-24.85-4.05-36.44-20.26C6.81 39.62 6.63 9.32 6.63 9.02a3.32 3.32 0 0 0-3.32-3.31A3.31 3.31 0 0 0 0 9.02c0 1.33.17 32.7 14.89 53.31 14 19.57 37.72 22.7 41.83 23.1v47.32H3.31a3.32 3.32 0 0 0 0 6.63h53.41v12.39a60 60 0 0 0 8.3 30.4c-5.12 2.33-21.85 10.7-35.5 24.33C13.6 222.5.86 249.14.32 250.27a3.31 3.31 0 0 0 1.58 4.41 3.22 3.22 0 0 0 1.41.32 3.33 3.33 0 0 0 3-1.89c.12-.27 12.77-26.78 27.89-41.9 13.84-13.83 31.61-22.14 34.53-23.45a60.31 60.31 0 0 0 48.41 24.42h17.12a60.3 60.3 0 0 0 47.77-23.57c5.63 2.7 20.63 10.54 32.69 22.6 15.1 15.1 27.77 41.63 27.89 41.9a3.33 3.33 0 0 0 3 1.89 3.22 3.22 0 0 0 1.41-.32 3.31 3.31 0 0 0 1.58-4.41c-.54-1.13-13.28-27.82-29.2-43.75-12.25-12.25-27-20.21-33.58-23.44a59.89 59.89 0 0 0 8.85-31.31z" fill="#a67c52"/></svg>