<svg xmlns="http://www.w3.org/2000/svg" viewBox="0 0 30.2 30.9"><path d="M23.6 16.9h6.2c.2 0 .4-.2.4-.4s-.2-.4-.4-.4h-6.2v-5.8c.9-.1 3.3-.7 4.8-2.8C30.2 5 30.2 1.2 30.2 1c0-.2-.2-.4-.4-.4s-.4.2-.4.4c0 0 0 3.7-1.7 6-1.2 1.7-3.2 2.3-4.1 2.4V9c0-2.1-1.7-3.9-3.9-3.9h-.3v-.2c0-.9-.3-1.7-.8-2.4L20.4.7c.2-.2.2-.4 0-.6-.2-.2-.4-.2-.6 0L18 1.9c-.6-.5-1.5-.9-2.4-.9h-1c-1 0-1.9.4-2.6 1L10.5.1c-.2-.1-.5-.1-.7 0-.1.1-.2.4 0 .6l1.6 2c-.5.6-.7 1.4-.7 2.2v.3C8.6 5.2 6.9 6.9 6.9 9v.5c-.6-.1-3-.5-4.4-2.5C.9 4.7.8 1 .8 1 .8.8.6.6.4.6c-.2.1-.4.3-.4.5s0 4 1.8 6.5c1.7 2.4 4.6 2.7 5.1 2.8v5.7H.4c-.2 0-.4.2-.4.4s.2.4.4.4h6.5v1.5c0 1.3.4 2.6 1 3.7-.6.3-2.6 1.3-4.3 3C1.7 27 .1 30.3.1 30.4c-.1.2 0 .4.2.5h.2c.2 0 .3-.1.4-.2 0 0 1.5-3.2 3.4-5.1 1.7-1.7 3.8-2.7 4.2-2.8 1.3 1.8 3.5 3 5.9 3h2.1c2.4 0 4.4-1.1 5.8-2.9.7.3 2.5 1.3 4 2.7 1.8 1.8 3.4 5 3.4 5.1.1.1.2.2.4.2h.2c.2-.1.3-.3.2-.5-.1-.1-1.6-3.4-3.5-5.3-1.5-1.5-3.3-2.4-4.1-2.8.7-1.1 1.1-2.4 1.1-3.8v-1.6z" fill="#a67c52"/></svg>