<svg xmlns="http://www.w3.org/2000/svg" viewBox="0 0 30.1 28"><path d="M27 23.9l-.1-.1-3.5-1.5c1.5-1.8 2.4-4.2 2.4-6.7v-.1h4c.2 0 .4-.2.4-.4s-.2-.4-.4-.4h-4.1c-.2-2-.9-3.8-2.1-5.4l3.2-1.4c.1 0 .1-.1.1-.1L30 4.4c.1-.2.1-.4 0-.6-.2-.1-.4-.1-.6 0l-3 3.4L23 8.6c-1.1-1.3-2.6-2.3-4.2-2.9.2-.5.3-1 .3-1.6C19.2 1.9 17.3 0 15 0s-4.2 1.9-4.2 4.2c0 .6.1 1.2.4 1.7-1.5.6-2.9 1.6-4 2.9L3.7 7.2l-3-3.4c-.1-.2-.4-.2-.6 0s-.1.5 0 .6l3.1 3.4.1.1 3.4 1.5c-1.1 1.5-1.8 3.3-2 5.3H.4c-.2 0-.4.2-.4.4s.2.4.4.4h4.3v.1c0 2.5.9 4.8 2.4 6.6H7l-3.7 1.6c-.1 0-.1.1-.1.1L.1 27.3c-.1.2-.1.4 0 .6.1.1.2.1.3.1.1 0 .2 0 .3-.1l3-3.4L7.3 23c.1 0 .2-.1.2-.2C9 24.4 11 25.5 13.3 26c.2 0 .4-.1.5-.3l1.2-5.4 1 5.5c0 .2.2.3.4.3 2.5-.3 4.6-1.4 6.2-3.1 0 0 .1 0 .1.1l3.6 1.5 3 3.4c.1.1.2.1.3.1.1 0 .2 0 .3-.1.2-.1.2-.4 0-.6L27 23.9z" fill="#c9c655"/></svg>