<svg version="1.1" id="Layer_1" xmlns="http://www.w3.org/2000/svg" x="0" y="0" viewBox="0 0 100.9 272.4" xml:space="preserve"><style>.st1{fill:#b3b3b3}</style><path fill="#4d4d4d" d="M12.1 0h75l6 6-5 41-2.6 32-2.4 9-4 46-3 40-10 9v8h-31v-9l-12-31-1-13-3-41-3-19z"/><path class="st1" d="M34.8 189.8l-.1 82.6 31.4-.4v-82.2zM93.2 0h-6v1.2c0 20.7-16.8 37.5-37.4 37.5-20.7 0-37.5-16.8-37.5-37.5V0H7.7C3.4 0 0 3.5 0 7.7l5.4 63.6C6 75.6 8.9 79 13.1 79h74.6c4.3 0 7.1-2.8 7.7-7.7l5.4-63.6c.1-4.2-3.4-7.7-7.6-7.7z"/><path class="st1" d="M49.7 29.7c16.4 0 29.8-13.3 29.8-29.7H20c0 16.4 13.3 29.7 29.7 29.7zM18.2 98.4h38.7c3 0 5.5 2.5 5.5 5.4 0 3-2.5 5.4-5.5 5.4H19l2.4 30.5h35c3 0 5.5 2.5 5.5 5.4 0 3-2.5 5.4-5.5 5.4H22.2l1.9 24.5c.9 4.2 3.4 7.7 7.7 7.7h37.6c4.2 0 7.1-3.4 7.7-7.7l.3-3.8H44.9c-3 0-5.4-2.4-5.4-5.4 0-3 2.4-5.4 5.4-5.4h33.2l2.4-30.9H45.1c-3 0-5.4-2.5-5.4-5.4 0-3 2.5-5.4 5.4-5.4h36.3l2.4-31.3H17.3l.9 11z"/></svg>