<svg xmlns="http://www.w3.org/2000/svg" viewBox="0 0 45.8 45.8"><circle cx="22.9" cy="22.9" r="22.9" fill="#fbb03b"/><path d="M31.7 23.2c-1-.6-2.1-1-3.4-1.3v-.3c1.2-.2 2.4-.8 3.5-1.6 1.1-.9 1.6-2 1.6-3.5 0-2.4-1.3-4.1-3.9-5-1-.4-2.2-.6-3.6-.7V8h-2.1v2.8H20V8h-2.1v2.8h-4.7v.9c1 .1 1.7.2 2.1.4.7.4 1 1 1 2.1v17.1c0 1-.4 1.7-1.1 2.1-.4.2-1.1.3-2 .4v.9h4.7v2.5H20v-2.5h3.6v2.5h2.1v-2.6c2.5-.1 4.5-.7 6.1-1.8 1.8-1.2 2.7-2.8 2.7-4.7 0-2.1-.9-3.8-2.8-4.9zM22 13.6c0-.6.1-1.1.4-1.3.3-.2.8-.4 1.5-.4 1.4 0 2.3.5 2.8 1.4.5.9.7 2 .7 3.4 0 1.8-.4 3.1-1.1 3.8-.7.7-2.2 1.1-4.4 1.1v-8zm5.4 18.5c-.7.9-1.8 1.4-3.5 1.4-.8 0-1.4-.3-1.7-.8-.1-.2-.2-.7-.2-1.3v-8.8c1.9 0 3.3.2 4.2.7 1.5.8 2.2 2.5 2.2 5 0 1.6-.3 2.9-1 3.8z" fill="#f15a24"/></svg>