<svg data-name="Layer 1" xmlns="http://www.w3.org/2000/svg" width="254" height="254"><circle cx="127" cy="127" r="127" fill="#fbb03b"/><path d="M175.83 128.67a55.81 55.81 0 0 0-18.94-7.08v-1.81a42.65 42.65 0 0 0 19.18-9q8.84-7.11 8.84-19.26 0-20-21.8-27.55a77.77 77.77 0 0 0-20.22-3.72V44.62h-11.54v15.29h-20.21V44.62H99.6v15.29H73.49v5q8.52.48 11.77 2.28 5.44 2.94 5.45 11.49v94.87q0 8.61-5.84 11.67-3.43 1.78-11.38 2.08v5H99.6v14h11.54v-14h20.21v14h11.54v-14.21q20.55-1.16 33.61-9.91 15-10.1 15-26.35.01-17.4-15.67-27.16zM122 75.3c0-3.57.8-6 2.39-7.41s4.43-2 8.51-2q11.58 0 15.64 7.65t4.07 18.84q0 15.11-6.22 21T122 119.3zm30.18 103.1q-5.59 7.54-19.47 7.55-6.78 0-9.18-4.2-1.42-2.4-1.53-7.56v-49q16-.28 23.43 3.92 12.35 6.89 12.34 27.73-.02 14.01-5.61 21.56z" fill="#f15a24"/></svg>