<svg version="1.1" id="Layer_1" xmlns="http://www.w3.org/2000/svg" x="0" y="0" viewBox="0 0 24.6 29.5" xml:space="preserve"><style>.st0{fill:#8cc63f}</style><path class="st0" d="M1.7 9.6c-.9 0-1.7.8-1.7 1.7v7.5c0 .9.8 1.7 1.7 1.7.9 0 1.7-.8 1.7-1.7v-7.5c0-.9-.8-1.7-1.7-1.7zM22.9 9.7c-.9 0-1.7.8-1.7 1.7v7.5c0 .9.8 1.7 1.7 1.7.9 0 1.7-.8 1.7-1.7v-7.5c0-.9-.8-1.7-1.7-1.7zM19.8 9.6h-15c-.3 0-.6.3-.6.6v12.7c0 .3.3.6.6.6h2.8v4.3c0 .9.8 1.7 1.7 1.7.9 0 1.7-.8 1.7-1.7v-4.3h2.6v4.3c0 .9.8 1.7 1.7 1.7.9 0 1.7-.8 1.7-1.7v-4.3h2.8c.3 0 .6-.3.6-.6V10.2c0-.3-.3-.6-.6-.6zM16.4 2.8L17.7.7c.1-.2.1-.5-.2-.6-.2-.2-.5-.1-.6.1l-1.3 2.2c-1-.4-2.1-.7-3.2-.7s-2.4.2-3.4.7L7.7.2c-.1-.2-.4-.3-.6-.1-.2.1-.3.4-.2.6l1.3 2.1C6.1 4.1 4.6 6.3 4.4 8.9h15.8c-.3-2.6-1.7-4.8-3.8-6.1zM8.7 6.3c-.4 0-.8-.4-.8-.8s.4-.8.8-.8.8.4.8.8-.4.8-.8.8zm7.3 0c-.4 0-.8-.4-.8-.8s.4-.8.8-.8.8.4.8.8-.3.8-.8.8z"/></svg>