<svg xmlns="http://www.w3.org/2000/svg" viewBox="0 0 24.9 24.5"><path d="M24.7 14.3s.3-1.2 0-3.2c-.2-1.4-1.2-3.7-1.2-3.7s2.3-4.8-.1-6.5c-3.3-2.4-9.1.8-9.1.8s-2.6-.4-5.7 1.2c-4.7 2.4-5.8 7.4-5.8 7.4s1.1-1.2 2.6-2.7 3.3-2.2 3.3-2.2-2.9 2.4-5 5.9c-1.4 2.3-5.9 9.3-2.5 12.6 1.8 1.7 7.5-1.1 7.5-1.1s1.8 1.2 4.9 1.2c8.1 0 10.5-7.4 10.5-7.4l-5.9-.1s-1 2.5-4.8 2.5c-1.9 0-3.3-1.1-4-2.2-.8-1.2-.7-2.5-.7-2.5h16zM2.3 22.8c-1.5-1.8.8-6.3.8-6.3s1 2.4 2.2 3.6C6.7 21.7 8 22.4 8 22.4s-4 2.4-5.7.4zM23.1 2c1.6 1.5.2 5 .2 5s-.9-1.6-2.5-2.8-3-1.7-3-1.7 3.6-2 5.3-.5zM8.7 11.2s.2-4.7 5.1-4.7 5 4.7 5 4.7H8.7z" fill="#1ebbee"/></svg>