<svg data-name="Layer 1" xmlns="http://www.w3.org/2000/svg" width="254" height="249.86"><path d="M252.83 145.76s2.64-12.32 0-32.56c-1.83-14-12.76-37.85-12.76-37.85s23.76-48.84-.88-66.44c-33.77-24.12-92.85 8.36-92.85 8.36s-26.4-4.4-58.52 11.88c-47.92 24.29-59 76.13-59 76.13S40.3 92.51 55.7 77.99a142.37 142.37 0 0 1 33.44-22.88S60 79.57 38.1 115.4C23.58 139.16-22.18 210.93 13 244.32c18.05 17.15 77-11 77-11s18 11.88 50.16 11.88c82.29 0 107.37-75.24 107.37-75.24l-59.85-.88s-10.12 25.52-48.84 25.08a50.08 50.08 0 0 1-41.34-22.88 51.41 51.41 0 0 1-7.5-25.52zM23.58 233.32c-15.4-18 8.36-64.24 8.36-64.24s9.83 24 22 37c14.52 15.4 27.72 23.32 27.72 23.32S41 253.69 23.58 233.32zm212.09-213c16.72 15.4 1.76 51 1.76 51a104.84 104.84 0 0 0-25.09-29c-16.28-12.76-30.8-17.6-30.8-17.6S219 4.93 235.67 20.35zM89.36 114.74s2.2-47.53 51.92-47.53 51.48 47.53 51.48 47.53z" fill="#1ebbee"/></svg>