<svg version="1.1" id="Layer_1" xmlns="http://www.w3.org/2000/svg" x="0" y="0" viewBox="0 0 48.5 48" xml:space="preserve"><style>.st0{fill:#fff}</style><path class="st0" d="M26.5 21.5L6 1C4.6-.3 2.4-.3 1 1-.3 2.4-.3 4.6 1 6l18 18L1 42c-1.4 1.4-1.4 3.6 0 4.9.7.7 1.6 1 2.5 1s1.8-.3 2.5-1l20.5-20.5c1.3-1.3 1.3-3.5 0-4.9z"/><path class="st0" d="M47.5 21.5L27 1c-1.4-1.4-3.6-1.4-5 0s-1.4 3.6 0 4.9l18 18L22 42c-1.4 1.4-1.4 3.6 0 4.9.7.7 1.6 1 2.5 1s1.8-.3 2.5-1l20.5-20.5c1.3-1.3 1.3-3.5 0-4.9z"/></svg>