<svg xmlns="http://www.w3.org/2000/svg" viewBox="0 0 167 210.5"><path d="M156.7 16.5h-23.4V4c0-2.2-1.8-4-4-4s-4 1.8-4 4v12.5h-14.5V4c0-2.2-1.8-4-4-4s-4 1.8-4 4v12.5h-16V4c0-2.2-1.8-4-4-4s-4 1.8-4 4v12.5h-15V4c0-2.2-1.8-4-4-4s-4 1.8-4 4v12.5H40.2V4c0-2.2-1.8-4-4-4s-4 1.8-4 4v12.5H10.3C4.7 16.5 0 21.2 0 26.8v173.3c0 5.7 4.7 10.3 10.3 10.3h146.3c5.7 0 10.3-4.7 10.3-10.3V26.8c.1-5.6-4.6-10.3-10.2-10.3z" fill="#b3b3b3"/><path d="M106.5 101.5c0-12.7-10.3-23-23-23s-23 10.3-23 23 10.3 23 23 23 23-10.3 23-23zm-23 20c-11 0-20-9-20-20s9-20 20-20 20 9 20 20-9 20-20 20z"/><circle cx="21" cy="189.5" r="7"/><path d="M121 160.6c19.5-12.4 32.5-34.2 32.5-59.1 0-38.7-31.3-70-70-70s-70 31.3-70 70 31.3 70 70 70c6.5 0 12.8-.9 18.8-2.6 8.2 12.1 17.8 24.4 20.3 27.1 5 5.2 13.2 5.4 18.4.5 5.2-5 5.4-13.2.5-18.4-2.1-2.3-10.8-9.9-20.5-17.5zm-37.5 7.9c-36.9 0-67-30.1-67-67s30.1-67 67-67 67 30.1 67 67c0 24.1-12.8 45.3-32.1 57.1-12.3-9.4-25.3-18.1-28.1-15.5-2.4 2.3 3.1 12.3 10.1 23.1-5.3 1.5-11 2.3-16.9 2.3z"/></svg>