<svg data-name="Layer 1" xmlns="http://www.w3.org/2000/svg" width="203.1" height="256"><path d="M190.55 20.07h-28.5V4.86a4.87 4.87 0 0 0-9.73 0v15.21h-17.63V4.86a4.87 4.87 0 0 0-9.73 0v15.21h-19.41V4.86a4.87 4.87 0 0 0-9.73 0v15.21H77.55V4.86a4.87 4.87 0 0 0-9.73 0v15.21H48.95V4.86a4.87 4.87 0 0 0-9.73 0v15.21H12.55A12.62 12.62 0 0 0 0 32.65v210.77A12.62 12.62 0 0 0 12.55 256h178a12.62 12.62 0 0 0 12.58-12.58V32.65a12.62 12.62 0 0 0-12.58-12.58z" fill="#b3b3b3"/><path d="M129.55 123.44a28 28 0 1 0-28 28 28 28 0 0 0 28-28zm-28 24.32a24.32 24.32 0 1 1 24.32-24.32 24.35 24.35 0 0 1-24.32 24.32z"/><circle cx="25.54" cy="230.46" r="8.51"/><path d="M147.13 195.32a84.9 84.9 0 1 0-22.74 10.13c9.92 14.74 21.6 29.71 24.66 32.94a15.87 15.87 0 0 0 23-21.84c-2.57-2.72-13.15-11.99-24.92-21.23zm-45.58 9.6a81.54 81.54 0 1 1 42.5-12c-14.9-11.48-30.71-22-34.11-18.81-2.9 2.75 3.71 15 12.32 28.13a81.25 81.25 0 0 1-20.71 2.68z"/></svg>