<svg version="1.1" id="Layer_1" xmlns="http://www.w3.org/2000/svg" x="0" y="0" viewBox="0 0 20.4 20.4" xml:space="preserve"><style>.st0{fill:#df1b26}</style><path class="st0" d="M19.9 20.5c.3-.1.6-.3.6-.7V7.6c-.4 3.8-2.3 8.3-5.4 12.9h4.8zM19.9 0h-2.2c.3.2.5.4.8.6 1.2 1.1 1.8 2.6 2 4.3V.6c-.1-.4-.3-.6-.6-.6zM.6 0C.2 0 0 .2 0 .6v4.3C2.8 2.6 5.7 1 8.3 0H.6zM15.9 3.3c-1-.9-2.4-1.4-4.1-1.4C8.6 1.9 4.4 3.6.4 6.7l-.4.2v13c0 .3.2.6.6.6h12.5c3-4.5 4.6-8.9 4.6-12.3 0-2.1-.6-3.8-1.8-4.9zM7.1 16.4L5 18.5c-.3.3-.8.3-1.1 0l-2.1-2.1c-.3-.3-.3-.8 0-1.1L4 13.2c.3-.3.8-.3 1.1 0l2.1 2.1c.2.3.2.8-.1 1.1z"/></svg>