<svg version="1.1" id="Layer_1" xmlns="http://www.w3.org/2000/svg" x="0" y="0" viewBox="0 0 38 15.2" xml:space="preserve"><style>.st0{fill:#df1b26}</style><path class="st0" d="M37.6 4.6c-.4-.3-1.1-.3-1.4.2-4.2 5.3-10.4 8.4-17.2 8.4S6 10.1 1.8 4.8c-.3-.4-1-.5-1.4-.2-.5.4-.5 1-.2 1.4 4.6 5.8 11.4 9.2 18.8 9.2S33.2 11.8 37.8 6c.3-.4.3-1-.2-1.4z"/><path class="st0" d="M19 6.4c3.8 0 7.4-1.7 9.8-4.8.3-.4.3-1.1-.2-1.4s-1.1-.3-1.4.2c-2 2.6-5 4-8.2 4s-6.2-1.5-8.2-4c-.3-.4-1-.5-1.4-.2-.4.3-.5 1-.2 1.4 2.4 3.1 6 4.8 9.8 4.8z"/></svg>