<svg version="1.1" id="Layer_1" xmlns="http://www.w3.org/2000/svg" x="0" y="0" viewBox="0 0 44 18.7" xml:space="preserve"><style>.st0{fill:#df1b26}</style><path class="st0" d="M43.2 5.3c-.9-.7-2.1-.6-2.8.3-4.5 5.7-11.2 9-18.4 9s-13.9-3.3-18.4-9c-.7-.8-1.9-1-2.8-.3C-.1 6-.3 7.2.4 8.2 5.7 14.9 13.5 18.7 22 18.7s16.3-3.9 21.5-10.6c.7-.9.6-2.1-.3-2.8z"/><path class="st0" d="M22 8.9c4.5 0 8.8-2.1 11.4-5.7.7-.9.6-2.1-.3-2.8-.9-.7-2.1-.6-2.8.3-2 2.6-5.1 4.1-8.4 4.1-3.3 0-6.4-1.5-8.4-4.1-.7-.8-1.9-1-2.8-.3-.8.7-1 1.9-.3 2.8 2.8 3.6 7.1 5.7 11.6 5.7z"/></svg>