<svg version="1.1" id="Layer_1" xmlns="http://www.w3.org/2000/svg" x="0" y="0" viewBox="0 0 30.8 30.8" xml:space="preserve"><style>.st0{fill:#df1b26}</style><path class="st0" d="M.8 0C.4 0 0 .4 0 .8v6.4C4.3 4 8.6 1.5 12.6 0H.8zM30 30.8c.5 0 .8-.4.8-.8V11.4c-.6 5.7-3.4 12.5-8.1 19.4H30zM24 5c-1.6-1.4-3.6-2.1-6.2-2.1C13 2.8 6.7 5.4.5 10.1l-.5.3V30c0 .5.4.8.8.8h18.9c4.6-6.6 7-13.3 7-18.5 0-3.2-.9-5.7-2.7-7.3zM10.8 24.7l-3.1 3.1c-.5.4-1.2.4-1.6 0L3 24.7c-.5-.5-.5-1.2 0-1.6l3-3.2c.5-.5 1.2-.5 1.6 0l3.1 3.1c.5.5.5 1.2.1 1.7zM30 0h-3.4c.4.3.8.5 1.1.9 1.8 1.6 2.8 3.9 3.1 6.5V.8c0-.4-.4-.8-.8-.8z"/></svg>