<svg version="1.1" id="Layer_1" xmlns="http://www.w3.org/2000/svg" x="0" y="0" viewBox="0 0 59 25.4" xml:space="preserve"><style>.st0{fill:#df1b26}</style><path class="st0" d="M57.8 7.1c-1.3-1-3.2-.8-4.2.5-5.8 7.5-14.7 11.8-24.1 11.8S11.3 15.1 5.4 7.6c-1-1.3-2.9-1.5-4.2-.5C.4 7.7 0 8.6 0 9.5c0 .6.2 1.3.6 1.8 7.1 9 17.4 14.1 28.8 14.1 11.4 0 21.9-5.1 28.9-14.1 1-1.3.8-3.2-.5-4.2z"/><path class="st0" d="M29.5 12.4c6.1 0 11.8-2.8 15.6-7.6 1-1.3.8-3.2-.5-4.2s-3.2-.8-4.2.5c-2.7 3.4-6.6 5.3-10.9 5.3s-8.3-1.9-10.9-5.3c-1-1.3-2.9-1.5-4.2-.5-.8.6-1.2 1.5-1.2 2.4 0 .6.3 1.3.7 1.8 3.8 4.9 9.5 7.6 15.6 7.6z"/></svg>