<svg version="1.1" id="Layer_1" xmlns="http://www.w3.org/2000/svg" x="0" y="0" viewBox="0 0 35.2 35.2" xml:space="preserve"><style>.st0{fill:#df1b26}</style><path class="st0" d="M1 0C.4 0 0 .4 0 .9v7.4C4.9 4.5 9.8 1.7 14.4 0H1zM35.1 8.4V.9c.1-.5-.3-.9-.9-.9h-3.9c.5.3.9.6 1.3 1 2 1.9 3.1 4.4 3.5 7.4zM27.4 5.6c-1.8-1.6-4.2-2.4-7.1-2.4-5.5 0-12.7 2.9-19.7 8.3l-.6.4v22.3c0 .5.4.9 1 .9h21.6c5.1-7.5 7.9-15.1 7.9-21.1 0-3.6-1-6.5-3.1-8.4zM12.3 28.2l-3.6 3.6c-.5.5-1.4.5-1.9 0l-3.6-3.6c-.5-.5-.5-1.4 0-1.9l3.6-3.6c.5-.5 1.4-.5 1.9 0l3.6 3.6c.5.5.5 1.4 0 1.9zM25.9 35.2h8.3c.5 0 1-.4 1-.9V13.1c-.7 6.5-3.9 14.3-9.3 22.1z"/></svg>