<svg data-name="Layer 1" xmlns="http://www.w3.org/2000/svg" width="211.76" height="254"><g fill="#8cc63f"><path d="M14.64 176.28A14.65 14.65 0 0 1 0 161.64V97.43a14.65 14.65 0 0 1 29.29 0v64.21a14.65 14.65 0 0 1-14.65 14.64zM197.12 177.41a14.65 14.65 0 0 1-14.65-14.65v-64.2a14.65 14.65 0 0 1 29.29 0v64.2a14.65 14.65 0 0 1-14.64 14.65zM170.67 82.79H41.09a5.07 5.07 0 0 0-5.05 5v109.3a5.07 5.07 0 0 0 5.05 5.05h24.24v37.17a14.65 14.65 0 0 0 29.29 0v-37.12h22.52v37.17a14.65 14.65 0 0 0 29.29 0v-37.17h24.24a5.07 5.07 0 0 0 5.05-5.05V87.84a5.07 5.07 0 0 0-5.05-5.05zM140.88 24.31L152.05 6a3.943 3.943 0 1 0-6.73-4.11l-11.44 18.75a68.24 68.24 0 0 0-56 0L66.44 1.89A3.943 3.943 0 1 0 59.71 6l11.17 18.31a68.13 68.13 0 0 0-32.85 52.28h135.7a68.13 68.13 0 0 0-32.85-52.28zm-66 29.76a6.76 6.76 0 1 1 6.76-6.76 6.76 6.76 0 0 1-6.76 6.76zm63.08 0a6.76 6.76 0 1 1 6.76-6.76 6.76 6.76 0 0 1-6.74 6.76z"/></g></svg>