<svg xmlns="http://www.w3.org/2000/svg" viewBox="0 0 45.2 45.2"><path d="M45.1 17.5l-.9-2.9c-.4-1.5-2-2.3-3.4-1.9l-9.5 2.8L36 6.8c.7-1.3.2-3-1.1-3.7l-2.7-1.4c-1.3-.7-3-.2-3.7 1.1l-4.7 8.7L20.9 2c-.4-1.5-2-2.3-3.4-1.9l-2.9.9c-1.5.4-2.3 2-1.9 3.4l2.8 9.5-8.7-4.7c-1.3-.7-3-.2-3.7 1.1L1.6 13c-.7 1.3-.2 3 1.1 3.7l8.7 4.7L2 24.3c-1.5.4-2.3 2-1.9 3.4l.9 2.9c.4 1.5 2 2.3 3.4 1.9l9.5-2.8-4.7 8.7c-.7 1.3-.2 3 1.1 3.7l2.7 1.4c1.3.7 3 .2 3.7-1.1l4.7-8.7 2.8 9.5c.4 1.5 2 2.3 3.4 1.9l2.9-.9c1.5-.4 2.3-2 1.9-3.4l-2.8-9.5 8.7 4.7c1.3.7 3 .2 3.7-1.1l1.4-2.7c.7-1.3.2-3-1.1-3.7l-8.7-4.7 9.5-2.8c1.6-.5 2.4-2.1 2-3.5z" fill="#d4145a"/></svg>