<svg version="1.1" id="Layer_1" xmlns="http://www.w3.org/2000/svg" x="0" y="0" viewBox="0 0 23 23" xml:space="preserve"><style>.st0{fill:#fcee21}</style><circle class="st0" cx="11.5" cy="11.5" r="11.5"/><path class="st0" d="M5.5 15.5c1.3 1.9 3.5 3.2 6 3.2s4.7-1.3 6-3.2"/><path d="M18 14.8c-.4-.3-.9-.2-1.2.2-1.2 1.8-3.2 2.8-5.3 2.8s-4.1-1-5.3-2.8c-.3-.4-.8-.5-1.2-.2-.4.3-.5.8-.2 1.2 1.5 2.2 4 3.5 6.7 3.5s5.2-1.3 6.7-3.5c.3-.4.2-.9-.2-1.2z"/><circle cx="7.7" cy="9.1" r="2.1"/><g><circle cx="15.4" cy="9.1" r="2.1"/></g></svg>