<svg data-name="Layer 1" xmlns="http://www.w3.org/2000/svg" width="254" height="227.52"><path d="M254 114.3C254 56.62 195.8 0 127.68 0S0 56.62 0 114.3c0 41.33 30.22 70.31 72.42 83.46v7.9c0 4.33 2.16 15.67 17.29 18.92s19.46-2.7 19.46-2.7a30.06 30.06 0 0 0 17.56 5.67c10.54 0 14.59-5.4 14.59-5.4s3 3.51 16.48 3 20-12.43 20-18.38v-7.91C222 186.32 254 156.85 254 114.3z" fill="#fff"/><path d="M112.41 169.96c0-5.67 6.41-20.53 14.32-20.53s14.32 14.86 14.32 20.53-6.41 10.27-14.32 10.27-14.32-4.59-14.32-10.27z"/><ellipse cx="73.5" cy="106.46" rx="34.59" ry="39.99"/><ellipse cx="178.34" cy="106.46" rx="34.59" ry="39.99"/></svg>