<svg xmlns="http://www.w3.org/2000/svg" viewBox="0 0 33 29.7"><path d="M29.7 11.5c-2.7 0-2.3 3-6.3.2-1.6-1.4 1.8-2.3 2.2-2.7.8-.8.8-2.1 0-2.9-.8-.8-2.1-.8-2.9 0-1.3 1.1-.4 4.9-2.9 3.5-1.8-1-1-3.9-.6-4.4.4-.5.6-1.2.6-1.8 0-1.8-1.5-3.3-3.3-3.3s-3.3 1.5-3.3 3.3c0 .6.1 1.1.4 1.6v.2c1.9 2 .6 4.2-.5 4.5-1.1.3-1.6-1.4-1.5-1.8.1-.6-.1-1.2-.6-1.7-.8-.8-2.1-.8-2.9 0-.7.7-.7 2 .1 2.8.3.4.8.6 1.3.6.7 0 1.2 1.2.1 2.1-3.1 2.5-4.8-.1-6.3-.1C1.5 11.5 0 13 0 14.9s1.5 3.3 3.3 3.3c2.5 0 6.8-3.5 7.4.8.2 1.3-1.8 1-2.6 1.7-.8.8-.8 2.1 0 2.9.8.8 2.1.8 2.9 0 1.4-1.4 0-3.7 2.1-3.5 3.8.5 0 3.9 0 6.3 0 1.8 1.5 3.3 3.3 3.3 1.8 0 3.3-1.5 3.3-3.3s-2.7-5.5 0-6.3c1.9-.3 2.3 1 2.3 1.7-.1.6.1 1.3.6 1.7.8.8 2.1.8 2.9 0s.8-2.1 0-2.9c-.3-.3-.8-.5-1.2-.6-.6-.1-1.2-.9-1.2-1.5 0-3.7 3.9-.4 6.6-.4 1.8 0 3.3-1.5 3.3-3.3 0-1.8-1.5-3.3-3.3-3.3zm-10.4 8.7c-.1 0-.3 0-.3.1.1-.1.2-.1.3-.1zm.3-.1h0z" fill="#f15a24"/></svg>