<svg data-name="Layer 1" xmlns="http://www.w3.org/2000/svg" width="254" height="228.6"><path d="M228.6 88.9c-20.41 0-17.55 22.76-48.26 1.27-12.64-10.41 13.74-17.32 17.19-20.77a15.87 15.87 0 0 0 0-22.45c-6.2-6.2-15.88-5.8-22.45 0-9.84 8.68-2.88 37.72-22.54 26.64-14.21-8-7.75-29.83-4.48-33.92v-.08a25.4 25.4 0 1 0-43.36-2l.32.5c.1.18.19.35.3.52 14.52 15.38 4.68 32.69-3.86 34.98S89.4 62.53 89.82 59.96a15.88 15.88 0 1 0-17 14h.36c5.26 0 8.9 9.15.78 15.8-23.68 19.38-37.18-.93-48.59-.93a25.4 25.4 0 1 0 0 50.8c19.59 0 52.31-26.81 57.22 6.32 1.53 10.31-13.91 7.36-19.8 13.18a15.875 15.875 0 0 0 22.45 22.45c10.44-10.68-.19-28.68 16.17-26.63 29.45 3.68.16 29.86.16 48.18a25.4 25.4 0 1 0 50.8 0c0-14.23-21.11-42.05.16-48.18 0 0-14.72 2.41 0 0s18 7.85 18 13.11v.2a15.87 15.87 0 1 0 17.34-13.68H187.04c-5-.51-9.28-6.66-9.28-11.7 0-28.35 30.39-3.17 50.8-3.17a25.4 25.4 0 1 0 0-50.8z" fill="#f15a24"/></svg>