<svg data-name="Layer 1" xmlns="http://www.w3.org/2000/svg" width="156.61" height="254.44"><path d="M93.71 11.62l24.28 24.28 16.19 40.47v40.47l-8.09 32.38-24.29 8.09H85.62l-24.28-48.56-8.1-32.38 8.1-40.47 32.37-24.28z"/><path d="M4.83 252.7c.12-.39 12.39-39.38 29.13-58.5 9.95-11.38 12.88-40.41 13.49-64.28 4.46 15.31 11.4 28.17 19.93 37.06a1.65 1.65 0 0 0 .14.26 38.76 38.76 0 0 1 6.57 27.45c-1.13 7.92-6.94 10.26-14.3 13.23-6.44 2.59-13.73 5.52-17.56 13.17-2.64 5.29-3.55 9.51-3.55 12.82 0 7.05 4.14 9.92 4.39 10.09a2.44 2.44 0 0 0 3.37-.65 2.49 2.49 0 0 0-.58-3.42c-.23-.17-5.43-4.19.79-16.63 3-6 8.81-8.32 15-10.8 7.41-3 15.82-6.37 17.35-17.11a43.1 43.1 0 0 0-2.07-20.59 34.21 34.21 0 0 0 18 5.42c2.39 3.8 10.27 17.78 6.37 31.42-4.7 16.47-26.32 38.37-26.53 38.59a2.47 2.47 0 0 0 3.5 3.48c.93-.93 22.73-23 27.78-40.71 3.91-13.69-2.15-27.1-5.63-33.23 7.94-1.37 15.37-5.73 21.89-12.39 4.76 5.45 9.89 13.32 8.65 17a32.47 32.47 0 0 1-3.76 6.76c-3.59 5.48-8.07 12.31-6.19 21.67a2.471 2.471 0 0 0 4.84-1c-1.48-7.38 2.06-12.78 5.48-18a35 35 0 0 0 4.31-7.89c2.41-7.24-6.33-18.11-10-22.27 9-10.86 16-26.39 19.64-44.52 3.6 9 8.55 26.71 5.33 50.87-4.84 36.35-20.1 80.69-20.25 81.13a2.56 2.56 0 0 0-.14.81 2.47 2.47 0 0 0 4.81.81c.15-.45 15.57-45.25 20.48-82.1 4.56-34.26-6.42-55.93-8.78-60.12a150.76 150.76 0 0 0 1.39-20.45C148.13 40.43 124.31 0 95.05 0S41.97 40.43 41.97 90.11c0 1.36 0 2.71.06 4.06a2.84 2.84 0 0 0 0 .42c0 .77 4.68 77.59-11.74 96.36C12.82 210.86.63 249.59.12 251.22a2.43 2.43 0 0 0-.12.74 2.47 2.47 0 0 0 4.83.73zM66.66 51.85a22.22 22.22 0 1 1 22.22 22.22 22.22 22.22 0 0 1-22.22-22.22zm7.41 54.31a11.11 11.11 0 1 1 11.11 11.11 11.11 11.11 0 0 1-11.11-11.11zm34.56 17.28a12.35 12.35 0 1 1-12.32 12.35 12.35 12.35 0 0 1 12.32-12.35z" fill="#39b54a"/></svg>