<svg xmlns="http://www.w3.org/2000/svg" viewBox="0 0 19.3 31.4"><path d="M11.6 1.4l3 3 2 5v5l-1 4-3 1h-2l-3-6-1-4 1-5z"/><path d="M.6 31.2s1.5-4.9 3.6-7.2c1.2-1.4 1.6-5 1.7-7.9.6 1.9 1.4 3.5 2.5 4.6 0 0 1.1 1.4.8 3.4-.1 1-.9 1.3-1.8 1.6-.8.3-1.7.7-2.2 1.6-.3.7-.4 1.2-.4 1.6 0 .9.5 1.2.5 1.2.1.1.3.1.4-.1.1-.1.1-.3-.1-.4 0 0-.7-.5.1-2.1.4-.7 1.1-1 1.9-1.3.9-.4 2-.8 2.1-2.1.1-1 0-1.9-.3-2.5.7.4 1.4.7 2.2.7.3.5 1.3 2.2.8 3.9-.6 2-3.3 4.7-3.3 4.8-.1.1-.1.1-.1.2s0 .2.1.2c.1.1.3.1.4 0 .1-.1 2.8-2.8 3.4-5 .5-1.7-.3-3.3-.7-4.1 1-.2 1.9-.7 2.7-1.5.6.7 1.2 1.6 1.1 2.1-.1.3-.3.5-.5.8-.4.7-1 1.5-.8 2.7 0 .2.2.3.4.2.2 0 .3-.2.2-.4-.2-.9.3-1.6.7-2.2.2-.3.4-.6.5-1 .3-.9-.8-2.2-1.2-2.8 1.1-1.3 2-3.3 2.4-5.5.4 1.1 1.1 3.3.7 6.3-.6 4.5-2.5 10-2.5 10v.1c0 .1.1.2.2.3.2.1.3 0 .4-.2 0-.1 1.9-5.6 2.5-10.1.6-4.2-.8-6.9-1.1-7.4.1-.8.2-1.7.2-2.5C18.3 5 15.4 0 11.7 0S5.2 5 5.2 11.1v.6c0 .1.6 9.6-1.5 11.9C1.6 26.1.1 30.8 0 31v.1c0 .1.1.3.2.3.2.1.3 0 .4-.2zM8.2 6.4c0-1.5 1.2-2.7 2.7-2.7s2.7 1.2 2.7 2.7-1.1 2.8-2.6 2.8-2.8-1.3-2.8-2.8zm1 6.7c0-.8.6-1.4 1.4-1.4.8 0 1.4.6 1.4 1.4 0 .8-.6 1.4-1.4 1.4-.8 0-1.4-.6-1.4-1.4zm4.2 2.2c.8 0 1.5.7 1.5 1.5s-.7 1.5-1.5 1.5-1.5-.7-1.5-1.5c0-.9.7-1.5 1.5-1.5z" fill="#39b54a"/></svg>